<?xml version="1.0" encoding="utf-8"?>
<!-- Generator: Adobe Illustrator 19.0.0, SVG Export Plug-In . SVG Version: 6.00 Build 0)  -->
<svg version="1.1" id="Layer_1" xmlns="http://www.w3.org/2000/svg" xmlns:xlink="http://www.w3.org/1999/xlink" x="0px" y="0px"
	 viewBox="0 0 500 500" style="enable-background:new 0 0 500 500;" xml:space="preserve">
<style type="text/css">
	.st0{fill:#99999A;}
	.st1{fill:#FFFFFF;}
	.st2{fill:#ED1C24;}
	.st3{fill:#0066B3;}
	.st4{fill:#F57E25;}
</style>
<g id="XMLID_1_">
	<path id="XMLID_3_" class="st0" d="M245.8,141.6c3.2,0,6.5,0.2,9.4,0.7l7.2-7.7c-5-1.7-10.7-2.7-16.9-2.7c-10.2,0-19.6,3-26.6,7.5
		l6.5,6C231.4,143.1,238.3,141.6,245.8,141.6z"/>
	<path id="XMLID_4_" class="st1" d="M245.8,132.1c6,0,11.7,1,16.9,2.7l8-8.2c-7.5-3-15.9-4.5-24.9-4.5c-13.4,0-25.6,3.7-34.8,9.7
		l8.2,8C226.1,135.1,235.3,132.1,245.8,132.1z"/>
	<path id="XMLID_5_" class="st0" d="M207.7,164.5c0.7-2.7,2-5.2,3.5-7.7l-3.2-3.2c-0.7,2-1,4-1,6.2C207,161.2,207.2,163,207.7,164.5
		z"/>
	<path id="XMLID_6_" class="st0" d="M184.1,182.1l-1.2,7l13.4-5.7c-0.7-1.7-1-4-1.5-6L184.1,182.1z"/>
	<polygon id="XMLID_7_" class="st0" points="174.7,106.8 155.5,212.2 164.7,213 183.6,106 	"/>
	<path id="XMLID_8_" class="st2" d="M239.6,167.5V159l-13.9-13.2l-6.5-6.2l-8.2-7.7L183.6,106L164.5,213l40.3-17.7
		c-4-3.5-7-7.5-9-11.7l-12.9,5.5l1.2-7l8.5-44.5l0.7-3.7l7,7l9,9.2l4,4l15.9,13.7l-15.4,7.2c4,4,8.7,7.5,15.2,9.4l19.4-8.7
		L239.6,167.5z"/>
	<path id="XMLID_9_" class="st0" d="M283.6,164.5c0.5-1.5,0.5-3.2,0.5-4.7c0-4.7-1.7-9.2-4.7-13.2l-4.5,4.7
		C279.3,155,282.6,159.5,283.6,164.5z"/>
	<path id="XMLID_10_" class="st0" d="M292.3,209.5L281.3,199c-1.7,1.2-3.5,2.2-5.5,3.2l16.4,15.7l50.7-52.7v-8.5L292.3,209.5z"/>
	<path id="XMLID_11_" class="st0" d="M255.5,174.2l-9-8.7l-7-6.5v8.5l9.7,9.2l9.2,9c2.2-0.5,4.5-1.2,6.7-2.2L255.5,174.2z"/>
	<polygon id="XMLID_12_" class="st0" points="290.5,126.4 283.3,133.9 275.4,142.1 269.9,147.8 259.7,158.5 263.9,162.7 
		274.9,151.3 279.6,146.6 288,137.9 290.5,134.9 318.4,161.7 322.9,157.3 	"/>
	<path id="XMLID_13_" class="st1" d="M288,137.9l-8.5,8.7c3,4,4.7,8.5,4.7,13.2c0,1.5-0.2,3.2-0.5,4.7c-1,4-3.2,7.7-6.2,10.9
		c-3.2,3.2-7.5,6-12.2,8.2c-2,1-4.2,1.5-6.7,2.2c-4,1-8.2,1.5-12.7,1.5c-5.5,0-10.7-0.7-15.4-2.2c-6.5-2-11.9-5.2-15.9-9.2
		c-1.5-1.5-2.7-3-3.7-4.7c-1.2-2-2.2-4.2-2.7-6.5c-0.5-1.5-0.5-3.2-0.5-4.7c0-2.2,0.2-4.2,1-6.2l-9.7-9.7
		c-3.5,5.2-5.5,11.2-5.5,17.4c0,1.5,0.2,3.2,0.5,4.7c0.5,3.7,2,7.5,4,10.7c1,1.7,2.2,3.2,3.5,5c3.5,4,7.7,7.7,12.9,10.7
		c9,5,19.9,8,32.1,8c8.5,0,16.4-1.5,23.6-4c2.2-0.7,4.2-1.7,6.2-2.7c4.5-2.2,8.7-5.2,11.9-8.5c5.7-5.5,9.4-11.9,10.7-19.1
		c0.2-1.5,0.5-3.2,0.5-4.7C298.5,152.3,294.5,144.3,288,137.9z"/>
	<path id="XMLID_14_" class="st3" d="M255.2,174.2l9.7,9.2c5-2,9.2-4.7,12.4-8l-13.2-12.7l-4.2-4.2l10.2-10.7l5.5-5.7l8-8.2l7.2-7.5
		l32.1,30.8l-4.2,4.5l-26.4,27.4c-2.7,3.7-6.5,7.2-10.7,10.2l10.7,10.4l50.7-53L290.3,106l-19.9,20.6l-8,8.2l-7.2,7.7L239.6,159
		L255.2,174.2z"/>
	<path id="XMLID_15_" class="st0" d="M210.7,171.2l0.2,0.5c0.7,1.2,1.7,2.2,2.7,3.5l15.7-7.2l-36.1-33.8l-1,5.2l28.3,28.1
		L210.7,171.2z"/>
	<path id="XMLID_16_" class="st0" d="M298.5,161.2c0,1.5-0.2,3.2-0.5,4.7c-1.2,7.2-5,13.7-10.7,19.1c-3.5,3.2-7.5,6-11.9,8.5
		c-2,1-4,2-6.2,2.7c-7,2.7-15.2,4-23.6,4c-12.2,0-23.1-3-32.1-8c-5.2-3-9.4-6.5-12.9-10.7c-1.2-1.5-2.5-3.2-3.5-5
		c-2-3.5-3.2-7-4-10.7c-0.2-1.5-0.5-3.2-0.5-4.7c0-0.5,0-1,0-1.5c-0.2,1.5,0,9.4,0,11.2c0,2.5,0.2,5,1,7.5c0.5,2,1.2,3.7,2,5.5
		c2.2,4.5,5.2,8.5,9.2,12.2c9.7,8.5,24.1,13.9,40.5,13.9c11.2,0,21.6-2.7,30.3-7c2-1,3.7-2.2,5.5-3.2c4.2-3,8-6.2,10.7-10.2
		c4-5.5,6.2-11.7,6.2-18.4c0-1.5,0-8.2,0-10.7C298.5,159.5,298.5,160.7,298.5,161.2z"/>
	<polygon id="XMLID_17_" class="st4" points="197.3,299.7 183.9,299.7 183.9,335 171.9,335 171.9,299.7 158.5,299.7 158.5,289.5 
		197.3,289.5 	"/>
	<polygon id="XMLID_18_" class="st4" points="198.5,289.5 234.6,289.5 234.6,299 210.2,299 210.2,306.9 232.3,306.9 232.3,316.1 
		210.2,316.1 210.2,324.8 235.1,324.8 235.1,335 198.5,335 	"/>
	<path id="XMLID_19_" class="st4" d="M268.4,305.7c-0.7-4.5-4.2-7-9.2-7c-7.7,0-10.4,6.7-10.4,13.4c0,6.7,3,13.4,10.4,13.4
		c5.5,0,8.7-3.2,9.2-8.5h11.9c-0.7,11.7-9.2,18.6-20.6,18.6c-13.7,0-22.6-10.4-22.6-23.6s9-23.6,22.6-23.6c9.7,0,20.4,6.2,20.6,17.2
		H268.4z"/>
	<polygon id="XMLID_20_" class="st4" points="282.6,289.5 294.5,289.5 294.5,305.9 310.2,305.9 310.2,289.5 322.1,289.5 
		322.1,334.8 310.2,334.8 310.2,316.1 294.5,316.1 294.5,334.8 282.6,334.8 	"/>
	<path id="XMLID_21_" class="st4" d="M98.8,363.6c-0.7-4.5-4.2-7-9.2-7c-7.7,0-10.4,6.7-10.4,13.4c0,6.7,3,13.4,10.4,13.4
		c5.5,0,8.7-3.2,9.2-8.5h11.9c-0.7,11.7-9.2,18.6-20.6,18.6c-13.7,0-22.6-10.4-22.6-23.6c0-13.2,9-23.6,22.6-23.6
		c9.7,0,20.4,6.2,20.6,17.2H98.8z"/>
	<polygon id="XMLID_22_" class="st4" points="113,347.5 124.9,347.5 124.9,363.9 140.6,363.9 140.6,347.5 152.5,347.5 152.5,393 
		140.6,393 140.6,374.3 124.9,374.3 124.9,393 113,393 	"/>
	<path id="XMLID_25_" class="st4" d="M168.7,347.5h11.9l16.9,45.3h-12.4l-2.7-8.2h-15.9l-3,8.2h-12.2L168.7,347.5z M169.4,376.1
		h10.2l-5-15.9h-0.2L169.4,376.1z"/>
	<polygon id="XMLID_26_" class="st4" points="197.3,347.5 209.2,347.5 209.2,382.8 230.4,382.8 230.4,393 197.3,393 	"/>
	<polygon id="XMLID_27_" class="st4" points="232.3,347.5 244.3,347.5 244.3,382.8 265.4,382.8 265.4,393 232.3,393 	"/>
	<polygon id="XMLID_28_" class="st4" points="267.4,347.5 303.5,347.5 303.5,356.9 279.1,356.9 279.1,364.9 301.2,364.9 
		301.2,374.1 279.1,374.1 279.1,382.8 304,382.8 304,393 267.2,393 267.2,347.5 	"/>
	<polygon id="XMLID_29_" class="st4" points="306.9,347.5 319.1,347.5 334.8,375.3 335,375.3 335,347.5 346.2,347.5 346.2,393 
		334,393 318.4,364.6 318.1,364.6 318.1,393 306.9,393 	"/>
	<path id="XMLID_30_" class="st4" d="M392.2,393h-7.7l-0.7-5c-3.2,4.5-8.5,6-12.7,6c-13.7,0-22.6-10.4-22.6-23.6s9-23.6,22.6-23.6
		c9.4,0,19.4,5,20.6,16.4h-11.9c-0.5-4-4.2-6.2-9-6.2c-7.7,0-10.4,6.7-10.4,13.4c0,6.7,3,13.4,10.4,13.4c5.7,0,9.7-2.7,10.4-7h-8.2
		v-8.7h19.1L392.2,393L392.2,393z"/>
	<polygon id="XMLID_31_" class="st4" points="396,347.5 432,347.5 432,356.9 407.6,356.9 407.6,364.9 429.8,364.9 429.8,374.1 
		407.6,374.1 407.6,382.8 432.5,382.8 432.5,393 395.7,393 395.7,347.5 	"/>
	<polygon id="XMLID_32_" points="157,225.1 193.3,225.1 189.8,239.1 172.4,239.1 170.7,246.5 188.8,246.5 185.6,259.4 167.7,259.4 
		163.5,277.8 144.8,277.8 	"/>
	<polygon id="XMLID_33_" points="198.3,225.1 216.9,225.1 204.7,277.8 186.1,277.8 	"/>
	<path id="XMLID_36_" d="M221.9,225.4l1.2-0.2c6-0.7,13.4-1.2,17.7-1.2c7,0,12.2,0.7,16.2,2.5c5.2,2.2,8.2,6.7,8.2,12.4
		c0,4.7-1.7,9.4-4.7,12.9c-2.7,3-5,4.5-9.9,6l-1.2,0.5c0.5,0.5,0.7,0.5,1,0.7c1.5,1.7,6,10.2,9.4,18.6h-20.6
		c-2.7-7.5-3.5-9.4-7-17.9l-4.2,17.9h-18.2L221.9,225.4z M235.8,250.2c6,0,10.2-3.5,10.2-8.7c0-2.7-2-4-6-4c-1,0-1.7,0-3,0.2
		l-2.7,12.2C235.1,250,235.1,250.2,235.8,250.2z"/>
	<polygon id="XMLID_37_" points="309.7,225.1 355.2,225.1 351.9,240.3 338.5,240.3 329.6,277.6 310.9,277.6 319.9,240.3 
		305.2,240.3 	"/>
	<path id="XMLID_42_" d="M338.3,268.4c2.5,0,4.5,2,4.5,4.5c0,2.5-2,4.5-4.5,4.5c-2.5,0-4.5-2-4.5-4.5
		C333.8,270.4,335.8,268.4,338.3,268.4z M338.3,276.9c2.2,0,4-1.7,4-4c0-2.2-1.7-4-4-4c-2.2,0-4,1.7-4,4
		C334.3,275.1,336,276.9,338.3,276.9z M336.5,270.6c0.2,0,0.2,0,0.7,0c0.5,0,0.7,0,0.7,0c1.5,0,2.2,0.5,2.2,1.7c0,0.7-0.2,1-1,1.2
		c0.2,0.2,0.7,1,1.2,1.7h-1.7c-0.2-0.7-0.5-0.7-1-1.5v1.5h-1.5v-4.7H336.5z M338.3,272.6c0.5,0,0.7-0.2,0.7-0.5
		c0-0.2-0.2-0.5-0.5-0.5c0,0,0,0-0.2,0V272.6C338,272.6,338.3,272.6,338.3,272.6z"/>
	<path id="XMLID_43_" d="M261.7,276.4c5.2,1.5,10.9,2.5,16.4,2.5c7.2,0,12.9-1.7,17.7-5.2c5.2-3.7,8.7-9.7,8.7-14.9
		c0-3.5-1.5-6.7-4.2-9.2c-2.2-1.7-4.5-3-9-5.2l-3.7-1.7c-1.2-0.7-1.7-1.2-1.7-2c0-2,2.5-3.2,5.7-3.2c2.5,0,5.5,0.7,10.9,2.5
		l3.7-14.2c-4.2-1.2-8.2-1.7-12.2-1.7c-15.4,0-27.1,8.5-27.1,19.1c0,5.7,3.7,9.7,13.2,14.2c4.5,2,5.2,2.5,5.2,4
		c0,2.2-2.2,3.5-6.2,3.5c-3.2,0-7.7-1-13.4-3.2L261.7,276.4z"/>
</g>
</svg>
