<?xml version="1.0" encoding="utf-8"?>
<!-- Generator: Adobe Illustrator 22.1.0, SVG Export Plug-In . SVG Version: 6.00 Build 0)  -->
<svg version="1.1" id="Logo" xmlns="http://www.w3.org/2000/svg" xmlns:xlink="http://www.w3.org/1999/xlink" x="0px" y="0px"
	 viewBox="0 0 600 254.3" style="enable-background:new 0 0 600 254.3;" xml:space="preserve">
<style type="text/css">
	.st0{fill:#00384F;}
</style>
<path id="LOGO" class="st0" d="M286.7,203.6H50V50.7h236.7V203.6z M134.5,115c4.8,4.6,9.4,8.1,11.6,9.6c4.6-6,19.1-23.6,19.8-24.4
	l1.1-1.3l22,23.7l0.4,0.3l9-8.7l-16.2-20.6L167,77.1l-7.4,7.4L134.5,115z M167,126.8l-9.6,10.3c2,1.9,6.4,6.6,9.5,9.1
	c2-1.8,6.6-6.7,9.3-9.8L167,126.8z M161.1,167.1l-37.3-36.9l-32.5,37.2l10.9,9.1l21.5-23.7l26.3,24.5L161.1,167.1z M233.9,176.6
	c2-1.4,6.9-4.9,11.5-8.5c-2.6-3.1-9.9-11.8-15.3-17.5c-4-4.2-15.6-17-19.1-20.9c-9.2,8.6-31.8,31.3-37.7,36.8
	c3.2,3.7,7.6,8.5,9.6,10.7c6.8-6.3,25.1-25.4,25.3-25.6l1.1-1c0,0,5.9,6.3,8,8.5C224.2,166.5,228.4,171.1,233.9,176.6"/>
<path id="SCOUTS_GUIDES" class="st0" d="M311.6,85.1l8.7-5.1c1.6,3.7,4.3,6.1,9.3,6.1c4.8,0,6-1.9,6-3.6c0-2.7-2.5-3.8-9.2-5.6
	c-6.6-1.8-13-5-13-13.5c0-8.5,7.2-13.5,14.8-13.5c7.3,0,13,3.5,16.2,10l-8.5,5c-1.5-3.2-3.6-5.1-7.6-5.1c-3.2,0-4.7,1.6-4.7,3.3
	c0,2,1.1,3.4,8,5.5c6.7,2,14.2,4.4,14.2,13.7c0,8.5-6.8,13.6-16.4,13.6C320,96,314.1,91.6,311.6,85.1 M348.6,73c0,13,9.7,23,23,23
	c8.1,0,15.2-4,19-10.2l-8.7-5.1c-1.9,3.4-5.8,5.4-10.2,5.4c-7.8,0-12.9-5.2-12.9-13.1c0-7.9,5.1-13.1,12.9-13.1
	c4.5,0,8.3,2,10.2,5.4l8.7-5.1c-3.9-6.3-10.9-10.2-19-10.2C358.3,50,348.6,60,348.6,73 M392.8,73c0,13,10.3,23,23,23
	c12.7,0,23-10,23-23c0-13-10.3-23-23-23C403.1,50,392.8,60,392.8,73 M428.7,73c0,7.9-5.7,13.1-12.9,13.1c-7.2,0-12.9-5.2-12.9-13.1
	c0-7.9,5.7-13.1,12.9-13.1C423,59.9,428.7,65.1,428.7,73 M443.8,80.8c0,9.5,7.3,15.2,17.1,15.2c9.7,0,17.1-5.7,17.1-15.2v-30h-10.1
	V80c0,3.3-1.6,6.2-7,6.2c-5.4,0-7-2.8-7-6.2V50.9h-10.1V80.8 M514.9,50.9H482v9.7h11.4v34.5h10.1V60.6h11.4V50.9z M515.8,85.1
	c2.5,6.5,8.4,10.9,17.7,10.9c9.6,0,16.4-5.1,16.4-13.6c0-9.4-7.5-11.7-14.2-13.7c-6.9-2.1-8-3.5-8-5.5c0-1.8,1.6-3.3,4.7-3.3
	c4,0,6.1,2,7.6,5.1l8.5-5c-3.2-6.5-8.9-10-16.2-10c-7.6,0-14.8,4.9-14.8,13.5c0,8.5,6.4,11.6,13,13.5c6.6,1.8,9.2,2.9,9.2,5.6
	c0,1.7-1.2,3.6-6,3.6c-5,0-7.7-2.5-9.3-6.1L515.8,85.1 M357.6,133.5h-22.2v8.8h11.8c-1.6,4.2-5.4,6.8-11.3,6.8
	c-8.6,0-13.9-5.5-13.9-13c0-7.8,5.6-13.3,13-13.3c5,0,9,2.3,10.8,5.2l8.6-4.9c-3.7-5.9-10.9-10.1-19.3-10.1
	c-13,0-23.2,10.2-23.2,23.1c0,12.7,10,22.9,23.9,22.9c12.4,0,21.8-8.2,21.8-21.7V133.5z M366.3,143.8c0,9.5,7.3,15.2,17.1,15.2
	c9.7,0,17.1-5.7,17.1-15.2v-29.9h-10.1v29.1c0,3.3-1.6,6.2-6.9,6.2c-5.4,0-6.9-2.8-6.9-6.2v-29.1h-10.1V143.8 M421.4,113.9h-10.1
	v44.2h10.1V113.9z M471.7,136c0-12.5-9.3-22.1-21.5-22.1h-17.7v44.2h17.7C462.4,158.1,471.7,148.5,471.7,136 M462,136
	c0,7.6-4.8,12.4-11.7,12.4h-7.6v-24.8h7.6C457.2,123.6,462,128.4,462,136 M491.1,148.4v-7.8h15.8v-9.6h-15.8v-7.3h17.4v-9.7H481
	v44.2h27.8v-9.7H491.1z M515.9,148c2.5,6.5,8.4,10.9,17.7,10.9c9.6,0,16.4-5.1,16.4-13.6c0-9.3-7.5-11.7-14.2-13.7
	c-6.9-2.1-8-3.5-8-5.5c0-1.8,1.6-3.3,4.7-3.3c4,0,6.1,2,7.6,5.1l8.5-5c-3.2-6.5-8.9-10-16.2-10c-7.6,0-14.8,4.9-14.8,13.5
	c0,8.5,6.4,11.6,13,13.5c6.6,1.8,9.2,2.9,9.2,5.6c0,1.7-1.2,3.6-6,3.6c-5,0-7.7-2.5-9.3-6.1L515.9,148"/>
<path id="DE_FRANCE" class="st0" d="M336.4,190.2c0,7.5-5.4,13.6-12.9,13.6H313v-27.1h10.6C331.1,176.7,336.4,182.7,336.4,190.2
	 M333,190.2c0-5.7-3.8-10.2-9.4-10.2h-7v20.3h7C329.2,200.4,333,196,333,190.2 M344.4,200.4v-8.6h11.4v-3.4h-11.4v-8.3h12.4v-3.4
	h-16v27.1H357v-3.4H344.4z M386.7,180.1v-3.4h-15.6v27.1h3.6v-11.5h11.5v-3.4h-11.5v-8.8H386.7z M401.1,193.4h-6.4v10.4h-3.6v-27.1
	H402c4.7,0,8.5,3.8,8.5,8.4c0,3.6-2.4,6.7-5.6,7.9l6.4,10.9h-4L401.1,193.4z M394.7,190.2h7.2c2.7,0,4.8-2.3,4.8-5.1
	c0-2.8-2.2-5-4.8-5h-7.2V190.2z M430.5,197.7h-12.2l-2.2,6.1h-3.8l10.1-27.1h4.1l10.1,27.1h-3.8L430.5,197.7z M429.2,194.4
	l-4.9-13.4l-4.8,13.4H429.2z M456.6,176.7v20.2l-14-20.2h-2.9v27.1h3.6v-20.3l14,20.3h2.9v-27.1H456.6z M464.6,190.2
	c0,7.8,5.9,14.1,14.2,14.1c5,0,9.5-2.6,11.7-6.6l-3.1-1.8c-1.6,2.9-4.8,4.9-8.6,4.9c-6.4,0-10.6-4.6-10.6-10.5
	c0-6,4.3-10.6,10.6-10.6c3.7,0,7,1.9,8.6,4.9l3.1-1.8c-2.3-4-6.7-6.6-11.7-6.6C470.5,176.2,464.6,182.4,464.6,190.2 M498.2,200.4
	v-8.6h11.4v-3.4h-11.4v-8.3h12.4v-3.4h-16v27.1h16.2v-3.4H498.2z"/>
<polygon id="Croix_Potencée" class="st0" points="530.1,200.7 530.1,203.8 542.1,203.8 542.1,200.7 537.6,200.7 537.6,191.8 
	546.6,191.8 546.6,196.2 549.7,196.2 549.7,184.2 546.6,184.2 546.6,188.7 537.6,188.7 537.6,179.7 542.1,179.7 542.1,176.6 
	530.1,176.6 530.1,179.7 534.6,179.7 534.6,188.7 525.6,188.7 525.6,184.2 522.6,184.2 522.6,196.2 525.6,196.2 525.6,191.8 
	534.6,191.8 534.6,200.7 "/>
</svg>
