<?xml version="1.0" encoding="UTF-8" standalone="no"?>
<svg
   version="1.1"
   id="svg1"
   width="522.48688"
   height="601.2782"
   viewBox="0 0 522.4869 601.27821"
   sodipodi:docname="borne.svg"
   inkscape:version="1.3 (0e150ed6c4, 2023-07-21)"
   xmlns:inkscape="http://www.inkscape.org/namespaces/inkscape"
   xmlns:sodipodi="http://sodipodi.sourceforge.net/DTD/sodipodi-0.dtd"
   xmlns="http://www.w3.org/2000/svg"
   xmlns:svg="http://www.w3.org/2000/svg">
  <defs
     id="defs1" />
  <sodipodi:namedview
     id="namedview1"
     pagecolor="#000000"
     bordercolor="#000000"
     borderopacity="0.25"
     inkscape:showpageshadow="2"
     inkscape:pageopacity="0.0"
     inkscape:pagecheckerboard="0"
     inkscape:deskcolor="#d1d1d1"
     inkscape:zoom="0.92885456"
     inkscape:cx="205.09131"
     inkscape:cy="504.38467"
     inkscape:window-width="2160"
     inkscape:window-height="1346"
     inkscape:window-x="-11"
     inkscape:window-y="-11"
     inkscape:window-maximized="1"
     inkscape:current-layer="layer1" />
  <g
     inkscape:groupmode="layer"
     id="layer1"
     inkscape:label="Layer 1">
    <g
       id="g716"
       inkscape:label="borne"
       inkscape:export-filename="IT\ICeLAN-website-V2\assets\img\borne.svg"
       inkscape:export-xdpi="96"
       inkscape:export-ydpi="96"
       transform="translate(-300.01647,-528.66356)">
      <path
         id="path2"
         d="m 364.713,727.654 -30.326,11.327 -10.868,54.884 74.73,-6.831 127.569,-47.646 39.193,-38.424 V 677.66 677.661 445.904 L 425.362,365.277 297.793,412.924 V 514.56 l -19.85,7.414 v 49.116 l 16.176,7.685 34.584,19.967 c -2.599,2.388 -4.228,5.815 -4.228,9.619 0,7.211 5.854,13.065 13.064,13.065 2.974,0 5.716,-0.996 7.913,-2.672 z"
         style="fill:#f795a2;fill-opacity:1;fill-rule:nonzero;stroke:#ffffff;stroke-width:15.7007;stroke-linecap:butt;stroke-linejoin:miter;stroke-miterlimit:10;stroke-dasharray:none;stroke-opacity:1;paint-order:normal"
         transform="matrix(1.3333333,0,0,-1.3333333,-11.338533,1598.8481)"
         sodipodi:nodetypes="ccccccccccccccccsscc" />
      <path
         id="path3"
         d="m 294.119,578.775 54.013,31.185 22.505,127.245 -36.25,1.776 -10.868,54.884 74.73,-6.831 39.193,-38.424 V 493.55 L 297.793,412.924 v 120.51 l -19.85,-11.46 v 49.116 z"
         style="fill:#5796b5;fill-opacity:1;fill-rule:nonzero;stroke:none"
         transform="matrix(1.3333333,0,0,-1.3333333,-11.338533,1598.8481)" />
      <path
         id="path4"
         d="m 348.132,609.959 -54.013,-31.184 127.569,-47.646 54.013,31.184 z"
         style="fill:#060809;fill-opacity:1;fill-rule:nonzero;stroke:none"
         transform="matrix(1.3333333,0,0,-1.3333333,-11.338533,1598.8481)" />
      <path
         id="path5"
         d="M 370.637,737.204 348.132,609.96 475.701,562.313 498.205,689.558 Z"
         style="fill:#373739;fill-opacity:1;fill-rule:nonzero;stroke:none"
         transform="matrix(1.3333333,0,0,-1.3333333,-11.338533,1598.8481)" />
      <path
         id="path6"
         d="m 297.793,412.924 127.569,-47.646 v 120.51 l -127.569,47.646 z"
         style="fill:#96d5ea;fill-opacity:1;fill-rule:nonzero;stroke:none"
         transform="matrix(1.3333333,0,0,-1.3333333,-11.338533,1598.8481)" />
      <path
         id="path7"
         d="m 297.793,533.435 v -48.301 c 18.843,-6.7 36.143,-11.487 41.122,-13.147 34.619,-11.54 49.341,-63.255 86.447,-73.582 v 87.383 z"
         style="fill:#5ec9c3;fill-opacity:1;fill-rule:nonzero;stroke:none"
         transform="matrix(1.3333333,0,0,-1.3333333,-11.338533,1598.8481)" />
      <path
         id="path8"
         d="m 370.637,737.204 -10.495,-59.336 c 7.519,-7.569 15.167,-14.776 23.875,-20.581 30.715,-20.476 61.213,-14.481 90.205,-43.472 3.418,-3.419 5.309,-11.237 7.012,-20.215 l 16.972,95.959 z"
         style="fill:#060809;fill-opacity:1;fill-rule:nonzero;stroke:none"
         transform="matrix(1.3333333,0,0,-1.3333333,-11.338533,1598.8481)" />
      <path
         id="path9"
         d="m 381.441,711.075 c -12.032,-29.471 -16.783,-60.398 -18.612,-91.909 l 102.836,-38.409 18.612,91.91 z"
         style="fill:#be32a0;fill-opacity:1;fill-rule:nonzero;stroke:none"
         transform="matrix(1.3333333,0,0,-1.3333333,-11.338533,1598.8481)" />
      <path
         id="path10"
         d="m 370.605,676.736 c -4.395,-18.83 -6.645,-38.088 -7.776,-57.57 l 102.836,-38.409 7.115,35.132 c -8.912,-1.711 -17.719,-3.08 -23.427,-0.227 -27.736,13.868 -49.354,51.832 -78.748,61.074 z"
         style="fill:#f795a2;fill-opacity:1;fill-rule:nonzero;stroke:none"
         transform="matrix(1.3333333,0,0,-1.3333333,-11.338533,1598.8481)" />
      <path
         id="path11"
         d="m 453.811,639.877 c 6.084,-2.196 10.059,-6.65 8.872,-9.942 -1.188,-3.291 -7.092,-4.181 -13.176,-1.985 -6.084,2.195 -10.059,6.65 -8.872,9.942 1.188,3.291 7.092,4.181 13.176,1.985 z"
         style="fill:#f795a2;fill-opacity:1;fill-rule:evenodd;stroke:none"
         transform="matrix(1.3333333,0,0,-1.3333333,-11.338533,1598.8481)" />
      <path
         id="path12"
         d="m 370.459,741.369 c -1.947,-0.083 -3.589,-1.52 -3.928,-3.44 L 344.025,610.685 c -0.348,-1.972 0.772,-3.93 2.648,-4.63 l 127.57,-47.648 c 0.466,-0.173 0.959,-0.263 1.457,-0.263 2.014,0 3.754,1.459 4.105,3.442 l 22.506,127.247 c 0.348,1.972 -0.772,3.93 -2.648,4.63 l -127.567,47.648 c -0.523,0.195 -1.08,0.282 -1.637,0.258 z m 3.409,-9.822 119.629,-44.68 -21.029,-118.896 -119.626,44.68 z"
         style="fill:#111f29;fill-opacity:1;fill-rule:nonzero;stroke:none"
         transform="matrix(1.3333333,0,0,-1.3333333,-11.338533,1598.8481)" />
      <path
         id="path13"
         d="m 332.66,610.608 8.63,1.063 3.388,-27.506 c -2.877,-2.77 -5.753,-2.901 -8.629,-1.063 z"
         style="fill:#ddd1d1;fill-opacity:1;fill-rule:nonzero;stroke:none"
         transform="matrix(1.3333333,0,0,-1.3333333,-11.338533,1598.8481)" />
      <path
         id="path14"
         d="m 416.568,584.968 8.359,-2.393 -7.627,-26.643 c -3.73,-1.427 -6.429,-0.423 -8.359,2.393 z"
         style="fill:#ddd1d1;fill-opacity:1;fill-rule:nonzero;stroke:none"
         transform="matrix(1.3333333,0,0,-1.3333333,-11.338533,1598.8481)" />
      <path
         id="path15"
         d="m 337.539,621.426 c 7.21,0 13.064,-5.854 13.064,-13.065 0,-7.21 -5.854,-13.064 -13.064,-13.064 -7.21,0 -13.064,5.854 -13.064,13.064 0,7.211 5.854,13.065 13.064,13.065 z"
         style="fill:#56b0bb;fill-opacity:1;fill-rule:evenodd;stroke:none"
         transform="matrix(1.3333333,0,0,-1.3333333,-11.338533,1598.8481)" />
      <path
         id="path16"
         d="m 419.926,592.328 c 7.21,0 13.064,-5.854 13.064,-13.065 0,-7.21 -5.854,-13.064 -13.064,-13.064 -7.21,0 -13.064,5.854 -13.064,13.064 0,7.211 5.854,13.065 13.064,13.065 z"
         style="fill:#be32a0;fill-opacity:1;fill-rule:evenodd;stroke:none"
         transform="matrix(1.3333333,0,0,-1.3333333,-11.338533,1598.8481)" />
      <path
         id="path17"
         d="m 390.92,575.018 c 4.338,-1.404 7.012,-5.164 5.967,-8.393 -1.044,-3.228 -5.414,-4.709 -9.752,-3.306 -4.338,1.404 -7.012,5.165 -5.967,8.393 1.044,3.228 5.414,4.71 9.752,3.306 z"
         style="fill:#be32a0;fill-opacity:1;fill-rule:evenodd;stroke:none"
         transform="matrix(1.3333333,0,0,-1.3333333,-11.338533,1598.8481)" />
      <path
         id="path18"
         d="m 392.649,560.417 c 4.338,-1.404 7.012,-5.165 5.968,-8.393 -1.045,-3.228 -5.415,-4.71 -9.753,-3.306 -4.338,1.404 -7.012,5.164 -5.967,8.393 1.044,3.228 5.414,4.709 9.752,3.306 z"
         style="fill:#be32a0;fill-opacity:1;fill-rule:evenodd;stroke:none"
         transform="matrix(1.3333333,0,0,-1.3333333,-11.338533,1598.8481)" />
      <path
         id="path19"
         d="m 361.759,585.663 c 4.539,-0.437 7.959,-3.534 7.634,-6.912 -0.325,-3.377 -4.274,-5.764 -8.812,-5.327 -4.539,0.436 -7.959,3.533 -7.634,6.911 0.325,3.377 4.274,5.765 8.812,5.328 z"
         style="fill:#56b0bb;fill-opacity:1;fill-rule:evenodd;stroke:none"
         transform="matrix(1.3333333,0,0,-1.3333333,-11.338533,1598.8481)" />
      <path
         id="path20"
         d="m 344.468,579.899 c 4.539,-0.437 7.959,-3.534 7.634,-6.911 -0.325,-3.378 -4.274,-5.765 -8.812,-5.328 -4.539,0.437 -7.959,3.534 -7.634,6.911 0.325,3.378 4.274,5.765 8.812,5.328 z"
         style="fill:#56b0bb;fill-opacity:1;fill-rule:evenodd;stroke:none"
         transform="matrix(1.3333333,0,0,-1.3333333,-11.338533,1598.8481)" />
      <path
         id="path21"
         d="m 339.949,618.979 c 4.538,-0.436 7.959,-3.533 7.634,-6.911 -0.325,-3.377 -4.274,-5.765 -8.813,-5.328 -4.538,0.437 -7.959,3.534 -7.634,6.911 0.325,3.378 4.274,5.765 8.813,5.328 z"
         style="fill:#ddd1d1;fill-opacity:1;fill-rule:evenodd;stroke:none"
         transform="matrix(1.3333333,0,0,-1.3333333,-11.338533,1598.8481)" />
      <path
         id="path22"
         d="m 422.916,589.504 c 4.539,-0.437 7.959,-3.534 7.634,-6.911 -0.325,-3.378 -4.273,-5.765 -8.812,-5.328 -4.539,0.437 -7.959,3.533 -7.634,6.911 0.325,3.377 4.274,5.765 8.812,5.328 z"
         style="fill:#f795a2;fill-opacity:1;fill-rule:evenodd;stroke:none"
         transform="matrix(1.3333333,0,0,-1.3333333,-11.338533,1598.8481)" />
      <path
         id="path23"
         d="m 421.688,531.129 54.013,31.184 22.504,127.245 -36.25,1.777 c -6.675,17.858 -10.642,36.103 -10.868,54.883 21.448,0.802 46.649,-1.734 74.731,-6.83 l 39.193,-38.424 V 445.904 L 425.362,365.278 v 120.51 l -19.851,-11.461 v 49.117 z"
         style="fill:#5ec9c3;fill-opacity:1;fill-rule:nonzero;stroke:none"
         transform="matrix(1.3333333,0,0,-1.3333333,-11.338533,1598.8481)" />
      <path
         id="path24"
         d="M 565.011,677.661 C 544.928,639.311 552.173,576.233 532.35,546.498 506.596,507.867 460.93,499.403 425.362,485.788 V 365.277 l 139.649,80.627 z"
         style="fill:#356aaf;fill-opacity:1;fill-rule:nonzero;stroke:none"
         transform="matrix(1.3333333,0,0,-1.3333333,-11.338533,1598.8481)" />
      <path
         id="path25"
         d="M 277.943,571.09 405.511,523.444 V 474.327 L 277.943,521.974 Z"
         style="fill:#96d5ea;fill-opacity:1;fill-rule:nonzero;stroke:none"
         transform="matrix(1.3333333,0,0,-1.3333333,-11.338533,1598.8481)" />
      <path
         id="path26"
         d="m 323.519,793.865 10.868,-54.884 127.568,-47.646 -10.868,54.883 c -40.939,18.654 -83.681,34.153 -127.568,47.647 z"
         style="fill:#96d5ea;fill-opacity:1;fill-rule:nonzero;stroke:none"
         transform="matrix(1.3333333,0,0,-1.3333333,-11.338533,1598.8481)" />
      <path
         id="path27"
         d="m 323.519,793.865 127.568,-47.647 74.731,-6.83 -127.569,47.646 z"
         style="fill:#5796b5;fill-opacity:1;fill-rule:nonzero;stroke:none"
         transform="matrix(1.3333333,0,0,-1.3333333,-11.338533,1598.8481)" />
      <path
         id="path28"
         d="m 518.115,460.802 -1.642,-0.748 v 31.157 l -0.253,-0.072 c -0.814,-2.965 -1.63,-5.931 -2.447,-8.898 -2.315,-8.398 -4.631,-16.796 -6.949,-25.194 -0.236,-0.844 -0.31,-1.65 -1.382,-2.112 -1.114,-0.481 -1.066,0.41 -1.273,1.022 -2.853,8.243 -5.701,16.497 -8.543,24.764 -0.077,0.285 -0.237,0.498 -0.461,0.606 V 450.409 L 493.5,449.65 v 40.385 c 0.733,0.681 0.898,0.211 1.084,-0.334 1.582,-4.621 3.174,-9.235 4.775,-13.841 1.9,-5.52 3.796,-11.041 5.692,-16.563 0.109,-0.319 0.237,-0.614 0.455,-1.174 0.713,2.594 1.332,4.854 1.954,7.116 3.138,11.432 6.28,22.862 9.427,34.292 0.188,0.68 0.186,1.586 1.228,1.742 z"
         style="fill:#ffffff;fill-opacity:1;fill-rule:nonzero;stroke:none"
         transform="matrix(1.3333333,0,0,-1.3333333,-11.338533,1598.8481)" />
      <path
         id="path29"
         d="m 459.252,453.048 -7.093,-3.231 v 2.071 l 8.912,4.061 v -2.114 c 0,-4.053 0.013,-8.083 0,-12.133 -0.014,-4.128 -2.494,-8.024 -6.186,-9.737 -1.933,-0.898 -3.867,-1.795 -5.799,-2.642 -3.521,-1.541 -5.976,0.131 -5.976,4.054 -0.007,8.904 -0.007,17.807 0,26.709 0,3.868 2.274,7.64 5.714,9.37 2.221,1.123 4.448,2.118 6.669,2.981 3.145,1.223 5.258,-0.163 5.513,-3.593 0.138,-1.839 0.026,-3.816 0.026,-5.822 l -1.858,-0.846 c 0,1.532 -0.021,3.063 0,4.604 0.055,3.643 -1.445,4.703 -4.665,3.25 -1.824,-0.831 -3.647,-1.64 -5.469,-2.492 -2.402,-1.127 -4.111,-3.69 -4.124,-6.383 -0.041,-9.086 -0.041,-18.154 0,-27.204 0.012,-2.538 1.56,-3.633 3.829,-2.716 2.27,0.915 4.596,1.986 6.891,3.139 1.965,1.005 3.525,3.556 3.584,5.857 0.108,4.258 0.032,8.426 0.032,12.817"
         style="fill:#ffffff;fill-opacity:1;fill-rule:nonzero;stroke:none"
         transform="matrix(1.3333333,0,0,-1.3333333,-11.338533,1598.8481)" />
      <path
         id="path30"
         d="m 527.532,467.116 16.032,7.304 v -1.988 l -17.823,-8.119 V 504.4 l 17.807,8.112 v -1.933 l -16.013,-7.295 v -16.036 l 7.052,3.213 v -2.097 l -7.055,-3.214 z"
         style="fill:#ffffff;fill-opacity:1;fill-rule:nonzero;stroke:none"
         transform="matrix(1.3333333,0,0,-1.3333333,-11.338533,1598.8481)" />
      <path
         id="path31"
         d="m 468.291,438.247 8.847,44.67 0.238,0.108 c 2.948,-12.189 5.895,-24.378 8.844,-36.567 -1.682,-1.296 -1.796,-1.239 -2.182,0.366 -2.135,8.851 -4.28,17.691 -6.436,26.521 -0.066,0.275 -0.18,0.516 -0.38,1.079 -0.536,-2.623 -1.006,-4.879 -1.453,-7.133 -1.774,-8.92 -3.545,-17.841 -5.31,-26.763 -0.358,-1.801 -0.492,-1.941 -2.168,-2.281"
         style="fill:#ffffff;fill-opacity:1;fill-rule:nonzero;stroke:none"
         transform="matrix(1.3333333,0,0,-1.3333333,-11.338533,1598.8481)" />
      <path
         id="path32"
         d="m 560.939,512.058 -3.277,4.829 c -1.145,-2.701 -2.199,-5.211 -3.262,-7.709 -0.896,-0.261 -0.833,0.25 -0.491,1.053 0.917,2.176 1.821,4.355 2.827,6.753 l -6.366,-2.9 c -0.41,0.817 -0.116,1.236 0.674,1.58 1.821,0.803 3.64,1.658 5.669,2.582 -1.091,1.651 -2.097,3.187 -3.159,4.817 l 0.796,0.957 c 1.113,-1.611 2.169,-3.152 3.311,-4.809 0.999,2.405 1.899,4.582 2.813,6.758 0.288,0.683 0.605,1.391 1.258,0.797 l -3.171,-7.696 5.629,2.565 c 0.834,0.379 0.834,0.357 0.817,-0.797 l -6.464,-2.944 c 1.114,-1.703 2.143,-3.233 3.215,-4.853 z"
         style="fill:#ffffff;fill-opacity:1;fill-rule:nonzero;stroke:none"
         transform="matrix(1.3333333,0,0,-1.3333333,-11.338533,1598.8481)" />
      <path
         id="path33"
         d="m 300.469,704.305 c 15.012,-4.505 25.417,-14.428 33.01,-27.654 2.36,-4.109 2.434,-8.251 -0.946,-12.035 -2.444,-2.733 -3.494,-2.677 -6.24,-0.241 -7.998,7.096 -15.992,14.204 -24.189,21.067 -3.037,2.545 -6.666,4.374 -9.968,6.614 -2.107,1.43 -4.942,2.461 -4.024,5.966 0.92,3.515 4.22,6.528 7.556,6.672 1.591,0.067 3.201,-0.248 4.801,-0.389"
         style="fill:#afd53c;fill-opacity:1;fill-rule:nonzero;stroke:none"
         transform="matrix(1.3333333,0,0,-1.3333333,-11.338533,1598.8481)" />
      <path
         id="path34"
         d="m 297.502,665.797 c -2.146,-1.71 -4.409,-3.296 -6.39,-5.179 -1.024,-0.971 -1.255,-2.366 0.34,-3.437 6.544,-4.405 13.015,-8.919 19.594,-13.27 3.107,-2.055 6.328,-1.4 9.386,1.566 2.599,2.52 3.283,6.112 1.725,9.06 -3.243,6.14 -17.562,12.495 -24.655,11.26"
         style="fill:#afd53c;fill-opacity:1;fill-rule:nonzero;stroke:none"
         transform="matrix(1.3333333,0,0,-1.3333333,-11.338533,1598.8481)" />
      <path
         id="path35"
         d="m 605.922,449.327 c 0.036,-11.182 -3.522,-20.291 -11.489,-26.831 -6.18,-5.075 -13.028,-8.283 -20.497,-9.65 -2.583,-0.473 -5.154,-0.367 -7.596,0.918 -0.436,0.229 -0.871,0.493 -1.25,0.828 -1.209,1.064 -1.208,2.265 0.137,3.101 1.771,1.098 3.624,2.027 5.466,2.967 5.73,2.929 11.025,6.594 14.579,12.785 4.865,8.471 8.089,17.563 7.161,28.08 -0.141,1.602 -0.005,3.254 0.131,4.867 0.155,1.839 0.863,2.605 2.453,2.747 2.686,0.239 4.848,-0.945 6.561,-3.355 2.676,-3.766 3.782,-8.196 4.141,-12.953 0.089,-1.166 0.137,-2.336 0.203,-3.504"
         style="fill:#be32a0;fill-opacity:1;fill-rule:nonzero;stroke:none"
         transform="matrix(1.3333333,0,0,-1.3333333,-11.338533,1598.8481)" />
      <path
         id="path36"
         d="m 588.239,395.505 c -4.546,0.138 -7.949,1.353 -10.251,5.271 -0.267,0.455 -0.486,0.974 -0.625,1.5 -0.271,1.031 -0.024,1.72 0.961,2.079 6.747,2.463 12.936,6.08 18.414,11.402 5.552,5.394 10.061,0.46 11.642,-4.697 1.354,-4.419 -0.314,-8.73 -4.258,-10.619 -3.423,-1.639 -7.02,-2.826 -10.598,-3.975 -1.922,-0.618 -3.965,-0.734 -5.285,-0.961"
         style="fill:#be32a0;fill-opacity:1;fill-rule:nonzero;stroke:none"
         transform="matrix(1.3333333,0,0,-1.3333333,-11.338533,1598.8481)" />
      <path
         id="path37"
         d="m 250.366,408.409 c 15.405,-4.57 21.192,-16.365 18.483,-34.757 0.476,0.203 0.896,0.369 1.309,0.562 3.266,1.533 6.49,3.285 9.807,4.568 10.773,4.169 20.914,3.973 30.023,-1.951 3.221,-2.095 5.458,-5.307 6.7,-9.347 0.291,-0.945 0.201,-2.087 0.285,-3.139 -0.169,-0.076 -0.338,-0.155 -0.507,-0.232 -0.699,0.62 -1.362,1.296 -2.103,1.852 -5.944,4.458 -12.907,5.862 -20.358,5.014 -7.09,-0.808 -14.281,-1.746 -21.095,-5.53 -3.031,-1.683 -5.933,-3.791 -8.782,-5.92 -1.205,-0.901 -1.864,-0.715 -2.378,0.328 -1.065,2.155 -1.66,4.516 -0.802,7.196 1.206,3.772 1.242,7.477 0.394,10.942 -3.323,13.583 -10.706,22.495 -23.558,24.764 -1.75,0.31 -2.831,1.337 -3.841,2.625 -0.822,1.052 -0.365,2.155 0.594,3.03 5.41,4.941 9.835,10.875 13.922,17.129 5.052,7.733 8.02,16.083 7.518,25.125 -0.155,2.785 -1.101,5.42 -1.833,8.054 -0.45,1.625 -0.16,2.286 1.406,2.313 1.848,0.033 3.245,-0.932 4.441,-2.245 3.958,-4.341 5.2,-10.138 4.606,-16.528 -1.151,-12.381 -4.899,-23.858 -13.764,-33.19 -0.115,-0.121 -0.199,-0.279 -0.467,-0.663"
         style="fill:#be32a0;fill-opacity:1;fill-rule:nonzero;stroke:none"
         transform="matrix(1.3333333,0,0,-1.3333333,-11.338533,1598.8481)" />
      <path
         id="path38"
         d="m 608.418,704.96 c -14.814,6.225 -19.278,18.582 -14.576,36.568 -0.496,-0.15 -0.931,-0.269 -1.363,-0.416 -3.414,-1.167 -6.81,-2.556 -10.247,-3.469 -11.164,-2.967 -21.223,-1.665 -29.631,5.218 -2.972,2.435 -4.845,5.872 -5.639,10.023 -0.186,0.972 0.029,2.097 0.06,3.152 0.177,0.057 0.353,0.117 0.53,0.175 0.627,-0.692 1.211,-1.437 1.887,-2.07 5.422,-5.081 12.19,-7.237 19.689,-7.208 7.135,0.028 14.387,0.175 21.573,3.192 3.197,1.342 6.312,3.121 9.376,4.926 1.297,0.764 1.931,0.507 2.328,-0.586 0.823,-2.258 1.157,-4.67 0.011,-7.241 -1.611,-3.617 -2.051,-7.296 -1.587,-10.833 1.82,-13.865 8.186,-23.529 20.713,-27.189 1.706,-0.499 2.668,-1.638 3.53,-3.029 0.703,-1.135 0.128,-2.182 -0.92,-2.947 -5.918,-4.321 -10.965,-9.736 -15.71,-15.505 -5.867,-7.136 -9.73,-15.111 -10.218,-24.154 -0.15,-2.785 0.503,-5.508 0.942,-8.206 0.27,-1.665 -0.09,-2.29 -1.65,-2.146 -1.84,0.17 -3.123,1.281 -4.169,2.717 -3.46,4.747 -4.061,10.645 -2.773,16.932 2.497,12.181 7.476,23.181 17.307,31.488 0.127,0.107 0.228,0.256 0.537,0.608"
         style="fill:#4eb3d7;fill-opacity:1;fill-rule:nonzero;stroke:none"
         transform="matrix(1.3333333,0,0,-1.3333333,-11.338533,1598.8481)" />
    </g>
  </g>
</svg>
