<?xml version="1.0" encoding="UTF-8" standalone="no"?>
<!-- Created with Inkscape (http://www.inkscape.org/) -->

<svg
   version="1.1"
   id="svg1"
   width="706.6264"
   height="706.995"
   viewBox="0 0 706.62643 706.99501"
   sodipodi:docname="jeux.svg"
   inkscape:version="1.3 (0e150ed6c4, 2023-07-21)"
   xmlns:inkscape="http://www.inkscape.org/namespaces/inkscape"
   xmlns:sodipodi="http://sodipodi.sourceforge.net/DTD/sodipodi-0.dtd"
   xmlns="http://www.w3.org/2000/svg"
   xmlns:svg="http://www.w3.org/2000/svg">
  <defs
     id="defs1" />
  <sodipodi:namedview
     id="namedview1"
     pagecolor="#000000"
     bordercolor="#000000"
     borderopacity="0.25"
     inkscape:showpageshadow="2"
     inkscape:pageopacity="0.0"
     inkscape:pagecheckerboard="0"
     inkscape:deskcolor="#d1d1d1"
     inkscape:zoom="1.1171766"
     inkscape:cx="358.49301"
     inkscape:cy="203.63835"
     inkscape:window-width="2160"
     inkscape:window-height="1346"
     inkscape:window-x="-11"
     inkscape:window-y="-11"
     inkscape:window-maximized="1"
     inkscape:current-layer="g739" />
  <g
     id="g739"
     inkscape:label="cartes"
     transform="translate(-205.93739,-411.72985)">
    <path
       id="path6"
       d="m 295.186,542.827 82.36,8.472 48.517,-67.09 -33.843,-75.562 -82.36,-8.472 -48.517,67.09 z"
       style="fill:#050606;fill-opacity:1;fill-rule:evenodd;stroke:#ffffff;stroke-width:17.4966;stroke-linecap:butt;stroke-linejoin:miter;stroke-miterlimit:10;stroke-dasharray:none;stroke-opacity:1;paint-order:stroke fill markers"
       transform="matrix(1.3333333,0,0,-1.3333333,-11.338533,1598.8481)" />
    <path
       id="path7"
       d="m 362.979,749.038 71.702,-41.398 v -82.795 l -71.702,-41.397 -71.703,41.397 v 82.795 z"
       style="fill:#050606;fill-opacity:1;fill-rule:evenodd;stroke:#ffffff;stroke-width:17.4966;stroke-linecap:butt;stroke-linejoin:miter;stroke-miterlimit:10;stroke-dasharray:none;stroke-opacity:1;paint-order:stroke fill markers"
       transform="matrix(1.3333333,0,0,-1.3333333,-11.338533,1598.8481)" />
    <path
       id="path8"
       d="m 286.625,880.237 71.702,-41.398 v -82.795 l -71.702,-41.397 -71.703,41.397 v 82.795 z"
       style="fill:#050606;fill-opacity:1;fill-rule:evenodd;stroke:#ffffff;stroke-width:17.4966;stroke-linecap:butt;stroke-linejoin:miter;stroke-miterlimit:10;stroke-dasharray:none;stroke-opacity:1;paint-order:stroke fill markers"
       transform="matrix(1.3333333,0,0,-1.3333333,-11.338533,1598.8481)" />
    <path
       id="path9"
       d="m 587.602,626.962 71.703,-41.398 v -82.795 l -71.703,-41.397 -71.703,41.397 v 82.795 z"
       style="fill:#050606;fill-opacity:1;fill-rule:evenodd;stroke:#ffffff;stroke-width:17.4966;stroke-linecap:butt;stroke-linejoin:miter;stroke-miterlimit:10;stroke-dasharray:none;stroke-opacity:1;paint-order:stroke fill markers"
       transform="matrix(1.3333333,0,0,-1.3333333,-11.338533,1598.8481)" />
    <path
       id="path10"
       d="m 515.899,749.038 71.703,-41.398 v -82.795 l -71.703,-41.397 -71.702,41.397 v 82.795 z"
       style="fill:#96d034;fill-opacity:1;fill-rule:evenodd;stroke:#ffffff;stroke-width:17.4966;stroke-linecap:butt;stroke-linejoin:miter;stroke-miterlimit:10;stroke-dasharray:none;stroke-opacity:1;paint-order:stroke fill markers"
       transform="matrix(1.3333333,0,0,-1.3333333,-11.338533,1598.8481)" />
    <path
       id="path624"
       d="m 2.2071383,-32.217966 12.4450757,0.0038 -0.0016,-12.478594 8.456939,-0.0098 0.0016,12.478594 12.517509,0.0055 -0.0036,8.43969 -12.517509,-0.0055 0.002,12.417702 -8.456939,0.0098 -0.002,-12.417702 -12.4450756,-0.0038 z m 59.7119717,-23.881878 -0.0049,56.09409305 -13.998842,0.0014269 -0.0048,-30.07301995 c 0.0031,-4.344023 -0.09605,-6.954732 -0.303649,-7.831471 -0.207602,-0.87674 -0.780775,-1.539289 -1.713813,-1.985913 -0.941599,-0.449228 -3.027623,-0.672105 -6.254234,-0.672547 l -1.395515,0.0025 0.0042,-6.558115 c 6.770429,-1.450918 11.91126,-4.442625 15.433907,-8.97165 z m 0,0"
       style="fill:#add53f;fill-opacity:1;fill-rule:nonzero;stroke:none"
       aria-label="+1"
       transform="matrix(1.28808,-0.467516,0.265292,1.53644,731.59613,937.72947)" />
    <path
       id="path625"
       d="m 284.458,835.225 c 18.312,0 33.179,-14.867 33.179,-33.179 0,-18.313 -14.867,-33.18 -33.179,-33.18 -18.313,0 -33.18,14.867 -33.18,33.18 0,18.312 14.867,33.179 33.18,33.179 z"
       style="fill:none;stroke:#add53f;stroke-width:9.2585;stroke-linecap:butt;stroke-linejoin:miter;stroke-miterlimit:10;stroke-dasharray:none;stroke-opacity:1"
       transform="matrix(1.3333333,0,0,-1.3333333,-11.338533,1598.8481)" />
    <path
       id="path628"
       d="m 424.086,768.862 v 0 c 0,0 -5.95222,-5.81456 -8.928,-8.722 h -0.001 l -8.927,-8.72 -13.621,-48.562 3.089,-12.092 35.245,-36.077 h 0.001 v 0 l 24.03,-6.74 0.001,-10e-4 48.866,12.484 8.927,8.721 13.622,48.562 -6.179,24.182 h 10e-4 l -35.245,36.078 -12.016,3.37 z"
       style="fill:#56b1bc;fill-opacity:1;fill-rule:nonzero;stroke:#ffffff;stroke-width:15.7007;stroke-linecap:butt;stroke-linejoin:miter;stroke-miterlimit:10;stroke-dasharray:none;stroke-opacity:1"
       transform="matrix(1.3333333,0,0,-1.3333333,-11.338533,1598.8481)"
       sodipodi:nodetypes="cccccccccccccccccccc" />
    <path
       id="path629"
       d="m 415.157,760.14 40.28,-41.231 3.089,-12.091 -13.621,-48.562 -13.962,-3.567 -35.245,36.077 -3.089,12.092 13.621,48.562 z"
       style="fill:#be32a0;fill-opacity:1;fill-rule:nonzero;stroke:none"
       transform="matrix(1.3333333,0,0,-1.3333333,-11.338533,1598.8481)" />
    <path
       id="path630"
       d="m 428.798,685.615 c -3.676,0 -6.66,-3.882 -6.66,-8.663 0,-4.781 2.984,-8.663 6.66,-8.663 3.675,0 6.659,3.882 6.659,8.663 0,4.781 -2.984,8.663 -6.659,8.663 z"
       style="fill:#ffffff;fill-opacity:1;fill-rule:evenodd;stroke:none"
       transform="matrix(1.3333333,0,0,-1.3333333,-11.338533,1598.8481)" />
    <path
       id="path631"
       d="m 412.89,741.911 c -3.675,0 -6.659,-3.881 -6.659,-8.663 0,-4.781 2.984,-8.663 6.659,-8.663 3.676,0 6.66,3.882 6.66,8.663 0,4.782 -2.984,8.663 -6.66,8.663 z"
       style="fill:#ffffff;fill-opacity:1;fill-rule:evenodd;stroke:none"
       transform="matrix(1.3333333,0,0,-1.3333333,-11.338533,1598.8481)" />
    <path
       id="path632"
       d="m 523.301,729.806 -55.848,-14.268 -8.927,-8.72 -13.621,-48.562 10.07,-10.308 48.866,12.484 8.927,8.721 13.622,48.562 z"
       style="fill:#96339e;fill-opacity:1;fill-rule:nonzero;stroke:none"
       transform="matrix(1.3333333,0,0,-1.3333333,-11.338533,1598.8481)" />
    <path
       id="path633"
       d="m 520.211,741.899 3.089,-12.092 3.089,-12.093 -5.035,5.156 -48.866,-12.485 -8.928,-8.722 -11.675,-41.622 3.089,-12.092 -24.03,6.74 8.928,8.722 11.675,41.622 -3.09,12.093 -35.244,36.077 -6.982,-1.785 17.855,17.444 -1.946,-6.937 35.245,-36.078 12.013,-3.369 48.867,12.484 z"
       style="fill:#d881c1;fill-opacity:1;fill-rule:nonzero;stroke:none"
       transform="matrix(1.3333333,0,0,-1.3333333,-11.338533,1598.8481)" />
    <path
       id="path634"
       d="m 520.212,741.897 -1.946,-6.937 -48.867,-12.484 -12.016,3.37 -35.245,36.078 1.946,6.937 48.867,12.484 12.016,-3.37 z"
       style="fill:#c659ae;fill-opacity:1;fill-rule:nonzero;stroke:none"
       transform="matrix(1.3333333,0,0,-1.3333333,-11.338533,1598.8481)" />
    <path
       id="path635"
       d="m 495.033,693.837 c -3.489,1.157 -7.543,-1.588 -9.048,-6.127 -1.504,-4.538 0.107,-9.161 3.595,-10.318 3.489,-1.157 7.543,1.589 9.048,6.127 1.504,4.538 -0.107,9.162 -3.595,10.318 z"
       style="fill:#ffffff;fill-opacity:1;fill-rule:evenodd;stroke:none"
       transform="matrix(1.3333333,0,0,-1.3333333,-11.338533,1598.8481)" />
    <path
       id="path636"
       d="m 474.565,776.253 c -3.174,-1.854 -4.324,-5.801 -2.568,-8.808 1.757,-3.007 5.759,-3.944 8.933,-2.09 3.174,1.853 4.324,5.8 2.568,8.807 -1.757,3.008 -5.759,3.944 -8.933,2.091 z"
       style="fill:#ffffff;fill-opacity:1;fill-rule:evenodd;stroke:none"
       transform="matrix(1.3333333,0,0,-1.3333333,-11.338533,1598.8481)" />
    <path
       id="path637"
       d="m 438.847,767.91 c -3.174,-1.853 -4.324,-5.8 -2.568,-8.807 1.757,-3.008 5.759,-3.944 8.933,-2.091 3.174,1.854 4.325,5.801 2.568,8.808 -1.756,3.007 -5.759,3.944 -8.933,2.09 z"
       style="fill:#ffffff;fill-opacity:1;fill-rule:evenodd;stroke:none"
       transform="matrix(1.3333333,0,0,-1.3333333,-11.338533,1598.8481)" />
    <path
       id="path638"
       d="m 463.127,740.959 c -3.173,-1.853 -4.324,-5.8 -2.568,-8.807 1.757,-3.007 5.76,-3.944 8.933,-2.09 3.174,1.853 4.325,5.8 2.568,8.807 -1.756,3.007 -5.759,3.944 -8.933,2.09 z"
       style="fill:#ffffff;fill-opacity:1;fill-rule:evenodd;stroke:none"
       transform="matrix(1.3333333,0,0,-1.3333333,-11.338533,1598.8481)" />
    <path
       id="path639"
       d="m 499.891,747.36 c -3.173,-1.853 -4.324,-5.8 -2.567,-8.807 1.756,-3.008 5.759,-3.944 8.932,-2.091 3.174,1.854 4.325,5.8 2.568,8.808 -1.756,3.007 -5.759,3.944 -8.933,2.09 z"
       style="fill:#ffffff;fill-opacity:1;fill-rule:evenodd;stroke:none"
       transform="matrix(1.3333333,0,0,-1.3333333,-11.338533,1598.8481)" />
    <path
       id="path654"
       d="m 568.037,507.161 c -10.406,5.646 -25.518,2.873 -33.523,-6.151 L 459.71,416.682 c -8.006,-9.024 -6.033,-21.062 4.374,-26.708 l 49.68,-26.954 c 10.407,-5.646 25.513,-2.874 33.518,6.15 l 74.805,84.328 c 8.005,9.024 6.037,21.063 -4.369,26.709 z m -8.01,-9.03 49.68,-26.954 c 4.819,-2.614 5.676,-7.852 1.97,-12.031 l -74.805,-84.328 c -3.707,-4.178 -10.281,-5.385 -15.1,-2.77 l -49.68,26.953 c -4.818,2.615 -5.678,7.854 -1.972,12.033 l 74.805,84.328 c 3.707,4.178 10.283,5.383 15.102,2.769 z"
       style="fill:#ffffff;fill-opacity:1;fill-rule:nonzero;stroke:none"
       transform="matrix(1.3333333,0,0,-1.3333333,-11.338533,1598.8481)" />
    <path
       id="path655"
       d="m 564.032,502.646 49.68,-26.953 c 7.612,-4.131 9.026,-12.77 3.171,-19.371 l -74.805,-84.328 c -5.856,-6.601 -16.699,-8.59 -24.311,-4.46 l -49.68,26.953 c -7.612,4.13 -9.027,12.77 -3.171,19.371 l 74.805,84.327 c 5.856,6.602 16.698,8.591 24.311,4.461 z"
       style="fill:#be32a0;fill-opacity:1;fill-rule:nonzero;stroke:none"
       transform="matrix(1.3333333,0,0,-1.3333333,-11.338533,1598.8481)" />
    <path
       id="path656"
       d="m 622.463,469.658 c -1.07,0.438 -2.381,0.427 -3.545,-0.029 L 459.867,407.318 c -1.61,-0.631 -2.647,-1.998 -2.567,-3.384 0.01,-0.167 0.021,-0.37 0.045,-0.608 0.028,-0.273 0.065,-0.545 0.109,-0.813 0.044,-0.269 0.096,-0.538 0.156,-0.806 0.061,-0.268 0.129,-0.532 0.205,-0.793 0.075,-0.258 0.158,-0.519 0.253,-0.783 0.093,-0.261 0.194,-0.517 0.301,-0.768 0.109,-0.255 0.226,-0.506 0.35,-0.755 0.123,-0.247 0.255,-0.494 0.396,-0.738 0.141,-0.245 0.289,-0.485 0.444,-0.721 0.156,-0.237 0.32,-0.471 0.491,-0.701 0.169,-0.227 0.348,-0.455 0.537,-0.681 0.187,-0.224 0.382,-0.443 0.584,-0.658 0.001,-10e-4 0.001,-10e-4 0.001,-10e-4 0.205,-0.218 0.416,-0.429 0.631,-0.634 0.217,-0.207 0.443,-0.41 0.676,-0.609 0.232,-0.198 0.473,-0.392 0.721,-0.582 0.247,-0.189 0.502,-0.373 0.766,-0.553 0.264,-0.181 0.535,-0.355 0.81,-0.523 0.276,-0.168 0.56,-0.332 0.853,-0.491 l 49.68,-26.953 c 0.293,-0.159 0.589,-0.31 0.886,-0.453 0.297,-0.143 0.601,-0.28 0.911,-0.411 0.308,-0.13 0.618,-0.252 0.93,-0.367 0.314,-0.115 0.631,-0.223 0.95,-0.324 0.32,-0.101 0.642,-0.196 0.966,-0.282 0.32,-0.086 0.646,-0.167 0.98,-0.24 0,0 10e-4,-10e-4 10e-4,-10e-4 0.328,-0.072 0.66,-0.138 0.993,-0.197 0.338,-0.06 0.672,-0.111 1.004,-0.155 0.335,-0.045 0.672,-0.083 1.012,-0.114 0.337,-0.031 0.676,-0.056 1.018,-0.073 0.342,-0.018 0.684,-0.028 1.024,-0.032 0.34,-0.004 0.682,-10e-4 1.025,0.009 0.339,0.009 0.681,0.025 1.027,0.048 0.349,0.023 0.691,0.053 1.025,0.089 0.334,0.035 0.675,0.077 1.023,0.127 0.348,0.05 0.688,0.107 1.019,0.168 0.337,0.062 0.675,0.13 1.012,0.205 0.332,0.074 0.667,0.155 1.003,0.244 0.339,0.089 0.67,0.183 0.995,0.282 0.327,0.1 0.654,0.206 0.981,0.32 0.319,0.111 0.643,0.23 0.969,0.357 0.325,0.127 0.643,0.259 0.953,0.395 0.31,0.135 0.622,0.279 0.937,0.431 0.313,0.152 0.618,0.308 0.917,0.468 0.304,0.164 0.603,0.332 0.895,0.505 0.295,0.174 0.587,0.354 0.873,0.54 0.284,0.184 0.567,0.375 0.847,0.575 0.277,0.196 0.55,0.399 0.82,0.609 0.269,0.209 0.534,0.424 0.792,0.644 0.257,0.219 0.51,0.444 0.76,0.677 0.249,0.233 0.491,0.471 0.726,0.711 0.235,0.241 0.466,0.489 0.691,0.743 l 74.804,84.327 c 0.226,0.254 0.441,0.51 0.648,0.766 0.205,0.256 0.405,0.517 0.597,0.781 0.191,0.264 0.372,0.528 0.544,0.793 0.174,0.267 0.339,0.536 0.494,0.806 0.157,0.27 0.305,0.541 0.444,0.814 0.14,0.275 0.27,0.549 0.391,0.822 0.122,0.275 0.236,0.551 0.342,0.829 0.104,0.274 0.201,0.552 0.29,0.832 0.087,0.275 0.168,0.554 0.24,0.836 0.072,0.284 0.135,0.563 0.188,0.837 0.054,0.275 0.101,0.554 0.139,0.836 0.039,0.284 0.068,0.563 0.089,0.836 0.021,0.279 0.034,0.555 0.039,0.83 0.005,0.277 10e-4,0.552 -0.01,0.827 -0.012,0.273 -0.031,0.547 -0.06,0.821 10e-4,0 10e-4,0 10e-4,0.001 -0.023,0.226 -0.051,0.404 -0.07,0.537 -0.142,0.99 -0.852,1.828 -1.921,2.266 z m -6.671,-8.236 c -0.05,-0.126 -0.099,-0.252 -0.156,-0.378 -0.077,-0.174 -0.158,-0.345 -0.243,-0.512 -0.086,-0.169 -0.178,-0.339 -0.275,-0.507 -0.098,-0.168 -0.2,-0.335 -0.308,-0.501 -0.109,-0.168 -0.223,-0.333 -0.341,-0.496 -0.118,-0.162 -0.242,-0.325 -0.373,-0.489 -0.132,-0.164 -0.269,-0.326 -0.409,-0.484 l -74.804,-84.327 c -0.14,-0.158 -0.286,-0.315 -0.436,-0.468 -0.151,-0.154 -0.302,-0.302 -0.456,-0.445 -0.153,-0.144 -0.312,-0.285 -0.475,-0.424 -0.161,-0.138 -0.326,-0.272 -0.492,-0.401 -0.166,-0.129 -0.336,-0.255 -0.511,-0.379 -0.17,-0.121 -0.346,-0.24 -0.527,-0.357 -0.178,-0.116 -0.358,-0.227 -0.541,-0.335 -0.185,-0.109 -0.37,-0.214 -0.555,-0.313 -0.192,-0.102 -0.381,-0.2 -0.569,-0.291 -0.187,-0.09 -0.381,-0.18 -0.582,-0.267 -0.201,-0.088 -0.397,-0.17 -0.591,-0.246 -0.194,-0.076 -0.395,-0.15 -0.603,-0.222 -0.201,-0.07 -0.405,-0.135 -0.611,-0.198 -0.21,-0.064 -0.417,-0.124 -0.619,-0.177 -0.204,-0.054 -0.413,-0.104 -0.625,-0.152 -0.209,-0.046 -0.418,-0.089 -0.63,-0.128 -0.218,-0.04 -0.429,-0.075 -0.634,-0.104 -0.204,-0.029 -0.416,-0.055 -0.637,-0.079 -0.219,-0.023 -0.433,-0.041 -0.639,-0.055 -0.21,-0.014 -0.423,-0.024 -0.639,-0.03 -0.212,-0.006 -0.425,-0.008 -0.638,-0.006 -0.214,0.003 -0.426,0.01 -0.635,0.02 -0.21,0.011 -0.421,0.026 -0.633,0.046 -0.209,0.019 -0.418,0.042 -0.627,0.07 -0.213,0.029 -0.422,0.061 -0.624,0.097 -0.206,0.036 -0.411,0.077 -0.616,0.122 -0.2,0.045 -0.403,0.094 -0.609,0.149 -0.202,0.054 -0.403,0.113 -0.601,0.175 -0.2,0.063 -0.396,0.131 -0.591,0.203 -0.198,0.072 -0.392,0.149 -0.582,0.229 -0.189,0.08 -0.38,0.166 -0.571,0.257 -0.19,0.092 -0.376,0.187 -0.559,0.286 l -49.68,26.953 c -0.182,0.099 -0.361,0.202 -0.537,0.31 -0.177,0.107 -0.345,0.216 -0.508,0.328 -0.163,0.111 -0.324,0.227 -0.479,0.346 -0.154,0.118 -0.304,0.238 -0.449,0.362 -0.145,0.123 -0.285,0.25 -0.421,0.379 -0.138,0.132 -0.268,0.263 -0.391,0.394 h -10e-4 c -0.126,0.134 -0.246,0.27 -0.362,0.409 -0.113,0.135 -0.225,0.276 -0.333,0.422 -0.108,0.144 -0.209,0.289 -0.305,0.435 -0.098,0.149 -0.19,0.298 -0.276,0.448 -0.086,0.149 -0.169,0.302 -0.247,0.458 -0.077,0.156 -0.149,0.312 -0.216,0.469 -0.069,0.161 -0.131,0.321 -0.188,0.479 -0.018,0.05 -0.033,0.105 -0.05,0.156 z"
       style="fill:#ffffff;fill-opacity:1;fill-rule:nonzero;stroke:none"
       transform="matrix(1.3333333,0,0,-1.3333333,-11.338533,1598.8481)" />
    <path
       id="path657"
       d="m 461.327,404.399 c 0.01,-0.165 0.02,-0.329 0.036,-0.493 0.023,-0.221 0.052,-0.441 0.088,-0.66 0.036,-0.219 0.078,-0.437 0.127,-0.653 0.049,-0.216 0.105,-0.431 0.167,-0.644 0.062,-0.213 0.13,-0.425 0.205,-0.635 0.075,-0.21 0.157,-0.418 0.245,-0.623 0.087,-0.206 0.182,-0.41 0.283,-0.612 0.1,-0.202 0.207,-0.402 0.321,-0.599 0.114,-0.197 0.234,-0.392 0.36,-0.584 0.126,-0.192 0.259,-0.381 0.398,-0.568 0.139,-0.186 0.284,-0.371 0.435,-0.552 0.152,-0.181 0.31,-0.359 0.474,-0.533 0.164,-0.175 0.334,-0.346 0.511,-0.514 0.176,-0.168 0.359,-0.333 0.548,-0.494 0.189,-0.161 0.384,-0.319 0.586,-0.473 0.201,-0.153 0.409,-0.304 0.622,-0.449 0.214,-0.146 0.433,-0.288 0.659,-0.426 0.226,-0.137 0.457,-0.271 0.695,-0.4 l 49.68,-26.953 c 0.238,-0.129 0.479,-0.252 0.723,-0.369 0.244,-0.117 0.491,-0.229 0.74,-0.334 0.25,-0.106 0.502,-0.205 0.756,-0.299 0.255,-0.093 0.512,-0.181 0.771,-0.263 0.259,-0.082 0.521,-0.158 0.784,-0.229 0.263,-0.07 0.528,-0.135 0.794,-0.194 0.267,-0.059 0.535,-0.112 0.805,-0.16 0.27,-0.048 0.541,-0.089 0.814,-0.126 0.272,-0.036 0.545,-0.067 0.819,-0.092 0.275,-0.026 0.55,-0.045 0.826,-0.059 0.276,-0.015 0.552,-0.023 0.829,-0.026 0.277,-0.003 0.555,-10e-4 0.832,0.007 0.278,0.007 0.555,0.02 0.833,0.039 0.277,0.018 0.555,0.043 0.832,0.072 0.277,0.029 0.554,0.063 0.83,0.103 0.276,0.04 0.552,0.086 0.826,0.136 0.275,0.05 0.548,0.106 0.821,0.167 0.273,0.061 0.544,0.126 0.814,0.197 0.271,0.072 0.54,0.148 0.807,0.23 0.267,0.081 0.532,0.167 0.796,0.259 0.264,0.092 0.526,0.188 0.786,0.29 0.26,0.101 0.517,0.208 0.773,0.32 0.255,0.111 0.508,0.228 0.759,0.349 0.25,0.122 0.498,0.248 0.743,0.38 0.245,0.131 0.486,0.267 0.725,0.408 0.239,0.141 0.475,0.287 0.707,0.438 0.233,0.15 0.462,0.306 0.687,0.466 0.226,0.16 0.447,0.324 0.665,0.494 0.218,0.169 0.433,0.344 0.643,0.523 0.21,0.179 0.416,0.362 0.617,0.55 0.201,0.188 0.398,0.381 0.591,0.578 0.192,0.197 0.381,0.399 0.564,0.606 l 74.804,84.326 c 0.183,0.207 0.359,0.415 0.528,0.626 0.168,0.21 0.33,0.421 0.485,0.635 0.155,0.213 0.302,0.428 0.443,0.644 0.14,0.217 0.274,0.435 0.401,0.654 0.126,0.219 0.246,0.439 0.359,0.66 0.113,0.221 0.218,0.444 0.317,0.667 0.099,0.223 0.192,0.446 0.277,0.671 0.085,0.224 0.164,0.449 0.235,0.674 0.072,0.226 0.137,0.452 0.195,0.678 0.057,0.226 0.108,0.452 0.152,0.678 0.044,0.226 0.082,0.452 0.113,0.678 0.031,0.226 0.054,0.452 0.072,0.677 0.017,0.225 0.027,0.45 0.031,0.674 0.004,0.224 0.002,0.448 -0.008,0.671 -0.009,0.223 -0.025,0.445 -0.048,0.666 -0.015,0.146 -0.036,0.291 -0.057,0.436 z"
       style="fill:#96339e;fill-opacity:1;fill-rule:nonzero;stroke:none"
       transform="matrix(1.3333333,0,0,-1.3333333,-11.338533,1598.8481)" />
    <path
       id="path658"
       d="m 558.522,454.957 c -12.592,6.831 -30.848,3.481 -40.534,-7.437 -9.685,-10.919 -7.304,-25.465 5.287,-32.297 12.592,-6.831 30.85,-3.483 40.536,7.436 9.686,10.919 7.302,25.466 -5.289,32.298 z m -8.009,-9.028 c 6.965,-3.779 8.242,-11.581 2.885,-17.621 -5.358,-6.039 -15.15,-7.836 -22.114,-4.057 -6.965,3.779 -8.242,11.581 -2.885,17.62 5.358,6.04 15.149,7.836 22.114,4.058 z"
       style="fill:#ffffff;fill-opacity:1;fill-rule:nonzero;stroke:none"
       transform="matrix(1.3333333,0,0,-1.3333333,-11.338533,1598.8481)" />
    <path
       id="path659"
       d="m 558.604,425.484 c -7.471,-8.422 -21.611,-11.017 -31.324,-5.747 -9.712,5.269 -11.557,16.536 -4.085,24.959 0,0 0,0 0,0 7.471,8.422 21.611,11.016 31.324,5.747 9.712,-5.27 11.557,-16.536 4.085,-24.959 z"
       style="fill:#56b1bc;fill-opacity:1;fill-rule:nonzero;stroke:none"
       transform="matrix(1.3333333,0,0,-1.3333333,-11.338533,1598.8481)" />
    <path
       id="path660"
       d="m 12.841927,-3.7621988 -0.0023,3.75803734 -12.1024797,7.6393e-4 0.002317,-3.14132487 c 3.5888816,-5.8682254 5.7189102,-9.4992846 6.3940311,-10.8888756 0.6745809,-1.396227 1.0141274,-2.484856 1.0169432,-3.264717 -1.056e-4,-0.595635 -0.1028394,-1.043569 -0.3098978,-1.342635 -0.205092,-0.296915 -0.516475,-0.447113 -0.9324527,-0.45176 -0.4191004,0.001 -0.7316249,0.166967 -0.9336407,0.50219 -0.2059488,0.33092 -0.3109435,0.97784 -0.3149844,1.940761 l -8.247e-4,2.103066 -4.92310029,-0.0049 -5.0087e-4,-0.798605 c -5.9911e-4,-1.240062 0.0632796,-2.216118 0.19217606,-2.921534 0.1283564,-0.712052 0.4419734,-1.414903 0.9394246,-2.104068 0.4935183,-0.693467 1.1404193,-1.219138 1.9426692,-1.574863 0.80225,-0.355725 1.764322,-0.530564 2.8876423,-0.529002 2.1891155,6.52e-4 3.8421017,0.545375 4.9623507,1.631836 1.119709,1.079825 1.681069,2.452693 1.681842,4.113134 0.003,1.269927 -0.3126,2.608417 -0.948586,4.016636 -0.630627,1.408037 -2.4926475,4.3921537 -5.583825,8.9578202 z m 0,0"
       style="fill:#ffffff;fill-opacity:1;fill-rule:nonzero;stroke:none"
       aria-label="2"
       transform="matrix(1.4136267,0.76695867,-1.2922013,1.1147453,687.56813,1024.7561)" />
    <path
       id="path661"
       d="m 557.614,778.32 c -14.243,6.648 -31.39,0.414 -38.038,-13.829 L 457.452,631.389 c -6.648,-14.244 -0.413,-31.387 13.831,-38.035 l 67.998,-31.738 c 14.244,-6.648 31.385,-0.416 38.033,13.828 l 62.124,133.102 c 6.648,14.244 0.418,31.389 -13.826,38.037 z m -6.652,-14.253 67.998,-31.737 c 6.595,-3.078 9.307,-10.538 6.229,-17.133 L 563.065,582.095 c -3.079,-6.596 -10.538,-9.308 -17.133,-6.229 l -67.998,31.737 c -6.596,3.079 -9.311,10.54 -6.233,17.135 l 62.124,133.102 c 3.078,6.595 10.541,9.306 17.137,6.227 z"
       style="fill:#ffffff;fill-opacity:1;fill-rule:nonzero;stroke:none"
       transform="matrix(1.3333333,0,0,-1.3333333,-11.338533,1598.8481)" />
    <path
       id="path662"
       d="m 554.288,771.194 67.997,-31.737 c 10.419,-4.863 14.893,-17.166 10.029,-27.586 L 570.191,578.77 c -4.864,-10.419 -17.167,-14.892 -27.586,-10.029 l -67.998,31.737 c -10.419,4.863 -14.892,17.166 -10.029,27.586 l 62.124,133.101 c 4.863,10.419 17.166,14.893 27.586,10.029 z"
       style="fill:#56b1bc;fill-opacity:1;fill-rule:nonzero;stroke:none"
       transform="matrix(1.3333333,0,0,-1.3333333,-11.338533,1598.8481)" />
    <path
       id="path663"
       d="m 634.677,732.003 c -1.417,0.477 -2.979,0.269 -4.222,-0.562 L 460.658,617.852 c -1.719,-1.15 -2.516,-3.282 -1.974,-5.278 0.065,-0.241 0.144,-0.533 0.25,-0.874 0.122,-0.391 0.253,-0.779 0.392,-1.161 0.139,-0.383 0.287,-0.765 0.446,-1.144 0.159,-0.379 0.326,-0.752 0.5,-1.118 0.173,-0.363 0.357,-0.729 0.554,-1.097 0.196,-0.364 0.399,-0.72 0.608,-1.068 0.212,-0.353 0.432,-0.7 0.66,-1.042 0.228,-0.34 0.464,-0.678 0.711,-1.011 0.247,-0.334 0.502,-0.659 0.763,-0.978 0.263,-0.322 0.534,-0.636 0.812,-0.944 0.275,-0.304 0.561,-0.607 0.861,-0.907 0.295,-0.296 0.599,-0.586 0.909,-0.868 0.001,0 0.001,0 0.001,0 0.316,-0.287 0.635,-0.561 0.958,-0.826 0.326,-0.268 0.661,-0.528 1.003,-0.782 0.342,-0.253 0.691,-0.499 1.049,-0.738 0.356,-0.237 0.72,-0.466 1.093,-0.688 0.373,-0.223 0.753,-0.435 1.135,-0.638 0.384,-0.203 0.775,-0.399 1.177,-0.586 l 67.997,-31.737 c 0.401,-0.187 0.803,-0.362 1.205,-0.525 0.4,-0.163 0.807,-0.318 1.219,-0.462 0.41,-0.144 0.82,-0.274 1.228,-0.395 0.413,-0.121 0.826,-0.231 1.239,-0.33 0.415,-0.099 0.83,-0.188 1.245,-0.267 0.41,-0.077 0.825,-0.145 1.247,-0.203 0,0 10e-4,-10e-4 10e-4,-10e-4 0.416,-0.057 0.832,-0.103 1.249,-0.14 0.423,-0.036 0.839,-0.061 1.249,-0.077 0.414,-0.015 0.829,-0.021 1.245,-0.016 0.412,0.004 0.825,0.019 1.239,0.043 0.414,0.025 0.825,0.061 1.232,0.105 0.408,0.045 0.816,0.099 1.222,0.163 0.402,0.063 0.805,0.136 1.21,0.22 0.409,0.085 0.807,0.179 1.196,0.28 0.386,0.1 0.78,0.21 1.179,0.334 0.399,0.124 0.787,0.256 1.162,0.393 0.383,0.139 0.764,0.287 1.142,0.446 0.373,0.156 0.747,0.322 1.12,0.5 0.375,0.178 0.74,0.364 1.096,0.555 0.359,0.192 0.715,0.395 1.068,0.607 0.346,0.207 0.694,0.427 1.042,0.66 0.348,0.232 0.684,0.469 1.011,0.711 0.326,0.242 0.653,0.495 0.979,0.762 0.325,0.266 0.639,0.537 0.944,0.813 0.311,0.281 0.613,0.569 0.906,0.861 0.297,0.296 0.586,0.6 0.868,0.911 0.28,0.308 0.556,0.627 0.827,0.957 0.266,0.324 0.527,0.658 0.782,1.003 0.254,0.342 0.5,0.693 0.738,1.049 0.236,0.355 0.466,0.718 0.688,1.092 0.223,0.374 0.435,0.753 0.638,1.136 0.203,0.383 0.399,0.776 0.586,1.177 l 62.123,133.1 c 0.188,0.402 0.363,0.804 0.526,1.206 0.163,0.401 0.318,0.807 0.461,1.218 0.144,0.411 0.275,0.82 0.395,1.229 0.121,0.412 0.231,0.826 0.33,1.239 0.1,0.414 0.189,0.829 0.267,1.244 0.079,0.419 0.146,0.835 0.203,1.248 0.057,0.416 0.104,0.833 0.14,1.25 0.036,0.413 0.062,0.829 0.078,1.248 0.016,0.411 0.022,0.826 0.017,1.246 -0.005,0.421 -0.02,0.834 -0.045,1.239 -0.024,0.406 -0.058,0.817 -0.103,1.232 -0.046,0.417 -0.101,0.824 -0.164,1.222 -0.064,0.408 -0.138,0.81 -0.221,1.209 -0.083,0.401 -0.176,0.8 -0.278,1.196 -0.102,0.394 -0.214,0.787 -0.336,1.18 0,0 0,10e-4 0,10e-4 -0.1,0.325 -0.191,0.579 -0.256,0.768 -0.489,1.413 -1.607,2.522 -3.025,2.999 z m -5.309,-12.905 c -0.019,-0.191 -0.037,-0.381 -0.063,-0.572 -0.036,-0.262 -0.078,-0.521 -0.126,-0.776 -0.048,-0.258 -0.103,-0.517 -0.165,-0.774 -0.062,-0.259 -0.131,-0.515 -0.206,-0.771 -0.077,-0.26 -0.159,-0.516 -0.247,-0.769 -0.088,-0.253 -0.184,-0.506 -0.288,-0.763 -0.105,-0.256 -0.216,-0.511 -0.332,-0.761 l -62.124,-133.1 c -0.116,-0.25 -0.24,-0.499 -0.369,-0.743 -0.13,-0.245 -0.264,-0.481 -0.4,-0.711 -0.138,-0.23 -0.281,-0.458 -0.431,-0.683 -0.149,-0.223 -0.302,-0.442 -0.459,-0.654 -0.156,-0.211 -0.319,-0.418 -0.487,-0.623 -0.164,-0.2 -0.336,-0.399 -0.514,-0.595 -0.176,-0.194 -0.355,-0.381 -0.538,-0.564 -0.186,-0.186 -0.374,-0.364 -0.563,-0.535 -0.195,-0.176 -0.39,-0.345 -0.585,-0.504 -0.194,-0.159 -0.397,-0.317 -0.609,-0.474 -0.211,-0.156 -0.419,-0.304 -0.626,-0.442 -0.207,-0.138 -0.423,-0.275 -0.649,-0.41 -0.217,-0.13 -0.438,-0.256 -0.665,-0.377 -0.23,-0.124 -0.458,-0.24 -0.682,-0.347 -0.226,-0.107 -0.459,-0.211 -0.697,-0.311 -0.234,-0.098 -0.47,-0.191 -0.711,-0.278 -0.247,-0.09 -0.488,-0.171 -0.723,-0.244 -0.234,-0.073 -0.479,-0.142 -0.735,-0.208 -0.255,-0.065 -0.503,-0.124 -0.745,-0.174 -0.246,-0.051 -0.498,-0.097 -0.753,-0.138 -0.252,-0.039 -0.505,-0.073 -0.76,-0.101 -0.257,-0.028 -0.512,-0.049 -0.765,-0.064 -0.254,-0.015 -0.511,-0.025 -0.77,-0.027 -0.256,-0.003 -0.512,0 -0.772,0.01 -0.264,0.01 -0.522,0.026 -0.775,0.048 -0.258,0.022 -0.516,0.052 -0.775,0.087 -0.253,0.035 -0.511,0.077 -0.775,0.126 -0.259,0.049 -0.518,0.104 -0.775,0.166 -0.258,0.062 -0.514,0.13 -0.77,0.206 -0.26,0.076 -0.516,0.158 -0.769,0.247 -0.252,0.088 -0.507,0.184 -0.765,0.288 -0.256,0.105 -0.509,0.215 -0.759,0.332 l -67.997,31.737 c -0.25,0.116 -0.497,0.24 -0.742,0.369 -0.245,0.13 -0.481,0.263 -0.711,0.4 -0.231,0.138 -0.461,0.282 -0.684,0.431 -0.222,0.148 -0.44,0.3 -0.653,0.459 -0.213,0.157 -0.421,0.32 -0.625,0.487 -0.207,0.17 -0.405,0.342 -0.594,0.513 h -10e-4 c -0.193,0.176 -0.381,0.355 -0.563,0.538 -0.18,0.18 -0.358,0.368 -0.535,0.564 -0.174,0.192 -0.342,0.387 -0.504,0.585 -0.164,0.2 -0.322,0.403 -0.473,0.607 -0.152,0.204 -0.299,0.413 -0.443,0.628 -0.142,0.213 -0.279,0.429 -0.41,0.647 -0.133,0.222 -0.259,0.445 -0.378,0.666 -0.037,0.07 -0.073,0.147 -0.11,0.219 z"
       style="fill:#ffffff;fill-opacity:1;fill-rule:nonzero;stroke:none"
       transform="matrix(1.3333333,0,0,-1.3333333,-11.338533,1598.8481)" />
    <path
       id="path664"
       d="m 463.342,613.84 c 0.065,-0.238 0.129,-0.475 0.202,-0.71 0.099,-0.317 0.204,-0.631 0.318,-0.942 0.113,-0.312 0.234,-0.622 0.362,-0.928 0.128,-0.306 0.264,-0.608 0.406,-0.907 0.143,-0.3 0.292,-0.597 0.45,-0.89 0.157,-0.293 0.321,-0.582 0.493,-0.867 0.171,-0.285 0.35,-0.567 0.535,-0.844 0.185,-0.278 0.377,-0.551 0.576,-0.82 0.2,-0.269 0.406,-0.533 0.618,-0.793 0.213,-0.259 0.432,-0.514 0.658,-0.764 0.226,-0.25 0.459,-0.496 0.698,-0.735 0.239,-0.24 0.485,-0.474 0.737,-0.703 0.253,-0.229 0.512,-0.452 0.776,-0.67 0.265,-0.217 0.537,-0.429 0.814,-0.635 0.278,-0.205 0.561,-0.405 0.851,-0.598 0.29,-0.193 0.587,-0.38 0.889,-0.56 0.302,-0.18 0.609,-0.352 0.923,-0.518 0.314,-0.167 0.634,-0.326 0.959,-0.478 l 67.998,-31.737 c 0.325,-0.152 0.653,-0.295 0.982,-0.429 0.329,-0.133 0.659,-0.259 0.991,-0.375 0.332,-0.116 0.665,-0.222 0.999,-0.32 0.334,-0.099 0.669,-0.188 1.005,-0.269 0.336,-0.08 0.672,-0.152 1.009,-0.216 0.337,-0.063 0.674,-0.118 1.012,-0.165 0.337,-0.046 0.675,-0.084 1.012,-0.113 0.338,-0.03 0.675,-0.05 1.012,-0.063 0.337,-0.013 0.673,-0.017 1.008,-0.013 0.336,0.003 0.671,0.015 1.005,0.035 0.334,0.02 0.667,0.049 0.998,0.085 0.332,0.036 0.662,0.08 0.991,0.132 0.329,0.052 0.656,0.111 0.982,0.179 0.325,0.067 0.649,0.143 0.97,0.227 0.322,0.083 0.641,0.172 0.958,0.271 0.316,0.098 0.631,0.205 0.942,0.318 0.312,0.113 0.62,0.234 0.926,0.362 0.306,0.128 0.609,0.263 0.909,0.406 0.3,0.142 0.596,0.293 0.889,0.45 0.293,0.157 0.581,0.321 0.867,0.493 0.285,0.171 0.568,0.349 0.845,0.534 0.277,0.186 0.55,0.378 0.819,0.577 0.269,0.199 0.534,0.405 0.793,0.618 0.26,0.212 0.515,0.433 0.765,0.659 0.25,0.226 0.495,0.459 0.735,0.698 0.239,0.239 0.474,0.485 0.703,0.737 0.229,0.252 0.452,0.511 0.67,0.776 0.217,0.265 0.429,0.535 0.634,0.813 0.206,0.277 0.406,0.562 0.599,0.852 0.193,0.289 0.379,0.585 0.559,0.887 0.18,0.302 0.353,0.61 0.519,0.923 0.166,0.314 0.326,0.635 0.478,0.96 l 62.124,133.101 c 0.152,0.325 0.295,0.654 0.428,0.983 0.134,0.329 0.259,0.659 0.375,0.991 0.116,0.331 0.223,0.664 0.321,0.998 0.098,0.334 0.187,0.669 0.268,1.005 0.081,0.336 0.153,0.673 0.216,1.01 0.063,0.336 0.118,0.674 0.164,1.011 0.046,0.338 0.084,0.675 0.114,1.013 0.029,0.337 0.05,0.674 0.063,1.011 0.013,0.337 0.018,0.674 0.014,1.009 -0.004,0.336 -0.016,0.672 -0.036,1.005 -0.02,0.334 -0.048,0.667 -0.084,0.999 -0.036,0.331 -0.081,0.662 -0.133,0.991 -0.052,0.329 -0.112,0.655 -0.179,0.98 -0.068,0.326 -0.143,0.649 -0.226,0.97 -0.083,0.322 -0.174,0.642 -0.272,0.958 -0.065,0.21 -0.138,0.416 -0.209,0.623 z"
       style="fill:#4881a2;fill-opacity:1;fill-rule:nonzero;stroke:none"
       transform="matrix(1.3333333,0,0,-1.3333333,-11.338533,1598.8481)" />
    <path
       id="path665"
       d="m 563.081,701.325 c -17.235,8.044 -37.949,0.512 -45.993,-16.722 -8.044,-17.234 -0.513,-37.949 16.721,-45.993 17.234,-8.044 37.953,-0.514 45.997,16.72 8.044,17.234 0.509,37.951 -16.725,45.995 z m -6.651,-14.25 c 9.533,-4.449 13.572,-15.56 9.123,-25.093 -4.449,-9.532 -15.56,-13.572 -25.093,-9.122 -9.533,4.449 -13.572,15.56 -9.123,25.092 4.449,9.533 15.56,13.573 25.093,9.123 z"
       style="fill:#ffffff;fill-opacity:1;fill-rule:nonzero;stroke:none"
       transform="matrix(1.3333333,0,0,-1.3333333,-11.338533,1598.8481)" />
    <path
       id="path666"
       d="m 572.679,658.657 c -6.205,-13.294 -22.25,-19.127 -35.543,-12.922 -13.294,6.204 -19.128,22.249 -12.923,35.543 0,0 0,0 0,0 6.205,13.294 22.25,19.127 35.544,12.923 13.294,-6.205 19.127,-22.25 12.922,-35.544 z"
       style="fill:#be32a0;fill-opacity:1;fill-rule:nonzero;stroke:none"
       transform="matrix(1.3333333,0,0,-1.3333333,-11.338533,1598.8481)" />
    <path
       id="path667"
       d="m 12.032691,-28.045668 -0.0012,28.04296447 -6.99437,0.00458326 0.00119,-15.02458173 c 3.306e-4,-2.171932 -0.051031,-3.47677 -0.1540837,-3.914514 -0.1020863,-0.444349 -0.3874567,-0.778199 -0.8561112,-1.001552 -0.4721732,-0.227856 -1.5167437,-0.34129 -3.1337114,-0.340301 l -0.68534651,0.0012 -0.006059,-3.270208 c 3.38573901,-0.725262 5.96095781,-2.221195 7.71765241,-4.4902 z m 15.865499,12.160487 c 1.060039,0.364583 1.851185,0.95361 2.373438,1.767081 0.516491,0.810018 0.772603,2.714122 0.767368,5.7189188 0.0062,2.2273259 -0.242589,3.9558179 -0.750808,5.1875778 -0.509978,1.2295082 -1.390551,2.1651021 -2.64075,2.80017641 -1.248923,0.64062868 -2.84408,0.96362283 -4.786746,0.96342811 -2.212643,0.003273 -3.954337,-0.37103128 -5.225563,-1.11960928 -1.267708,-0.74407454 -2.09764,-1.65330464 -2.491073,-2.73324454 -0.393917,-1.0766372 -0.594173,-2.9484691 -0.599009,-5.613244 l 0.0071,-2.2181693 6.9854,-3.79e-4 0.0024,4.5516293 c -2.81e-4,1.2152191 0.07093,1.9847289 0.213155,2.3118321 0.139979,0.3281541 0.460729,0.491617 0.963526,0.4959432 0.543474,-0.00243 0.901864,-0.2103667 1.068925,-0.6239556 0.169786,-0.4179425 0.259622,-1.5028626 0.259743,-3.2594135 l 4.49e-4,-1.9443506 c 0.0013,-1.0649489 -0.118454,-1.8455649 -0.359165,-2.3418479 -0.244229,-0.500786 -0.603745,-0.827577 -1.075821,-0.984727 -0.472559,-0.153847 -1.390647,-0.246571 -2.750746,-0.273669 l 0.001,-4.061039 c 1.666927,2.1e-4 2.695642,-0.0635 3.086146,-0.19112 0.392264,-0.125371 0.672892,-0.401456 0.848131,-0.828106 0.169477,-0.430102 0.253342,-1.103094 0.252871,-2.01342 l 0.0033,-1.564247 c -0.0068,-0.981182 -0.111124,-1.62444 -0.310208,-1.934126 -0.192838,-0.309536 -0.50831,-0.466244 -0.942413,-0.468923 -0.474298,7.77e-4 -0.801425,0.166377 -0.983625,0.497851 -0.185718,0.326971 -0.280178,1.029536 -0.275374,2.110098 l -0.0097,2.293229 -6.9854,3.79e-4 0.01429,-2.3815 c -0.0047,-2.680237 0.602871,-4.490714 1.822598,-5.43143 1.224212,-0.942818 3.168575,-1.410997 5.837575,-1.406639 3.336579,-0.0039 5.59764,0.646862 6.783183,1.952389 1.18651,1.298922 1.781853,3.111735 1.786029,5.43844 -0.0051,1.561996 -0.22081,2.69361 -0.646729,3.39154 -0.419675,0.69808 -1.168837,1.335228 -2.243485,1.912647 z m 0,0"
       style="fill:#ffffff;fill-opacity:1;fill-rule:nonzero;stroke:none"
       aria-label="13"
       transform="matrix(1.2749267,0.59506,-0.99618267,1.2698413,685.57347,712.50547)" />
    <path
       id="path668"
       d="m 317.723,448.425 c -2.043,-4.202 -5.151,-7.785 -9.059,-9.873 l 36.068,6.15 -26.56,25.164 c 1.939,-3.63 2.587,-7.95 2.157,-12.256 -3.471,3.932 -5.937,8.924 -6.88,14.571 -2.542,15.218 6.948,29.616 21.346,32.02 14.398,2.405 28.052,-8.129 30.593,-23.346 2.216,-13.273 -4.719,-25.923 -16.081,-30.534 l 2.956,-7.841 c 14.956,5.972 24.293,22.375 21.39,39.755 -3.324,19.902 -21.408,33.376 -40.238,30.231 -18.83,-3.144 -31.555,-21.763 -28.231,-41.665 1.454,-8.71 5.744,-16.2 11.678,-21.594 z"
       style="fill:#add53f;fill-opacity:1;fill-rule:evenodd;stroke:none"
       transform="matrix(1.3333333,0,0,-1.3333333,-11.338533,1598.8481)" />
    <path
       id="path669"
       d="m 239.933,772.08 c -15.819,-5.019 -24.684,-22.121 -19.665,-37.941 l 46.895,-147.826 c 5.019,-15.82 22.12,-24.681 37.939,-19.662 l 75.521,23.957 c 15.819,5.019 24.681,22.116 19.663,37.936 L 353.39,776.37 c -5.018,15.82 -22.117,24.686 -37.936,19.667 z m 5.022,-15.83 75.521,23.958 c 7.325,2.323 14.765,-1.533 17.089,-8.858 L 384.46,623.523 c 2.324,-7.325 -1.533,-14.765 -8.858,-17.089 l -75.52,-23.957 c -7.325,-2.324 -14.769,1.531 -17.093,8.856 L 236.093,739.16 c -2.323,7.325 1.537,14.766 8.862,17.09 z"
       style="fill:#ffffff;fill-opacity:1;fill-rule:nonzero;stroke:none"
       transform="matrix(1.3333333,0,0,-1.3333333,-11.338533,1598.8481)" />
    <path
       id="path670"
       d="m 242.444,764.165 75.519,23.957 c 11.573,3.671 23.844,-2.689 27.515,-14.262 l 46.895,-147.825 c 3.671,-11.572 -2.689,-23.844 -14.262,-27.515 l -75.519,-23.957 c -11.572,-3.671 -23.844,2.689 -27.515,14.262 L 228.182,736.65 c -3.671,11.572 2.69,23.844 14.262,27.515 z"
       style="fill:#be32a0;fill-opacity:1;fill-rule:nonzero;stroke:none"
       transform="matrix(1.3333333,0,0,-1.3333333,-11.338533,1598.8481)" />
    <path
       id="path671"
       d="m 332.921,791.191 c -1.443,-0.643 -2.507,-1.921 -2.879,-3.456 L 279.333,578.088 c -0.514,-2.122 0.391,-4.349 2.239,-5.512 0.223,-0.14 0.494,-0.311 0.819,-0.5 0.375,-0.217 0.753,-0.425 1.135,-0.623 0.382,-0.197 0.77,-0.388 1.164,-0.569 0.395,-0.181 0.792,-0.351 1.189,-0.511 0.393,-0.158 0.797,-0.311 1.214,-0.456 0.412,-0.143 0.824,-0.274 1.236,-0.396 0.417,-0.122 0.837,-0.234 1.258,-0.336 0.42,-0.102 0.845,-0.196 1.275,-0.278 0.431,-0.083 0.861,-0.154 1.292,-0.215 0.434,-0.061 0.869,-0.112 1.305,-0.152 0.432,-0.04 0.871,-0.071 1.318,-0.09 0.442,-0.019 0.884,-0.027 1.327,-0.024 0,10e-4 0.001,10e-4 0.001,10e-4 0.45,0.003 0.894,0.018 1.334,0.043 0.445,0.025 0.892,0.062 1.339,0.11 0.446,0.047 0.894,0.106 1.342,0.176 0.446,0.071 0.893,0.152 1.342,0.246 0.449,0.094 0.896,0.201 1.338,0.317 0.443,0.116 0.887,0.244 1.333,0.386 l 75.519,23.957 c 0.446,0.141 0.883,0.293 1.312,0.453 0.428,0.16 0.854,0.33 1.277,0.513 0.422,0.182 0.833,0.373 1.237,0.572 0.407,0.201 0.807,0.411 1.198,0.629 0.394,0.219 0.78,0.447 1.158,0.683 0.374,0.233 0.745,0.477 1.115,0.733 0,0 0,10e-4 10e-4,10e-4 0.363,0.253 0.72,0.514 1.07,0.784 0.355,0.273 0.696,0.552 1.026,0.833 0.333,0.284 0.659,0.576 0.979,0.877 0.316,0.298 0.627,0.604 0.931,0.92 0.304,0.315 0.598,0.637 0.882,0.962 0.286,0.326 0.564,0.66 0.834,1 0.266,0.337 0.528,0.681 0.782,1.036 0.257,0.359 0.499,0.717 0.729,1.072 0.229,0.354 0.456,0.722 0.678,1.104 0.221,0.381 0.427,0.761 0.622,1.136 0.198,0.381 0.387,0.769 0.568,1.163 0.178,0.388 0.35,0.784 0.513,1.189 0.163,0.407 0.314,0.812 0.454,1.214 0.141,0.407 0.273,0.818 0.396,1.236 0.12,0.408 0.234,0.827 0.338,1.257 0.104,0.429 0.196,0.854 0.277,1.276 0.08,0.421 0.153,0.851 0.215,1.291 0.063,0.439 0.113,0.875 0.152,1.307 0.041,0.441 0.07,0.88 0.089,1.317 0.019,0.442 0.026,0.885 0.023,1.329 -0.003,0.439 -0.016,0.884 -0.042,1.334 -0.025,0.442 -0.061,0.888 -0.109,1.338 -0.048,0.448 -0.107,0.896 -0.177,1.343 -0.07,0.444 -0.151,0.891 -0.246,1.34 -0.094,0.45 -0.2,0.896 -0.317,1.339 -0.116,0.443 -0.244,0.888 -0.386,1.333 l -46.895,147.825 c -0.141,0.446 -0.293,0.884 -0.453,1.313 -0.16,0.428 -0.33,0.854 -0.513,1.276 -0.182,0.422 -0.373,0.833 -0.571,1.237 -0.201,0.407 -0.412,0.806 -0.63,1.198 -0.219,0.394 -0.446,0.779 -0.682,1.158 -0.239,0.382 -0.484,0.753 -0.735,1.114 -0.253,0.364 -0.515,0.722 -0.785,1.072 -0.267,0.346 -0.544,0.688 -0.831,1.026 -0.282,0.329 -0.574,0.657 -0.878,0.979 -0.304,0.324 -0.612,0.634 -0.921,0.932 -0.309,0.297 -0.629,0.592 -0.961,0.882 -0.333,0.291 -0.667,0.569 -1.001,0.833 -0.341,0.271 -0.686,0.531 -1.036,0.781 -0.351,0.252 -0.708,0.495 -1.071,0.73 -0.361,0.233 -0.729,0.459 -1.104,0.677 -10e-4,0 -10e-4,10e-4 -10e-4,10e-4 -0.311,0.181 -0.563,0.313 -0.748,0.413 -1.39,0.749 -3.052,0.811 -4.494,0.168 z m 5.102,-13.822 c 0.121,-0.162 0.243,-0.323 0.359,-0.49 0.16,-0.229 0.312,-0.461 0.457,-0.692 0.147,-0.236 0.29,-0.477 0.426,-0.721 0.136,-0.245 0.266,-0.493 0.39,-0.746 0.127,-0.256 0.246,-0.514 0.358,-0.774 0.112,-0.259 0.22,-0.524 0.322,-0.799 0.102,-0.273 0.198,-0.55 0.286,-0.828 l 46.895,-147.825 c 0.088,-0.277 0.169,-0.559 0.244,-0.841 0.074,-0.283 0.139,-0.562 0.197,-0.839 0.058,-0.277 0.11,-0.556 0.154,-0.838 0.044,-0.28 0.082,-0.559 0.111,-0.836 0.03,-0.276 0.051,-0.553 0.067,-0.833 0.016,-0.273 0.024,-0.55 0.026,-0.829 0.002,-0.277 -0.003,-0.55 -0.015,-0.823 -0.012,-0.277 -0.03,-0.55 -0.054,-0.818 -0.026,-0.277 -0.057,-0.547 -0.094,-0.81 -0.037,-0.262 -0.083,-0.53 -0.135,-0.803 -0.052,-0.273 -0.108,-0.536 -0.17,-0.792 -0.062,-0.255 -0.133,-0.516 -0.211,-0.782 -0.076,-0.257 -0.158,-0.512 -0.247,-0.769 -0.091,-0.26 -0.185,-0.514 -0.283,-0.757 -0.098,-0.245 -0.205,-0.492 -0.319,-0.74 -0.111,-0.243 -0.228,-0.484 -0.353,-0.724 -0.128,-0.247 -0.257,-0.483 -0.387,-0.707 -0.13,-0.223 -0.271,-0.452 -0.423,-0.687 -0.151,-0.233 -0.302,-0.456 -0.454,-0.667 -0.155,-0.216 -0.317,-0.432 -0.487,-0.646 -0.167,-0.211 -0.339,-0.418 -0.518,-0.622 -0.179,-0.205 -0.362,-0.404 -0.548,-0.597 -0.187,-0.193 -0.38,-0.384 -0.579,-0.572 -0.197,-0.185 -0.399,-0.365 -0.607,-0.543 -0.212,-0.181 -0.425,-0.354 -0.637,-0.517 -0.216,-0.167 -0.438,-0.329 -0.664,-0.487 -0.221,-0.153 -0.452,-0.306 -0.692,-0.456 -0.236,-0.147 -0.476,-0.289 -0.72,-0.425 -0.246,-0.137 -0.494,-0.266 -0.746,-0.391 -0.257,-0.126 -0.515,-0.245 -0.774,-0.358 -0.259,-0.111 -0.526,-0.219 -0.801,-0.322 -0.273,-0.102 -0.549,-0.197 -0.827,-0.285 L 301.051,579.42 c -0.278,-0.088 -0.558,-0.169 -0.841,-0.243 -0.283,-0.075 -0.562,-0.14 -0.838,-0.198 -0.278,-0.058 -0.56,-0.11 -0.84,-0.154 -0.278,-0.044 -0.556,-0.081 -0.835,-0.111 -0.278,-0.029 -0.556,-0.051 -0.834,-0.067 -0.282,-0.016 -0.559,-0.025 -0.828,-0.027 h -0.001 c -0.276,-0.002 -0.55,0.003 -0.822,0.015 -0.268,0.011 -0.541,0.03 -0.819,0.055 -0.273,0.026 -0.542,0.057 -0.809,0.095 -0.271,0.038 -0.539,0.083 -0.802,0.133 -0.264,0.051 -0.528,0.108 -0.793,0.172 -0.263,0.064 -0.524,0.134 -0.781,0.21 -0.263,0.077 -0.52,0.159 -0.77,0.246 -0.079,0.028 -0.162,0.062 -0.242,0.092 z"
       style="fill:#ffffff;fill-opacity:1;fill-rule:nonzero;stroke:none"
       transform="matrix(1.3333333,0,0,-1.3333333,-11.338533,1598.8481)" />
    <path
       id="path672"
       d="m 284.287,576.89 c 0.219,-0.139 0.439,-0.277 0.664,-0.407 0.303,-0.176 0.609,-0.344 0.92,-0.505 0.311,-0.161 0.627,-0.316 0.945,-0.462 0.318,-0.146 0.639,-0.284 0.964,-0.414 0.325,-0.131 0.654,-0.255 0.985,-0.37 0.332,-0.115 0.666,-0.222 1.004,-0.322 0.337,-0.099 0.677,-0.19 1.019,-0.273 0.342,-0.083 0.687,-0.158 1.034,-0.224 0.347,-0.067 0.696,-0.125 1.047,-0.175 0.351,-0.049 0.703,-0.09 1.057,-0.123 0.355,-0.033 0.711,-0.057 1.068,-0.072 0.358,-0.016 0.716,-0.022 1.076,-0.02 0.359,0.003 0.72,0.015 1.081,0.035 0.362,0.021 0.724,0.05 1.087,0.089 0.362,0.039 0.725,0.086 1.088,0.144 0.363,0.057 0.727,0.124 1.091,0.2 0.363,0.076 0.725,0.162 1.088,0.257 0.363,0.095 0.725,0.2 1.087,0.314 l 75.519,23.958 c 0.362,0.115 0.718,0.238 1.07,0.369 0.351,0.131 0.698,0.271 1.038,0.418 0.341,0.147 0.676,0.302 1.006,0.465 0.329,0.162 0.654,0.332 0.972,0.51 0.319,0.177 0.632,0.362 0.939,0.554 0.307,0.191 0.608,0.389 0.904,0.594 0.295,0.206 0.584,0.418 0.867,0.636 0.284,0.218 0.56,0.444 0.831,0.675 0.271,0.231 0.535,0.467 0.793,0.71 0.258,0.243 0.51,0.492 0.755,0.746 0.245,0.254 0.484,0.514 0.716,0.78 0.232,0.265 0.457,0.535 0.675,0.81 0.218,0.276 0.43,0.556 0.635,0.841 0.204,0.285 0.401,0.576 0.591,0.87 0.191,0.295 0.375,0.593 0.551,0.896 0.176,0.302 0.343,0.61 0.504,0.921 0.162,0.311 0.315,0.625 0.461,0.943 0.146,0.318 0.285,0.64 0.416,0.965 0.131,0.325 0.253,0.654 0.368,0.986 0.116,0.331 0.223,0.665 0.322,1.002 0.099,0.337 0.191,0.677 0.274,1.02 0.083,0.342 0.157,0.686 0.224,1.033 0.066,0.347 0.125,0.697 0.175,1.047 0.05,0.351 0.09,0.705 0.123,1.059 0.033,0.354 0.056,0.71 0.071,1.068 0.016,0.357 0.022,0.715 0.02,1.075 -0.003,0.36 -0.014,0.72 -0.034,1.082 -0.021,0.361 -0.05,0.723 -0.088,1.085 -0.039,0.363 -0.087,0.727 -0.145,1.09 -0.057,0.363 -0.123,0.726 -0.199,1.089 -0.076,0.363 -0.162,0.726 -0.257,1.089 -0.096,0.362 -0.201,0.726 -0.315,1.087 L 345.479,773.86 c -0.115,0.362 -0.239,0.719 -0.37,1.07 -0.131,0.352 -0.27,0.698 -0.417,1.038 -0.147,0.341 -0.303,0.676 -0.465,1.006 -0.163,0.329 -0.333,0.653 -0.51,0.972 -0.177,0.318 -0.362,0.632 -0.554,0.939 -0.192,0.307 -0.391,0.608 -0.596,0.903 -0.205,0.295 -0.417,0.585 -0.635,0.868 -0.219,0.283 -0.443,0.56 -0.674,0.831 -0.231,0.271 -0.468,0.536 -0.711,0.794 -0.243,0.258 -0.493,0.51 -0.747,0.755 -0.254,0.245 -0.513,0.484 -0.778,0.716 -0.266,0.232 -0.537,0.456 -0.812,0.675 -0.276,0.218 -0.556,0.429 -0.841,0.633 -0.285,0.205 -0.575,0.402 -0.869,0.592 -0.294,0.191 -0.593,0.374 -0.896,0.55 -0.2,0.116 -0.404,0.225 -0.608,0.334 z"
       style="fill:#96339e;fill-opacity:1;fill-rule:nonzero;stroke:none"
       transform="matrix(1.3333333,0,0,-1.3333333,-11.338533,1598.8481)" />
    <path
       id="path673"
       d="m 299.229,716.168 c -19.141,-6.072 -29.851,-26.734 -23.778,-45.875 6.072,-19.14 26.733,-29.85 45.874,-23.778 19.141,6.072 29.854,26.735 23.782,45.876 -6.072,19.141 -26.737,29.849 -45.878,23.777 z m 5.02,-15.826 c 10.588,3.359 21.67,-2.385 25.028,-12.973 3.359,-10.587 -2.385,-21.669 -12.973,-25.028 -10.587,-3.359 -21.669,2.385 -25.028,12.973 -3.358,10.587 2.386,21.669 12.973,25.028 z"
       style="fill:#ffffff;fill-opacity:1;fill-rule:nonzero;stroke:none"
       transform="matrix(1.3333333,0,0,-1.3333333,-11.338533,1598.8481)" />
    <path
       id="path674"
       d="m 337.192,689.88 c 4.683,-14.764 -3.612,-30.768 -18.376,-35.451 -14.765,-4.684 -30.769,3.611 -35.452,18.376 0,0 0,0 0,0 -4.684,14.764 3.611,30.768 18.376,35.451 14.764,4.684 30.768,-3.611 35.451,-18.376 z"
       style="fill:#56b1bc;fill-opacity:1;fill-rule:nonzero;stroke:none"
       transform="matrix(1.3333333,0,0,-1.3333333,-11.338533,1598.8481)" />
    <path
       id="path675"
       d="m 309.342,702.635 11.493,-36.231 -9.04,-2.868 -6.162,19.424 c -0.89,2.805 -1.492,4.47 -1.806,4.994 -0.314,0.524 -0.822,0.831 -1.524,0.921 -0.691,0.109 -2.081,-0.168 -4.17,-0.831 l -0.895,-0.284 -1.342,4.23 c 4.073,2.326 6.78,5.311 8.12,8.955 z"
       style="fill:#ffffff;fill-opacity:1;fill-rule:nonzero;stroke:none"
       transform="matrix(1.3333333,0,0,-1.3333333,-11.338533,1598.8481)" />
    <path
       id="path676"
       d="m 457.69,664.407 v 0 c 0,0 8.65842,-8.45769 12.987,-12.687 h 10e-4 l 12.986,-12.685 19.814,-70.64 -4.493,-17.588 -51.269,-52.48 -34.956,-9.804 -71.084,18.159 -12.985,12.685 -19.815,70.64 4.494,17.588 h 10e-4 l 4.492,17.587 51.268,52.481 17.479,4.903 z"
       style="fill:#56b1bc;fill-opacity:1;fill-rule:nonzero;stroke:#ffffff;stroke-width:15.7007;stroke-linecap:butt;stroke-linejoin:miter;stroke-miterlimit:10;stroke-dasharray:none;stroke-opacity:1"
       transform="matrix(1.3333333,0,0,-1.3333333,-11.338533,1598.8481)"
       sodipodi:nodetypes="cccccccccccccccccc" />
    <path
       id="path677"
       d="m 470.678,651.72 -58.592,-59.976 -4.494,-17.589 19.815,-70.639 20.309,-5.189 51.269,52.48 4.493,17.588 -19.814,70.64 z"
       style="fill:#56b1bc;fill-opacity:1;fill-rule:nonzero;stroke:none"
       transform="matrix(1.3333333,0,0,-1.3333333,-11.338533,1598.8481)" />
    <path
       id="path678"
       d="m 463.681,584.15 c 5.346,0 9.687,-5.647 9.687,-12.601 0,-6.955 -4.341,-12.602 -9.687,-12.602 -5.347,0 -9.687,5.647 -9.687,12.602 0,6.954 4.34,12.601 9.687,12.601 z"
       style="fill:#ffffff;fill-opacity:1;fill-rule:evenodd;stroke:none"
       transform="matrix(1.3333333,0,0,-1.3333333,-11.338533,1598.8481)" />
    <path
       id="path679"
       d="m 450.837,543.313 c 5.346,0 9.687,-5.646 9.687,-12.601 0,-6.955 -4.341,-12.602 -9.687,-12.602 -5.347,0 -9.687,5.647 -9.687,12.602 0,6.955 4.34,12.601 9.687,12.601 z"
       style="fill:#ffffff;fill-opacity:1;fill-rule:evenodd;stroke:none"
       transform="matrix(1.3333333,0,0,-1.3333333,-11.338533,1598.8481)" />
    <path
       id="path680"
       d="m 473.976,625.204 c 5.347,0 9.687,-5.647 9.687,-12.601 0,-6.955 -4.34,-12.602 -9.687,-12.602 -5.346,0 -9.687,5.647 -9.687,12.602 0,6.954 4.341,12.601 9.687,12.601 z"
       style="fill:#ffffff;fill-opacity:1;fill-rule:evenodd;stroke:none"
       transform="matrix(1.3333333,0,0,-1.3333333,-11.338533,1598.8481)" />
    <path
       id="path681"
       d="m 313.37,607.595 81.237,-20.754 12.985,-12.686 19.815,-70.639 -14.648,-14.994 -71.083,18.16 -12.985,12.685 -19.815,70.64 z"
       style="fill:#4e9ba7;fill-opacity:1;fill-rule:nonzero;stroke:none"
       transform="matrix(1.3333333,0,0,-1.3333333,-11.338533,1598.8481)" />
    <path
       id="path682"
       d="m 317.864,625.186 -4.493,-17.59 -4.494,-17.59 7.324,7.499 71.083,-18.16 12.986,-12.687 16.983,-60.545 -4.493,-17.59 34.955,9.805 -12.987,12.687 -16.983,60.544 4.494,17.591 51.268,52.48 10.156,-2.597 -25.973,25.374 2.831,-10.09 -51.268,-52.48 -17.475,-4.902 -71.083,18.161 z"
       style="fill:#c3dceb;fill-opacity:1;fill-rule:nonzero;stroke:none"
       transform="matrix(1.3333333,0,0,-1.3333333,-11.338533,1598.8481)" />
    <path
       id="path683"
       d="m 317.863,625.184 2.831,-10.092 71.082,-18.16 17.479,4.903 51.269,52.48 -2.831,10.091 -71.083,18.16 -17.479,-4.903 z"
       style="fill:#8fdae7;fill-opacity:1;fill-rule:nonzero;stroke:none"
       transform="matrix(1.3333333,0,0,-1.3333333,-11.338533,1598.8481)" />
    <path
       id="path684"
       d="m 354.489,555.274 c 5.075,1.683 10.972,-2.311 13.16,-8.912 2.189,-6.602 -0.154,-13.328 -5.229,-15.01 -5.075,-1.683 -10.972,2.311 -13.16,8.913 -2.189,6.601 0.154,13.327 5.229,15.009 z"
       style="fill:#ffffff;fill-opacity:1;fill-rule:evenodd;stroke:none"
       transform="matrix(1.3333333,0,0,-1.3333333,-11.338533,1598.8481)" />
    <path
       id="path685"
       d="m 384.262,675.158 c 4.617,-2.697 6.29,-8.437 3.735,-12.812 -2.555,-4.375 -8.377,-5.737 -12.994,-3.041 -4.616,2.697 -6.29,8.437 -3.735,12.812 2.555,4.375 8.377,5.737 12.994,3.041 z"
       style="fill:#ffffff;fill-opacity:1;fill-rule:evenodd;stroke:none"
       transform="matrix(1.3333333,0,0,-1.3333333,-11.338533,1598.8481)" />
    <path
       id="path686"
       d="m 436.218,663.023 c 4.617,-2.696 6.291,-8.437 3.736,-12.812 -2.555,-4.374 -8.378,-5.737 -12.994,-3.041 -4.617,2.697 -6.291,8.438 -3.736,12.812 2.555,4.375 8.378,5.737 12.994,3.041 z"
       style="fill:#ffffff;fill-opacity:1;fill-rule:evenodd;stroke:none"
       transform="matrix(1.3333333,0,0,-1.3333333,-11.338533,1598.8481)" />
    <path
       id="path687"
       d="m 391.339,650.336 c 4.616,-2.696 6.29,-8.437 3.735,-12.812 -2.555,-4.374 -8.377,-5.737 -12.994,-3.04 -4.617,2.696 -6.29,8.437 -3.735,12.811 2.555,4.375 8.377,5.737 12.994,3.041 z"
       style="fill:#ffffff;fill-opacity:1;fill-rule:evenodd;stroke:none"
       transform="matrix(1.3333333,0,0,-1.3333333,-11.338533,1598.8481)" />
    <path
       id="path688"
       d="m 400.9,623.819 c 4.616,-2.696 6.29,-8.437 3.735,-12.811 -2.555,-4.375 -8.378,-5.737 -12.994,-3.041 -4.617,2.696 -6.291,8.437 -3.736,12.812 2.555,4.374 8.378,5.737 12.995,3.04 z"
       style="fill:#ffffff;fill-opacity:1;fill-rule:evenodd;stroke:none"
       transform="matrix(1.3333333,0,0,-1.3333333,-11.338533,1598.8481)" />
    <path
       id="path689"
       d="m 347.421,633.13 c 4.617,-2.696 6.291,-8.437 3.736,-12.812 -2.555,-4.374 -8.378,-5.737 -12.994,-3.04 -4.617,2.696 -6.291,8.437 -3.736,12.811 2.555,4.375 8.378,5.737 12.994,3.041 z"
       style="fill:#ffffff;fill-opacity:1;fill-rule:evenodd;stroke:none"
       transform="matrix(1.3333333,0,0,-1.3333333,-11.338533,1598.8481)" />
    <path
       id="path690"
       d="m 677.573,732.485 c -13.407,5.634 -17.448,16.817 -13.192,33.097 -0.449,-0.136 -0.843,-0.244 -1.234,-0.377 -3.09,-1.056 -6.163,-2.313 -9.274,-3.14 -10.105,-2.685 -19.209,-1.506 -26.818,4.723 -2.69,2.204 -4.385,5.315 -5.103,9.072 -0.169,0.879 0.026,1.897 0.054,2.852 0.159,0.052 0.319,0.106 0.479,0.159 0.568,-0.627 1.097,-1.301 1.708,-1.874 4.908,-4.598 11.033,-6.55 17.82,-6.523 6.458,0.025 13.021,0.158 19.525,2.888 2.894,1.215 5.713,2.825 8.486,4.459 1.173,0.691 1.747,0.459 2.107,-0.531 0.745,-2.044 1.047,-4.226 0.01,-6.553 -1.458,-3.274 -1.857,-6.603 -1.436,-9.805 1.646,-12.548 7.408,-21.296 18.746,-24.608 1.544,-0.452 2.415,-1.483 3.196,-2.741 0.636,-1.028 0.115,-1.975 -0.834,-2.667 -5.355,-3.911 -9.923,-8.812 -14.218,-14.034 -5.31,-6.458 -8.806,-13.676 -9.248,-21.861 -0.135,-2.521 0.455,-4.985 0.853,-7.427 0.244,-1.506 -0.082,-2.072 -1.494,-1.942 -1.666,0.154 -2.826,1.16 -3.773,2.459 -3.132,4.296 -3.676,9.635 -2.51,15.325 2.26,11.024 6.766,20.98 15.664,28.498 0.116,0.098 0.207,0.232 0.486,0.551"
       style="fill:#4eb3d7;fill-opacity:1;fill-rule:nonzero;stroke:none"
       transform="matrix(1.3333333,0,0,-1.3333333,-11.338533,1598.8481)" />
    <path
       id="path691"
       d="m 194.57,773.811 c 4.089,-13.957 -2.038,-24.148 -17.353,-31.118 0.388,-0.262 0.721,-0.5 1.071,-0.719 2.769,-1.731 5.683,-3.323 8.287,-5.214 8.459,-6.145 13.289,-13.952 13.257,-23.786 -0.012,-3.477 -1.356,-6.755 -3.817,-9.683 -0.576,-0.686 -1.489,-1.177 -2.248,-1.758 -0.141,0.091 -0.283,0.181 -0.425,0.271 0.128,0.837 0.317,1.672 0.376,2.508 0.471,6.709 -1.88,12.692 -6.183,17.941 -4.094,4.994 -8.338,10.002 -14.561,13.325 -2.768,1.479 -5.795,2.65 -8.813,3.771 -1.277,0.474 -1.458,1.066 -0.918,1.969 1.116,1.867 2.618,3.479 5.078,4.143 3.46,0.934 6.295,2.726 8.513,5.072 8.696,9.195 11.847,19.184 7.263,30.07 -0.624,1.483 -0.373,2.809 0.111,4.209 0.396,1.142 1.459,1.335 2.595,1.036 6.413,-1.687 13.097,-2.138 19.858,-2.176 8.361,-0.045 16.167,1.798 22.795,6.619 2.042,1.485 3.581,3.498 5.225,5.348 1.014,1.14 1.659,1.244 2.448,0.066 0.932,-1.389 0.884,-2.924 0.474,-4.478 -1.358,-5.141 -5.156,-8.931 -10.306,-11.617 -9.979,-5.203 -20.546,-7.988 -31.993,-5.829 -0.148,0.028 -0.31,0.014 -0.734,0.03"
       style="fill:#be32a0;fill-opacity:1;fill-rule:nonzero;stroke:none"
       transform="matrix(1.3333333,0,0,-1.3333333,-11.338533,1598.8481)" />
    <path
       id="path692"
       d="m 196.948,429.191 c 7.315,12.153 18.349,19.053 31.648,22.746 4.133,1.149 7.781,0.285 10.342,-3.527 1.849,-2.756 1.564,-3.665 -1.188,-5.526 -8.015,-5.422 -16.04,-10.839 -23.895,-16.488 -2.913,-2.093 -5.33,-4.865 -8.035,-7.258 -1.726,-1.527 -3.265,-3.781 -6.133,-2.191 -2.876,1.595 -4.778,5.164 -4.157,8.121 0.299,1.411 0.935,2.751 1.418,4.123"
       style="fill:#add53e;fill-opacity:1;fill-rule:nonzero;stroke:none"
       transform="matrix(1.3333333,0,0,-1.3333333,-11.338533,1598.8481)" />
    <path
       id="path693"
       d="m 226.555,474.34 c 1.423,-2.035 2.978,-3.994 4.213,-6.137 0.638,-1.106 0.48,-2.376 -1.179,-2.895 -6.812,-2.14 -13.588,-4.393 -20.416,-6.477 -3.225,-0.983 -5.851,0.414 -7.742,3.774 -1.607,2.854 -1.277,6.147 0.833,8.305 4.394,4.494 18.454,6.326 24.291,3.43"
       style="fill:#add53e;fill-opacity:1;fill-rule:nonzero;stroke:none"
       transform="matrix(1.3333333,0,0,-1.3333333,-11.338533,1598.8481)" />
  </g>
</svg>
