<svg id="Layer_1" data-name="Layer 1" xmlns="http://www.w3.org/2000/svg" viewBox="0 0 766.08 311.22"><title>game-logo</title><path d="M492.31,268.9H482V99.75l-1.59-.24q-7.68,21.12-15.38,42.26-21.82,59.8-43.67,119.59c-1.48,4-1.94,8.19-8.68,8.05-7-.14-6.7-4.86-8-8.7Q377.79,183,351,105.14a8.7,8.7,0,0,0-2.9-4.43V268.57H337.64V49.31c4.6-1.88,5.64,1.08,6.81,4.5q14.91,43.5,30,86.95,17.91,52,35.77,104c.69,2,1.49,3.92,2.86,7.5,4.48-12.32,8.37-23.06,12.28-33.8Q454.94,137,484.6,55.6c1.18-3.23,1.17-8.15,7.71-6.42Z" transform="translate(-20.92 -15.3)"/><path d="M122.43,165.42H77.86V154.17h56v11.48c0,22,.08,43.91,0,65.87-.09,22.37-15.67,37.39-38.87,37.56-12.15.09-24.3.18-36.44,0C36.43,268.74,21,253.59,21,232.29q-.07-72.53,0-145c0-21,14.29-35.86,35.9-36.74a415.47,415.47,0,0,1,41.91.3C118.57,52,131.85,64.75,133.46,84c.86,10.33.15,20.78.15,31.67H121.94c0-8.32-.13-16.68,0-25,.35-19.64-9.08-29.1-29.31-29.18-11.46,0-22.92-.12-34.37,0-15.09.18-25.83,9.87-25.91,24.46q-.39,73.84,0,147.69c.07,13.81,9.8,23.58,24.06,24.22s28.88.58,43.3,0a23.68,23.68,0,0,0,22.52-22.94C122.91,212.08,122.43,189.26,122.43,165.42Z" transform="translate(-20.92 -15.3)"/><path d="M551.49,257.91H652.23V268.7h-112V51.06h111.9v10.5H551.51v87.06h44.31V160H551.49Z" transform="translate(-20.92 -15.3)"/><path d="M179.23,268.13,234.82,47.49h1.5q27.78,110.2,55.57,220.4c-10.57,2.88-11.28,2.29-13.71-7.38q-20.12-80-40.44-159.9c-.42-1.66-1.13-3.25-2.39-6.8-3.36,12.92-6.32,24-9.13,35.13Q209.5,195,192.85,261.11C190.6,270,189.76,270.43,179.23,268.13Z" transform="translate(-20.92 -15.3)"/><path d="M761.41,96.54,740.82,62.22C733.63,74.05,727,85.07,720.32,96c-5.63-.8-5.23-3.41-3.09-6.93C723,79.53,728.68,69.93,735,59.4H695c-2.58-5.45-.73-7,4.23-6.91,11.44.14,22.88,0,35.63,0C728,40.83,721.68,30,715,18.53l5-3.23c7,11.5,13.64,22.48,20.81,34.3,6.28-10.59,11.94-20.18,17.68-29.73,1.81-3,3.8-6.06,7.9-1.22L746.47,52.59c12.64,0,24,0,35.37,0,5.24,0,5.24.12,5.13,6.34H746.36c7,12,13.46,22.85,20.2,34.3Z" transform="translate(-20.92 -15.3)"/><path d="M619,325.3V301.69l-1.55-.29q-4.77,12.47-9.53,25l-1.69,0q-4.44-12.56-8.9-25.11l-1.21.08v24.2h-1.86V286.33c4.27,12.13,8.31,23.59,12.92,36.7,4.76-12.94,8.89-24.19,13-35.44l.82.21v37.45Z" transform="translate(-20.92 -15.3)"/><path d="M629.3,325.85V288.72h18.48l.11,1.28h-16v14.86l6.34.8.25,1-6.79,1.76v15.83H647.8v1.57Z" transform="translate(-20.92 -15.3)"/><path d="M763.81,309.66c3.49,5.37,6.9,10.65,10.31,15.92l-1.48.94-12.59-18.36-2.46.73-.87,16.43-.94,0V289.13c10.43-2.48,17.13-1,18.72,4.21C777.18,302.08,774.33,306.63,763.81,309.66Zm-6.37-2.1c5.45-1.24,11.23-1,13.86-3.66,2.05-2.09,1.84-9.56-.33-11.43-2.83-2.44-8.57-1.74-13.53-2.45Z" transform="translate(-20.92 -15.3)"/><path d="M556.49,308.81l-6.38-1,.06-.93h8.55c0,4.31.18,8.47,0,12.62-.35,6.32-4.87,7-10.17,7s-9.2-1.12-9.26-7.1c-.08-7.3-.38-14.62.13-21.89.21-2.89,1.79-7.6,3.67-8.08a21.43,21.43,0,0,1,12.9.83c2.09.89,2.4,5.65,3.52,8.67l-2.11.69c-.34-.85-1-1.74-1-2.56.65-6.86-4-6.56-8.89-6.63-5.27-.09-6.72,2.46-6.6,7,.17,6.85.2,13.72,0,20.58-.16,5.8,3.52,6.21,8.1,6.26s7.75-.7,7.49-6C556.37,315.23,556.49,312.17,556.49,308.81Z" transform="translate(-20.92 -15.3)"/><path d="M692.53,296.35c-2.53-2.06-4.63-5.15-7.21-5.57-4.34-.72-10-1.87-10.49,5.62-.5,8.13.74,9.72,9.14,10.06,7.31.29,8.9,2.29,8.72,11-.15,7.09-2.11,9-9.49,9-7.87.06-9.58-1.36-9.83-9.35.87,1.73,1.31,2.47,1.62,3.27,2.32,6,7.64,4.09,11.72,3.53,5.61-.78,3.61-5.76,3.88-9.21.34-4.52-2.44-6.12-6.75-6.47-10.29-.84-13.48-5.17-10.66-14.75,1.86-6.34,7.45-5.68,12.45-5.16S692.94,291.73,692.53,296.35Z" transform="translate(-20.92 -15.3)"/><path d="M738.08,289.89l9.13,35.91-1.76.49Q741.75,312.65,738,299l-1.18-.05-7.26,27.19-1.75-.46q4.45-17.88,8.9-35.75Z" transform="translate(-20.92 -15.3)"/><path d="M584.2,326.21l-7.35-27.54-1.08.09q-3.67,13.73-7.33,27.45l-1.75-.43q4.45-18,8.92-35.95l1.28-.19L586,325.69Z" transform="translate(-20.92 -15.3)"/><path d="M709.6,291l-8.64-.91c0-.41,0-.83,0-1.25h18.33l.15,1.09-8,1.13v34.84l-1.84.08Z" transform="translate(-20.92 -15.3)"/></svg>