<?xml version="1.0" encoding="UTF-8" standalone="no"?>
<!-- Uploaded to: SVG Repo, www.svgrepo.com, Generator: SVG Repo Mixer Tools -->

<svg
   height="1044.0677"
   width="1044.0677"
   version="1.1"
   id="_x32_"
   viewBox="0 0 668.20336 668.20336"
   xml:space="preserve"
   sodipodi:docname="email.svg"
   inkscape:version="1.2.1 (9c6d41e410, 2022-07-14)"
   xmlns:inkscape="http://www.inkscape.org/namespaces/inkscape"
   xmlns:sodipodi="http://sodipodi.sourceforge.net/DTD/sodipodi-0.dtd"
   xmlns="http://www.w3.org/2000/svg"
   xmlns:svg="http://www.w3.org/2000/svg"><defs
   id="defs11" /><sodipodi:namedview
   id="namedview9"
   pagecolor="#ffffff"
   bordercolor="#000000"
   borderopacity="0.25"
   inkscape:showpageshadow="2"
   inkscape:pageopacity="0.0"
   inkscape:pagecheckerboard="0"
   inkscape:deskcolor="#d1d1d1"
   showgrid="false"
   inkscape:zoom="0.295"
   inkscape:cx="94.915254"
   inkscape:cy="522.0339"
   inkscape:window-width="2160"
   inkscape:window-height="1346"
   inkscape:window-x="-11"
   inkscape:window-y="-11"
   inkscape:window-maximized="1"
   inkscape:current-layer="_x32_" />
<style
   type="text/css"
   id="style2">
	.st0{fill:#000000;}
</style>

<path
   id="path238"
   style="fill:#ffffff;fill-opacity:1;stroke:none;stroke-width:7.68;stroke-miterlimit:0;paint-order:markers fill stroke"
   d="M 334.10125 0 A 334.10168 334.10168 0 0 0 0 334.10125 A 334.10168 334.10168 0 0 0 334.10125 668.20375 A 334.10168 334.10168 0 0 0 668.20375 334.10125 A 334.10168 334.10168 0 0 0 334.10125 0 z M 172.09125 158.1125 L 496.11375 158.1125 C 513.24247 158.1125 528.92121 165.11603 540.0925 176.3425 C 541.59806 177.84456 542.98798 179.34653 544.3175 181.02375 C 550.62264 188.72147 555.13731 198.04004 557.15875 208.2225 C 557.91634 212.15238 558.31587 216.21283 558.315 220.31875 L 558.315 447.89125 C 558.315 456.62071 556.52603 464.9564 553.225 472.535 L 553.225 472.59125 C 550.09914 479.82565 545.58399 486.37239 540.0925 491.86125 C 538.70342 493.25033 537.31344 494.52734 535.80875 495.74125 C 525.11042 504.70893 511.16061 510.09 496.11375 510.09 L 172.09125 510.09 C 157.04965 510.09 143.15927 504.70787 132.39875 495.79625 C 130.88969 494.52628 129.50632 493.25032 128.11375 491.86125 C 122.61963 486.37239 118.10405 479.82565 115.04125 472.59125 C 111.73934 465.01264 109.8875 456.62033 109.8875 447.89 L 109.8875 220.31875 C 109.8875 216.21283 110.29372 212.15238 111.10125 208.2225 C 113.06662 198.04004 117.58261 188.7206 123.89125 181.02375 C 125.22427 179.34653 126.61294 177.84456 128.115 176.3425 C 139.33883 165.11603 154.96253 158.1125 172.09125 158.1125 z M 172.09125 189.935 C 163.64294 189.935 156.17968 193.29646 150.6225 198.8475 C 149.63981 199.83632 148.71397 200.8752 147.9625 201.97 L 317.72875 350.045 C 322.4749 354.15005 328.25718 356.1775 334.1025 356.1775 C 340.00738 356.1775 345.79229 354.15004 350.47625 350.045 L 520.3075 202.0325 C 519.49035 200.9377 518.56519 199.83632 517.5825 198.8475 C 512.09101 193.29646 504.56206 189.935 496.11375 189.935 L 172.09125 189.935 z M 141.71 234.9 L 141.71 447.89 C 141.71 448.35332 141.7103 448.81111 141.7725 449.2175 L 264.61125 342.115 L 141.71 234.9 z M 526.49375 234.9575 L 403.59625 342.1775 L 526.43375 449.2175 C 526.49335 448.81111 526.49375 448.35332 526.49375 447.89 L 526.49375 234.9575 z M 286.65375 361.3275 L 157.04875 474.275 C 161.44195 476.8158 166.59013 478.26125 172.09125 478.26125 L 496.11375 478.26125 C 501.61487 478.26125 506.76192 476.8158 511.16125 474.275 L 381.6075 361.3275 L 369.51375 371.85375 C 359.38909 380.6524 346.71979 385.10875 334.1025 385.10875 C 321.55002 385.10875 308.87928 380.6524 298.75375 371.85375 L 286.65375 361.3275 z " /></svg>
