<?xml version="1.0" encoding="UTF-8" standalone="no"?>
<!-- Uploaded to: SVG Repo, www.svgrepo.com, Generator: SVG Repo Mixer Tools -->

<svg
   width="1098.3052"
   height="1098.3052"
   viewBox="0 0 32.949155 32.949155"
   fill="none"
   version="1.1"
   id="svg6"
   sodipodi:docname="email-simple.svg"
   inkscape:version="1.2.1 (9c6d41e410, 2022-07-14)"
   xmlns:inkscape="http://www.inkscape.org/namespaces/inkscape"
   xmlns:sodipodi="http://sodipodi.sourceforge.net/DTD/sodipodi-0.dtd"
   xmlns="http://www.w3.org/2000/svg"
   xmlns:svg="http://www.w3.org/2000/svg">
  <defs
     id="defs10" />
  <sodipodi:namedview
     id="namedview8"
     pagecolor="#ffffff"
     bordercolor="#000000"
     borderopacity="0.25"
     inkscape:showpageshadow="2"
     inkscape:pageopacity="0.0"
     inkscape:pagecheckerboard="0"
     inkscape:deskcolor="#d1d1d1"
     showgrid="false"
     inkscape:zoom="0.295"
     inkscape:cx="122.0339"
     inkscape:cy="549.15254"
     inkscape:window-width="2160"
     inkscape:window-height="1346"
     inkscape:window-x="-11"
     inkscape:window-y="-11"
     inkscape:window-maximized="1"
     inkscape:current-layer="svg6" />
  <path
     id="path343"
     style="fill:#ffffff;fill-opacity:1;stroke-width:0.306947;stroke-miterlimit:0;paint-order:markers fill stroke"
     d="M 16.47457 0 A 16.474577 16.474577 0 0 0 0 16.47457 A 16.474577 16.474577 0 0 0 16.47457 32.94914 A 16.474577 16.474577 0 0 0 32.94914 16.47457 A 16.474577 16.474577 0 0 0 16.47457 0 z M 9.4746093 8.4745898 L 23.47459 8.4745898 C 25.119287 8.4745898 26.47459 9.8298921 26.47459 11.47459 L 26.47459 21.474609 C 26.47459 23.119308 25.119287 24.474609 23.47459 24.474609 L 9.4746093 24.474609 C 7.8299114 24.474609 6.4746093 23.119308 6.4746093 21.474609 L 6.4746093 11.47459 C 6.4746093 9.8298921 7.8299114 8.4745898 9.4746093 8.4745898 z M 9.4746093 10.474629 C 9.2861659 10.474629 9.1132819 10.521341 8.9661327 10.604355 A 1 1 0 0 1 9.0742382 10.673848 L 15.27539 15.324199 C 15.990115 15.860226 16.959084 15.860226 17.673808 15.324199 L 23.875019 10.673848 A 1 1 0 0 1 23.983242 10.604414 C 23.836059 10.521344 23.663101 10.474629 23.47459 10.474629 L 9.4746093 10.474629 z M 8.4745898 12.72498 L 8.4745898 21.474609 C 8.4745898 22.045906 8.9033138 22.474629 9.4746093 22.474629 L 23.47459 22.474629 C 24.045885 22.474629 24.474609 22.045906 24.474609 21.474609 L 24.474609 12.72498 L 18.87498 16.923808 C 17.45631 17.987778 15.492889 17.987778 14.074219 16.923808 L 8.4745898 12.72498 z " />
</svg>
