<?xml version="1.0" ?><!DOCTYPE svg  PUBLIC '-//W3C//DTD SVG 1.1//EN'  'http://www.w3.org/Graphics/SVG/1.1/DTD/svg11.dtd'><svg enable-background="new 0 0 512 512" id="Layer_1" version="1.1" viewBox="0 0 512 512" xml:space="preserve" xmlns="http://www.w3.org/2000/svg" xmlns:xlink="http://www.w3.org/1999/xlink"><g><path d="M309.4,415.9c2.1,1.8,1.3,4.3,1.3,6.5c0,29.6,0,59.1,0,88.7c0,0.6,0.2,1.3,0.2,1.9c-35.3,0-70.7,0-106,0   c0.4-17.4,0.4-34.9,0-52.3c3.2,0.1,1.7,2.6,1.7,3.9c0.1,14,0.2,28,0,41.9c-0.1,4,1.2,5.1,5.1,5.1c30.8-0.1,61.6-0.2,92.4,0   c4.4,0,5.1-1.5,5.1-5.4c-0.2-25.3-0.1-50.6-0.1-75.9C309.2,425.5,309.4,420.7,309.4,415.9z" fill="#989393"/><path d="M309.4,415.9c-0.1,4.8-0.2,9.6-0.2,14.4c0,25.3-0.1,50.6,0.1,75.9c0,3.9-0.7,5.5-5.1,5.4   c-30.8-0.2-61.6-0.2-92.4,0c-3.9,0-5.2-1.1-5.1-5.1c0.2-14,0.1-28,0-41.9c0-1.3,1.6-3.8-1.7-3.9c-0.7,0-1.3,0.1-2,0.1   c-1.3-0.6-2.5-0.5-3.3,0.9c-12.4,1.3-24.9,2.3-37.2-0.8c-21.8-5.5-37.4-18.4-47-38.9c-6.2-13.4-14.4-25.8-23.9-37.2   c-3-3.6-7.8-5-11-8.6c-1.2-1.4-3.2-2.5-2.6-4.4c0.6-2.3,3.1-2.2,5.1-2.4c20-1.7,34.2,7.8,44.1,24.2c9.1,15,21,26.1,38.2,30.6   c12.2,3.2,24.4,2.5,36.4-1.2c2.8-0.9,4.3-2.1,4.6-5.5c0.9-12.4,3.5-24.4,12.1-34.9c-3.3-0.6-5.9-1.2-8.6-1.6   c-21.2-3.2-40.9-10.5-58-23.6c-19.1-14.6-31-34.1-34.7-58c-3.2-20.9-2-41.9,0.7-62.8c2.1-16.1,6.6-31.4,18.2-43.4   c4.1-4.2,4.4-7.6,2.6-12.9c-6.1-17.8-4.4-35.7,1.1-53.5c1-3.3,2.5-4.3,6.1-3.4c13.5,3.3,23.9,11.2,33.3,20.8   c4.6,4.6,8.5,9.8,12.3,15c1.1,1.5,1.9,2.3,3.8,0.8c7.2-5.7,15.9-7.5,24.6-8.8c25.2-3.6,50.5-3.7,75.7-0.1c8.4,1.2,16.9,2.7,23.9,8   c3.3,2.5,4.6,1.1,6.4-1.5c6.7-9.8,14.9-18.2,24.5-25.1c6.1-4.4,12.9-7.4,20.3-9.2c3.2-0.8,4.5,0.1,5.5,3   c6.8,19.2,7.8,38.4,0.2,57.6c-0.9,2.4-1.5,4.1,0.7,6.2c12.3,11.6,18.1,26.4,20.5,42.7c2.9,19.8,4.6,39.7,2.3,59.8   c-3.8,33.8-21,58.4-50.8,74.5c-1.1-0.1-2,0.2-2.4,1.3c-0.8,0.4-1.6,0.8-2.3,1.1c-2.6,0.1-4.8,1.2-6.6,2.9c-0.8,0.3-1.7,0.5-2.5,0.8   c-1.2-0.3-2,0.2-2.5,1.2c-0.5,0.1-1.1,0.3-1.6,0.4c-4,0.6-8,1.1-11.4,3.5c-0.5,0.1-1.1,0.2-1.6,0.3c-2.9-0.1-5.8,0.1-8.3,1.9   c-2.2,0.3-4.3,0.6-6.5,0.9c-1.7,0.1-3.6-0.1-5.1,0.5c-1.6,0.7-0.9,1.7,0.5,2.1l0.1,0.1c0.1,1.4,0.8,2.4,2.1,2.8   c0.8,1.6,1.6,3.2,2.4,4.7c0.2,2.1,0.6,4.1,2.4,5.5c0.2,0.9,0.4,1.7,0.6,2.6c0.5,2.8,0.5,5.6,2.1,8.1c0.1,0.6,0.2,1.2,0.3,1.7   c-0.6,1.2-0.3,2.3,0.6,3.3C309.3,413.9,309.3,414.9,309.4,415.9z" fill="#110505"/><path d="M319.6,378.5c3.4-2.5,7.4-2.9,11.4-3.5C327.3,376.5,323.9,378.9,319.6,378.5z" fill="#989393"/><path d="M309.7,380.7c2.5-1.8,5.4-1.9,8.3-1.9C315.6,380.8,312.7,381,309.7,380.7z" fill="#989393"/><path d="M308.3,408c-1.7-2.4-1.7-5.3-2.1-8.1C308.3,402.2,309.1,404.9,308.3,408z" fill="#989393"/><path d="M337.6,372.4c1.9-1.7,4-2.9,6.6-2.9C342.4,371.4,340.3,372.6,337.6,372.4z" fill="#989393"/><path d="M298.7,384.2c-1.5-0.4-2.1-1.4-0.5-2.1c1.5-0.6,3.4-0.4,5.1-0.5C302.2,383.3,299.3,381.8,298.7,384.2z" fill="#989393"/><path d="M305.6,397.3c-1.8-1.4-2.2-3.4-2.4-5.5C305.3,393.1,305.4,395.2,305.6,397.3z" fill="#989393"/><path d="M309.2,413c-0.9-1-1.1-2-0.6-3.3C309.8,410.6,310.2,411.7,309.2,413z" fill="#989393"/><path d="M199.7,461.7c0.8-1.4,1.9-1.4,3.3-0.9C202.1,461.8,201.1,462.3,199.7,461.7z" fill="#989393"/><path d="M300.9,387.1c-1.4-0.4-2-1.4-2.1-2.8C300.3,384.6,301,385.6,300.9,387.1z" fill="#989393"/><path d="M346.6,368.4c0.4-1.1,1.4-1.4,2.4-1.3C348.7,368.3,348,369.1,346.6,368.4z" fill="#989393"/><path d="M332.6,374.5c0.5-1.1,1.3-1.5,2.5-1.2C334.7,374.4,334,375.1,332.6,374.5z" fill="#989393"/></g></svg>