<?xml version="1.0" encoding="UTF-8" standalone="no"?>
<!-- Generator: Adobe Illustrator 19.2.1, SVG Export Plug-In . SVG Version: 6.00 Build 0)  -->

<svg
   viewBox="0 0 512 512"
   width="512"
   height="512"
   version="1.1"
   id="svg4"
   sodipodi:docname="discord-logo-round.svg"
   inkscape:version="1.3 (0e150ed6c4, 2023-07-21)"
   xmlns:inkscape="http://www.inkscape.org/namespaces/inkscape"
   xmlns:sodipodi="http://sodipodi.sourceforge.net/DTD/sodipodi-0.dtd"
   xmlns="http://www.w3.org/2000/svg"
   xmlns:svg="http://www.w3.org/2000/svg">
  <defs
     id="defs4" />
  <sodipodi:namedview
     id="namedview4"
     pagecolor="#000000"
     bordercolor="#000000"
     borderopacity="0.25"
     inkscape:showpageshadow="2"
     inkscape:pageopacity="0.0"
     inkscape:pagecheckerboard="0"
     inkscape:deskcolor="#d1d1d1"
     inkscape:zoom="0.698125"
     inkscape:cx="272.87377"
     inkscape:cy="483.43778"
     inkscape:window-width="2160"
     inkscape:window-height="1346"
     inkscape:window-x="-11"
     inkscape:window-y="-11"
     inkscape:window-maximized="1"
     inkscape:current-layer="svg4" />
  <path
     id="path5"
     style="fill:#ffffff;fill-opacity:1;stroke:none;stroke-width:37.7953;stroke-linecap:round;stroke-linejoin:round;stroke-miterlimit:0;stroke-dashoffset:68.0315;stroke-opacity:1;paint-order:fill markers stroke"
     d="M 256 0 A 256 256 0 0 0 0 256 A 256 256 0 0 0 256 512 A 256 256 0 0 0 512 256 A 256 256 0 0 0 256 0 z M 207.25195 117.87695 A 10.39474 10.39474 0 0 1 217.57031 123.98047 C 217.57031 123.98047 219.84922 129.04426 221.63672 136.50195 C 236.42352 134.29295 248.72691 133.8125 256 133.8125 C 263.2731 133.8125 275.57648 134.29295 290.36328 136.50195 C 292.15078 129.04426 294.42969 123.98047 294.42969 123.98047 A 10.39474 10.39474 0 0 1 304.74805 117.87695 C 304.74805 117.87695 356.13107 121.01917 390.27539 148.45898 A 10.39474 10.39474 0 0 1 390.81641 148.92383 C 397.21847 154.83691 401.47887 163.23804 406.89648 175.22852 C 412.31412 187.21897 417.96877 202.38891 423.1582 219.55078 C 433.5371 253.87454 442.06836 296.05704 442.06836 335.85156 A 10.39474 10.39474 0 0 1 440.70703 340.99414 C 428.61 362.24183 406.73327 374.88228 386.41406 382.78516 C 366.09486 390.68801 347.57244 393.83604 337.68555 394.15234 A 10.39474 10.39474 0 0 1 328.94922 389.87891 L 310.35742 364.33203 C 294.8539 367.84142 276.73975 370.20117 256 370.20117 C 235.26025 370.20117 217.1461 367.84142 201.64258 364.33203 L 183.05078 389.87891 A 10.39474 10.39474 0 0 1 174.31445 394.15234 C 164.43072 393.83598 145.9099 390.68793 125.58984 382.78516 C 105.26979 374.88237 83.39027 362.24234 71.292969 340.99414 A 10.39474 10.39474 0 0 1 69.931641 335.85156 C 69.931641 296.05704 78.462904 253.87454 88.841797 219.55078 C 94.031243 202.38891 99.685884 187.21897 105.10352 175.22852 C 110.52113 163.23804 114.78153 154.83691 121.18359 148.92383 A 10.39474 10.39474 0 0 1 121.72461 148.45898 C 155.86893 121.01918 207.25195 117.87695 207.25195 117.87695 z M 200.9668 139.70312 C 186.36119 142.05978 154.96832 148.71152 135.19336 164.33594 C 134.1852 165.33276 128.92719 172.98775 124.04688 183.78906 C 119.10891 194.71792 113.69901 209.16739 108.74023 225.56641 C 99.087166 257.48982 91.213215 296.87687 90.796875 332.875 C 99.596391 346.46652 116.17115 356.81653 133.125 363.41016 C 147.32141 368.93134 161.56846 371.7797 169.74219 372.83789 L 180.31641 358.30859 C 174.72263 356.40477 169.55489 354.40837 164.9668 352.39062 C 144.54147 343.40801 133.43555 333.73242 133.43555 333.73242 A 10.393701 10.393701 0 0 1 132.5293 319.06055 A 10.393701 10.393701 0 0 1 139.67578 315.56836 A 10.393701 10.393701 0 0 1 147.19922 318.1543 C 147.19922 318.1543 155.25854 325.41129 173.33594 333.36133 C 191.41333 341.31137 218.8404 349.41406 256 349.41406 C 293.15961 349.41406 320.58666 341.31137 338.66406 333.36133 C 356.74146 325.41129 364.80078 318.1543 364.80078 318.1543 A 10.393701 10.393701 0 0 1 379.4707 319.06055 A 10.393701 10.393701 0 0 1 378.56445 333.73242 C 378.56445 333.73242 367.45853 343.40801 347.0332 352.39062 C 342.44511 354.40837 337.27737 356.40477 331.68359 358.30859 L 342.25781 372.83789 C 350.43295 371.7801 364.68119 368.93214 378.87891 363.41016 C 395.83166 356.81661 412.40354 346.46692 421.20312 332.875 C 420.78681 296.87687 412.91284 257.48982 403.25977 225.56641 C 398.30099 209.16739 392.89109 194.71792 387.95312 183.78906 C 383.07281 172.98775 377.8148 165.33276 376.80664 164.33594 C 357.03169 148.71152 325.63881 142.05978 311.0332 139.70312 C 310.96775 139.94472 310.91255 140.23431 310.84766 140.48242 C 328.46795 144.73391 347.73398 151.60891 365.69336 162.74805 A 10.393701 10.393701 0 0 1 369.04883 177.05859 A 10.393701 10.393701 0 0 1 354.73633 180.41211 C 318.42224 157.88865 271.69726 154.59961 256 154.59961 C 240.30276 154.59961 193.57775 157.88866 157.26367 180.41211 A 10.393701 10.393701 0 0 1 142.95117 177.05859 A 10.393701 10.393701 0 0 1 146.30664 162.74805 C 164.26602 151.60891 183.53205 144.73391 201.15234 140.48242 C 201.08745 140.23431 201.03225 139.94472 200.9668 139.70312 z M 204.0957 229.63672 C 225.95072 229.63672 242.4375 249.41525 242.4375 271.9707 C 242.4375 294.52618 225.95072 314.30469 204.0957 314.30469 C 182.24069 314.30469 165.75391 294.52618 165.75391 271.9707 C 165.75391 249.41525 182.24069 229.63672 204.0957 229.63672 z M 307.9043 229.63672 C 329.75931 229.63672 346.24609 249.41525 346.24609 271.9707 C 346.24609 294.52618 329.75931 314.30469 307.9043 314.30469 C 286.04928 314.30469 269.5625 294.52618 269.5625 271.9707 C 269.5625 249.41525 286.04928 229.63672 307.9043 229.63672 z M 204.0957 250.42383 C 195.07991 250.42383 186.54102 259.24527 186.54102 271.9707 C 186.54102 284.69616 195.07991 293.51758 204.0957 293.51758 C 213.1115 293.51758 221.65039 284.69616 221.65039 271.9707 C 221.65039 259.24527 213.1115 250.42383 204.0957 250.42383 z M 307.9043 250.42383 C 298.8885 250.42383 290.34961 259.24527 290.34961 271.9707 C 290.34961 284.69616 298.8885 293.51758 307.9043 293.51758 C 316.92009 293.51758 325.45898 284.69616 325.45898 271.9707 C 325.45898 259.24527 316.92009 250.42383 307.9043 250.42383 z " />
</svg>
