<?xml version="1.0" encoding="UTF-8" standalone="no"?>
<svg
   width="1em"
   height="1em"
   viewBox="0 0 24 24"
   version="1.1"
   id="svg1"
   sodipodi:docname="food.svg"
   inkscape:version="1.3 (0e150ed6c4, 2023-07-21)"
   xmlns:inkscape="http://www.inkscape.org/namespaces/inkscape"
   xmlns:sodipodi="http://sodipodi.sourceforge.net/DTD/sodipodi-0.dtd"
   xmlns="http://www.w3.org/2000/svg"
   xmlns:svg="http://www.w3.org/2000/svg">
  <defs
     id="defs1" />
  <sodipodi:namedview
     id="namedview1"
     pagecolor="#ffffff"
     bordercolor="#000000"
     borderopacity="0.25"
     inkscape:showpageshadow="2"
     inkscape:pageopacity="0.0"
     inkscape:pagecheckerboard="0"
     inkscape:deskcolor="#d1d1d1"
     inkscape:zoom="46.541667"
     inkscape:cx="12"
     inkscape:cy="12"
     inkscape:window-width="2160"
     inkscape:window-height="1346"
     inkscape:window-x="-11"
     inkscape:window-y="-11"
     inkscape:window-maximized="1"
     inkscape:current-layer="svg1" />
  <path
     fill="currentColor"
     d="M21 10H3a1 1 0 0 0-1 1a10 10 0 0 0 5 8.66V21a1 1 0 0 0 1 1h8a1 1 0 0 0 1-1v-1.34A10 10 0 0 0 22 11a1 1 0 0 0-1-1zm-5.45 8.16a1 1 0 0 0-.55.9V20H9v-.94a1 1 0 0 0-.55-.9A8 8 0 0 1 4.06 12h15.88a8 8 0 0 1-4.39 6.16zM9 9V7.93a4.53 4.53 0 0 0-1.28-3.15A2.49 2.49 0 0 1 7 3V2H5v1a4.53 4.53 0 0 0 1.28 3.17A2.49 2.49 0 0 1 7 7.93V9zm4 0V7.93a4.53 4.53 0 0 0-1.28-3.15A2.49 2.49 0 0 1 11 3V2H9v1a4.53 4.53 0 0 0 1.28 3.15A2.49 2.49 0 0 1 11 7.93V9zm4 0V7.93a4.53 4.53 0 0 0-1.28-3.15A2.49 2.49 0 0 1 15 3V2h-2v1a4.53 4.53 0 0 0 1.28 3.15A2.49 2.49 0 0 1 15 7.93V9z"
     id="path1"
     style="fill:#b7cf56;fill-opacity:1" />
</svg>
