<?xml version="1.0" encoding="UTF-8" standalone="no"?>
<svg
   width="1em"
   height="1em"
   viewBox="0 0 24 24"
   version="1.1"
   id="svg1"
   sodipodi:docname="pacman.svg"
   inkscape:version="1.3 (0e150ed6c4, 2023-07-21)"
   xmlns:inkscape="http://www.inkscape.org/namespaces/inkscape"
   xmlns:sodipodi="http://sodipodi.sourceforge.net/DTD/sodipodi-0.dtd"
   xmlns="http://www.w3.org/2000/svg"
   xmlns:svg="http://www.w3.org/2000/svg">
  <defs
     id="defs1" />
  <sodipodi:namedview
     id="namedview1"
     pagecolor="#ffffff"
     bordercolor="#000000"
     borderopacity="0.25"
     inkscape:showpageshadow="2"
     inkscape:pageopacity="0.0"
     inkscape:pagecheckerboard="0"
     inkscape:deskcolor="#d1d1d1"
     inkscape:zoom="46.541667"
     inkscape:cx="12"
     inkscape:cy="12"
     inkscape:window-width="2160"
     inkscape:window-height="1346"
     inkscape:window-x="-11"
     inkscape:window-y="-11"
     inkscape:window-maximized="1"
     inkscape:current-layer="svg1" />
  <path
     fill="currentColor"
     d="M20.937 7.53C19.227 4.119 15.803 2 12 2C6.486 2 2 6.486 2 12s4.486 10 10 10c3.803 0 7.227-2.119 8.937-5.53a1 1 0 0 0-.397-1.316L15.017 12l5.522-3.153c.461-.264.636-.842.398-1.317zm-8.433 3.602a.999.999 0 0 0 0 1.736l6.173 3.525A7.949 7.949 0 0 1 12 20c-4.411 0-8-3.589-8-8s3.589-8 8-8a7.95 7.95 0 0 1 6.677 3.606l-6.173 3.526z"
     id="path1"
     style="fill:#b7cf56;fill-opacity:1" />
  <circle
     cx="11.5"
     cy="7.5"
     r="1.5"
     fill="currentColor"
     id="circle1"
     style="fill:#b7cf56;fill-opacity:1" />
</svg>
