<?xml version="1.0" encoding="UTF-8" standalone="no"?>
<!-- Uploaded to: SVG Repo, www.svgrepo.com, Generator: SVG Repo Mixer Tools -->

<svg
   width="1015.3223"
   height="1014.9276"
   viewBox="0 0 40.612893 40.597102"
   fill="none"
   version="1.1"
   id="svg18"
   sodipodi:docname="java.svg"
   inkscape:version="1.2.1 (9c6d41e410, 2022-07-14)"
   xmlns:inkscape="http://www.inkscape.org/namespaces/inkscape"
   xmlns:sodipodi="http://sodipodi.sourceforge.net/DTD/sodipodi-0.dtd"
   xmlns="http://www.w3.org/2000/svg"
   xmlns:svg="http://www.w3.org/2000/svg">
  <defs
     id="defs22" />
  <sodipodi:namedview
     id="namedview20"
     pagecolor="#ffffff"
     bordercolor="#000000"
     borderopacity="0.25"
     inkscape:showpageshadow="2"
     inkscape:pageopacity="0.0"
     inkscape:pagecheckerboard="0"
     inkscape:deskcolor="#d1d1d1"
     showgrid="false"
     inkscape:zoom="0.59"
     inkscape:cx="501.69492"
     inkscape:cy="600"
     inkscape:window-width="2160"
     inkscape:window-height="1346"
     inkscape:window-x="-11"
     inkscape:window-y="-11"
     inkscape:window-maximized="1"
     inkscape:current-layer="svg18" />
  <ellipse
     style="opacity:0.96;fill:#ffffff;fill-opacity:1;stroke:none;stroke-width:0.741819;stroke-miterlimit:0;paint-order:markers fill stroke"
     id="path249"
     cx="20.306446"
     cy="20.298552"
     rx="20.306446"
     ry="20.298552" />
  <path
     d="m 20.308645,11.183773 c 6.5881,-5.1145504 3.2069,-8.4406204 3.2069,-8.4406204 0.5032,5.28738 -5.4436,6.53583 -7.0377,10.1691994 -1.0877,2.4793 0.7449,4.6501 3.8286,7.3862 -0.2726,-0.606 -0.6931,-1.1948 -1.1187,-1.7909 -1.4519,-2.0332 -2.9643,-4.1513 1.1209,-7.323879 z"
     fill="#e76f00"
     id="path2" />
  <path
     d="m 21.360445,21.420152 c 0,0 1.982,-1.5991 0.4124,-3.3762 -5.3208,-6.028939 5.8194,-8.7649694 5.8194,-8.7649694 -6.8016,3.2766694 -5.7862,5.2215694 -4.0766,7.5843694 1.8304,2.5336 -2.1552,4.5568 -2.1552,4.5568 z"
     fill="#e76f00"
     id="path4" />
  <path
     d="m 27.195945,26.188752 c 6.1053,-3.1198 3.2825,-6.1178 1.3122,-5.7139 -0.483,0.0988 -0.6983,0.1845 -0.6983,0.1845 0,0 0.1793,-0.2762 0.5217,-0.3958 3.8979,-1.3475 6.8956,3.9745 -1.2583,6.0824 0,10e-5 0.0945,-0.083 0.1227,-0.1572 z"
     fill="#5382a1"
     id="path6" />
  <path
     d="m 14.491945,22.240052 c -3.81988,-0.5016 2.0945,-1.883 2.0945,-1.883 0,0 -2.2968,-0.1523 -5.12158,1.1904 -3.3401496,1.5889 8.26218,2.3115 14.26808,0.7582 0.6244,-0.4193 1.4874,-0.7827 1.4874,-0.7827 0,0 -2.4577,0.4316 -4.9053,0.6347 -2.9949,0.2467 -6.2102,0.2948 -7.8231,0.0824 z"
     fill="#5382a1"
     id="path8" />
  <path
     d="m 15.945345,25.218952 c -2.13016,-0.2166 -0.7354,-1.2319 -0.7354,-1.2319 -5.5120196,1.799 3.0668,3.8391 10.7689,1.6243 -0.8187,-0.2838 -1.3393,-0.8029 -1.3393,-0.8029 -3.7643,0.7128 -5.9396,0.69 -8.6942,0.4105 z"
     fill="#5382a1"
     id="path10" />
  <path
     d="m 16.873445,28.442252 c -2.1285,-0.2406 -0.885,-0.9517 -0.885,-0.9517 -5.00356,1.3748 3.0434,4.2151 9.4138,1.5303 -1.0434,-0.399 -1.7905,-0.8596 -1.7905,-0.8596 -2.8417,0.5288 -4.1597,0.5703 -6.7383,0.281 z"
     fill="#5382a1"
     id="path12" />
  <path
     d="m 30.197645,30.081952 c 0,0 0.9202,0.7456 -1.0135,1.3224 -3.6771,1.0954 -15.30427,1.4262 -18.53426,0.0437 -1.1610996,-0.4967 1.01629,-1.186 1.70121,-1.3307 0.71431,-0.1523 1.12251,-0.1239 1.12251,-0.1239 -1.29126,-0.8945 -8.3461706,1.7564 -3.5835496,2.5156 12.9883896,2.0713 23.6765896,-0.9328 20.3075896,-2.4271 z"
     fill="#5382a1"
     id="path14" />
  <path
     d="m 32.258945,31.711052 c -0.2131,2.7268 -9.2123,3.3004 -15.0726,2.9315 -3.82308,-0.2411 -4.58928,-0.8436 -4.60049,-0.8524 3.65899,0.5932 9.82799,0.7012 14.82989,-0.2245 4.4335,-0.8209 4.8432,-1.8546 4.8432,-1.8546 z"
     fill="#5382a1"
     id="path16" />
</svg>
