<?xml version="1.0" encoding="UTF-8" standalone="no"?>
<svg
   id="Layer_1"
   data-name="Layer 1"
   viewBox="0 0 706.99999 316.59344"
   version="1.1"
   sodipodi:docname="gamestar-new-logo.svg"
   inkscape:version="1.3 (0e150ed6c4, 2023-07-21)"
   width="707"
   height="316.59344"
   xmlns:inkscape="http://www.inkscape.org/namespaces/inkscape"
   xmlns:sodipodi="http://sodipodi.sourceforge.net/DTD/sodipodi-0.dtd"
   xmlns="http://www.w3.org/2000/svg"
   xmlns:svg="http://www.w3.org/2000/svg"
   xmlns:rdf="http://www.w3.org/1999/02/22-rdf-syntax-ns#"
   xmlns:cc="http://creativecommons.org/ns#"
   xmlns:dc="http://purl.org/dc/elements/1.1/">
  <defs
     id="defs33" />
  <sodipodi:namedview
     id="namedview31"
     pagecolor="#ffffff"
     bordercolor="#000000"
     borderopacity="0.25"
     inkscape:showpageshadow="2"
     inkscape:pageopacity="0.0"
     inkscape:pagecheckerboard="0"
     inkscape:deskcolor="#d1d1d1"
     showgrid="false"
     inkscape:zoom="3.0840001"
     inkscape:cx="549.12449"
     inkscape:cy="246.91958"
     inkscape:window-width="2160"
     inkscape:window-height="1346"
     inkscape:window-x="-11"
     inkscape:window-y="-11"
     inkscape:window-maximized="1"
     inkscape:current-layer="g643" />
  <title
     id="title2">game-logo</title>
  <metadata
     id="metadata325">
    <rdf:RDF>
      <cc:Work
         rdf:about="">
        <dc:title>game-logo</dc:title>
      </cc:Work>
    </rdf:RDF>
  </metadata>
  <g
     id="g643"
     inkscape:label="GAME STAR">
    <path
       id="rect623-7-2-9-5-1-7-3-5"
       style="color:#000000;fill:#000000;stroke-width:0.183493"
       d="m 661.32125,269.7507 v 21.30792 19.09893 h 2.16982 v -19.07346 l 6.02952,0.0714 10.35147,19.00217 h 2.30433 l -10.42131,-19.00217 3.9059,0.0724 h 0.006 c 3.58747,0 6.50945,-3.00905 6.50945,-6.70343 v -8.07017 c 0,-3.69439 -2.92198,-6.70343 -6.50945,-6.70343 h -12.17584 z m 2.16982,2.23448 h 12.17592 c 2.42292,0 4.33965,1.97384 4.33965,4.46897 v 8.07016 c 0,2.49466 -1.916,4.46817 -4.33823,4.46895 l -12.17734,-0.14364 z"
       sodipodi:nodetypes="ccccccccccsssscccsssccc"
       inkscape:label="R" />
    <path
       style="color:#000000;opacity:0.96;fill:#000000;stroke-width:0.186379;stroke-miterlimit:10"
       d="m 645.46799,269.75073 -10.42757,40.40503 h 2.113 l 8.32076,-31.82216 8.37238,31.82399 h 2.049 z"
       id="path2240-2-1"
       sodipodi:nodetypes="ccccccc"
       inkscape:label="A" />
    <path
       id="rect623-7-2-5"
       style="color:#000000;fill:#000000;stroke-width:0.186206"
       d="m 614.7596,269.75073 v 2.23448 h 9.31036 v 38.17237 h 2.23446 v -38.17237 h 9.31033 v -2.23448 h -9.31033 -2.23446 z"
       inkscape:label="T" />
    <path
       style="color:#000000;opacity:0.96;fill:#000000;stroke-width:0.186303;stroke-miterlimit:10;paint-order:markers fill stroke"
       d="m 601.02171,269.75072 c -4.81294,0 -7.65923,1.50909 -9.09526,3.71381 -1.43604,2.2047 -1.44764,4.80126 -1.44764,6.82806 0,3.46869 0.79589,6.08152 2.64871,7.75726 1.85281,1.67573 4.5192,2.25729 7.89419,2.25729 3.15374,0 5.15889,0.41949 6.29625,1.39561 1.13739,0.97606 1.76713,2.7208 1.76713,6.11295 0,3.72016 -0.0955,6.35978 -0.98143,7.80502 -0.44298,0.72262 -1.04904,1.23963 -2.15345,1.6414 -1.10442,0.40172 -2.7083,0.63816 -4.9285,0.63816 -4.44071,0 -6.31348,-0.86856 -7.23519,-2.18766 -0.92173,-1.31909 -1.06021,-3.60312 -1.06021,-6.72743 h -2.2475 c 0,3.15223 -0.0225,5.89017 1.46833,8.02382 1.49091,2.1337 4.32804,3.14858 9.07458,3.14858 2.37338,0 4.21439,-0.23491 5.69389,-0.7731 1.47949,-0.53819 2.59612,-1.42973 3.30152,-2.58038 1.41082,-2.30137 1.31544,-5.26824 1.31544,-8.9884 0,-3.68064 -0.72024,-6.25446 -2.55465,-7.82872 -1.83441,-1.5743 -4.42261,-1.93713 -7.75621,-1.93713 -3.11236,0 -5.15551,-0.56033 -6.3903,-1.67711 -1.23479,-1.11678 -1.90511,-2.94705 -1.90511,-6.08015 0,-1.98313 0.10427,-4.09319 1.0809,-5.59256 0.97662,-1.49941 2.84022,-2.692 7.21451,-2.692 4.3696,0 6.15633,1.20534 7.08268,2.71095 0.92636,1.50561 0.9807,3.62635 0.9807,5.57361 h 2.24748 c 0,-1.94726 0.0543,-4.5329 -1.31618,-6.76025 -1.37044,-2.22736 -4.17706,-3.78162 -8.99468,-3.78163 z"
       id="path973-1-4-6-8"
       inkscape:label="S" />
    <path
       id="rect623-7-2-25-9"
       style="color:#000000;fill:#000000;stroke-width:0.186208"
       d="m 555.14484,269.7507 v 18.15698 2.01846 20.23145 h 20.85517 v -2.23448 h -18.62069 v -17.99697 h 8.11673 v -2.01846 h -8.11673 v -15.9225 h 18.62069 v -2.23448 z"
       inkscape:label="E" />
    <path
       id="path3529-3-5-7-0"
       style="color:#000000;opacity:0.96;fill:#000000;stroke-width:0.188768;stroke-miterlimit:10"
       d="m 520.88276,269.73958 v 40.40688 h 2.0752 V 280.8903 l 11.29707,29.25616 h 1.93098 l 11.29707,-29.25616 v 29.25616 h 2.07556 v -40.40688 l -14.33793,37.13093 z"
       sodipodi:nodetypes="cccccccccccc"
       inkscape:label="M" />
    <path
       style="color:#000000;opacity:0.96;fill:#000000;stroke-width:0.186381;stroke-miterlimit:10"
       d="m 504.86897,269.73958 -10.42758,40.40507 h 2.11302 l 8.32075,-31.82218 8.37241,31.82399 h 2.04899 z"
       id="path2240-2-8"
       sodipodi:nodetypes="ccccccc"
       inkscape:label="A" />
    <path
       id="rect623-7-1-1-7-3"
       style="color:#000000;fill:#000000;stroke-width:0.186208"
       d="m 474.70345,269.75078 c -3.69436,0 -6.70344,3.00908 -6.70344,6.70345 v 26.99999 c 0,3.69438 3.00908,6.70344 6.70344,6.70344 h 7.44828 c 3.69437,0 6.70345,-3.00906 6.70345,-6.70344 v -12.10199 -2.23448 h -2.23448 -8.19311 v 2.23448 h 8.19311 v 12.10199 c 0,2.49513 -1.97384,4.46896 -4.46897,4.46896 h -7.44828 c -2.49512,0 -4.46896,-1.97383 -4.46896,-4.46896 v -26.99999 c 0,-2.49512 1.97385,-4.46897 4.46896,-4.46897 h 7.44828 c 2.49513,0 4.46897,1.97385 4.46897,4.46897 v 5.49455 h 2.23448 v -5.49455 c 0,-3.69437 -3.00908,-6.70345 -6.70345,-6.70345 z"
       inkscape:label="G" />
  </g>
  <g
     id="g650"
     inkscape:label="GAME*">
    <path
       id="path6951-4"
       style="color:#000000;opacity:0.96;fill:#000000;stroke-miterlimit:10"
       d="M 643.16407,0 632.83399,5.9628903 650.66993,36.855471 H 615.00001 V 48.78125 h 35.66992 l -17.83594,30.892579 10.33008,5.96289 17.83398,-30.89063 17.83594,30.89063 10.33008,-5.96289 -17.83594,-30.892579 h 35.67188 V 36.855471 H 671.32813 L 689.16407,5.9628903 678.83399,0 661.00001,30.89063 Z"
       inkscape:label="star" />
    <path
       id="rect623-7-2-25"
       style="color:#000000;fill:#000000"
       d="m 468.00001,37.8688 v 97.50975 10.83984 108.65039 h 112 v -12 h -100 v -96.65039 h 43.58985 V 135.37855 H 480.00001 V 49.8688 h 100 v -12 z"
       inkscape:label="E" />
    <path
       id="path3529-3-5-7"
       style="color:#000000;opacity:0.96;fill:#000000;stroke-width:1.01375;stroke-miterlimit:10;-inkscape-stroke:none"
       d="M 284.00001,37.809103 V 254.80909 h 11.14454 V 97.692554 L 355.814,254.80909 h 10.37006 L 426.85352,97.692554 V 254.80909 h 11.14649 V 37.809103 l -77,199.406847 z"
       sodipodi:nodetypes="cccccccccccc"
       inkscape:label="M" />
    <path
       style="color:#000000;opacity:0.96;fill:#000000;stroke-width:1.00093;stroke-miterlimit:10;-inkscape-stroke:none"
       d="m 198.00001,37.809109 -56,216.990191 h 11.34766 l 44.68554,-170.896921 44.9629,170.906711 h 11.0039 z"
       id="path2240-2"
       sodipodi:nodetypes="ccccccc"
       inkscape:label="A" />
    <path
       id="rect623-7-1-1-7"
       style="color:#000000;fill:#000000"
       d="m 36,37.809103 c -19.840164,0 -36,16.15984 -36,36.000001 V 218.80909 c 0,19.84016 16.159836,36 36,36 h 40.000004 c 19.840154,0 35.999996,-16.15984 35.999996,-36 v -64.99219 -12 H 99.999998 55.999999 v 12 h 43.999999 v 64.99219 c 0,13.39975 -10.60026,24 -23.999994,24 H 36 c -13.399751,0 -24,-10.60025 -24,-24 V 73.809104 c 0,-13.399746 10.600249,-24 24,-24 h 40.000004 c 13.399734,0 23.999994,10.600254 23.999994,24 V 103.3169 H 112 V 73.809104 c 0,-19.84016 -16.159842,-36 -35.999996,-36 z"
       inkscape:label="G" />
  </g>
</svg>
