<?xml version="1.0" encoding="UTF-8" standalone="no"?>
<svg
   version="1.1"
   viewBox="0.0 0.0 960.0 720.0"
   fill="none"
   stroke="none"
   stroke-linecap="square"
   stroke-miterlimit="10"
   id="svg189"
   sodipodi:docname="abeille.svg"
   inkscape:version="1.2.1 (9c6d41e410, 2022-07-14)"
   xmlns:inkscape="http://www.inkscape.org/namespaces/inkscape"
   xmlns:sodipodi="http://sodipodi.sourceforge.net/DTD/sodipodi-0.dtd"
   xmlns="http://www.w3.org/2000/svg"
   xmlns:svg="http://www.w3.org/2000/svg">
  <defs
     id="defs193" />
  <sodipodi:namedview
     id="namedview191"
     pagecolor="#00f100"
     bordercolor="#000000"
     borderopacity="0.25"
     inkscape:showpageshadow="2"
     inkscape:pageopacity="0"
     inkscape:pagecheckerboard="0"
     inkscape:deskcolor="#d1d1d1"
     showgrid="false"
     inkscape:zoom="1.0528034"
     inkscape:cx="490.59492"
     inkscape:cy="449.27666"
     inkscape:window-width="2160"
     inkscape:window-height="1346"
     inkscape:window-x="-11"
     inkscape:window-y="-11"
     inkscape:window-maximized="1"
     inkscape:current-layer="g187" />
  <clipPath
     id="p.0">
    <path
       d="m0 0l960.0 0l0 720.0l-960.0 0l0 -720.0z"
       clip-rule="nonzero"
       id="path102" />
  </clipPath>
  <g
     clip-path="url(#p.0)"
     id="g187">
    <path
       fill="#000000"
       fill-opacity="0.0"
       d="m0 0l960.0 0l0 720.0l-960.0 0z"
       fill-rule="evenodd"
       id="path105" />
    <path
       fill="#ffffff"
       d="m 283.8852,466.67136 c 5.75748,-29.30273 19.36536,-64.20648 73.3287,-82.95355 53.96332,-18.74707 179.69601,-33.74719 250.45132,-29.52881 70.75525,4.21842 141.51056,26.36502 174.08044,54.8392 32.56995,28.47422 32.88977,84.24484 21.33893,116.00598 -11.55084,31.76123 -37.39984,60.61695 -90.64392,74.5611 -53.24408,13.94416 -163.85858,15.78071 -228.82056,9.10389 -64.96194,-6.67682 -127.66199,-25.4936 -160.95114,-49.16486 -33.28915,-23.67133 -44.54126,-63.56018 -38.78378,-92.86295 z"
       fill-rule="evenodd"
       id="path107"
       sodipodi:nodetypes="ssssssssss" />
    <path
       stroke="#000000"
       stroke-width="12"
       stroke-linejoin="round"
       stroke-linecap="butt"
       d="m 283.8852,466.67136 c 5.75748,-29.30273 19.36536,-64.20648 73.3287,-82.95355 53.96332,-18.74707 179.75768,-34.6783 250.45132,-29.52881 126.43678,9.20995 236.72352,50.96914 195.41937,170.84518 -11.00959,31.95288 -37.39984,60.61695 -90.64392,74.5611 -53.24408,13.94416 -163.85858,15.78071 -228.82056,9.10389 -64.96194,-6.67682 -127.66199,-25.4936 -160.95114,-49.16486 -33.28915,-23.67133 -44.54126,-63.56018 -38.78378,-92.86295 z"
       fill-rule="evenodd"
       id="path109"
       sodipodi:nodetypes="sssssssss" />
    <path
       fill="#000000"
       fill-opacity="0"
       d="m 311.85132,452.02252 c 1.92969,-3.82452 6.64734,-18.72037 11.57806,-22.94714 4.93073,-4.22678 14.79068,-6.84244 18.00629,-2.41349 3.21564,4.42896 1.07288,24.15601 1.28745,28.98722"
       fill-rule="evenodd"
       id="path111"
       sodipodi:nodetypes="cssc" />
    <path
       stroke="#000000"
       stroke-width="8"
       stroke-linejoin="round"
       stroke-linecap="butt"
       d="m 317.8961,450.00759 c 2.96455,-10.35117 0.74744,-27.27365 16.82315,-24.01734 16.07572,3.25631 7.7893,24.82765 8.00387,29.65886"
       fill-rule="evenodd"
       id="path113"
       sodipodi:nodetypes="czc"
       style="stroke-width:6;stroke-dasharray:none;stroke-linecap:round" />
    <path
       fill="#000000"
       fill-opacity="0"
       d="m 372.67657,458.06192 c 0.35715,-5.63641 -1.64456,-27.77976 2.14276,-33.81842 3.78732,-6.03864 16.15091,-7.98294 20.58121,-2.41348 4.4303,5.56949 5.00049,29.85864 6.00058,35.83035"
       fill-rule="evenodd"
       id="path115"
       sodipodi:nodetypes="cssc" />
    <path
       stroke="#000000"
       stroke-width="12"
       stroke-linejoin="round"
       stroke-linecap="butt"
       d="m 372.67657,458.06192 c 0.35715,-5.63641 -1.26019,-31.64663 14.90396,-32.47514 16.16414,-0.8285 12.94391,15.52861 15.16387,30.39449"
       fill-rule="evenodd"
       id="path117"
       sodipodi:nodetypes="czc"
       style="opacity:1;stroke-width:6;stroke-linecap:round;stroke-dasharray:none" />
    <path
       fill="#000000"
       fill-opacity="0"
       d="m 311.71338,483.02487 c 1.3992,5.9447 1.94208,26.82358 8.39523,35.66818 6.45316,8.84461 20.30963,17.13611 30.3237,17.39954 10.01407,0.26343 23.422,-7.64612 29.76068,-15.81903 6.33869,-8.17292 6.89286,-27.68207 8.27143,-33.21851"
       fill-rule="evenodd"
       id="path119"
       sodipodi:nodetypes="csssc" />
    <path
       stroke="#000000"
       stroke-width="8"
       stroke-linejoin="round"
       stroke-linecap="butt"
       d="m 313.05666,490.07711 c 2.84134,24.13768 10.58651,47.65623 37.37565,46.01548 26.78914,-1.64075 30.09743,-17.29741 36.01718,-43.66441"
       fill-rule="evenodd"
       id="path121"
       sodipodi:nodetypes="czc"
       style="stroke-width:6;stroke-linecap:round;stroke-dasharray:none" />
    <path
       fill="#999999"
       d="m 388.0537,474.70975 v 0 c 0,-6.6709 5.35144,-12.07874 11.95276,-12.07874 v 0 c 3.17007,0 6.2103,1.27259 8.45187,3.53779 2.24158,2.26519 3.50089,5.33746 3.50089,8.54095 v 0 c 0,6.6709 -5.35144,12.07874 -11.95276,12.07874 v 0 c -6.60132,0 -11.95276,-5.40784 -11.95276,-12.07874 z"
       fill-rule="evenodd"
       id="path123"
       sodipodi:nodetypes="ssssssssss"
       style="stroke:none;stroke-opacity:1;fill:#000000;fill-opacity:1" />
    <path
       fill="#999999"
       d="m 295.13354,469.33957 v 0 c 0,-6.20123 5.35144,-11.22833 11.95276,-11.22833 v 0 c 3.17007,0 6.2103,1.18298 8.45187,3.28869 2.24158,2.10572 3.50089,4.9617 3.50089,7.93964 v 0 c 0,6.20126 -5.35144,11.22836 -11.95276,11.22836 v 0 c -6.60132,0 -11.95276,-5.0271 -11.95276,-11.22836 z"
       fill-rule="evenodd"
       id="path125"
       sodipodi:nodetypes="ssssssssss"
       style="fill:#000000;fill-opacity:1" />
    <path
       fill="#000000"
       d="m 396.52283,371.06168 c 30.86486,35.9774 59.63499,79.39736 60.44022,114.25155 0.81158,35.12854 -22.04394,86.5141 -30.11478,113.54371 8.04855,14.94006 64.95102,17.57568 83.1076,13.70867 15.35267,-32.45221 29.85165,-93.10564 24.95237,-134.22255 -5.11473,-42.92501 -37.44463,-106.16012 -59.40641,-115.00844 -20.21612,-5.27295 -73.86484,-2.17321 -78.979,7.72705 z"
       fill-rule="evenodd"
       id="path127"
       sodipodi:nodetypes="csccscsc" />
    <path
       fill="#000000"
       d="m 552.6348,354.89212 c 38.71674,47.14734 59.10067,76.21253 60.42722,124.3075 1.32655,48.09498 -6.2766,94.23862 -14.3801,128.79647 34.61447,-0.47225 54.88876,2.27061 77.25149,0.64022 12.32288,-20.02041 26.98452,-70.36209 27.83516,-123.00523 0.85065,-52.64314 -30.20873,-108.43165 -44.96839,-125.68594 -19.67346,-9.28827 -99.42679,-15.89198 -106.16538,-5.05302 z"
       fill-rule="evenodd"
       id="path131"
       sodipodi:nodetypes="czcczcc" />
    <path
       fill="#000000"
       d="m 728.29082,380.77361 c 14.40173,23.96605 28.99271,59.30305 34.78282,91.87962 5.79011,32.57657 -2.44368,79.97768 -15.21647,107.92288 4.58569,8.79755 37.276,-20.8457 45.68207,-30.52807 8.40601,-9.68238 10.14423,-15.17218 12.8139,-27.56629 2.66974,-12.3941 4.53907,-29.74194 3.20423,-46.79821 -1.33484,-17.05631 -2.27319,-42.26245 -11.21332,-55.53952 -7.69513,-12.95269 -69.92865,-40.17176 -70.05323,-39.37041 z"
       fill-rule="evenodd"
       id="path135"
       sodipodi:nodetypes="czcssscc" />
    <path
       fill="#000000"
       fill-opacity="0"
       d="m 405.50818,596.0346 c 0.56152,13.24109 -4.86679,61.28394 3.36929,79.44653 8.23606,18.16254 38.37259,24.6073 46.04709,29.52875"
       fill-rule="evenodd"
       id="path139"
       sodipodi:nodetypes="csc" />
    <path
       stroke="#000000"
       stroke-width="8"
       stroke-linejoin="round"
       stroke-linecap="butt"
       d="m 405.50818,596.0346 c 0.56152,13.24109 -4.86679,61.28394 3.36929,79.44653 8.23606,18.16254 38.37259,24.6073 46.04709,29.52875"
       fill-rule="evenodd"
       id="path141"
       sodipodi:nodetypes="csc"
       style="stroke-width:6;stroke-dasharray:none;stroke-linecap:round" />
    <path
       fill="#000000"
       fill-opacity="0"
       d="m 389.78336,587.5981 c -1.49747,13.59265 -16.47214,64.79932 -8.9848,81.55573 7.48733,16.7564 44.92398,15.81903 53.90878,18.98278"
       fill-rule="evenodd"
       id="path143"
       sodipodi:nodetypes="csc" />
    <path
       stroke="#000000"
       stroke-width="8"
       stroke-linejoin="round"
       stroke-linecap="butt"
       d="m 389.78336,587.5981 c -1.49747,13.59265 -16.47214,64.79932 -8.9848,81.55573 7.48733,16.7564 54.32697,5.7444 63.31177,8.90815"
       fill-rule="evenodd"
       id="path145"
       sodipodi:nodetypes="csc"
       style="stroke-width:6;stroke-dasharray:none;stroke-linecap:round" />
    <path
       fill="#000000"
       fill-opacity="0"
       d="m 483.0011,609.7439 c -0.56155,10.95612 -8.79764,49.15607 -3.36932,65.73669 5.42831,16.58069 29.94934,28.12268 35.93921,33.7472"
       fill-rule="evenodd"
       id="path147"
       sodipodi:nodetypes="csc" />
    <path
       stroke="#000000"
       stroke-width="8"
       stroke-linejoin="round"
       stroke-linecap="butt"
       d="m 483.0011,609.7439 c -0.56155,10.95612 -8.79764,49.15607 -3.36932,65.73669 5.42831,16.58069 29.94934,28.12268 35.93921,33.7472"
       fill-rule="evenodd"
       id="path149"
       sodipodi:nodetypes="csc"
       style="stroke-width:6;stroke-dasharray:none;stroke-linecap:round" />
    <path
       fill="#000000"
       fill-opacity="0"
       d="m 516.69495,610.79846 c 3.74371,12.53802 12.16693,58.47168 22.46204,75.22809 10.29504,16.75647 32.75708,21.09204 39.30847,25.31042"
       fill-rule="evenodd"
       id="path151"
       sodipodi:nodetypes="csc" />
    <path
       stroke="#000000"
       stroke-width="8"
       stroke-linejoin="round"
       stroke-linecap="butt"
       d="m 516.69495,610.79846 c 3.74371,12.53802 12.16693,58.47168 22.46204,75.22809 10.29504,16.75647 32.75708,21.09204 39.30847,25.31042"
       fill-rule="evenodd"
       id="path153"
       sodipodi:nodetypes="csc"
       style="stroke-width:6;stroke-dasharray:none;stroke-linecap:round" />
    <path
       fill="#000000"
       fill-opacity="0"
       d="m 634.6211,607.63477 c 1.87183,9.19843 -1.06067,40.77783 11.23102,55.19074 12.29168,14.41284 52.09936,26.07202 62.51922,31.28643"
       fill-rule="evenodd"
       id="path155"
       sodipodi:nodetypes="csc" />
    <path
       stroke="#000000"
       stroke-width="8"
       stroke-linejoin="round"
       stroke-linecap="butt"
       d="m 634.6211,607.63477 c 1.87183,9.19843 -1.06067,40.77783 11.23102,55.19074 12.29168,14.41284 52.09936,26.07202 62.51922,31.28643"
       fill-rule="evenodd"
       id="path157"
       sodipodi:nodetypes="csc"
       style="stroke-width:6;stroke-dasharray:none;stroke-linecap:round" />
    <path
       fill="#000000"
       fill-opacity="0"
       d="m 650.3446,606.5802 c 5.92749,10.54602 21.33887,50.56219 35.56482,63.276 14.22595,12.71381 41.49231,10.83893 49.79077,13.00671"
       fill-rule="evenodd"
       id="path159"
       sodipodi:nodetypes="csc" />
    <path
       stroke="#000000"
       stroke-width="8"
       stroke-linejoin="round"
       stroke-linecap="butt"
       d="m 650.3446,606.5802 c 5.92749,10.54602 21.33887,50.56219 35.56482,63.276 14.22595,12.71381 41.49231,10.83893 49.79077,13.00671"
       fill-rule="evenodd"
       id="path161"
       sodipodi:nodetypes="csc"
       style="stroke-width:6;stroke-dasharray:none;stroke-linecap:round" />
    <path
       fill="#000000"
       fill-opacity="0"
       d="m 340.36676,386.53207 c -2.05902,-8.78833 -4.6796,-37.96561 -12.35409,-52.73001 -7.67453,-14.7644 -18.90552,-27.59537 -33.693,-35.85638 -14.7875,-8.26105 -45.85992,-11.42484 -55.0319,-13.70981"
       fill-rule="evenodd"
       id="path163"
       sodipodi:nodetypes="cssc" />
    <path
       stroke="#000000"
       stroke-width="8"
       stroke-linejoin="round"
       stroke-linecap="butt"
       d="m 340.36676,386.53207 c -5.0088,-35.8687 -15.66226,-71.09991 -46.04709,-88.58639 -14.7875,-8.26105 -45.85992,-11.42484 -55.0319,-13.70981"
       fill-rule="evenodd"
       id="path165"
       sodipodi:nodetypes="ccc"
       style="stroke-width:6;stroke-dasharray:none" />
    <path
       fill="#000000"
       fill-opacity="0"
       d="m 369.75607,383.36887 c -2.8613,-8.76389 -8.69098,-37.84335 -17.16779,-52.58331 -8.4768,-14.73996 -16.86862,-32.31662 -33.69302,-35.85639 -16.82437,-3.53979 -56.04443,12.1814 -67.25334,14.61768"
       fill-rule="evenodd"
       id="path167"
       sodipodi:nodetypes="cssc" />
    <path
       stroke="#000000"
       stroke-width="8"
       stroke-linejoin="round"
       stroke-linecap="butt"
       d="m 369.75607,383.36887 c -9.12311,-29.90772 -21.39112,-81.20484 -50.86081,-88.4397 -16.82437,-3.53979 -56.04443,12.1814 -67.25334,14.61768"
       fill-rule="evenodd"
       id="path169"
       sodipodi:nodetypes="ccc"
       style="stroke-width:6;stroke-dasharray:none" />
    <path
       fill="#000000"
       fill-opacity="0"
       d="m 215.37534,283.1859 v 0 c 0,-6.20126 5.35142,-11.22836 11.95274,-11.22836 v 0 c 3.17008,0 6.2103,1.18298 8.45188,3.28872 2.24158,2.10572 3.50088,4.9617 3.50088,7.93964 v 0 c 0,6.20123 -5.35142,11.22833 -11.95276,11.22833 v 0 c -6.60131,0 -11.95274,-5.0271 -11.95274,-11.22833 z"
       fill-rule="evenodd"
       id="path171"
       sodipodi:nodetypes="ssssssssss" />
    <path
       stroke="#000000"
       stroke-width="4"
       stroke-linejoin="round"
       stroke-linecap="butt"
       d="m 215.37534,283.1859 v 0 c 0,-6.20126 5.35142,-11.22836 11.95274,-11.22836 v 0 c 3.17008,0 6.2103,1.18298 8.45188,3.28872 2.24158,2.10572 3.50088,4.9617 3.50088,7.93964 v 0 c 0,6.20123 -5.35142,11.22833 -11.95276,11.22833 v 0 c -6.60131,0 -11.95274,-5.0271 -11.95274,-11.22833 z"
       fill-rule="evenodd"
       id="path173"
       sodipodi:nodetypes="ssssssssss"
       style="stroke-width:6;stroke-dasharray:none;fill:#ffffff;fill-opacity:1" />
    <path
       fill="#000000"
       fill-opacity="0"
       d="m 230.30292,312.71362 v 0 c 0,-6.20123 5.35142,-11.22833 11.95274,-11.22833 v 0 c 3.17008,0 6.21032,1.18298 8.45189,3.28869 2.24156,2.10575 3.50087,4.9617 3.50087,7.93964 v 0 c 0,6.20126 -5.35142,11.22836 -11.95276,11.22836 v 0 c -6.60131,0 -11.95274,-5.0271 -11.95274,-11.22836 z"
       fill-rule="evenodd"
       id="path175"
       sodipodi:nodetypes="ssssssssss" />
    <path
       stroke="#000000"
       stroke-width="4"
       stroke-linejoin="round"
       stroke-linecap="butt"
       d="m 230.30292,312.71362 v 0 c 0,-6.20123 5.35142,-11.22833 11.95274,-11.22833 v 0 c 3.17008,0 6.21032,1.18298 8.45189,3.28869 2.24156,2.10575 3.50087,4.9617 3.50087,7.93964 v 0 c 0,6.20126 -5.35142,11.22836 -11.95276,11.22836 v 0 c -6.60131,0 -11.95274,-5.0271 -11.95274,-11.22836 z"
       fill-rule="evenodd"
       id="path177"
       sodipodi:nodetypes="ssssssssss"
       style="stroke-width:6;stroke-dasharray:none;fill:#ffffff;fill-opacity:1" />
    <a
       id="a451"
       transform="translate(-10.746269,-3.358209)"
       style="fill:#000000;fill-opacity:0">
      <path
         fill="#f3f3f3"
         d="m 477.99884,352.83533 c -27.02637,-71.47568 -55.69412,-148.48083 -38.70606,-224.0105 6.23362,-26.1133 17.50263,-43.221344 37.40158,-51.325455 19.89896,-8.104111 64.01096,-9.005249 81.99216,2.700783 17.98114,11.706039 24.2165,38.720472 25.89496,67.535442 -21.3969,47.2447 2.62442,190.78233 -40.08136,207.59841 -39.5198,9.4719 -62.85726,7.21619 -66.50128,-2.49868 z"
         fill-rule="evenodd"
         id="path179"
         sodipodi:nodetypes="ccssccc"
         style="fill:#000000;fill-opacity:0" />
      <path
         stroke="#000000"
         stroke-width="8"
         stroke-linejoin="round"
         stroke-linecap="butt"
         d="m 486.05853,361.56668 c -8.03458,-21.02582 -29.56846,-96.0972 -36.01948,-133.43228 -6.45098,-37.33508 -6.23358,-79.24104 0,-105.35434 6.23362,-26.113306 18.17427,-37.848216 38.07322,-45.952327 19.89896,-8.104111 64.01096,-9.005249 81.99216,2.700783 17.98114,11.706039 24.2165,38.720474 25.89496,67.535444 -21.3969,47.2447 -34.98752,184.06591 -34.70823,209.61334 -36.83323,0.0689 -44.05129,1.17141 -75.23263,4.88938 z"
         fill-rule="evenodd"
         id="path181"
         sodipodi:nodetypes="cssssccc"
         style="fill:#ffffff;fill-opacity:1;stroke-width:12;stroke-dasharray:none" />
    </a>
    <a
       id="a455"
       transform="translate(24.850749,-3.3582093)"
       style="fill:#ffffff;fill-opacity:1">
      <path
         fill="#f3f3f3"
         d="m 518.83001,350.22216 c -1.64827,-21.96245 -0.71994,-172.46251 39.65327,-240.20696 26.86636,-45.701119 95.14414,-50.878202 129.39367,-13.07087 13.4585,16.19817 10.85041,43.7279 3.32288,71.70604 -30.7372,41.83986 -75.14001,161.32351 -98.25599,185.45254 -38.99556,-4.8689 -9.66179,0.26266 -74.11383,-3.88075 z"
         fill-rule="evenodd"
         id="path183"
         sodipodi:nodetypes="cccccc"
         style="fill:#ffffff;fill-opacity:1" />
      <path
         stroke="#000000"
         stroke-width="8"
         stroke-linejoin="round"
         stroke-linecap="butt"
         d="m 516.14344,357.61022 c -0.1496,-24.28915 2.46234,-108.2092 8.95928,-147.01234 6.49695,-38.80315 19.15613,-77.39327 33.38056,-100.58268 14.22442,-23.189415 30.40027,-36.375328 51.96588,-38.55381 21.56561,-2.178474 60.9841,0.05718 76.0845,14.736671 22.18985,21.571309 13.88957,76.522499 -0.0353,101.929919 -24.95196,45.52745 -77.15494,139.15934 -96.91271,168.6615 -45.7668,-0.30548 -14.81725,-0.2649 -73.44221,0.82074 z"
         fill-rule="evenodd"
         id="path185"
         sodipodi:nodetypes="cssssscc"
         style="fill:#ffffff;fill-opacity:1;stroke-width:12;stroke-dasharray:none" />
    </a>
  </g>
  <g
     inkscape:groupmode="layer"
     id="layer1"
     inkscape:label="Layer 1"
     style="display:none">
    <a
       id="a2303"
       transform="matrix(0.43298969,0,0,0.42857144,317.29883,205.04262)">
      <ellipse
         style="opacity:1;fill:#000000;fill-opacity:1;stroke-width:10;stroke-dasharray:none"
         id="path2243"
         cx="142.05225"
         cy="552.76117"
         rx="32.574627"
         ry="56.417912" />
      <ellipse
         style="opacity:1;fill:#ffffff;fill-opacity:1;stroke-width:10;stroke-dasharray:none"
         id="path2299"
         cx="147.08955"
         cy="530.59705"
         rx="14.776119"
         ry="23.507463" />
    </a>
    <a
       id="a2303-5"
       transform="matrix(0.48453609,0,0,0.4404762,265.64818,197.7905)">
      <ellipse
         style="opacity:1;fill:#000000;fill-opacity:1;stroke-width:10;stroke-dasharray:none"
         id="path2243-8"
         cx="142.05225"
         cy="552.76117"
         rx="32.574627"
         ry="56.417912" />
      <ellipse
         style="opacity:1;fill:#ffffff;fill-opacity:1;stroke-width:10;stroke-dasharray:none"
         id="path2299-7"
         cx="147.08955"
         cy="530.59705"
         rx="14.776119"
         ry="23.507463" />
    </a>
  </g>
</svg>
