<?xml version="1.0" encoding="UTF-8" standalone="no"?>
<svg
   version="1.1"
   viewBox="0.0 0.0 960.0 720.0"
   fill="none"
   stroke="none"
   stroke-linecap="square"
   stroke-miterlimit="10"
   id="svg189"
   sodipodi:docname="araignée-v6.svg"
   inkscape:version="1.2.1 (9c6d41e410, 2022-07-14)"
   xmlns:inkscape="http://www.inkscape.org/namespaces/inkscape"
   xmlns:sodipodi="http://sodipodi.sourceforge.net/DTD/sodipodi-0.dtd"
   xmlns="http://www.w3.org/2000/svg"
   xmlns:svg="http://www.w3.org/2000/svg">
  <defs
     id="defs193" />
  <sodipodi:namedview
     id="namedview191"
     pagecolor="#ffffff"
     bordercolor="#000000"
     borderopacity="0.25"
     inkscape:showpageshadow="2"
     inkscape:pageopacity="0.0"
     inkscape:pagecheckerboard="0"
     inkscape:deskcolor="#d1d1d1"
     showgrid="false"
     inkscape:zoom="1.4888889"
     inkscape:cx="242.79851"
     inkscape:cy="372.76119"
     inkscape:window-width="2160"
     inkscape:window-height="1346"
     inkscape:window-x="-11"
     inkscape:window-y="-11"
     inkscape:window-maximized="1"
     inkscape:current-layer="g187" />
  <clipPath
     id="p.0">
    <path
       d="m0 0l960.0 0l0 720.0l-960.0 0l0 -720.0z"
       clip-rule="nonzero"
       id="path102" />
  </clipPath>
  <g
     clip-path="url(#p.0)"
     id="g187">
    <path
       fill="#000000"
       fill-opacity="0.0"
       d="m0 0l960.0 0l0 720.0l-960.0 0z"
       fill-rule="evenodd"
       id="path105" />
    <path
       stroke="#000000"
       stroke-width="12.4672"
       stroke-linejoin="round"
       stroke-linecap="butt"
       d="m 284.11532,455.98883 c 27.92011,-111.00962 205.71706,-116.81386 286.44358,-59.82966 44.78426,34.7521 59.17216,95.27629 39.04853,141.83069 -14.4429,33.41249 -62.35558,57.4735 -125.35354,57.71386 -62.99796,0.24035 -137.55244,-5.05037 -170.79708,-30.63493 -33.24463,-25.58462 -35.09128,-77.40873 -29.3415,-109.07996 z"
       fill-rule="evenodd"
       id="path109"
       sodipodi:nodetypes="ccszssc"
       style="stroke-width:12;stroke-dasharray:none" />
    <path
       fill="#000000"
       fill-opacity="0"
       d="m 331.19343,459.7318 c 2.06911,-4.01461 7.12759,-19.65082 12.41453,-24.08767 5.28696,-4.43686 15.85925,-7.18252 19.30717,-2.53344 3.44795,4.64908 1.15039,25.35662 1.38045,30.42795"
       fill-rule="evenodd"
       id="path111"
       sodipodi:nodetypes="cssc"
       style="stroke-width:1.06092" />
    <path
       stroke="#000000"
       stroke-width="8.48731"
       stroke-linejoin="round"
       stroke-linecap="butt"
       d="m 337.67493,457.61673 c 3.17873,-10.86565 4.15962,-23.92774 17.3669,-20.50958 13.20728,3.41816 9.02369,21.36016 9.25375,26.43149"
       fill-rule="evenodd"
       id="path113"
       sodipodi:nodetypes="czc"
       style="stroke-width:6;stroke-dasharray:none;stroke-linecap:round" />
    <path
       fill="#000000"
       fill-opacity="0"
       d="m 396.41304,466.07138 c 0.38296,-5.91656 -1.76337,-29.16049 2.29757,-35.49929 4.06094,-6.33877 17.31774,-8.37971 22.06811,-2.53343 4.75037,5.8463 5.36176,31.34269 6.43409,37.6112"
       fill-rule="evenodd"
       id="path115"
       sodipodi:nodetypes="cssc"
       style="stroke-width:1.06092" />
    <path
       stroke="#000000"
       stroke-width="12"
       stroke-linejoin="round"
       stroke-linecap="butt"
       d="m 396.41304,466.07138 c 0.38296,-5.91656 1.33535,-23.14494 15.30907,-24.68625 13.97372,-1.54131 14.45365,13.36148 15.4907,24.26473"
       fill-rule="evenodd"
       id="path117"
       sodipodi:nodetypes="czc"
       style="opacity:1;stroke-width:6;stroke-dasharray:none;stroke-linecap:round" />
    <path
       fill="#000000"
       fill-opacity="0"
       d="m 331.04553,492.27504 c 1.50029,6.24017 2.08239,28.15679 9.00175,37.44098 6.91937,9.28421 21.77691,17.98782 32.51446,18.26434 10.73754,0.27652 25.11413,-8.02615 31.91075,-16.60528 6.79663,-8.57913 7.39084,-29.05793 8.86901,-34.86955"
       fill-rule="evenodd"
       id="path119"
       sodipodi:nodetypes="csssc"
       style="stroke-width:1.06092" />
    <path
       stroke="#000000"
       stroke-width="8.48731"
       stroke-linejoin="round"
       stroke-linecap="butt"
       d="m 351.19478,496.97654 c -0.31159,25.33738 11.4484,34.59179 26.74009,34.88442 15.29169,0.29263 21.67114,-7.67792 21.97379,-36.02707"
       fill-rule="evenodd"
       id="path121"
       sodipodi:nodetypes="czc"
       style="stroke-width:6;stroke-dasharray:none;stroke-linecap:round" />
    <path
       fill="#999999"
       d="m 420.96081,484.88993 v 0 c 0,-7.00246 5.73807,-12.67908 12.8163,-12.67908 v 0 c 3.39909,0 6.65897,1.33584 9.06248,3.71363 2.40352,2.37777 3.75381,5.60275 3.75381,8.96545 v 0 c 0,7.00246 -5.73806,12.67908 -12.81629,12.67908 v 0 c -7.07823,0 -12.8163,-5.67662 -12.8163,-12.67908 z"
       fill-rule="evenodd"
       id="path123"
       sodipodi:nodetypes="ssssssssss"
       style="fill:#000000;fill-opacity:1;stroke-width:1.06092" />
    <path
       fill="#999999"
       d="m 313.26787,477.90955 v 0 c 0,-6.50944 5.73806,-11.78641 12.8163,-11.78641 v 0 c 3.39909,0 6.65896,1.24179 9.06248,3.45215 2.40352,2.21038 3.75381,5.20831 3.75381,8.33426 v 0 c 0,6.50948 -5.73806,11.78644 -12.81629,11.78644 v 0 c -7.07824,0 -12.8163,-5.27696 -12.8163,-11.78644 z"
       fill-rule="evenodd"
       id="path125"
       sodipodi:nodetypes="ssssssssss"
       style="stroke-width:1.06092;fill:#000000;fill-opacity:1" />
    <path
       fill="#000000"
       fill-opacity="0"
       d="m 405.50818,596.0346 c 0.56152,13.24109 -4.86679,61.28394 3.36929,79.44653 8.23606,18.16254 38.37259,24.6073 46.04709,29.52875"
       fill-rule="evenodd"
       id="path139"
       sodipodi:nodetypes="csc" />
    <path
       fill="#000000"
       fill-opacity="0"
       d="m 389.78336,587.5981 c -1.49747,13.59265 -16.47214,64.79932 -8.9848,81.55573 7.48733,16.7564 44.92398,15.81903 53.90878,18.98278"
       fill-rule="evenodd"
       id="path143"
       sodipodi:nodetypes="csc" />
    <path
       fill="#000000"
       fill-opacity="0"
       d="m 483.0011,609.7439 c -0.56155,10.95612 -8.79764,49.15607 -3.36932,65.73669 5.42831,16.58069 29.94934,28.12268 35.93921,33.7472"
       fill-rule="evenodd"
       id="path147"
       sodipodi:nodetypes="csc" />
    <path
       fill="#000000"
       fill-opacity="0"
       d="m 516.69495,610.79846 c 3.74371,12.53802 12.16693,58.47168 22.46204,75.22809 10.29504,16.75647 32.75708,21.09204 39.30847,25.31042"
       fill-rule="evenodd"
       id="path151"
       sodipodi:nodetypes="csc" />
    <path
       stroke="#000000"
       stroke-width="8"
       stroke-linejoin="round"
       stroke-linecap="butt"
       d="m 344.67321,583.51546 c -43.97673,10.27467 -35.92364,60.87749 -3.30113,87.02897"
       fill-rule="evenodd"
       id="path161-32"
       sodipodi:nodetypes="cc"
       style="stroke-width:6;stroke-dasharray:none;stroke-linecap:round" />
    <path
       stroke="#000000"
       stroke-width="8"
       stroke-linejoin="round"
       stroke-linecap="butt"
       d="m 442.93907,596.00578 c -35.78056,23.6533 -18.75517,65.69565 -1.7796,81.68113"
       fill-rule="evenodd"
       id="path161-32-6"
       sodipodi:nodetypes="cc"
       style="stroke-width:6;stroke-dasharray:none;stroke-linecap:round" />
    <path
       stroke="#000000"
       stroke-width="8"
       stroke-linejoin="round"
       stroke-linecap="butt"
       d="m 515.58267,591.34151 c 25.49997,22.47091 21.0058,65.53227 10.13171,87.02897"
       fill-rule="evenodd"
       id="path161-32-6-3"
       sodipodi:nodetypes="cc"
       style="stroke-width:6;stroke-dasharray:none;stroke-linecap:round" />
    <path
       stroke="#000000"
       stroke-width="8"
       stroke-linejoin="round"
       stroke-linecap="butt"
       d="m 587.88853,565.38114 c 43.92272,17.94829 38.06644,60.24467 34.31082,91.05882"
       fill-rule="evenodd"
       id="path161-6"
       sodipodi:nodetypes="cc"
       style="stroke-width:6;stroke-dasharray:none;stroke-linecap:round" />
    <path
       stroke="#000000"
       stroke-width="8"
       stroke-linejoin="round"
       stroke-linecap="butt"
       d="m 568.88385,575.47569 c 29.08779,18.69956 18.73191,62.29503 9.958,89.56809"
       fill-rule="evenodd"
       id="path161-3-1"
       sodipodi:nodetypes="cc"
       style="stroke-width:6;stroke-dasharray:none;stroke-linecap:round" />
    <path
       stroke="#000000"
       stroke-width="8"
       stroke-linejoin="round"
       stroke-linecap="butt"
       d="m 316.86212,568.24233 c -49.72321,13.28848 -46.01606,63.64661 -14.71903,99.79016"
       fill-rule="evenodd"
       id="path161-32-7"
       sodipodi:nodetypes="cc"
       style="stroke-width:6;stroke-dasharray:none;stroke-linecap:round" />
    <path
       stroke="#000000"
       stroke-width="8"
       stroke-linejoin="round"
       stroke-linecap="butt"
       d="m 403.54262,593.59653 c -29.11512,20.51059 -25.1278,63.79964 -3.33169,83.16508"
       fill-rule="evenodd"
       id="path161-32-7-9"
       sodipodi:nodetypes="cc"
       style="stroke-width:6;stroke-dasharray:none;stroke-linecap:round" />
    <path
       stroke="#000000"
       stroke-width="8"
       stroke-linejoin="round"
       stroke-linecap="butt"
       d="m 487.12859,594.37682 c 16.97532,22.48371 11.91534,60.54363 1.40037,85.01405"
       fill-rule="evenodd"
       id="path161-32-7-9-5"
       sodipodi:nodetypes="cc"
       style="stroke-width:6;stroke-dasharray:none;stroke-linecap:round" />
    <path
       fill="#000000"
       fill-opacity="0"
       d="m 340.36676,386.53207 c -2.05902,-8.78833 -4.6796,-37.96561 -12.35409,-52.73001 -7.67453,-14.7644 -18.90552,-27.59537 -33.693,-35.85638 -14.7875,-8.26105 -45.85992,-11.42484 -55.0319,-13.70981"
       fill-rule="evenodd"
       id="path163"
       sodipodi:nodetypes="cssc" />
    <path
       fill="#000000"
       fill-opacity="0"
       d="m 369.75607,383.36887 c -2.8613,-8.76389 -8.69098,-37.84335 -17.16779,-52.58331 -8.4768,-14.73996 -16.86862,-32.31662 -33.69302,-35.85639 -16.82437,-3.53979 -56.04443,12.1814 -67.25334,14.61768"
       fill-rule="evenodd"
       id="path167"
       sodipodi:nodetypes="cssc" />
    <path
       fill="#000000"
       fill-opacity="0"
       d="m 215.37534,283.1859 v 0 c 0,-6.20126 5.35142,-11.22836 11.95274,-11.22836 v 0 c 3.17008,0 6.2103,1.18298 8.45188,3.28872 2.24158,2.10572 3.50088,4.9617 3.50088,7.93964 v 0 c 0,6.20123 -5.35142,11.22833 -11.95276,11.22833 v 0 c -6.60131,0 -11.95274,-5.0271 -11.95274,-11.22833 z"
       fill-rule="evenodd"
       id="path171"
       sodipodi:nodetypes="ssssssssss" />
    <path
       fill="#000000"
       fill-opacity="0"
       d="m 230.30292,312.71362 v 0 c 0,-6.20123 5.35142,-11.22833 11.95274,-11.22833 v 0 c 3.17008,0 6.21032,1.18298 8.45189,3.28869 2.24156,2.10575 3.50087,4.9617 3.50087,7.93964 v 0 c 0,6.20126 -5.35142,11.22836 -11.95276,11.22836 v 0 c -6.60131,0 -11.95274,-5.0271 -11.95274,-11.22836 z"
       fill-rule="evenodd"
       id="path175"
       sodipodi:nodetypes="ssssssssss" />
    <a
       id="a451"
       transform="translate(-10.746269,-3.358209)"
       style="fill:#000000;fill-opacity:0">
      <path
         fill="#f3f3f3"
         d="m 477.99884,352.83533 c -27.02637,-71.47568 -55.69412,-148.48083 -38.70606,-224.0105 6.23362,-26.1133 17.50263,-43.221344 37.40158,-51.325455 19.89896,-8.104111 64.01096,-9.005249 81.99216,2.700783 17.98114,11.706039 24.2165,38.720472 25.89496,67.535442 -21.3969,47.2447 2.62442,190.78233 -40.08136,207.59841 -39.5198,9.4719 -62.85726,7.21619 -66.50128,-2.49868 z"
         fill-rule="evenodd"
         id="path179"
         sodipodi:nodetypes="ccssccc"
         style="fill:#000000;fill-opacity:0" />
    </a>
  </g>
  <g
     inkscape:groupmode="layer"
     id="layer1"
     inkscape:label="Layer 1"
     style="display:none">
    <a
       id="a2303"
       transform="matrix(0.43298969,0,0,0.42857144,317.29883,205.04262)">
      <ellipse
         style="opacity:1;fill:#000000;fill-opacity:1;stroke-width:10;stroke-dasharray:none"
         id="path2243"
         cx="142.05225"
         cy="552.76117"
         rx="32.574627"
         ry="56.417912" />
      <ellipse
         style="opacity:1;fill:#ffffff;fill-opacity:1;stroke-width:10;stroke-dasharray:none"
         id="path2299"
         cx="147.08955"
         cy="530.59705"
         rx="14.776119"
         ry="23.507463" />
    </a>
    <a
       id="a2303-5"
       transform="matrix(0.48453609,0,0,0.4404762,265.64818,197.7905)">
      <ellipse
         style="opacity:1;fill:#000000;fill-opacity:1;stroke-width:10;stroke-dasharray:none"
         id="path2243-8"
         cx="142.05225"
         cy="552.76117"
         rx="32.574627"
         ry="56.417912" />
      <ellipse
         style="opacity:1;fill:#ffffff;fill-opacity:1;stroke-width:10;stroke-dasharray:none"
         id="path2299-7"
         cx="147.08955"
         cy="530.59705"
         rx="14.776119"
         ry="23.507463" />
    </a>
  </g>
</svg>
