<?xml version="1.0" encoding="UTF-8" standalone="no"?>
<!-- Generator: Adobe Illustrator 26.1.0, SVG Export Plug-In . SVG Version: 6.00 Build 0)  -->

<svg
   version="1.1"
   id="svg189"
   inkscape:version="1.2.1 (9c6d41e410, 2022-07-14)"
   x="0px"
   y="0px"
   viewBox="0 0 960 720"
   style="enable-background:new 0 0 960 720;"
   xml:space="preserve"
   sodipodi:docname="chenille.svg"
   xmlns:inkscape="http://www.inkscape.org/namespaces/inkscape"
   xmlns:sodipodi="http://sodipodi.sourceforge.net/DTD/sodipodi-0.dtd"
   xmlns:xlink="http://www.w3.org/1999/xlink"
   xmlns="http://www.w3.org/2000/svg"
   xmlns:svg="http://www.w3.org/2000/svg"><defs
   id="defs5650" />
<style
   type="text/css"
   id="style5589">
	.st0{clip-path:url(#SVGID_00000180355024568261562760000004370742812943461293_);}
	.st1{fill:none;stroke:#000000;stroke-width:12;stroke-linejoin:round;stroke-miterlimit:10;}
	.st2{fill-rule:evenodd;clip-rule:evenodd;fill-opacity:0;}
	.st3{fill:none;stroke:#000000;stroke-width:6;stroke-linejoin:round;stroke-miterlimit:10;}
	.st4{fill-rule:evenodd;clip-rule:evenodd;}
	.st5{fill:none;stroke:#000000;stroke-width:6;stroke-miterlimit:10;}
	.st6{display:none;}
	.st7{display:inline;}
	.st8{display:inline;fill:#FFFFFF;}
</style>
<sodipodi:namedview
   bordercolor="#000000"
   borderopacity="0.25"
   id="namedview191"
   inkscape:current-layer="svg189"
   inkscape:cx="515.48507"
   inkscape:cy="477.20149"
   inkscape:deskcolor="#d1d1d1"
   inkscape:pagecheckerboard="0"
   inkscape:pageopacity="0.0"
   inkscape:showpageshadow="2"
   inkscape:window-height="1186"
   inkscape:window-maximized="1"
   inkscape:window-width="1920"
   inkscape:window-x="-11"
   inkscape:window-y="-11"
   inkscape:zoom="2.9777778"
   pagecolor="#ffffff"
   showgrid="false">
	</sodipodi:namedview>
<g
   id="g5638">
	<g
   id="g5636">
		<defs
   id="defs5593">
			<rect
   id="SVGID_1_"
   x="-130.7"
   y="-111.9"
   width="960"
   height="720" />
		</defs>
		<clipPath
   id="SVGID_00000060026614433487032410000005558130139312926088_">
			<use
   xlink:href="#SVGID_1_"
   style="overflow:visible;"
   id="use5595" />
		</clipPath>
		<g
   id="g187"
   style="clip-path:url(#SVGID_00000060026614433487032410000005558130139312926088_);"
   clip-path="url(#SVGID_00000060026614433487032410000005558130139312926088_)">
			<path
   id="path109"
   sodipodi:nodetypes="sszzsssss"
   class="st1"
   d="m 142.1,282.5 c 5.8,-29.3 12.6,-58.2 66.6,-76.9 54,-18.7 161.3,-22.3 285.5,-13.4 120.8,9.1 284.8,26.1 285.7,117.6 1,103.5 -91.2,97.9 -136.7,102.8 -80.8,8.8 -145.6,11.1 -196,12.1 -16.6,0.3 -25.9,0.6 -29.2,0.6 -39.4,0.4 -69.6,-0.6 -76.1,-0.9 -51.1,-2.2 -110,-12.9 -161,-49.2 -33.3,-23.5 -44.6,-63.4 -38.8,-92.7 z"
   style="display:none" />
			
			
			
			
			
			
			
			
			
			
			<path
   id="path149"
   sodipodi:nodetypes="cs"
   class="st3"
   d="m 337.87554,404.60341 c -9.62352,11 -58.39441,78.6743 15.80559,101.0743"
   style="display:inline;stroke-linecap:round"
   inkscape:label="patte" />
			<path
   id="path153"
   sodipodi:nodetypes="cs"
   class="st3"
   d="m 369.20093,408.55295 c -11.97244,10.60031 -64.61949,73.42631 10.58051,78.32631"
   style="display:inline;stroke-linecap:round"
   inkscape:label="patte" />
			
			
			<path
   id="path165"
   sodipodi:nodetypes="cz"
   class="st3"
   d="M 187.9,216.7 C 147,145.8 141.28358,119.37761 91.470149,160.05373"
   style="display:inline"
   inkscape:label="antenne" />
			<path
   id="path169"
   sodipodi:nodetypes="cz"
   class="st3"
   d="M 218.3,204.1 C 210.08955,126.53433 234.91194,78.765672 130.11194,95.665672"
   inkscape:label="antenne" />
			
			
			
			
			
			
			
			
			<path
   id="path161_00000131351937976790461500000001029774760745016747_"
   sodipodi:nodetypes="cs"
   class="st3"
   d="m 446.07182,405.32787 c 3.20707,1.53946 -16.95468,79.18571 23.11923,105.68705"
   style="display:inline;stroke-linecap:round"
   inkscape:label="Patte" />
			<path
   id="path161_00000063629605009999277650000011169065269362262159_"
   sodipodi:nodetypes="cs"
   class="st3"
   d="m 608.37492,409.90124 c 0,70.4 34.21343,94.14627 56.41343,97.14627"
   style="display:inline;stroke-linecap:round"
   inkscape:label="Patte" />
			<path
   id="path161_00000037684936489195424590000012617145122435496077_"
   sodipodi:nodetypes="cs"
   class="st3"
   d="m 479.56996,408.47802 c 0.72156,24.89505 -84.9155,75.34832 -51.33186,98.52291"
   style="display:inline;stroke-linecap:round"
   inkscape:label="Patte" />
			<path
   id="path161_00000096739588531022322890000010158074455826061720_"
   sodipodi:nodetypes="cs"
   class="st3"
   d="m 578.35016,415.12539 c -2.6486,35.67089 19.10374,63.63603 80.90374,63.63603"
   style="display:inline;stroke-linecap:round"
   inkscape:label="Patte" />
			<path
   id="path161_00000156555842044284104690000018367232137025795513_"
   sodipodi:nodetypes="cs"
   class="st3"
   d="m 674.24674,414.65047 c 0,70.4 36.9,89.7806 59.1,92.7806"
   style="stroke-linecap:round"
   inkscape:label="Patte" />
			<path
   id="path161_00000073688574723358983090000012988409686134331583_"
   sodipodi:nodetypes="cs"
   class="st3"
   d="m 706.42136,404.70093 c -19.48615,84.8249 17.52085,72.50192 41.52787,48.4062"
   style="stroke-linecap:round"
   inkscape:label="Patte" />
		<ellipse
   style="fill:#ffffff;stroke:#000000;stroke-width:12;stroke-linecap:round"
   id="path10195-0"
   cx="249.51491"
   cy="300.22388"
   rx="110.48508"
   ry="99.402985"
   clip-path="url(#SVGID_00000060026614433487032410000005558130139312926088_)"
   transform="translate(430.18658,12.761195)" /><ellipse
   style="enable-background:new 0 0 960 720;clip-path:url(#SVGID_00000060026614433487032410000005558130139312926088_);fill:#ffffff;stroke:#000000;stroke-width:12;stroke-linecap:round"
   id="path10195-3"
   cx="249.51491"
   cy="300.22388"
   rx="110.48508"
   ry="99.402985"
   clip-path="url(#SVGID_00000060026614433487032410000005558130139312926088_)"
   transform="translate(328.76867,9.4029864)" /><ellipse
   style="enable-background:new 0 0 960 720;clip-path:url(#SVGID_00000060026614433487032410000005558130139312926088_);fill:#ffffff;stroke:#000000;stroke-width:12;stroke-linecap:round"
   id="path10195-8"
   cx="249.51491"
   cy="300.22388"
   rx="110.48508"
   ry="99.402985"
   clip-path="url(#SVGID_00000060026614433487032410000005558130139312926088_)"
   transform="translate(223.32091,7.388061)" /><ellipse
   style="display:inline;fill:#ffffff;stroke:#000000;stroke-width:12;stroke-linecap:round"
   id="path10195-5"
   cx="249.51491"
   cy="300.22388"
   rx="110.48508"
   ry="99.402985"
   clip-path="url(#SVGID_00000060026614433487032410000005558130139312926088_)"
   transform="translate(104.44031,6.0447774)" /><ellipse
   style="display:inline;fill:#ffffff;stroke:#000000;stroke-width:12;stroke-linecap:round"
   id="path10195"
   cx="249.51491"
   cy="300.22388"
   rx="110.48508"
   ry="99.402985"
   clip-path="url(#SVGID_00000060026614433487032410000005558130139312926088_)" /><path
   id="path113"
   sodipodi:nodetypes="cac"
   class="st3"
   d="m 168.0403,273.18806 c 3,-10.4 10.80682,-32.22193 23.8761,-31.23908 12.22689,0.9195 17.51495,27.33759 17.71495,32.23759"
   style="display:inline;stroke-linecap:round"
   inkscape:label="eye"
   clip-path="url(#SVGID_00000060026614433487032410000005558130139312926088_)" /><path
   id="path117"
   sodipodi:nodetypes="cac"
   class="st3"
   d="m 230.9,273.9 c 0.4,-5.6 5.98777,-32.66258 18.76689,-33.53133 13.66892,-0.92924 22.54298,17.91937 24.74298,32.81937"
   style="display:inline;stroke-linecap:round"
   inkscape:label="eye"
   clip-path="url(#SVGID_00000060026614433487032410000005558130139312926088_)" /><path
   id="path121"
   sodipodi:nodetypes="czc"
   class="st3"
   d="m 182.66119,316.26269 c 2.8,24.1 17.50012,40.26202 36.39698,40.89521 18.89686,0.63318 40.11198,-35.68178 38.2881,-48.21313"
   style="display:inline;stroke-linecap:round"
   inkscape:label="smile"
   clip-path="url(#SVGID_00000060026614433487032410000005558130139312926088_)" /><path
   id="path123"
   sodipodi:nodetypes="ssssssssss"
   class="st4"
   d="m 263.09104,291.84328 v 0 c 0,-6.7 5.4,-12.1 12,-12.1 v 0 c 3.2,0 6.2,1.3 8.5,3.5 2.3,2.2 3.5,5.3 3.5,8.5 v 0 c 0,6.7 -5.4,12.1 -12,12.1 v 0 c -6.7,0.1 -12,-5.3 -12,-12 z"
   style="enable-background:new 0 0 960 720;clip-path:url(#SVGID_00000060026614433487032410000005558130139312926088_);display:inline"
   inkscape:label="cheek"
   clip-path="url(#SVGID_00000060026614433487032410000005558130139312926088_)" /><path
   id="path125"
   sodipodi:nodetypes="ssssssssss"
   class="st4"
   d="m 150.61343,294.50298 v 0 c 0,-6.2 5.4,-11.2 12,-11.2 v 0 c 3.2,0 6.2,1.2 8.5,3.3 2.3,2.1 3.5,5 3.5,7.9 v 0 c 0,6.2 -5.4,11.2 -12,11.2 v 0 c -6.6,0.1 -12,-5 -12,-11.2 z"
   inkscape:label="cheek"
   style="enable-background:new 0 0 960 720;clip-path:url(#SVGID_00000060026614433487032410000005558130139312926088_)"
   clip-path="url(#SVGID_00000060026614433487032410000005558130139312926088_)" /></g>
	</g>
</g>
<g
   id="layer1"
   inkscape:groupmode="layer"
   inkscape:label="Layer 1"
   class="st6">
	<a
   id="a2303"
   transform="matrix(0.43298969,0,0,0.42857144,317.29883,205.04262)">
		<ellipse
   id="path2243"
   class="st7"
   cx="142.1"
   cy="552.8"
   rx="32.6"
   ry="56.4" />
		<ellipse
   id="path2299"
   class="st8"
   cx="147.1"
   cy="530.6"
   rx="14.8"
   ry="23.5" />
	</a>
	<a
   id="a2303-5"
   transform="matrix(0.48453609,0,0,0.4404762,265.64818,197.7905)">
		<ellipse
   id="path2243-8"
   class="st7"
   cx="142.1"
   cy="552.8"
   rx="32.6"
   ry="56.4" />
		<ellipse
   id="path2299-7"
   class="st8"
   cx="147.1"
   cy="530.6"
   rx="14.8"
   ry="23.5" />
	</a>
</g>
<path
   id="path177"
   sodipodi:nodetypes="ssssssssss"
   class="st3"
   d="m 104.23284,96.222388 v 0 c 0,-6.2 5.4,-11.2 12,-11.2 v 0 c 3.2,0 6.2,1.2 8.5,3.3 2.2,2.1 3.5,5 3.5,7.9 v 0 c 0,6.200002 -5.4,11.200002 -12,11.200002 v 0 c -6.7,0 -12,-5 -12,-11.200002 z" />
<path
   id="path177_00000071519540918518283720000018157090178090622621_"
   sodipodi:nodetypes="ssssssssss"
   class="st3"
   d="m 70.885074,169.94776 v 0 c 0,-6.2 5.4,-11.2 12,-11.2 v 0 c 3.2,0 6.2,1.2 8.5,3.3 2.2,2.1 3.5,5 3.5,7.9 v 0 c 0,6.2 -5.4,11.2 -12,11.2 v 0 c -6.6,0.1 -12,-5 -12,-11.2 z" />
</svg>
