<?xml version="1.0" encoding="utf-8"?>
<!-- Generator: Adobe Illustrator 26.1.0, SVG Export Plug-In . SVG Version: 6.00 Build 0)  -->
<svg version="1.1"
	 id="svg189" sodipodi:docname="cigale fin.svg" xmlns:inkscape="http://www.inkscape.org/namespaces/inkscape" xmlns:sodipodi="http://sodipodi.sourceforge.net/DTD/sodipodi-0.dtd" xmlns:svg="http://www.w3.org/2000/svg"
	 xmlns="http://www.w3.org/2000/svg" xmlns:xlink="http://www.w3.org/1999/xlink" x="0px" y="0px" viewBox="0 0 960 720"
	 style="enable-background:new 0 0 960 720;" xml:space="preserve">
<style type="text/css">
	.st0{clip-path:url(#SVGID_00000111155026804096908790000001684018889331102607_);}
	.st1{fill:none;stroke:#000000;stroke-width:12;stroke-linejoin:round;stroke-miterlimit:10;}
	.st2{fill-rule:evenodd;clip-rule:evenodd;fill-opacity:0;}
	.st3{fill:none;stroke:#000000;stroke-width:6;stroke-linecap:round;stroke-linejoin:round;stroke-miterlimit:10;}
	.st4{fill-rule:evenodd;clip-rule:evenodd;}
	.st5{fill:none;stroke:#000000;stroke-width:6;stroke-linejoin:round;stroke-miterlimit:10;}
	
		.st6{fill-rule:evenodd;clip-rule:evenodd;fill:#FFFFFF;stroke:#000000;stroke-width:6;stroke-linejoin:round;stroke-miterlimit:10;}
	.st7{fill:none;stroke:#000000;stroke-width:10.6938;stroke-linejoin:round;stroke-miterlimit:10;}
	.st8{fill:none;stroke:#000000;stroke-width:6;stroke-linecap:square;stroke-miterlimit:10;}
	.st9{stroke:#000000;stroke-width:1.1842;stroke-linecap:round;stroke-miterlimit:10;}
	
		.st10{fill-rule:evenodd;clip-rule:evenodd;fill:#FFFFFF;stroke:#000000;stroke-width:12;stroke-linejoin:round;stroke-miterlimit:10;}
	.st11{display:none;}
	.st12{display:inline;}
	.st13{display:inline;fill:#FFFFFF;}
</style>
<sodipodi:namedview  bordercolor="#000000" borderopacity="0.25" id="namedview191" inkscape:current-layer="g187" inkscape:cx="730.73901" inkscape:cy="432.07945" inkscape:deskcolor="#d1d1d1" inkscape:pagecheckerboard="0" inkscape:pageopacity="0.0" inkscape:showpageshadow="2" inkscape:window-height="1186" inkscape:window-maximized="1" inkscape:window-width="1920" inkscape:window-x="-11" inkscape:window-y="-11" inkscape:zoom="0.89566861" pagecolor="#ffffff" showgrid="false">
	</sodipodi:namedview>
<g>
	<defs>
		<rect id="SVGID_1_" y="0" width="960" height="720"/>
	</defs>
	<clipPath id="SVGID_00000122709109788725851560000000354312886247535248_">
		<use xlink:href="#SVGID_1_"  style="overflow:visible;"/>
	</clipPath>
	<g id="g187" style="clip-path:url(#SVGID_00000122709109788725851560000000354312886247535248_);">
		<path id="path109" sodipodi:nodetypes="szszsssss" class="st1" d="M283.9,466.7c5.8-29.3,24-73.7,73.3-83s151.7,56,219.6,76.6
			c30.4,9.2,228.6,40.1,226.3,64.7s-37.4,60.6-90.6,74.6s-163.9,15.8-228.8,9.1s-127.7-25.5-161-49.2
			C289.4,535.9,278.1,496,283.9,466.7z"/>
		<path id="path111" sodipodi:nodetypes="cssc" class="st2" d="M311.9,452c1.9-3.8,6.6-18.7,11.6-22.9s14.8-6.8,18-2.4
			c3.2,4.4,1.1,24.2,1.3,29"/>
		<path id="path113" sodipodi:nodetypes="czc" class="st3" d="M315.9,437.9c-1.9,6.7,1.9,13.9,10.6,15.8c8.7,1.9,20-3.4,18.8-10.5"
			/>
		<path id="path115" sodipodi:nodetypes="cssc" class="st2" d="M372.7,458.1c0.4-5.6-1.6-27.8,2.1-33.8c3.8-6,16.2-8,20.6-2.4
			c4.4,5.6,5,29.9,6,35.8"/>
		<path id="path117" sodipodi:nodetypes="czc" class="st3" d="M365.8,443.8c-0.9,3.7,8.1,13.6,18.7,12s18.6-6.6,17.4-17.4"/>
		<path id="path121_00000011747567030247702590000008018042792466056847_" sodipodi:nodetypes="czc" class="st3" d="M388.5,487.1"/>
		<path id="path121_00000104665906195601327730000017682295029485439875_" sodipodi:nodetypes="czc" class="st3" d="M312.5,483.8"/>
		<path id="path123" sodipodi:nodetypes="ssssssssss" class="st4" d="M388.1,474.7L388.1,474.7c0-6.7,5.4-12.1,12-12.1l0,0
			c3.2,0,6.2,1.3,8.5,3.5s3.5,5.3,3.5,8.5l0,0c0,6.7-5.4,12.1-12,12.1l0,0C393.4,486.8,388.1,481.4,388.1,474.7z"/>
		<path id="path125" sodipodi:nodetypes="ssssssssss" class="st4" d="M295.1,469.3L295.1,469.3c0-6.2,5.4-11.2,12-11.2l0,0
			c3.2,0,6.2,1.2,8.5,3.3s3.5,5,3.5,7.9l0,0c0,6.2-5.4,11.2-12,11.2l0,0C300.5,480.6,295.1,475.5,295.1,469.3z"/>
		<path id="path139" sodipodi:nodetypes="csc" class="st2" d="M405.5,596c0.6,13.2-4.9,61.3,3.4,79.4c8.2,18.2,38.4,24.6,46,29.5"/>
		<path id="path141" sodipodi:nodetypes="cc" class="st3" d="M405.5,596c3.1,32.6-4.5,61.5,17.2,93.5"/>
		<path id="path143" sodipodi:nodetypes="csc" class="st2" d="M389.8,587.6c-1.5,13.6-16.5,64.8-9,81.6s44.9,15.8,53.9,19"/>
		<path id="path145" sodipodi:nodetypes="cc" class="st3" d="M389.8,587.6c-2.7,28.4-14.3,72.8,0.6,99.2"/>
		<path id="path147" sodipodi:nodetypes="csc" class="st2" d="M483,609.7c-0.6,11-8.8,49.2-3.4,65.7c5.4,16.6,29.9,28.1,35.9,33.7"
			/>
		<path id="path149" sodipodi:nodetypes="cc" class="st3" d="M495.7,610.4c-2.7,27.3-14.1,51.2-3.1,79.5"/>
		<path id="path151" sodipodi:nodetypes="csc" class="st2" d="M516.7,610.8c3.7,12.5,12.2,58.5,22.5,75.2
			c10.3,16.8,32.8,21.1,39.3,25.3"/>
		<path id="path153" sodipodi:nodetypes="cc" class="st3" d="M513.3,613.7c-1,43.4,12.1,72.9,17.4,75"/>
		<path id="path155" sodipodi:nodetypes="csc" class="st2" d="M634.6,607.6c1.9,9.2-1.1,40.8,11.2,55.2
			c12.3,14.4,52.1,26.1,62.5,31.3"/>
		<path id="path159" sodipodi:nodetypes="csc" class="st2" d="M650.3,606.6c5.9,10.5,21.3,50.6,35.6,63.3s41.5,10.8,49.8,13"/>
		<path id="path163" sodipodi:nodetypes="cssc" class="st2" d="M340.4,386.5c-2.1-8.8-4.7-38-12.4-52.7
			c-7.7-14.8-18.9-27.6-33.7-35.9c-14.8-8.3-45.9-11.4-55-13.7"/>
		<path id="path165" sodipodi:nodetypes="cc" class="st5" d="M340.4,386.5c-12.2-74.2-34.1-105.1-76.4-64.4"/>
		<path id="path167" sodipodi:nodetypes="cssc" class="st2" d="M369.8,383.4c-2.9-8.8-8.7-37.8-17.2-52.6s-16.9-32.3-33.7-35.9
			c-16.8-3.5-56,12.2-67.3,14.6"/>
		<path id="path169" sodipodi:nodetypes="cc" class="st5" d="M359.8,383.1c17.5-68.6,4.2-115.5-49.4-39"/>
		<path id="path171" sodipodi:nodetypes="ssssssssss" class="st2" d="M215.4,283.2L215.4,283.2c0-6.2,5.4-11.2,12-11.2l0,0
			c3.2,0,6.2,1.2,8.5,3.3c2.2,2.1,3.5,5,3.5,7.9l0,0c0,6.2-5.4,11.2-12,11.2l0,0C220.7,294.4,215.4,289.4,215.4,283.2z"/>
		<path id="path173" sodipodi:nodetypes="ssssssssss" class="st6" d="M245.9,332.2L245.9,332.2c0-6.2,5.4-11.2,12-11.2l0,0
			c3.2,0,6.2,1.2,8.5,3.3c2.2,2.1,3.5,5,3.5,7.9l0,0c0,6.2-5.4,11.2-12,11.2l0,0C251.3,343.5,245.9,338.4,245.9,332.2z"/>
		<path id="path175" sodipodi:nodetypes="ssssssssss" class="st2" d="M230.3,312.7L230.3,312.7c0-6.2,5.4-11.2,12-11.2l0,0
			c3.2,0,6.2,1.2,8.5,3.3c2.2,2.1,3.5,5,3.5,7.9l0,0c0,6.2-5.4,11.2-12,11.2l0,0C235.7,323.9,230.3,318.9,230.3,312.7z"/>
		
			<path id="path109-0-9" inkscape:transform-center-x="22.398951" inkscape:transform-center-y="0.16530644" sodipodi:nodetypes="zzzz" class="st7" d="
			M444.5,411.8c-24.3-22.2,91.9-27.7,282.1-108.7s204.6,30.8,83.7,100.7S468.8,434,444.5,411.8z"/>
		<path id="path177" sodipodi:nodetypes="ssssssssss" class="st6" d="M290.7,352.7L290.7,352.7c0-6.2,5.4-11.2,12-11.2l0,0
			c3.2,0,6.2,1.2,8.5,3.3c2.2,2.1,3.5,5,3.5,7.9l0,0c0,6.2-5.4,11.2-12,11.2l0,0C296,363.9,290.7,358.9,290.7,352.7L290.7,352.7z"/>
		<path id="path145-1" sodipodi:nodetypes="csc" class="st3" d="M666.8,604.9c-1.7,6.3,12.9,20.2,18,34.2c12,32.8,7.2,53.1-3.3,61.6
			"/>
		<path id="path145-1-3" sodipodi:nodetypes="csc" class="st3" d="M701.2,601.6c18,0.8,23.4,20.5,30.9,37.2
			c7.5,16.8,5.7,50.1-4.8,58.6"/>
		<a id="a451" transform="translate(-10.746269,-3.358209)">
			<path id="path179" sodipodi:nodetypes="ccssccc" class="st2" d="M478,352.8c-27-71.5-55.7-148.5-38.7-224
				c6.2-26.1,17.5-43.2,37.4-51.3s64-9,82,2.7c18,11.7,24.2,38.7,25.9,67.5c-21.4,47.2,2.6,190.8-40.1,207.6
				C505,364.8,481.6,362.6,478,352.8L478,352.8z"/>
		</a>
		<path id="path6940" sodipodi:nodetypes="cccccc" class="st8" d="M567.3,483.7c19.4,42.1,12.6,87-7.9,125.9 M649.1,507.4
			c19.4,42.1,18.8,61.9-1.7,100.8 M724.4,516.1c17.8,20.2,14.5,42.5,1.2,79.6"/>
		<path id="path2501" sodipodi:nodetypes="csssssscssssssccc" class="st9" d="M565.8,603.7c8.6-18.1,13.7-36.2,15.6-55.3
			c0.4-4.5,0.5-18.8,0.1-23.1c-1.2-12.8-4.1-25.1-8.3-35.9c-0.4-1.1-2.4-1.5-1.3-4.6c0.7-1.8,12.6,3.8,15.7,4.9
			c22,7.5,35.9,13.6,56.4,18l2.1,0.4l2,4.5c7,15.7,10.5,27.3,11.6,37.9c0.4,3.4,0.4,10,0.1,13.1c-1.1,10.7-5,22.6-11.9,36.5
			c-1.4,2.8-1.5,3-2.1,3.1c-1.8,0.3-20.4,1.5-31.7,2c-12.4,0.6-34.5,1.1-47.2,1.1l-2.3,0L565.8,603.7z"/>
		<path id="path2641" class="st9" d="M732.2,586.3c0-0.1,0.4-1.3,0.8-2.7c3.7-11.6,5.8-21.4,6.5-29.8c0.3-3.8,0.1-10.5-0.4-13.8
			c-1.1-6.9-3.6-13.5-7.3-19.2l-1.6-2.4l7.1,0c14.6,0,25.1-0.7,41.9-2.8l1.8-0.2l2.9,1.3c5.5,2.4,9.9,5,11.9,7c1,1,1,1,0.9,2
			c-0.2,1.7-1.2,5.3-2,7.2c-2.2,5.5-5.8,11.3-10.7,17.3c-2.7,3.3-9.8,10.4-13.4,13.4c-10.3,8.5-21.7,15.6-34.6,21.3
			c-2,0.9-3.8,1.7-3.8,1.7S732.2,586.4,732.2,586.3L732.2,586.3z"/>
		<path id="path2643" class="st9" d="M0,0"/>
		
			<path id="path109-0" inkscape:transform-center-x="22.10593" inkscape:transform-center-y="18.146181" sodipodi:nodetypes="zzzz" class="st10" d="
			M441.9,412.4c-18-32.1,102.5-6.7,322-47.5s199.8,91.6,54.6,138.6S459.9,444.5,441.9,412.4L441.9,412.4z"/>
	</g>
</g>
<g id="layer1" inkscape:groupmode="layer" inkscape:label="Layer 1" class="st11">
	<a id="a2303" transform="matrix(0.43298969,0,0,0.42857144,317.29883,205.04262)">
		<ellipse id="path2243" class="st12" cx="142.1" cy="552.8" rx="32.6" ry="56.4"/>
		<ellipse id="path2299" class="st13" cx="147.1" cy="530.6" rx="14.8" ry="23.5"/>
	</a>
	<a id="a2303-5" transform="matrix(0.48453609,0,0,0.4404762,265.64818,197.7905)">
		<ellipse id="path2243-8" class="st12" cx="142.1" cy="552.8" rx="32.6" ry="56.4"/>
		<ellipse id="path2299-7" class="st13" cx="147.1" cy="530.6" rx="14.8" ry="23.5"/>
	</a>
</g>
<path id="path121" sodipodi:nodetypes="czc" class="st3" d="M311.5,491.5c2.8,24.1,21.6,37.7,38.7,36.1c17.2-1.6,31.3-6.5,37.2-32.9
	"/>
</svg>
