<?xml version="1.0" encoding="UTF-8" standalone="no"?>
<!-- Generator: Adobe Illustrator 26.1.0, SVG Export Plug-In . SVG Version: 6.00 Build 0)  -->

<svg
   version="1.1"
   id="svg189"
   sodipodi:docname="cloporte.svg"
   x="0px"
   y="0px"
   viewBox="0 0 960 720"
   style="enable-background:new 0 0 960 720;"
   xml:space="preserve"
   inkscape:version="1.2.1 (9c6d41e410, 2022-07-14)"
   xmlns:inkscape="http://www.inkscape.org/namespaces/inkscape"
   xmlns:sodipodi="http://sodipodi.sourceforge.net/DTD/sodipodi-0.dtd"
   xmlns:xlink="http://www.w3.org/1999/xlink"
   xmlns="http://www.w3.org/2000/svg"
   xmlns:svg="http://www.w3.org/2000/svg"><defs
   id="defs60" />
<style
   type="text/css"
   id="style2">
	.st0{clip-path:url(#SVGID_00000047746132856112722940000004244471137890248382_);}
	.st1{fill:none;stroke:#000000;stroke-width:12;stroke-linejoin:round;stroke-miterlimit:10;}
	.st2{fill-rule:evenodd;clip-rule:evenodd;fill-opacity:0;}
	.st3{fill:none;stroke:#000000;stroke-width:6;stroke-linecap:round;stroke-linejoin:round;stroke-miterlimit:10;}
	.st4{fill-rule:evenodd;clip-rule:evenodd;}
	.st5{fill:none;stroke:#000000;stroke-width:6;stroke-linejoin:round;stroke-miterlimit:10;}
	.st6{fill:none;stroke:#000000;stroke-width:6;stroke-miterlimit:10;}
	.st7{display:none;}
	.st8{display:inline;}
	.st9{display:inline;fill:#FFFFFF;}
</style>
<sodipodi:namedview
   bordercolor="#000000"
   borderopacity="0.25"
   id="namedview191"
   inkscape:current-layer="g187"
   inkscape:cx="522.41471"
   inkscape:cy="406.53363"
   inkscape:deskcolor="#d1d1d1"
   inkscape:pagecheckerboard="0"
   inkscape:pageopacity="0.0"
   inkscape:showpageshadow="2"
   inkscape:window-height="1346"
   inkscape:window-maximized="1"
   inkscape:window-width="2160"
   inkscape:window-x="-11"
   inkscape:window-y="-11"
   inkscape:zoom="2.1056069"
   pagecolor="#ffffff"
   showgrid="false">
	</sodipodi:namedview>
<g
   id="g5638">
	<g
   id="g5636">
		<g
   id="g44">
			<defs
   id="defs6">
				<rect
   id="SVGID_1_"
   x="-130.7"
   y="-111.9"
   width="960"
   height="720" />
			</defs>
			<clipPath
   id="SVGID_00000040554016701721771870000006654605896586566046_">
				<use
   xlink:href="#SVGID_1_"
   style="overflow:visible;"
   id="use8" />
			</clipPath>
			<g
   id="g187"
   style="clip-path:url(#SVGID_00000040554016701721771870000006654605896586566046_);"
   clip-path="url(#SVGID_00000040554016701721771870000006654605896586566046_)">
				<path
   id="path109"
   sodipodi:nodetypes="sszzsssss"
   class="st1"
   d="M142.1,282.5c5.8-29.3,12.6-58.2,66.6-76.9      s161.3-22.3,285.5-13.4C615,201.3,779,218.3,779.9,309.8c1,103.5-91.2,97.9-136.7,102.8c-80.8,8.8-145.6,11.1-196,12.1      c-16.6,0.3-25.9,0.6-29.2,0.6c-39.4,0.4-69.6-0.6-76.1-0.9c-51.1-2.2-110-12.9-161-49.2C147.6,351.7,136.3,311.8,142.1,282.5z" />
				<path
   id="path111"
   sodipodi:nodetypes="cssc"
   class="st2"
   d="M170.1,267.8c1.9-3.8,6.6-18.7,11.6-22.9s14.8-6.8,18-2.4      c3.2,4.4,1.1,24.2,1.3,29" />
				<path
   id="path113"
   sodipodi:nodetypes="czc"
   class="st3"
   d="M168,273.2c3-10.4,6.7-24.6,21.5-26c14.8-1.4,19.9,22.1,20.1,27" />
				<path
   id="path115_00000150104148186311749990000010444285428923230389_"
   sodipodi:nodetypes="cssc"
   class="st2"
   d="M259.6,273.5      " />
				<path
   id="path115_00000150091032970356060770000010559814661724097934_"
   sodipodi:nodetypes="cssc"
   class="st2"
   d="M230.9,273.9      c0.4-5.6-1.6-27.8,2.1-33.8" />
				<path
   id="path117"
   sodipodi:nodetypes="czc"
   class="st3"
   d="M230.9,273.9c0.4-5.6,5.4-30.3,21.6-31.2      c16.2-0.9,23,13.2,25.2,28.1" />
				<path
   id="path121_00000177448217159526255860000014477350788976842396_"
   sodipodi:nodetypes="czc"
   class="st3"
   d="M272.1,307.6" />
				<path
   id="path121_00000040573007175165404930000001952091563540402615_"
   sodipodi:nodetypes="czc"
   class="st3"
   d="M212.6,344.5" />
				<path
   id="path123"
   sodipodi:nodetypes="ssssssssss"
   class="st4"
   d="M263.1,291.8L263.1,291.8c0-6.7,5.4-12.1,12-12.1l0,0      c3.2,0,6.2,1.3,8.5,3.5s3.5,5.3,3.5,8.5l0,0c0,6.7-5.4,12.1-12,12.1l0,0C268.4,303.9,263.1,298.5,263.1,291.8z" />
				<path
   id="path125"
   sodipodi:nodetypes="ssssssssss"
   class="st4"
   d="M150.6,294.5L150.6,294.5c0-6.2,5.4-11.2,12-11.2l0,0      c3.2,0,6.2,1.2,8.5,3.3c2.3,2.1,3.5,5,3.5,7.9l0,0c0,6.2-5.4,11.2-12,11.2l0,0C156,305.8,150.6,300.7,150.6,294.5L150.6,294.5z" />
				<path
   id="path141"
   sodipodi:nodetypes="csc"
   class="st3"
   d="M287.1,415.7c0.6,13.2-23.1,88.3,52.1,108.3" />
				<path
   id="path145"
   sodipodi:nodetypes="cs"
   class="st3"
   d="M 261.51269,411.91207 C 260.01269,425.51207 224,508 288.8,523.3" />
				<path
   id="path149"
   sodipodi:nodetypes="csc"
   class="st3"
   d="M341.2,425.5c-0.6,11-24.2,74.4,50,96.8" />
				<path
   id="path153"
   sodipodi:nodetypes="csc"
   class="st3"
   d="M374.9,426.6c3.7,12.5-30.9,81.5,44.3,86.4" />
				<path
   id="path157"
   sodipodi:nodetypes="cs"
   class="st3"
   d="M536.9,422c-0.8,13.3-12.4,82.8,54.1,87.9" />
				<path
   id="path161"
   sodipodi:nodetypes="csc"
   class="st3"
   d="M508.6,422.4c5.9,10.5-9.8,85.7,51.1,90.3" />
				<path
   id="path165"
   sodipodi:nodetypes="czc"
   class="st5"
   d="M187.9,216.7C147,145.8,148,99.9,73,148.3" />
				<path
   id="path169"
   sodipodi:nodetypes="czc"
   class="st5"
   d="M218.3,204.1C198,130.9,219.8,74.4,115,91.3" />
				<path
   id="path171"
   sodipodi:nodetypes="ssssssssss"
   class="st2"
   d="M74.3,105L74.3,105c0-6.2,5.4-11.2,12-11.2l0,0      c3.2,0,6.2,1.2,8.5,3.3c2.2,2.1,3.5,5,3.5,7.9l0,0c0,6.2-5.4,11.2-12,11.2l0,0C79.6,116.3,74.3,111.2,74.3,105z" />
				<path
   id="path175"
   sodipodi:nodetypes="ssssssssss"
   class="st2"
   d="M89.2,134.6L89.2,134.6c0-6.2,5.4-11.2,12-11.2l0,0      c3.2,0,6.2,1.2,8.5,3.3c2.2,2.1,3.5,5,3.5,7.9l0,0c0,6.2-5.4,11.2-12,11.2l0,0C94.5,145.8,89.2,140.8,89.2,134.6z" />
				<path
   id="path5617"
   class="st6"
   d="M332.4,423.4c-10-17.3-32.3-60.9-33.4-110.1c-1.3-62.3,25.1-107.1,36.1-123.6" />
				<path
   id="path5619"
   class="st6"
   d="M403,427.3c-10-17.3-35-64.8-36.1-114.1c-1.3-62.3,25.1-107.1,36.1-123.6" />
				<path
   id="path5621"
   class="st6"
   d="M460.8,427.2c-10-17.3-27.1-60.5-28.1-109.7c-1.3-62.3,25.1-107.1,36.1-123.6" />
				<path
   id="path5623"
   class="st6"
   d="M523.9,419.3c-10.6-20.8-25.9-57.7-25.1-95.1c1.3-62.3,27.3-112,38.3-128.5" />
				<path
   id="path5625"
   class="st6"
   d="M584.9,420.4c-10-17.3-24.2-47-25.2-96.2c-1.3-62.3,28.5-104.9,39.4-121.4" />
				<path
   id="path5627"
   class="st6"
   d="M643.2,412.7c-10-17.3-13.9-31.1-14.9-80.4c-1.3-62.3,22-101.3,33-117.8" />
				<path
   id="path161_00000131351937976790461500000001029774760745016747_"
   sodipodi:nodetypes="cs"
   class="st3"
   d="M426.6,422.9      c5.9,10.5-20.9,93.5,42.9,90.8" />
				<path
   id="path161_00000063629605009999277650000011169065269362262159_"
   sodipodi:nodetypes="csc"
   class="st3"
   d="M607.9,417.5      c0,70.4,36.9,83.4,59.1,86.4" />
				<path
   id="path161_00000037684936489195424590000012617145122435496077_"
   sodipodi:nodetypes="csc"
   class="st3"
   d="M448.7,427      c5.9,10.5-7.7,81.1,59.8,85.7" />
				<path
   id="path161_00000096739588531022322890000010158074455826061720_"
   sodipodi:nodetypes="csc"
   class="st5"
   d="M579.3,417.5      c5.9,10.5-4.7,90.5,57.1,90.5" />
				<path
   id="path161_00000156555842044284104690000018367232137025795513_"
   sodipodi:nodetypes="csc"
   class="st3"
   d="M654.3,417.5      c0,70.4,36.9,83.4,59.1,86.4" />
				<path
   id="path161_00000073688574723358983090000012988409686134331583_"
   sodipodi:nodetypes="csc"
   class="st3"
   d="M684.1,410.4      c-10.1,52.4,34.9,75.5,59.1,86.4" />
			</g>
		</g>
	</g>
</g>
<g
   id="layer1"
   inkscape:groupmode="layer"
   inkscape:label="Layer 1"
   class="st7">
	<a
   id="a2303"
   transform="matrix(0.43298969,0,0,0.42857144,317.29883,205.04262)">
		<ellipse
   id="path2243"
   class="st8"
   cx="142.1"
   cy="552.8"
   rx="32.6"
   ry="56.4" />
		<ellipse
   id="path2299"
   class="st9"
   cx="147.1"
   cy="530.6"
   rx="14.8"
   ry="23.5" />
	</a>
	<a
   id="a2303-5"
   transform="matrix(0.48453609,0,0,0.4404762,265.64818,197.7905)">
		<ellipse
   id="path2243-8"
   class="st8"
   cx="142.1"
   cy="552.8"
   rx="32.6"
   ry="56.4" />
		<ellipse
   id="path2299-7"
   class="st9"
   cx="147.1"
   cy="530.6"
   rx="14.8"
   ry="23.5" />
	</a>
</g>
<path
   id="path177"
   sodipodi:nodetypes="ssssssssss"
   class="st5"
   d="M90.8,93.2L90.8,93.2c0-6.2,5.4-11.2,12-11.2l0,0  c3.2,0,6.2,1.2,8.5,3.3c2.2,2.1,3.5,5,3.5,7.9l0,0c0,6.2-5.4,11.2-12,11.2l0,0C96.1,104.4,90.8,99.4,90.8,93.2L90.8,93.2z" />
<path
   id="path177_00000071519540918518283720000018157090178090622621_"
   sodipodi:nodetypes="ssssssssss"
   class="st5"
   d="  M50.4,154.5L50.4,154.5c0-6.2,5.4-11.2,12-11.2l0,0c3.2,0,6.2,1.2,8.5,3.3c2.2,2.1,3.5,5,3.5,7.9l0,0c0,6.2-5.4,11.2-12,11.2l0,0  C55.8,165.8,50.4,160.7,50.4,154.5L50.4,154.5z" />
<path
   id="path121_00000008132310916554744130000014445667255505089979_"
   sodipodi:nodetypes="czc"
   class="st3"
   d="M212.2,348.3  c26.8-1.6,53.6-10.6,59.5-36.9" />
<path
   id="path121"
   sodipodi:nodetypes="czc"
   class="st3"
   d="M166.1,318.1c2.8,24.1,19.3,31.9,46.1,30.3" />
</svg>
