<?xml version="1.0" encoding="utf-8"?>
<!-- Generator: Adobe Illustrator 26.1.0, SVG Export Plug-In . SVG Version: 6.00 Build 0)  -->
<svg version="1.1"
	 id="svg189" sodipodi:docname="coccinelle-v4.svg" xmlns:inkscape="http://www.inkscape.org/namespaces/inkscape" xmlns:sodipodi="http://sodipodi.sourceforge.net/DTD/sodipodi-0.dtd" xmlns:svg="http://www.w3.org/2000/svg"
	 xmlns="http://www.w3.org/2000/svg" xmlns:xlink="http://www.w3.org/1999/xlink" x="0px" y="0px" viewBox="0 0 960 720"
	 style="enable-background:new 0 0 960 720;" xml:space="preserve">
<style type="text/css">
	.st0{clip-path:url(#SVGID_00000083077137634772494920000001144753570808491159_);}
	.st1{fill-rule:evenodd;clip-rule:evenodd;fill-opacity:0;}
	.st2{fill:none;stroke:#000000;stroke-width:12;stroke-linejoin:round;stroke-miterlimit:10;}
	.st3{fill:none;stroke:#000000;stroke-width:6;stroke-linecap:round;stroke-linejoin:round;stroke-miterlimit:10;}
	.st4{fill-rule:evenodd;clip-rule:evenodd;fill:#0C0C0C;}
	.st5{fill:none;stroke:#000000;stroke-width:6;stroke-linejoin:round;stroke-miterlimit:10;}
	
		.st6{fill-rule:evenodd;clip-rule:evenodd;fill:#FFFFFF;stroke:#000000;stroke-width:12;stroke-linejoin:round;stroke-miterlimit:10;}
	.st7{fill-rule:evenodd;clip-rule:evenodd;}
	.st8{display:none;}
	.st9{display:inline;}
	.st10{display:inline;fill:#FFFFFF;}
</style>
<sodipodi:namedview  bordercolor="#000000" borderopacity="0.25" id="namedview191" inkscape:current-layer="g187" inkscape:cx="463.09701" inkscape:cy="402.31343" inkscape:deskcolor="#d1d1d1" inkscape:pagecheckerboard="0" inkscape:pageopacity="0.0" inkscape:showpageshadow="2" inkscape:window-height="1346" inkscape:window-maximized="1" inkscape:window-width="2160" inkscape:window-x="-11" inkscape:window-y="-11" inkscape:zoom="1.4888889" pagecolor="#ffffff" showgrid="false">
	</sodipodi:namedview>
<g>
	<defs>
		<rect id="SVGID_1_" y="0" width="960" height="720"/>
	</defs>
	<clipPath id="SVGID_00000178922935777168026990000011018392496839013522_">
		<use xlink:href="#SVGID_1_"  style="overflow:visible;"/>
	</clipPath>
	<g id="g187" style="clip-path:url(#SVGID_00000178922935777168026990000011018392496839013522_);">
		<path id="path105" class="st1" d="M-19.3-19.9h960v720h-960V-19.9z"/>
		<path id="path109" sodipodi:nodetypes="sssssssss" class="st2" d="M283.9,466.7c5.8-29.3,19.4-64.2,73.3-83S537,349,607.7,354.2
			c126.4,9.2,236.7,51,195.4,170.8c-11,32-37.4,60.6-90.6,74.6s-163.9,15.8-228.8,9.1s-127.7-25.5-161-49.2
			C289.4,535.9,278.1,496,283.9,466.7z"/>
		<path id="path111" sodipodi:nodetypes="cssc" class="st1" d="M311.9,452c1.9-3.8,6.6-18.7,11.6-22.9s14.8-6.8,18-2.4
			c3.2,4.4,1.1,24.2,1.3,29"/>
		<path id="path113" sodipodi:nodetypes="czc" class="st3" d="M317.9,450c3-10.4,8.1-33.3,20.2-31.4s4.4,32.2,4.6,37"/>
		<path id="path115" sodipodi:nodetypes="cssc" class="st1" d="M372.7,458.1c0.4-5.6-1.6-27.8,2.1-33.8c3.8-6,16.2-8,20.6-2.4
			c4.4,5.6,5,29.9,6,35.8"/>
		<path id="path117" sodipodi:nodetypes="czc" class="st3" d="M372.7,458.1c0.4-5.6,2.1-35.7,14.9-37.2s11.6,21.9,13.8,36.8"/>
		<path id="path119" sodipodi:nodetypes="csssc" class="st1" d="M311.7,483c1.4,5.9,1.9,26.8,8.4,35.7s20.3,17.1,30.3,17.4
			s23.4-7.6,29.8-15.8s6.9-27.7,8.3-33.2"/>
		<path id="path121" sodipodi:nodetypes="czc" class="st3" d="M325.1,481c2.8,24.1,7.9,56.1,25.3,55.1c17.4-1,14.6-26,20.6-52.4"/>
		<path id="path125" sodipodi:nodetypes="ssssssssss" class="st4" d="M295.1,469.3L295.1,469.3c0-6.2,5.4-11.2,12-11.2l0,0
			c3.2,0,6.2,1.2,8.5,3.3s3.5,5,3.5,7.9l0,0c0,6.2-5.4,11.2-12,11.2l0,0C300.5,480.6,295.1,475.5,295.1,469.3z"/>
		<path id="path139" sodipodi:nodetypes="csc" class="st1" d="M405.5,596c0.6,13.2-4.9,61.3,3.4,79.4c8.2,18.2,38.4,24.6,46,29.5"/>
		<path id="path141" sodipodi:nodetypes="csc" class="st3" d="M405.5,596c0.6,13.2-2.2,39.8,6.1,58c8.2,18.2,37.7,32,45.4,36.9"/>
		<path id="path143" sodipodi:nodetypes="csc" class="st1" d="M389.8,587.6c-1.5,13.6-16.5,64.8-9,81.6s44.9,15.8,53.9,19"/>
		<path id="path145" sodipodi:nodetypes="csc" class="st3" d="M389.8,587.6c-1.5,13.6-12.6,52.1-9,70.1
			c3.5,17.4,30.1,34.6,39.1,37.8"/>
		<path id="path147" sodipodi:nodetypes="csc" class="st1" d="M483,609.7c-0.6,11-8.8,49.2-3.4,65.7c5.4,16.6,29.9,28.1,35.9,33.7"
			/>
		<path id="path149" sodipodi:nodetypes="csc" class="st3" d="M483,609.7c-0.6,11-6.1,40.4-0.7,57c5.4,16.6,25.2,28.1,31.2,33.7"/>
		<path id="path151" sodipodi:nodetypes="csc" class="st1" d="M516.7,610.8c3.7,12.5,12.2,58.5,22.5,75.2
			c10.3,16.8,32.8,21.1,39.3,25.3"/>
		<path id="path153" sodipodi:nodetypes="czc" class="st3" d="M516.7,610.8c3.7,12.5-7.4,43.6,3,61.8s26.7,23.8,41.3,24.6"/>
		<path id="path155" sodipodi:nodetypes="csc" class="st1" d="M634.6,607.6c1.9,9.2-1.1,40.8,11.2,55.2
			c12.3,14.4,52.1,26.1,62.5,31.3"/>
		<path id="path157" sodipodi:nodetypes="csc" class="st3" d="M634.6,607.6c1.9,9.2-0.9,39.5,5.9,57.2c6.2,16.4,24.6,23.4,37.7,29.9
			"/>
		<path id="path159" sodipodi:nodetypes="csc" class="st1" d="M650.3,606.6c5.9,10.5,21.3,50.6,35.6,63.3s41.5,10.8,49.8,13"/>
		<path id="path161" sodipodi:nodetypes="csc" class="st3" d="M650.3,606.6c5.9,10.5,3.2,46.5,17.4,59.2s38.1,9.5,46.4,11.7"/>
		<path id="path163" sodipodi:nodetypes="cssc" class="st1" d="M340.4,386.5c-2.1-8.8-4.7-38-12.4-52.7
			c-7.7-14.8-18.9-27.6-33.7-35.9c-14.8-8.3-45.9-11.4-55-13.7"/>
		<path id="path165" sodipodi:nodetypes="ccc" class="st5" d="M340.4,386.5c-5-35.9-15.7-71.1-46-88.6c-14.8-8.3-45.9-11.4-55-13.7"
			/>
		<path id="path167" sodipodi:nodetypes="cssc" class="st1" d="M369.8,383.4c-2.9-8.8-8.7-37.8-17.2-52.6s-16.9-32.3-33.7-35.9
			c-16.8-3.5-56,12.2-67.3,14.6"/>
		<path id="path169" sodipodi:nodetypes="czc" class="st5" d="M357,384c-9.1-29.9-3.5-59.5-13.9-81.1
			c-10.4-21.5-39.3-36.8-50.5-40.5"/>
		<path id="path171" sodipodi:nodetypes="ssssssssss" class="st1" d="M215.4,283.2L215.4,283.2c0-6.2,5.4-11.2,12-11.2l0,0
			c3.2,0,6.2,1.2,8.5,3.3c2.2,2.1,3.5,5,3.5,7.9l0,0c0,6.2-5.4,11.2-12,11.2l0,0C220.7,294.4,215.4,289.4,215.4,283.2z"/>
		<path id="path173" sodipodi:nodetypes="ssssssssss" class="st5" d="M215.4,283.2L215.4,283.2c0-6.2,5.4-11.2,12-11.2l0,0
			c3.2,0,6.2,1.2,8.5,3.3c2.2,2.1,3.5,5,3.5,7.9l0,0c0,6.2-5.4,11.2-12,11.2l0,0C220.7,294.4,215.4,289.4,215.4,283.2z"/>
		<path id="path175" sodipodi:nodetypes="ssssssssss" class="st1" d="M230.3,312.7L230.3,312.7c0-6.2,5.4-11.2,12-11.2l0,0
			c3.2,0,6.2,1.2,8.5,3.3c2.2,2.1,3.5,5,3.5,7.9l0,0c0,6.2-5.4,11.2-12,11.2l0,0C235.7,323.9,230.3,318.9,230.3,312.7z"/>
		<path id="path109-0" sodipodi:nodetypes="czcssc" class="st6" d="M395.6,373.4c-15.3-19.5,49.6-91,194.2-96.4
			c144.6-5.4,269,87.6,264.5,268.3c-0.6,15.5-84.4,49.2-137.7,63.1c-53.2,13.9-243,24.8-285.2-5.7
			C413,589.4,474.3,413.3,395.6,373.4L395.6,373.4z"/>
		<path id="path177" sodipodi:nodetypes="ssssssssss" class="st5" d="M269.3,260.3L269.3,260.3c0-6.2,5.4-11.2,12-11.2l0,0
			c3.2,0,6.2,1.2,8.5,3.3c2.2,2.1,3.5,5,3.5,7.9l0,0c0,6.2-5.4,11.2-12,11.2l0,0C274.6,271.6,269.3,266.5,269.3,260.3L269.3,260.3z"
			/>
		<path id="path123-3" sodipodi:nodetypes="ssssssssss" class="st7" d="M437.4,343.2L437.4,343.2c0-23.4,18.7-42.3,41.9-42.3l0,0
			c11.1,0,21.7,4.5,29.6,12.4c7.9,7.9,12.3,18.7,12.3,29.9l0,0c0,23.4-18.7,42.3-41.9,42.3l0,0C456.1,385.5,437.4,366.6,437.4,343.2
			z"/>
		<path id="path123-3-3" sodipodi:nodetypes="ssssssssss" class="st7" d="M636.5,508.5L636.5,508.5c0-22.9,18.4-41.6,41.1-41.6l0,0
			c10.9,0,21.4,4.4,29.1,12.2c7.7,7.8,12,18.4,12,29.4l0,0c0,22.9-18.4,41.6-41.1,41.6l0,0C654.9,550.1,636.5,531.5,636.5,508.5
			L636.5,508.5z"/>
		<path id="path123-3-30" sodipodi:nodetypes="ssscsssss" class="st7" d="M631.9,310.8L631.9,310.8c0-29.7,9.9-36,30.2-26.5
			c30.3,14.3,25.4-3.9,38.5,8.1c10,10.1,37.8,4.1,37.8,18.4l0,0c0,29.7-23.8,53.8-53.2,53.8l0,0
			C655.8,364.6,631.9,340.5,631.9,310.8z"/>
		<path id="path123-3-11" sodipodi:nodetypes="ssssssssss" class="st7" d="M756.7,495.2L756.7,495.2c0-30.3,24.3-54.9,54.3-54.9l0,0
			c14.4,0,24.2,5.1,34.4,15.4c10.2,10.3,5,15.6,6.5,30.1l2.7,25.5c3.5,33.4-13.6,38.7-43.5,38.7l0,0
			C781,550.1,756.7,525.5,756.7,495.2L756.7,495.2z"/>
		<path id="path123-3-1" sodipodi:nodetypes="ssssssssss" class="st7" d="M470.6,548.1L470.6,548.1c0-27.1,21.7-49,48.5-49l0,0
			c12.9,0,25.2,5.2,34.3,14.4c9.1,9.2,14.2,21.7,14.2,34.7l0,0c0,27.1-21.7,49-48.5,49l0,0C492.3,597.1,470.6,575.1,470.6,548.1z"/>
		<a id="a451" transform="translate(-10.746269,-3.358209)">
			<path id="path179" sodipodi:nodetypes="ccssccc" class="st1" d="M478,352.8c-27-71.5-55.7-148.5-38.7-224
				c6.2-26.1,17.5-43.2,37.4-51.3s64-9,82,2.7c18,11.7,24.2,38.7,25.9,67.5c-21.4,47.2,2.6,190.8-40.1,207.6
				C505,364.8,481.6,362.6,478,352.8L478,352.8z"/>
		</a>
		<path id="path123-3-1-8" sodipodi:nodetypes="ssssssssss" class="st7" d="M539.8,421.4L539.8,421.4c0-22.4,17.9-40.5,40.1-40.5
			l0,0c10.6,0,20.8,4.3,28.3,11.9c7.5,7.6,11.7,17.9,11.7,28.7l0,0c0,22.4-17.9,40.5-40.1,40.5l0,0
			C557.7,461.9,539.8,443.8,539.8,421.4L539.8,421.4z"/>
	</g>
</g>
<g id="layer1" inkscape:groupmode="layer" inkscape:label="Layer 1" class="st8">
	<a id="a2303" transform="matrix(0.43298969,0,0,0.42857144,317.29883,205.04262)">
		<ellipse id="path2243" class="st9" cx="142.1" cy="552.8" rx="32.6" ry="56.4"/>
		<ellipse id="path2299" class="st10" cx="147.1" cy="530.6" rx="14.8" ry="23.5"/>
	</a>
	<a id="a2303-5" transform="matrix(0.48453609,0,0,0.4404762,265.64818,197.7905)">
		<ellipse id="path2243-8" class="st9" cx="142.1" cy="552.8" rx="32.6" ry="56.4"/>
		<ellipse id="path2299-7" class="st10" cx="147.1" cy="530.6" rx="14.8" ry="23.5"/>
	</a>
</g>
<path id="path123" sodipodi:nodetypes="ssssssssss" class="st7" d="M387.7,482.1L387.7,482.1c0-6.7,5.4-12.1,12-12.1l0,0
	c3.2,0,6.2,1.3,8.5,3.5s3.5,5.3,3.5,8.5l0,0c0,6.7-5.4,12.1-12,12.1l0,0C393,494.1,387.7,488.7,387.7,482.1z"/>
</svg>
