<?xml version="1.0" encoding="UTF-8" standalone="no"?>
<!-- Generator: Adobe Illustrator 26.1.0, SVG Export Plug-In . SVG Version: 6.00 Build 0)  -->

<svg
   version="1.1"
   id="svg189"
   inkscape:version="1.2.1 (9c6d41e410, 2022-07-14)"
   sodipodi:docname="cricket.svg"
   x="0px"
   y="0px"
   viewBox="0 0 960 720"
   style="enable-background:new 0 0 960 720;"
   xml:space="preserve"
   xmlns:inkscape="http://www.inkscape.org/namespaces/inkscape"
   xmlns:sodipodi="http://sodipodi.sourceforge.net/DTD/sodipodi-0.dtd"
   xmlns:xlink="http://www.w3.org/1999/xlink"
   xmlns="http://www.w3.org/2000/svg"
   xmlns:svg="http://www.w3.org/2000/svg"><defs
   id="defs5987" />
<style
   type="text/css"
   id="style5933">
	.st0{clip-path:url(#SVGID_00000067218831987399747690000011130119110677373875_);}
	.st1{fill-rule:evenodd;clip-rule:evenodd;fill-opacity:0;}
	.st2{fill:none;stroke:#000000;stroke-width:12;stroke-linejoin:round;stroke-miterlimit:10;}
	.st3{fill:none;stroke:#000000;stroke-width:6;stroke-linecap:round;stroke-linejoin:round;stroke-miterlimit:10;}
	.st4{fill-rule:evenodd;clip-rule:evenodd;}
	.st5{fill:none;stroke:#000000;stroke-width:6;stroke-linejoin:round;stroke-miterlimit:10;}
	
		.st6{fill-rule:evenodd;clip-rule:evenodd;fill:#FFFFFF;stroke:#000000;stroke-width:6;stroke-linejoin:round;stroke-miterlimit:10;}
	
		.st7{fill-rule:evenodd;clip-rule:evenodd;fill:#FFFFFF;stroke:#000000;stroke-width:13.6192;stroke-linejoin:round;stroke-miterlimit:10;}
	.st8{display:none;}
	.st9{display:inline;}
	.st10{display:inline;fill:#FFFFFF;}
</style>
<sodipodi:namedview
   bordercolor="#000000"
   borderopacity="0.25"
   id="namedview191"
   inkscape:current-layer="g187"
   inkscape:cx="361.6791"
   inkscape:cy="372.76119"
   inkscape:deskcolor="#d1d1d1"
   inkscape:pagecheckerboard="0"
   inkscape:pageopacity="0"
   inkscape:showpageshadow="2"
   inkscape:window-height="1346"
   inkscape:window-maximized="1"
   inkscape:window-width="2160"
   inkscape:window-x="-11"
   inkscape:window-y="-11"
   inkscape:zoom="1.4888889"
   pagecolor="#3eb60b"
   showgrid="false">
	</sodipodi:namedview>
<g
   id="g5976">
	<defs
   id="defs5937">
		<rect
   id="SVGID_1_"
   x="-2.7"
   y="6"
   width="960"
   height="720" />
	</defs>
	<clipPath
   id="SVGID_00000034092230197552123220000017674641160104156552_">
		<use
   xlink:href="#SVGID_1_"
   style="overflow:visible;"
   id="use5939" />
	</clipPath>
	
		<g
   id="g187"
   transform="translate(-2.6865671,6.0447761)"
   style="clip-path:url(#SVGID_00000034092230197552123220000017674641160104156552_);"
   clip-path="url(#SVGID_00000034092230197552123220000017674641160104156552_)">
		<path
   id="path105"
   class="st1"
   d="M0,0h960v720H0V0z" />
		<path
   id="path109"
   sodipodi:nodetypes="szszsssss"
   class="st2"
   d="M283.9,466.7c5.8-29.3,24-73.7,73.3-83s151.7,56,219.6,76.6    c30.4,9.2,228.6,40.1,226.3,64.7s-37.4,60.6-90.6,74.6s-163.9,15.8-228.8,9.1s-127.7-25.5-161-49.2    C289.4,535.9,278.1,496,283.9,466.7z"
   style="fill:#ffffff;fill-opacity:1" />
		<path
   id="path111"
   sodipodi:nodetypes="cssc"
   class="st1"
   d="M311.9,452c1.9-3.8,6.6-18.7,11.6-22.9s14.8-6.8,18-2.4    c3.2,4.4,1.1,24.2,1.3,29" />
		<path
   id="path113"
   sodipodi:nodetypes="czc"
   class="st3"
   d="M317.9,450c3-10.4,4.8-20.6,16.8-17.3c12,3.3,7.8,18.1,8,22.9" />
		<path
   id="path115"
   sodipodi:nodetypes="cssc"
   class="st1"
   d="M372.7,458.1c0.4-5.6-1.6-27.8,2.1-33.8c3.8-6,16.2-8,20.6-2.4    c4.4,5.6,5,29.9,6,35.8" />
		<path
   id="path117"
   sodipodi:nodetypes="czc"
   class="st3"
   d="M372.7,458.1c0.4-5.6,1.4-23.6,13.6-24.4s12.9,9.1,15.2,24" />
		<path
   id="path119"
   sodipodi:nodetypes="csssc"
   class="st1"
   d="M311.7,483c1.4,5.9,1.9,26.8,8.4,35.7s20.3,17.1,30.3,17.4    s23.4-7.6,29.8-15.8s6.9-27.7,8.3-33.2" />
		<path
   id="path121"
   sodipodi:nodetypes="czc"
   class="st3"
   d="M319.1,506.5c0.8,8.7,4.5,31.2,31.3,29.6s26.7-19.3,30-32.9" />
		<path
   id="path125"
   sodipodi:nodetypes="ssssssssss"
   class="st4"
   d="M295.1,469.3L295.1,469.3c0-6.2,5.4-11.2,12-11.2l0,0    c3.2,0,6.2,1.2,8.5,3.3s3.5,5,3.5,7.9l0,0c0,6.2-5.4,11.2-12,11.2l0,0C300.5,480.6,295.1,475.5,295.1,469.3z" />
		<path
   id="path139"
   sodipodi:nodetypes="csc"
   class="st1"
   d="M405.5,596c0.6,13.2-4.9,61.3,3.4,79.4c8.2,18.2,38.4,24.6,46,29.5" />
		<path
   id="path141"
   sodipodi:nodetypes="cc"
   class="st3"
   d="M405.5,596c3.1,32.6-4.5,61.5,17.2,93.5" />
		<path
   id="path143"
   sodipodi:nodetypes="csc"
   class="st1"
   d="M389.8,587.6c-1.5,13.6-16.5,64.8-9,81.6s44.9,15.8,53.9,19" />
		<path
   id="path145"
   sodipodi:nodetypes="cc"
   class="st3"
   d="M389.8,587.6c-2.7,28.4-14.3,72.8,0.6,99.2" />
		<path
   id="path147"
   sodipodi:nodetypes="csc"
   class="st1"
   d="M483,609.7c-0.6,11-8.8,49.2-3.4,65.7c5.4,16.6,29.9,28.1,35.9,33.7" />
		<path
   id="path149"
   sodipodi:nodetypes="cc"
   class="st3"
   d="M483,609.7c0.5,27.4-7.9,52.5,6.4,79.3" />
		<path
   id="path151"
   sodipodi:nodetypes="csc"
   class="st1"
   d="M516.7,610.8c3.7,12.5,12.2,58.5,22.5,75.2    c10.3,16.8,32.8,21.1,39.3,25.3" />
		<path
   id="path153"
   sodipodi:nodetypes="cc"
   class="st3"
   d="M499.9,611.5c-1,43.4,12.1,72.9,17.4,75" />
		<path
   id="path155"
   sodipodi:nodetypes="csc"
   class="st1"
   d="M634.6,607.6c1.9,9.2-1.1,40.8,11.2,55.2    c12.3,14.4,52.1,26.1,62.5,31.3" />
		<path
   id="path159"
   sodipodi:nodetypes="csc"
   class="st1"
   d="M650.3,606.6c5.9,10.5,21.3,50.6,35.6,63.3s41.5,10.8,49.8,13" />
		<path
   id="path163"
   sodipodi:nodetypes="cssc"
   class="st1"
   d="M340.4,386.5c-2.1-8.8-4.7-38-12.4-52.7    c-7.7-14.8-18.9-27.6-33.7-35.9c-14.8-8.3-45.9-11.4-55-13.7" />
		<path
   id="path165"
   sodipodi:nodetypes="cc"
   class="st5"
   d="M340.4,386.5c-12.2-74.2-26-89.9-91-77.4" />
		<path
   id="path167"
   sodipodi:nodetypes="cssc"
   class="st1"
   d="M369.8,383.4c-2.9-8.8-8.7-37.8-17.2-52.6s-16.9-32.3-33.7-35.9    c-16.8-3.5-56,12.2-67.3,14.6" />
		<path
   id="path169"
   sodipodi:nodetypes="cc"
   class="st5"
   d="M357,384c-8.9-63.5,11.5-116.5-73.1-108.1" />
		<path
   id="path171"
   sodipodi:nodetypes="ssssssssss"
   class="st1"
   d="M215.4,283.2L215.4,283.2c0-6.2,5.4-11.2,12-11.2l0,0    c3.2,0,6.2,1.2,8.5,3.3c2.2,2.1,3.5,5,3.5,7.9l0,0c0,6.2-5.4,11.2-12,11.2l0,0C220.7,294.4,215.4,289.4,215.4,283.2z" />
		<path
   id="path173"
   sodipodi:nodetypes="ssssssssss"
   class="st6"
   d="M228.1,314.1L228.1,314.1c0-6.2,5.4-11.2,12-11.2l0,0    c3.2,0,6.2,1.2,8.5,3.3c2.2,2.1,3.5,5,3.5,7.9l0,0c0,6.2-5.4,11.2-12,11.2l0,0C233.5,325.3,228.1,320.3,228.1,314.1z" />
		<path
   id="path175"
   sodipodi:nodetypes="ssssssssss"
   class="st1"
   d="M230.3,312.7L230.3,312.7c0-6.2,5.4-11.2,12-11.2l0,0    c3.2,0,6.2,1.2,8.5,3.3c2.2,2.1,3.5,5,3.5,7.9l0,0c0,6.2-5.4,11.2-12,11.2l0,0C235.7,323.9,230.3,318.9,230.3,312.7z" />
		<path
   id="path109-0-2"
   sodipodi:nodetypes="zzzz"
   class="st7"
   d="M432.3,406.7c-17.7-32.3,24.3,16.3,247.4-18.4    s181.6,78.4,44.6,132.7C587.3,575.3,450,438.9,432.3,406.7z" />
		<path
   id="path109-0"
   sodipodi:nodetypes="zzzz"
   class="st7"
   d="M428.4,406.4c-12.8-34.5,21.9,16.3,247.6,14.3    s168.4,103.9,24.9,137.8C557.5,592.4,441.2,440.9,428.4,406.4z" />
		<path
   id="path177"
   sodipodi:nodetypes="ssssssssss"
   class="st6"
   d="M265.2,277.1L265.2,277.1c0-6.2,5.4-11.2,12-11.2l0,0    c3.2,0,6.2,1.2,8.5,3.3c2.2,2.1,3.5,5,3.5,7.9l0,0c0,6.2-5.4,11.2-12,11.2l0,0C270.6,288.3,265.2,283.3,265.2,277.1L265.2,277.1z" />
		<path
   id="path145-1"
   sodipodi:nodetypes="csc"
   class="st3"
   d="M666.8,604.9c-1.7,6.3,27.2,20.1,35.3,32.5    c16.5,25.2-10.2,54.8-20.6,63.3" />
		<path
   id="path145-1-3"
   sodipodi:nodetypes="csc"
   class="st3"
   d="M701.2,601.6c18,0.8,41.3,20.5,48.8,37.2s-12.2,50.1-22.7,58.6" />
		<a
   id="a451"
   transform="translate(-10.746269,-3.358209)">
			<path
   id="path179"
   sodipodi:nodetypes="ccssccc"
   class="st1"
   d="M478,352.8c-27-71.5-55.7-148.5-38.7-224     c6.2-26.1,17.5-43.2,37.4-51.3s64-9,82,2.7c18,11.7,24.2,38.7,25.9,67.5c-21.4,47.2,2.6,190.8-40.1,207.6     C505,364.8,481.6,362.6,478,352.8L478,352.8z" />
		</a>
	</g>
</g>
<g
   id="layer1"
   inkscape:groupmode="layer"
   inkscape:label="Layer 1"
   class="st8">
	<a
   id="a2303"
   transform="matrix(0.43298969,0,0,0.42857144,317.29883,205.04262)">
		<ellipse
   id="path2243"
   class="st9"
   cx="142.1"
   cy="552.8"
   rx="32.6"
   ry="56.4" />
		<ellipse
   id="path2299"
   class="st10"
   cx="147.1"
   cy="530.6"
   rx="14.8"
   ry="23.5" />
	</a>
	<a
   id="a2303-5"
   transform="matrix(0.48453609,0,0,0.4404762,265.64818,197.7905)">
		<ellipse
   id="path2243-8"
   class="st9"
   cx="142.1"
   cy="552.8"
   rx="32.6"
   ry="56.4" />
		<ellipse
   id="path2299-7"
   class="st10"
   cx="147.1"
   cy="530.6"
   rx="14.8"
   ry="23.5" />
	</a>
</g>
<path
   id="path123"
   sodipodi:nodetypes="ssssssssss"
   class="st4"
   d="M389.8,484.4L389.8,484.4c0-6.7,5.4-12.1,12-12.1l0,0  c3.2,0,6.2,1.3,8.5,3.5s3.5,5.3,3.5,8.5l0,0c0,6.7-5.4,12.1-12,12.1l0,0C395.2,496.5,389.8,491.1,389.8,484.4z" />
</svg>
