<?xml version="1.0" encoding="UTF-8" standalone="no"?>
<svg
   version="1.1"
   viewBox="0.0 0.0 960.0 720.0"
   fill="none"
   stroke="none"
   stroke-linecap="square"
   stroke-miterlimit="10"
   id="svg189"
   sodipodi:docname="fourmisleepy.svg"
   inkscape:version="1.2.1 (9c6d41e410, 2022-07-14)"
   xml:space="preserve"
   xmlns:inkscape="http://www.inkscape.org/namespaces/inkscape"
   xmlns:sodipodi="http://sodipodi.sourceforge.net/DTD/sodipodi-0.dtd"
   xmlns="http://www.w3.org/2000/svg"
   xmlns:svg="http://www.w3.org/2000/svg"><defs
     id="defs193"><inkscape:path-effect
       effect="bspline"
       id="path-effect7039"
       is_visible="true"
       lpeversion="1"
       weight="33.333333"
       steps="2"
       helper_size="0"
       apply_no_weight="true"
       apply_with_weight="true"
       only_selected="false" /><inkscape:path-effect
       effect="bspline"
       id="path-effect6447"
       is_visible="true"
       lpeversion="1"
       weight="33.333333"
       steps="2"
       helper_size="0"
       apply_no_weight="true"
       apply_with_weight="true"
       only_selected="false" /></defs><sodipodi:namedview
     id="namedview191"
     pagecolor="#ffffff"
     bordercolor="#000000"
     borderopacity="0.25"
     inkscape:showpageshadow="2"
     inkscape:pageopacity="0.0"
     inkscape:pagecheckerboard="0"
     inkscape:deskcolor="#d1d1d1"
     showgrid="false"
     inkscape:zoom="1.4888889"
     inkscape:cx="378.80597"
     inkscape:cy="410.37313"
     inkscape:window-width="1920"
     inkscape:window-height="1186"
     inkscape:window-x="-11"
     inkscape:window-y="-11"
     inkscape:window-maximized="1"
     inkscape:current-layer="g187" /><clipPath
     id="p.0"><path
       d="m0 0l960.0 0l0 720.0l-960.0 0l0 -720.0z"
       clip-rule="nonzero"
       id="path102" /></clipPath><g
     clip-path="url(#p.0)"
     id="g187"
     transform="translate(-81.268657,-93.358208)"><path
       stroke="#000000"
       stroke-width="12"
       stroke-linejoin="round"
       stroke-linecap="butt"
       d="m 277.16878,463.98479 c 3.60547,-33.58511 43.75811,-69.72981 80.04512,-80.26698 34.31467,-9.96444 72.33399,-6.30513 104.57615,23.55645 26.23138,24.2946 92.7,34.74727 135.12891,14.07892 42.42891,-20.66835 92.92048,-50.38879 160.33605,-35.20135 67.41556,15.18743 127.64974,59.13903 123.74003,101.27041 -3.90972,42.13137 -60.32695,87.097 -108.79318,100.08349 -48.46623,12.98648 -107.06766,24.86074 -171.80711,-13.23758 -64.73945,-38.09832 -101.89329,-66.36486 -138.95374,-36.09136 -37.06045,30.2735 -104.77865,51.41416 -142.80189,23.37245 -38.02324,-28.04171 -45.0758,-63.97933 -41.47034,-97.56445 z"
       fill-rule="evenodd"
       id="path109"
       sodipodi:nodetypes="zaszzzzzzzz"
       inkscape:label="corps" /><g
       id="g6377"
       inkscape:label="face"><path
         fill="#000000"
         fill-opacity="0"
         d="m 311.85132,452.02252 c 1.92969,-3.82452 6.64734,-18.72037 11.57806,-22.94714 4.93073,-4.22678 14.79068,-6.84244 18.00629,-2.41349 3.21564,4.42896 1.07288,24.15601 1.28745,28.98722"
         fill-rule="evenodd"
         id="path111"
         sodipodi:nodetypes="cssc" /><path
         stroke="#000000"
         stroke-width="8"
         stroke-linejoin="round"
         stroke-linecap="butt"
         d="m 318.12862,448.0334 c -2.7444,6.60779 -5.63315,15.03979 10.44256,18.2961 16.07572,3.25631 16.68855,-4.55668 17.23894,-9.96801"
         fill-rule="evenodd"
         id="path113"
         sodipodi:nodetypes="czc"
         style="display:inline;stroke-width:6;stroke-dasharray:none;stroke-linecap:round" /><path
         fill="#000000"
         fill-opacity="0"
         d="m 372.67657,458.06192 c 0.35715,-5.63641 -1.64456,-27.77976 2.14276,-33.81842 3.78732,-6.03864 16.15091,-7.98294 20.58121,-2.41348 4.4303,5.56949 5.00049,29.85864 6.00058,35.83035"
         fill-rule="evenodd"
         id="path115"
         sodipodi:nodetypes="cssc" /><path
         stroke="#000000"
         stroke-width="12"
         stroke-linejoin="round"
         stroke-linecap="butt"
         d="m 372.67657,456.71864 c 0.18924,3.76657 -1.93183,13.8571 14.23232,13.02859 16.16414,-0.8285 14.11928,-11.33707 15.49969,-16.62044"
         fill-rule="evenodd"
         id="path117"
         sodipodi:nodetypes="czc"
         style="display:inline;opacity:1;stroke-width:6;stroke-dasharray:none;stroke-linecap:round" /><path
         fill="#000000"
         fill-opacity="0"
         d="m 311.71338,483.02487 c 1.3992,5.9447 1.94208,26.82358 8.39523,35.66818 6.45316,8.84461 20.30963,17.13611 30.3237,17.39954 10.01407,0.26343 23.422,-7.64612 29.76068,-15.81903 6.33869,-8.17292 6.89286,-27.68207 8.27143,-33.21851"
         fill-rule="evenodd"
         id="path119"
         sodipodi:nodetypes="csssc" /><path
         stroke="#000000"
         stroke-width="8"
         stroke-linejoin="round"
         stroke-linecap="butt"
         d="m 314.06413,495.61731 c 4.52044,18.09291 26.09199,30.02651 43.75624,29.89608 17.2922,-0.12768 36.47803,-3.52875 42.39778,-29.89575"
         fill-rule="evenodd"
         id="path121"
         sodipodi:nodetypes="cac"
         style="stroke-width:6;stroke-dasharray:none;stroke-linecap:round" /><path
         fill="#999999"
         d="m 409.90013,474.47229 v 0 c 0,-6.6709 5.35144,-12.07874 11.95276,-12.07874 v 0 c 3.17007,0 6.2103,1.27259 8.45187,3.53779 2.24158,2.26519 3.50089,5.33746 3.50089,8.54095 v 0 c 0,6.6709 -5.35144,12.07874 -11.95276,12.07874 v 0 c -6.60132,0 -11.95276,-5.40784 -11.95276,-12.07874 z"
         fill-rule="evenodd"
         id="path123"
         sodipodi:nodetypes="ssssssssss"
         style="fill:#000000" /><path
         fill="#999999"
         d="m 288.24716,470.28941 v 0 c 0,-6.20123 5.35144,-11.22833 11.95276,-11.22833 v 0 c 3.17007,0 6.2103,1.18298 8.45187,3.28869 2.24158,2.10572 3.50089,4.9617 3.50089,7.93964 v 0 c 0,6.20126 -5.35144,11.22836 -11.95276,11.22836 v 0 c -6.60132,0 -11.95276,-5.0271 -11.95276,-11.22836 z"
         fill-rule="evenodd"
         id="path125"
         sodipodi:nodetypes="ssssssssss"
         style="fill:#000000" /></g><g
       id="g6361"
       inkscape:label="antennes"><path
         fill="#000000"
         fill-opacity="0"
         d="m 340.36676,386.53207 c -2.05902,-8.78833 -4.6796,-37.96561 -12.35409,-52.73001 -7.67453,-14.7644 -18.90552,-27.59537 -33.693,-35.85638 -14.7875,-8.26105 -45.85992,-11.42484 -55.0319,-13.70981"
         fill-rule="evenodd"
         id="path163"
         sodipodi:nodetypes="cssc" /><path
         stroke="#000000"
         stroke-width="8"
         stroke-linejoin="round"
         stroke-linecap="butt"
         d="m 340.36676,386.53207 c -5.0088,-35.8687 -24.41181,-62.86421 -46.04709,-87.87401 -9.99296,-11.5516 -30.04683,-20.90227 -37.10358,-26.8889"
         fill-rule="evenodd"
         id="path165"
         sodipodi:nodetypes="cac"
         style="stroke-width:6;stroke-dasharray:none" /><path
         stroke="#000000"
         stroke-width="8"
         stroke-linejoin="round"
         stroke-linecap="butt"
         d="m 371.24255,382.14082 c -2.40669,-26.21369 -6.13956,-60.21632 -17.71989,-87.70055 -7.71464,-18.30957 -25.40325,-41.39686 -33.56591,-49.2558"
         fill-rule="evenodd"
         id="path169"
         sodipodi:nodetypes="cac"
         style="stroke-width:6;stroke-dasharray:none" /><path
         fill="#000000"
         fill-opacity="0"
         d="m 215.37534,283.1859 v 0 c 0,-6.20126 5.35142,-11.22836 11.95274,-11.22836 v 0 c 3.17008,0 6.2103,1.18298 8.45188,3.28872 2.24158,2.10572 3.50088,4.9617 3.50088,7.93964 v 0 c 0,6.20123 -5.35142,11.22833 -11.95276,11.22833 v 0 c -6.60131,0 -11.95274,-5.0271 -11.95274,-11.22833 z"
         fill-rule="evenodd"
         id="path171"
         sodipodi:nodetypes="ssssssssss" /><path
         stroke="#000000"
         stroke-width="4"
         stroke-linejoin="round"
         stroke-linecap="butt"
         d="m 234.96589,266.80108 v 0 c 0,-6.20126 5.35142,-11.22836 11.95274,-11.22836 v 0 c 3.17008,0 6.2103,1.18298 8.45188,3.28872 2.24158,2.10572 3.50088,4.9617 3.50088,7.93964 v 0 c 0,6.20123 -5.35142,11.22833 -11.95276,11.22833 v 0 c -6.60131,0 -11.95274,-5.0271 -11.95274,-11.22833 z"
         fill-rule="evenodd"
         id="path173"
         sodipodi:nodetypes="ssssssssss"
         style="stroke-width:6;stroke-dasharray:none" /><path
         stroke="#000000"
         stroke-width="4"
         stroke-linejoin="round"
         stroke-linecap="butt"
         d="m 299.20544,238.61244 v 0 c 0,-6.20123 5.35142,-11.22833 11.95274,-11.22833 v 0 c 3.17008,0 6.21032,1.18298 8.45189,3.28869 2.24156,2.10575 3.50087,4.9617 3.50087,7.93964 v 0 c 0,6.20126 -5.35142,11.22836 -11.95276,11.22836 v 0 c -6.60131,0 -11.95274,-5.0271 -11.95274,-11.22836 z"
         fill-rule="evenodd"
         id="path177"
         sodipodi:nodetypes="ssssssssss"
         style="stroke-width:6;stroke-dasharray:none" /></g><g
       id="g6353"
       inkscape:label="pattes"
       transform="translate(80.597014,-60.447761)"
       style="stroke-width:6;stroke-dasharray:none"><path
         stroke="#000000"
         stroke-width="8"
         stroke-linejoin="round"
         stroke-linecap="butt"
         d="m 438.22978,591.30639 c -12.58408,45.38404 -9.21688,113.68472 13.03786,130.81133"
         fill-rule="evenodd"
         id="path145-1"
         sodipodi:nodetypes="cc"
         style="stroke-width:6;stroke-dasharray:none;stroke-linecap:round" /><path
         stroke="#000000"
         stroke-width="8"
         stroke-linejoin="round"
         stroke-linecap="butt"
         d="m 408.19475,584.61669 c -14.41051,27.86842 -57.14068,102.26795 -15.18466,143.26517"
         fill-rule="evenodd"
         id="path141"
         sodipodi:nodetypes="cc"
         style="stroke-width:6;stroke-dasharray:none;stroke-linecap:round" /><path
         stroke="#000000"
         stroke-width="8"
         stroke-linejoin="round"
         stroke-linecap="butt"
         d="m 391.12664,590.28467 c -28.04435,21.1874 -58.91552,106.49679 -25.44363,134.50247"
         fill-rule="evenodd"
         id="path145"
         sodipodi:nodetypes="cc"
         style="stroke-width:6;stroke-dasharray:none;stroke-linecap:round" /><path
         stroke="#000000"
         stroke-width="8"
         stroke-linejoin="round"
         stroke-linecap="butt"
         d="m 529.06858,638.23925 c 27.88134,28.82921 19.3411,57.18574 14.8372,85.47488"
         fill-rule="evenodd"
         id="path149"
         sodipodi:nodetypes="cc"
         style="stroke-width:6;stroke-dasharray:none;stroke-linecap:round" /><path
         stroke="#000000"
         stroke-width="8"
         stroke-linejoin="round"
         stroke-linecap="butt"
         d="m 508.17431,630.56826 c 27.4455,41.94364 25.38824,68.36062 16.75073,92.56848"
         fill-rule="evenodd"
         id="path153"
         sodipodi:nodetypes="cc"
         style="stroke-width:6;stroke-dasharray:none;stroke-linecap:round" /><path
         style="fill:none;stroke:#000000;stroke-width:6;stroke-opacity:1;stroke-dasharray:none;stroke-linecap:round"
         d="m 540.33582,540.67164 c -5.34343,18.46274 -10.68705,36.92614 -10.25987,56.57562 0.42718,19.64948 6.62407,40.48398 12.82132,61.31967"
         id="path7037"
         inkscape:path-effect="#path-effect7039"
         inkscape:original-d="m 540.33582,540.67164 c 0,0 -10.68586,36.92648 -16.03029,55.38822 6.19824,20.83669 18.59174,62.50707 18.59174,62.50707"
         sodipodi:nodetypes="czc"
         transform="translate(-80.597014,60.447761)" /></g><path
       style="fill:none;stroke:#000000;stroke-width:6;stroke-opacity:1;stroke-dasharray:none"
       d="m 607.83582,419.77612 c 0,0 37.79518,44.21781 46.34328,75.22387 8.5481,31.00606 -2.01492,100.74628 -2.01492,100.74628 m 22.16417,-96.71642"
       id="path7767"
       sodipodi:nodetypes="czc" /><path
       style="fill:none;stroke:#000000;stroke-width:6;stroke-opacity:1;stroke-dasharray:none"
       d="m 593.65308,296.02451 c 0,0 42.5444,59.41533 51.0925,90.42139 8.5481,31.00606 -7.23906,117.84349 -7.23906,117.84349"
       id="path7767-7"
       sodipodi:nodetypes="czc"
       transform="translate(81.268657,93.358208)" /><path
       style="fill:none;stroke:#000000;stroke-width:6;stroke-opacity:1;stroke-dasharray:none"
       d="m 674.92174,294.68123 c 0,0 37.79518,44.21781 46.34328,75.22387 8.5481,31.00606 -1.54,111.6695 -1.54,111.6695"
       id="path7767-1"
       sodipodi:nodetypes="csc"
       transform="translate(81.268657,93.358208)" /><g
       id="g8825"
       inkscape:label="yeux2rip"
       style="display:none"><ellipse
         style="fill:#000000;stroke:#000000;stroke-width:6.81035;stroke-dasharray:none;stroke-opacity:1"
         id="path8637"
         cx="379.64551"
         cy="437.92239"
         rx="12.859751"
         ry="17.405268" /><ellipse
         style="fill:#000000;stroke:#000000;stroke-width:6.85944;stroke-dasharray:none;stroke-opacity:1"
         id="path8639"
         cx="334.14178"
         cy="438.91791"
         rx="12.331472"
         ry="17.032965" /><ellipse
         style="fill:#ffffff;stroke:#ffffff;stroke-width:5.04016;stroke-dasharray:none;stroke-opacity:1"
         id="path8641"
         cx="328.43283"
         cy="432.07431"
         rx="2.830667"
         ry="3.7109611" /><ellipse
         style="fill:#ffffff;stroke:#ffffff;stroke-width:4.99457;stroke-dasharray:none;stroke-opacity:1"
         id="path8641-7"
         cx="373.39212"
         cy="430.40717"
         rx="2.853461"
         ry="3.6150243" /></g></g></svg>
