<?xml version="1.0" encoding="utf-8"?>
<!-- Generator: Adobe Illustrator 26.1.0, SVG Export Plug-In . SVG Version: 6.00 Build 0)  -->
<svg version="1.1"
	 id="svg189" inkscape:version="1.2.1 (9c6d41e410, 2022-07-14)" sodipodi:docname="guepe-v2.svg" xmlns:inkscape="http://www.inkscape.org/namespaces/inkscape" xmlns:sodipodi="http://sodipodi.sourceforge.net/DTD/sodipodi-0.dtd" xmlns:svg="http://www.w3.org/2000/svg"
	 xmlns="http://www.w3.org/2000/svg" xmlns:xlink="http://www.w3.org/1999/xlink" x="0px" y="0px" viewBox="0 0 960 720"
	 style="enable-background:new 0 0 960 720;" xml:space="preserve">
<style type="text/css">
	.st0{clip-path:url(#SVGID_00000002376070069661579820000017909197349252769954_);}
	.st1{fill:none;stroke:#000000;stroke-width:12;stroke-linejoin:round;}
	.st2{fill:none;stroke:#000000;stroke-width:6;stroke-linecap:round;stroke-linejoin:round;}
	.st3{fill-rule:evenodd;clip-rule:evenodd;}
	.st4{fill:none;stroke:#000000;stroke-width:6;stroke-linejoin:round;}
	.st5{fill:none;stroke:#000000;stroke-width:6;stroke-linecap:round;stroke-miterlimit:10;}
	.st6{stroke:#000000;stroke-width:12;stroke-linejoin:round;}
	.st7{stroke:#000000;stroke-width:6;stroke-linejoin:round;}
	.st8{fill-rule:evenodd;clip-rule:evenodd;fill:#FFFFFF;stroke:#000000;stroke-width:12;stroke-linejoin:round;}
</style>
<sodipodi:namedview  bordercolor="#000000" borderopacity="0.25" id="namedview40" inkscape:current-layer="svg189" inkscape:cx="679.19492" inkscape:cy="412.62712" inkscape:deskcolor="#d1d1d1" inkscape:pagecheckerboard="0" inkscape:pageopacity="0.0" inkscape:showpageshadow="2" inkscape:window-height="1346" inkscape:window-maximized="1" inkscape:window-width="2160" inkscape:window-x="-11" inkscape:window-y="-11" inkscape:zoom="1.3111111" pagecolor="#ffffff" showgrid="false">
	</sodipodi:namedview>
<g>
	<defs>
		<rect id="SVGID_1_" y="0" width="960" height="720"/>
	</defs>
	<clipPath id="SVGID_00000006700076363347758320000001869514840884436381_">
		<use xlink:href="#SVGID_1_"  style="overflow:visible;"/>
	</clipPath>
	<g id="g29" style="clip-path:url(#SVGID_00000006700076363347758320000001869514840884436381_);">
		<g id="g187">
			<path id="path109" class="st1" d="M341.1,393.4c31.5-16.9,88.5-16,120.7,13.9c26.2,24.3,92.7,34.8,135.1,14.1
				s92.9-50.4,160.3-35.2s170.6,112,166.7,154.1s-83,63-145,63c-54,0-113.8,9.1-178.5-29s-94.7-54.4-139-36.1
				c-70.7,29.3-118.8,23.3-151.4,7.7c-30.4-14.6-45.3-49.3-33.5-83.9C287.6,429.9,316.3,406.7,341.1,393.4z"/>
			<g id="g6377">
				<path id="path113" class="st2" d="M321.1,453.4c0.6-8.5-3.9-23.8,12.8-25.1c16.4-1.4,15,21.9,15.1,25.1"/>
				<path id="path117" class="st2" d="M368.8,454.5c0.8-9.5,0.8-22.6,15.1-22.8c15.5-0.2,11.2,20.7,10.1,26.1"/>
				<path id="path121" class="st2" d="M320.6,489c1.8,23.8,7.8,30.7,22.9,33.5c17.3-0.1,25.7-1.4,35.3-22.9"/>
				<path id="path123" class="st3" d="M405,479.9L405,479.9c0-6.6,5.3-12,11.9-12.1c0,0,0,0,0,0l0,0c3.2,0,6.2,1.3,8.5,3.5
					c2.2,2.3,3.5,5.3,3.5,8.5l0,0c0,6.6-5.3,12-11.9,12.1c0,0,0,0,0,0l0,0C410.4,492,405,486.6,405,479.9
					C405,479.9,405,479.9,405,479.9z"/>
				<path id="path125" class="st3" d="M288.3,471.5L288.3,471.5c0-6.2,5.4-11.2,12-11.2l0,0c3.1,0,6.2,1.2,8.5,3.3
					c2.2,2,3.5,4.9,3.5,7.9l0,0c0,6.2-5.4,11.2-12,11.2l0,0C293.7,482.7,288.3,477.7,288.3,471.5z"/>
			</g>
			<g id="g6361">
				<path id="path165" class="st4" d="M338,391.4c-14.2-114.2-85.3-94-101.4-92.2"/>
				<path id="path169" class="st4" d="M371.2,382.1c-2.4-26.2,9.4-118.3-65.8-116.4"/>
				<path id="path173" class="st4" d="M213.4,299.1L213.4,299.1c0-6.2,5.4-11.2,11.9-11.2l0,0c3.1,0,6.2,1.2,8.5,3.3
					c2.2,2,3.5,4.9,3.5,7.9l0,0c0,6.2-5.4,11.2-12,11.2l0,0C218.8,310.4,213.4,305.4,213.4,299.1z"/>
				<path id="path177" class="st4" d="M280.5,263.6L280.5,263.6c0-6.2,5.4-11.2,12-11.2l0,0c3.1,0,6.1,1.2,8.5,3.3
					c2.2,2,3.5,4.9,3.5,7.9l0,0c0,6.2-5.4,11.2-12,11.2l0,0C285.8,274.8,280.5,269.8,280.5,263.6z"/>
			</g>
			<g id="g6353">
				<path id="path145-1" class="st2" d="M518.8,530.9c-38.8,87.1-34.5,85.2,1.3,122.4"/>
				<path id="path141" class="st2" d="M487.9,532.3c-14.4,27.9-63.5,91.6-21,121.8"/>
				<path id="path145" class="st2" d="M461.4,538.2c-36.7,66-44,81.9-14.1,117.8"/>
				<path id="path149" class="st2" d="M609.7,577.8c-15.7,31.9-11.8,42.4,10.4,73.6"/>
				<path id="path153" class="st2" d="M588.8,570.1c-11.3,34.1-20.1,34.1,13.8,76.1"/>
				<path id="path7037" class="st5" d="M540.3,540.7c-28,84.6-30.8,82.8-4.7,109.3"/>
			</g>
		</g>
	</g>
</g>
<path id="path31" class="st6" d="M487.9,422.6c18,22.5,14,84.3-2.1,106.4c-5.8,7.9,24.2-5.5,44-0.9c24.4,5.6,44.9,38.4,53.2,32.8
	c27.7-18.6,11.9-123.6-7.3-128.6c-25.5-6.6-21.1,15.2-62.9,2.7"/>
<path id="path33" class="st7" d="M649.3,402.7c-7.8-2.6,16.8,17.1,36.6,47.4c13.7,21,18.8,40.6,25,65c7.7,30.1,10.9,61.6,11,63
	c2,20.9-0.5,25.7,2,26.1c4,0.5,14.6-19.7,17-46.1c1.7-18,0-30.8-3-52c-3.3-24-10.2-46-24-90c-4.7-15.1-9.7-32.2-14.6-26.9
	C682.7,378.9,652.6,389,649.3,402.7z"/>
<path id="path35" class="st7" d="M766.9,396.8c4.5,10.7,6.7,17.4,25.2,47.5c13.7,21,18.8,40.6,25,65c7.7,30.1,10.9,61.6,11,63
	c2,20.9,1.4,26.1,3.9,26.4c4,0.5,8.7-32.6,10.1-42.7c1.2-8.8,2.8-34.4,2-55.8c-0.8-20.8-10.7-63.6-16.7-75.5
	c-7.2-14.1-13.1-16-20.4-20.5C790.3,393.9,759.5,379.3,766.9,396.8z"/>
<path id="path109-8-9" class="st8" d="M683.3,227.3c90.2,47.4,11.6,58.5-64.7,114.4s-92.5,95.3-117.4,92.1
	C489.3,427.6,593.2,179.9,683.3,227.3z"/>
<path id="path109-8" class="st8" d="M752.6,259.4c13.4,6.6,24,18.3,23,26c-2.1,15.8-12.7,34.3-125.8,86.3
	c-47.2,21.7-76.4,41-95.6,56.4c-16.5,13.3-56,11.5-43.3-6c0.2-0.2,15.5-26.6,15.6-26.9c17.9-27.1,27.9-33.4,53.4-59.8
	c0,0,32.7-34,87.2-71.7c12.4-8.6,29.7-19.9,51.1-17.3C727,247.5,741.7,254,752.6,259.4L752.6,259.4z"/>
</svg>
