<?xml version="1.0" encoding="UTF-8" standalone="no"?>
<svg
   version="1.1"
   viewBox="0.0 0.0 960.0 720.0"
   fill="none"
   stroke="none"
   stroke-linecap="square"
   stroke-miterlimit="10"
   id="svg189"
   sodipodi:docname="libellule.svg"
   inkscape:version="1.2.1 (9c6d41e410, 2022-07-14)"
   xmlns:inkscape="http://www.inkscape.org/namespaces/inkscape"
   xmlns:sodipodi="http://sodipodi.sourceforge.net/DTD/sodipodi-0.dtd"
   xmlns="http://www.w3.org/2000/svg"
   xmlns:svg="http://www.w3.org/2000/svg">
  <defs
     id="defs193" />
  <sodipodi:namedview
     id="namedview191"
     pagecolor="#1d8000"
     bordercolor="#000000"
     borderopacity="0.25"
     inkscape:showpageshadow="2"
     inkscape:pageopacity="0"
     inkscape:pagecheckerboard="0"
     inkscape:deskcolor="#d1d1d1"
     showgrid="false"
     inkscape:zoom="1.0528034"
     inkscape:cx="667.741"
     inkscape:cy="421.73116"
     inkscape:window-width="2160"
     inkscape:window-height="1346"
     inkscape:window-x="-11"
     inkscape:window-y="-11"
     inkscape:window-maximized="1"
     inkscape:current-layer="g187" />
  <clipPath
     id="p.0">
    <path
       d="m0 0l960.0 0l0 720.0l-960.0 0l0 -720.0z"
       clip-rule="nonzero"
       id="path102" />
  </clipPath>
  <g
     clip-path="url(#p.0)"
     id="g187">
    <path
       fill="#000000"
       fill-opacity="0.0"
       d="m0 0l960.0 0l0 720.0l-960.0 0z"
       fill-rule="evenodd"
       id="path105" />
    <path
       stroke="#000000"
       stroke-width="12"
       stroke-linejoin="round"
       stroke-linecap="butt"
       d="m 283.8852,466.67136 c 5.75748,-29.30273 12.64894,-58.1617 66.61228,-76.90877 53.96332,-18.74707 112.00965,32.15512 226.27222,70.54581 114.26257,38.39069 295.76238,-10.25248 310.94176,33.15862 15.17937,43.4111 -122.02671,92.18411 -175.27079,106.12826 -53.24408,13.94416 -163.85858,15.78071 -228.82056,9.10389 -64.96194,-6.67682 -127.66199,-25.4936 -160.95114,-49.16486 -33.28915,-23.67133 -44.54126,-63.56018 -38.78378,-92.86295 z"
       fill-rule="evenodd"
       id="path109"
       sodipodi:nodetypes="sszzsssss"
       style="fill:#ffffff;fill-opacity:1" />
    <path
       stroke="#000000"
       stroke-width="12"
       stroke-linejoin="round"
       stroke-linecap="butt"
       d="m 707.00199,166.27845 c 88.5944,21.9553 52.93874,49.94366 -66.46482,139.71036 C 521.13361,395.75551 540.15039,437.3289 511.1196,431.28674 482.08881,425.24458 618.40759,144.32316 707.00199,166.27845 Z"
       fill-rule="evenodd"
       id="path109-8"
       sodipodi:nodetypes="zzzz"
       style="fill:#ffffff;fill-opacity:1" />
    <path
       stroke="#000000"
       stroke-width="13.979"
       stroke-linejoin="round"
       stroke-linecap="butt"
       d="m 559.43461,73.553484 c 125.11253,-7.284995 49.1719,57.397806 3.96548,170.575036 -45.20641,113.17725 -37.4902,167.83081 -65.71401,180.83774 -28.22381,13.00692 -63.364,-344.127792 61.74853,-351.412776 z"
       fill-rule="evenodd"
       id="path109-8-9"
       sodipodi:nodetypes="zzzz"
       style="fill:#ffffff;fill-opacity:1;stroke-width:12;stroke-dasharray:none" />
    <path
       fill="#000000"
       fill-opacity="0"
       d="m 311.85132,452.02252 c 1.92969,-3.82452 6.64734,-18.72037 11.57806,-22.94714 4.93073,-4.22678 14.79068,-6.84244 18.00629,-2.41349 3.21564,4.42896 1.07288,24.15601 1.28745,28.98722"
       fill-rule="evenodd"
       id="path111"
       sodipodi:nodetypes="cssc" />
    <path
       stroke="#000000"
       stroke-width="8"
       stroke-linejoin="round"
       stroke-linecap="butt"
       d="m 316.94625,448.1079 c 2.96455,-10.35117 7.39635,-24.42412 24.42191,-20.21797 17.02556,4.20615 8.73915,22.92797 8.95372,27.75918"
       fill-rule="evenodd"
       id="path113"
       sodipodi:nodetypes="czc"
       style="stroke-width:6;stroke-linecap:round;stroke-dasharray:none" />
    <path
       fill="#000000"
       fill-opacity="0"
       d="m 372.67657,458.06192 c 0.35715,-5.63641 -1.64456,-27.77976 2.14276,-33.81842 3.78732,-6.03864 16.15091,-7.98294 20.58121,-2.41348 4.4303,5.56949 5.00049,29.85864 6.00058,35.83035"
       fill-rule="evenodd"
       id="path115"
       sodipodi:nodetypes="cssc" />
    <path
       stroke="#000000"
       stroke-width="12"
       stroke-linejoin="round"
       stroke-linecap="butt"
       d="m 377.42579,458.06192 c 0.35715,-5.63641 -0.31035,-25.94756 15.8538,-26.77607 16.16414,-0.8285 22.04893,16.25786 22.3692,24.47483"
       fill-rule="evenodd"
       id="path117"
       sodipodi:nodetypes="czc"
       style="opacity:1;stroke-width:6;stroke-linecap:round;stroke-dasharray:none" />
    <path
       fill="#000000"
       fill-opacity="0"
       d="m 311.71338,483.02487 c 1.3992,5.9447 1.94208,26.82358 8.39523,35.66818 6.45316,8.84461 20.30963,17.13611 30.3237,17.39954 10.01407,0.26343 23.422,-7.64612 29.76068,-15.81903 6.33869,-8.17292 6.89286,-27.68207 8.27143,-33.21851"
       fill-rule="evenodd"
       id="path119"
       sodipodi:nodetypes="csssc" />
    <path
       stroke="#000000"
       stroke-width="8"
       stroke-linejoin="round"
       stroke-linecap="butt"
       d="m 317.41245,488.72394 c 2.84134,24.13768 11.92979,48.05956 38.71893,46.41881 26.78914,-1.64075 37.81143,-14.12194 43.73118,-40.48894"
       fill-rule="evenodd"
       id="path121"
       sodipodi:nodetypes="czc"
       style="stroke-width:6;stroke-dasharray:none;stroke-linecap:round" />
    <path
       stroke="#000000"
       stroke-width="8"
       stroke-linejoin="round"
       stroke-linecap="butt"
       d="m 439.86829,598.31185 c 14.9309,-8.77276 38.12382,-27.90347 54.1667,-73.87257 16.04287,-45.96911 10.61982,-72.37204 -2.93804,-97.39575"
       fill-rule="evenodd"
       id="path121-6"
       sodipodi:nodetypes="czc"
       style="stroke-width:6;stroke-dasharray:none" />
    <path
       stroke="#000000"
       stroke-width="8"
       stroke-linejoin="round"
       stroke-linecap="butt"
       d="m 492.28535,611.42969 c 14.9309,-8.77276 38.12382,-27.90347 54.1667,-73.87257 16.04287,-45.96911 10.61982,-64.98398 -2.93804,-90.00769"
       fill-rule="evenodd"
       id="path121-6-5"
       sodipodi:nodetypes="czc"
       style="stroke-width:6;stroke-dasharray:none" />
    <path
       stroke="#000000"
       stroke-width="8"
       stroke-linejoin="round"
       stroke-linecap="butt"
       d="m 557.43461,615.45953 c 14.9309,-8.77275 32.07905,-23.87362 44.76371,-63.1263 12.68466,-39.25268 13.97803,-62.2974 0.42017,-87.32111"
       fill-rule="evenodd"
       id="path121-6-5-3"
       sodipodi:nodetypes="czc"
       style="stroke-width:6;stroke-dasharray:none" />
    <path
       stroke="#000000"
       stroke-width="8"
       stroke-linejoin="round"
       stroke-linecap="butt"
       d="m 616.53909,610.75805 c 14.9309,-8.77276 22.00442,-15.14227 32.67416,-50.36511 10.66974,-35.22284 11.29146,-64.31234 -2.2664,-89.33605"
       fill-rule="evenodd"
       id="path121-6-5-6"
       sodipodi:nodetypes="czc"
       style="stroke-width:6;stroke-dasharray:none" />
    <path
       stroke="#000000"
       stroke-width="8"
       stroke-linejoin="round"
       stroke-linecap="butt"
       d="m 662.21072,608.07148 c 14.9309,-8.77276 33.42233,-33.94824 38.71893,-62.45466 5.2966,-28.50642 5.24669,-46.17801 -8.31117,-71.20172"
       fill-rule="evenodd"
       id="path121-6-5-7"
       sodipodi:nodetypes="czc"
       style="stroke-width:6;stroke-dasharray:none" />
    <path
       stroke="#000000"
       stroke-width="8"
       stroke-linejoin="round"
       stroke-linecap="butt"
       d="m 712.58386,600.68342 c 16.27418,-16.16082 28.72084,-29.24674 32.67416,-57.75317 3.95332,-28.50642 4.57505,-52.22278 -4.28132,-69.85843"
       fill-rule="evenodd"
       id="path121-6-5-1"
       sodipodi:nodetypes="czc"
       style="stroke-width:6;stroke-dasharray:none" />
    <path
       stroke="#000000"
       stroke-width="8"
       stroke-linejoin="round"
       stroke-linecap="butt"
       d="m 773.03162,579.19089 c 12.91597,-18.84739 17.97456,-35.96317 19.24133,-53.72331 1.26676,-17.76014 -2.14138,-34.76011 -10.99775,-51.72412"
       fill-rule="evenodd"
       id="path121-6-5-67"
       sodipodi:nodetypes="czc"
       style="stroke-width:6;stroke-dasharray:none" />
    <path
       fill="#999999"
       d="m 403.25122,476.60944 v 0 c 0,-6.6709 5.35144,-12.07874 11.95276,-12.07874 v 0 c 3.17007,0 6.2103,1.27259 8.45187,3.53779 2.24158,2.26519 3.50089,5.33746 3.50089,8.54095 v 0 c 0,6.6709 -5.35144,12.07874 -11.95276,12.07874 v 0 c -6.60132,0 -11.95276,-5.40784 -11.95276,-12.07874 z"
       fill-rule="evenodd"
       id="path123"
       sodipodi:nodetypes="ssssssssss"
       style="fill:#000000;fill-opacity:1" />
    <path
       fill="#999999"
       d="m 295.13354,469.33957 v 0 c 0,-6.20123 5.35144,-11.22833 11.95276,-11.22833 v 0 c 3.17007,0 6.2103,1.18298 8.45187,3.28869 2.24158,2.10572 3.50089,4.9617 3.50089,7.93964 v 0 c 0,6.20126 -5.35144,11.22836 -11.95276,11.22836 v 0 c -6.60132,0 -11.95276,-5.0271 -11.95276,-11.22836 z"
       fill-rule="evenodd"
       id="path125"
       sodipodi:nodetypes="ssssssssss"
       style="fill:#000000;fill-opacity:1" />
    <path
       fill="#000000"
       fill-opacity="0"
       d="m 405.50818,596.0346 c 0.56152,13.24109 -4.86679,61.28394 3.36929,79.44653 8.23606,18.16254 38.37259,24.6073 46.04709,29.52875"
       fill-rule="evenodd"
       id="path139"
       sodipodi:nodetypes="csc" />
    <path
       stroke="#000000"
       stroke-width="8"
       stroke-linejoin="round"
       stroke-linecap="butt"
       d="m 405.50818,596.0346 c -30.22062,48.11241 -12.5251,71.58837 37.99847,94.19916"
       fill-rule="evenodd"
       id="path141"
       sodipodi:nodetypes="cc"
       style="stroke-width:6;stroke-dasharray:none;stroke-linecap:round" />
    <path
       fill="#000000"
       fill-opacity="0"
       d="m 389.78336,587.5981 c -1.49747,13.59265 -16.47214,64.79932 -8.9848,81.55573 7.48733,16.7564 44.92398,15.81903 53.90878,18.98278"
       fill-rule="evenodd"
       id="path143"
       sodipodi:nodetypes="csc" />
    <path
       stroke="#000000"
       stroke-width="8"
       stroke-linejoin="round"
       stroke-linecap="butt"
       d="m 389.78336,588.94138 c -27.60955,34.93032 -39.98296,78.84744 20.74487,108.59821"
       fill-rule="evenodd"
       id="path145"
       sodipodi:nodetypes="cc"
       style="stroke-width:6;stroke-dasharray:none;stroke-linecap:round" />
    <path
       fill="#000000"
       fill-opacity="0"
       d="m 483.0011,609.7439 c -0.56155,10.95612 -8.79764,49.15607 -3.36932,65.73669 5.42831,16.58069 29.94934,28.12268 35.93921,33.7472"
       fill-rule="evenodd"
       id="path147"
       sodipodi:nodetypes="csc" />
    <path
       stroke="#000000"
       stroke-width="8"
       stroke-linejoin="round"
       stroke-linecap="butt"
       d="m 493.07573,611.08718 c -9.35287,68.57816 4.68012,69.01013 39.95795,88.06598"
       fill-rule="evenodd"
       id="path149"
       sodipodi:nodetypes="cc"
       style="stroke-width:6;stroke-dasharray:none;stroke-linecap:round" />
    <path
       fill="#000000"
       fill-opacity="0"
       d="m 516.69495,610.79846 c 3.74371,12.53802 12.16693,58.47168 22.46204,75.22809 10.29504,16.75647 32.75708,21.09204 39.30847,25.31042"
       fill-rule="evenodd"
       id="path151"
       sodipodi:nodetypes="csc" />
    <path
       stroke="#000000"
       stroke-width="8"
       stroke-linejoin="round"
       stroke-linecap="butt"
       d="m 516.69495,610.79846 c -9.40818,65.72375 23.24504,75.26451 63.11379,78.37433"
       fill-rule="evenodd"
       id="path153"
       sodipodi:nodetypes="cc"
       style="stroke-width:6;stroke-dasharray:none;stroke-linecap:round" />
    <path
       fill="#000000"
       fill-opacity="0"
       d="m 634.6211,607.63477 c 1.87183,9.19843 -1.06067,40.77783 11.23102,55.19074 12.29168,14.41284 52.09936,26.07202 62.51922,31.28643"
       fill-rule="evenodd"
       id="path155"
       sodipodi:nodetypes="csc" />
    <path
       stroke="#000000"
       stroke-width="8"
       stroke-linejoin="round"
       stroke-linecap="butt"
       d="m 633.27782,614.35119 c 11.72187,54.07253 28.92332,79.5318 79.79502,67.67119"
       fill-rule="evenodd"
       id="path157"
       sodipodi:nodetypes="cc"
       style="stroke-width:6;stroke-dasharray:none;stroke-linecap:round" />
    <path
       fill="#000000"
       fill-opacity="0"
       d="m 650.3446,606.5802 c 5.92749,10.54602 21.33887,50.56219 35.56482,63.276 14.22595,12.71381 41.49231,10.83893 49.79077,13.00671"
       fill-rule="evenodd"
       id="path159"
       sodipodi:nodetypes="csc" />
    <path
       stroke="#000000"
       stroke-width="8"
       stroke-linejoin="round"
       stroke-linecap="butt"
       d="m 650.3446,606.5802 c 13.02702,64.40221 28.85127,64.65569 74.60932,44.0439"
       fill-rule="evenodd"
       id="path161"
       sodipodi:nodetypes="cc"
       style="stroke-width:6;stroke-dasharray:none;stroke-linecap:round" />
    <path
       fill="#000000"
       fill-opacity="0"
       d="m 341.0384,392.57685 c -2.05902,-8.78833 -4.6796,-37.96561 -12.35409,-52.73001 -7.67453,-14.7644 -18.90552,-27.59537 -33.693,-35.85638 -14.7875,-8.26105 -45.85992,-11.42484 -55.0319,-13.70981"
       fill-rule="evenodd"
       id="path163"
       sodipodi:nodetypes="cssc" />
    <path
       stroke="#000000"
       stroke-width="8"
       stroke-linejoin="round"
       stroke-linecap="butt"
       d="m 341.0384,392.57685 c -5.0088,-35.8687 -28.83366,-84.44374 -51.42022,-97.31773 -22.58657,-12.874 -46.53157,3.35128 -38.9125,27.26034"
       fill-rule="evenodd"
       id="path165"
       sodipodi:nodetypes="czc"
       style="stroke-width:6;stroke-dasharray:none" />
    <path
       fill="#000000"
       fill-opacity="0"
       d="m 370.42771,389.41365 c -2.8613,-8.76389 -8.69098,-37.84335 -17.16779,-52.58331 -8.4768,-14.73996 -16.86862,-32.31662 -33.69302,-35.85639 -16.82437,-3.53979 -56.04443,12.1814 -67.25334,14.61768"
       fill-rule="evenodd"
       id="path167"
       sodipodi:nodetypes="cssc" />
    <path
       stroke="#000000"
       stroke-width="8"
       stroke-linejoin="round"
       stroke-linecap="butt"
       d="m 357.66652,390.08529 c -9.12311,-29.90772 -17.63619,-40.73825 -27.35335,-85.08149 -9.71716,-44.34324 32.61228,-53.63949 44.23919,-31.05396"
       fill-rule="evenodd"
       id="path169"
       sodipodi:nodetypes="czc"
       style="stroke-width:6;stroke-dasharray:none" />
    <path
       fill="#000000"
       fill-opacity="0"
       d="m 216.04698,289.23068 v 0 c 0,-6.20126 5.35142,-11.22836 11.95274,-11.22836 v 0 c 3.17008,0 6.2103,1.18298 8.45188,3.28872 2.24158,2.10572 3.50088,4.9617 3.50088,7.93964 v 0 c 0,6.20123 -5.35142,11.22833 -11.95276,11.22833 v 0 c -6.60131,0 -11.95274,-5.0271 -11.95274,-11.22833 z"
       fill-rule="evenodd"
       id="path171"
       sodipodi:nodetypes="ssssssssss" />
    <path
       stroke="#000000"
       stroke-width="4"
       stroke-linejoin="round"
       stroke-linecap="butt"
       d="m 240.89773,335.57396 v 0 c 0,-6.20126 5.35142,-11.22836 11.95274,-11.22836 v 0 c 3.17008,0 6.2103,1.18298 8.45188,3.28872 2.24158,2.10572 3.50088,4.9617 3.50088,7.93964 v 0 c 0,6.20123 -5.35142,11.22833 -11.95276,11.22833 v 0 c -6.60131,0 -11.95274,-5.0271 -11.95274,-11.22833 z"
       fill-rule="evenodd"
       id="path173"
       sodipodi:nodetypes="ssssssssss"
       style="stroke-width:6;stroke-dasharray:none;fill:#ffffff;fill-opacity:1" />
    <path
       fill="#000000"
       fill-opacity="0"
       d="m 230.97456,318.7584 v 0 c 0,-6.20123 5.35142,-11.22833 11.95274,-11.22833 v 0 c 3.17008,0 6.21032,1.18298 8.45189,3.28869 2.24156,2.10575 3.50087,4.9617 3.50087,7.93964 v 0 c 0,6.20126 -5.35142,11.22836 -11.95276,11.22836 v 0 c -6.60131,0 -11.95274,-5.0271 -11.95274,-11.22836 z"
       fill-rule="evenodd"
       id="path175"
       sodipodi:nodetypes="ssssssssss" />
    <path
       stroke="#000000"
       stroke-width="4"
       stroke-linejoin="round"
       stroke-linecap="butt"
       d="m 372.01933,282.48974 v 0 c 0,-6.20123 5.35142,-11.22833 11.95274,-11.22833 v 0 c 3.17008,0 6.21032,1.18298 8.45189,3.28869 2.24156,2.10575 3.50087,4.9617 3.50087,7.93964 v 0 c 0,6.20126 -5.35142,11.22836 -11.95276,11.22836 v 0 c -6.60131,0 -11.95274,-5.0271 -11.95274,-11.22836 z"
       fill-rule="evenodd"
       id="path177"
       sodipodi:nodetypes="ssssssssss"
       style="stroke-width:6;stroke-dasharray:none;fill:#ffffff;fill-opacity:1" />
    <a
       id="a451"
       transform="translate(-0.67164221,2.0149253)"
       style="fill:#000000;fill-opacity:0">
      <path
         fill="#f3f3f3"
         d="m 477.99884,352.83533 c -27.02637,-71.47568 -55.69412,-148.48083 -38.70606,-224.0105 6.23362,-26.1133 17.50263,-43.221344 37.40158,-51.325455 19.89896,-8.104111 64.01096,-9.005249 81.99216,2.700783 17.98114,11.706039 24.2165,38.720472 25.89496,67.535442 -21.3969,47.2447 2.62442,190.78233 -40.08136,207.59841 -39.5198,9.4719 -62.85726,7.21619 -66.50128,-2.49868 z"
         fill-rule="evenodd"
         id="path179"
         sodipodi:nodetypes="ccssccc"
         style="fill:#000000;fill-opacity:0" />
    </a>
  </g>
  <g
     inkscape:groupmode="layer"
     id="layer1"
     inkscape:label="Layer 1"
     style="display:none">
    <a
       id="a2303"
       transform="matrix(0.43298969,0,0,0.42857144,317.29883,205.04262)">
      <ellipse
         style="opacity:1;fill:#000000;fill-opacity:1;stroke-width:10;stroke-dasharray:none"
         id="path2243"
         cx="142.05225"
         cy="552.76117"
         rx="32.574627"
         ry="56.417912" />
      <ellipse
         style="opacity:1;fill:#ffffff;fill-opacity:1;stroke-width:10;stroke-dasharray:none"
         id="path2299"
         cx="147.08955"
         cy="530.59705"
         rx="14.776119"
         ry="23.507463" />
    </a>
    <a
       id="a2303-5"
       transform="matrix(0.48453609,0,0,0.4404762,265.64818,197.7905)">
      <ellipse
         style="opacity:1;fill:#000000;fill-opacity:1;stroke-width:10;stroke-dasharray:none"
         id="path2243-8"
         cx="142.05225"
         cy="552.76117"
         rx="32.574627"
         ry="56.417912" />
      <ellipse
         style="opacity:1;fill:#ffffff;fill-opacity:1;stroke-width:10;stroke-dasharray:none"
         id="path2299-7"
         cx="147.08955"
         cy="530.59705"
         rx="14.776119"
         ry="23.507463" />
    </a>
  </g>
</svg>
