<?xml version="1.0" encoding="utf-8"?>
<!-- Generator: Adobe Illustrator 26.1.0, SVG Export Plug-In . SVG Version: 6.00 Build 0)  -->
<svg version="1.1"
	 id="svg189" sodipodi:docname="Mante-ailette modif.svg" xmlns:inkscape="http://www.inkscape.org/namespaces/inkscape" xmlns:sodipodi="http://sodipodi.sourceforge.net/DTD/sodipodi-0.dtd" xmlns:svg="http://www.w3.org/2000/svg"
	 xmlns="http://www.w3.org/2000/svg" xmlns:xlink="http://www.w3.org/1999/xlink" x="0px" y="0px" viewBox="0 0 960 720"
	 style="enable-background:new 0 0 960 720;" xml:space="preserve">
<style type="text/css">
	.st0{clip-path:url(#SVGID_00000150808803891437478890000013750896972618334893_);}
	.st1{fill:none;stroke:#000000;stroke-width:12;stroke-linejoin:round;}
	.st2{fill:none;stroke:#000000;stroke-width:6;stroke-linejoin:round;}
	.st3{fill:none;stroke:#000000;stroke-width:6;stroke-linecap:round;stroke-linejoin:round;}
	.st4{fill-rule:evenodd;clip-rule:evenodd;}
	.st5{fill:none;stroke:#000000;stroke-width:12;stroke-linecap:round;stroke-linejoin:round;}
</style>
<sodipodi:namedview  bordercolor="#eeeeee" borderopacity="1" id="namedview98" inkscape:current-layer="svg189" inkscape:cx="522.37471" inkscape:cy="446.92059" inkscape:deskcolor="#505050" inkscape:pagecheckerboard="0" inkscape:pageopacity="0" inkscape:showpageshadow="0" inkscape:window-height="1186" inkscape:window-maximized="1" inkscape:window-width="1920" inkscape:window-x="-11" inkscape:window-y="-11" inkscape:zoom="1.2060308" pagecolor="#505050" showgrid="false">
	</sodipodi:namedview>
<g id="g64">
	<g>
		<defs>
			<rect id="SVGID_1_" x="-86.4" y="-9.6" width="960" height="720"/>
		</defs>
		<clipPath id="SVGID_00000118399027044710565870000015097516796696655749_">
			<use xlink:href="#SVGID_1_"  style="overflow:visible;"/>
		</clipPath>
		<g id="g62" style="clip-path:url(#SVGID_00000118399027044710565870000015097516796696655749_);">
			<g id="g187">
				<path id="path109" sodipodi:nodetypes="cccssascscc" class="st1" d="M840.4,500.3c0,88.6-102,90.8-147.9,93.4
					c-57.1,3.1-187.4-3.9-260.2-22.5c-35.1-8.9-92.1-57.5-131.4-94.2c-51.3-47.9-97.4-66-123.8-93.6
					c-53.9-56.2-52.1-115.6-19.3-156.8c30.6-38.4,103.5-38.9,146.5-15.1c52.3,28.9,53.2,89.7,74.6,135.9
					c10.8,22.9,55.5,50.2,76.1,50.6c31.7,0.6,84.6-33.7,167.8-30.3c86.7,3.6,264.3,66.8,242.1,108"/>
			</g>
		</g>
	</g>
</g>
<path id="path165" class="st2" d="M217.8,194.1c-27.6-111.7-51.9-56.5-64.8-36.9"/>
<path id="path169" class="st2" d="M263.6,196.6c6.1-36.1,23.1-114.9-35.7-89.9"/>
<path id="path173" class="st2" d="M137,167.1L137,167.1c-0.7-6.2,4-11.8,10.5-12.5l0,0c3.1-0.4,6.3,0.5,8.8,2.3
	c2.4,1.7,4.1,4.5,4.4,7.4l0,0c0.7,6.2-4,11.8-10.6,12.5l0,0C143.7,177.5,137.8,173.2,137,167.1L137,167.1z"/>
<path id="path177" class="st2" d="M207.7,116L207.7,116c-0.7-6.2,4-11.8,10.6-12.5l0,0c3.1-0.4,6.2,0.5,8.8,2.3
	c2.4,1.7,4.1,4.5,4.4,7.4l0,0c0.7,6.2-4,11.8-10.6,12.5l0,0C214.3,126.5,208.4,122.2,207.7,116z"/>
<path id="path113_00000129899965722277446160000008314603074660070016_" class="st3" d="M207.2,228.9c16.4-1.4,15.3,27.4,15.5,30.6"
	/>
<path id="path113" class="st3" d="M189.3,256.4c0.6-8.5,1.2-26.1,17.9-27.5"/>
<path id="path117_00000101812864381493883400000018273446344179540906_" class="st3" d="M257.4,232.3c17.9,0,16.4,20.8,15.3,28.6"/>
<path id="path117" class="st3" d="M242.4,260.6c0.8-9.5,0.6-28.2,15-28.3"/>
<path id="path121_00000040545423707971289020000012794493072920168853_" class="st3" d="M192.7,285.9c1.4,110.1,90.8,67.4,74.3,2.8"
	/>
<path id="path123" class="st4" d="M302.6,286.1c0,6.6-5.3,12-11.9,12.1l0,0l0,0c-6.6,0-12-5.4-12-12l0,0l0,0c0-6.6,5.3-12,11.9-12.1
	l0,0l0,0c3.2,0,6.2,1.3,8.5,3.5"/>
<path id="path125" class="st4" d="M161.9,277.6c0-6.2,5.4-11.2,12-11.2l0,0c3.1,0,6.2,1.2,8.5,3.3c2.2,2,3.5,4.9,3.5,7.9l0,0
	c0,6.2-5.4,11.2-12,11.2l0,0C167.3,288.8,161.9,283.8,161.9,277.6"/>
<path id="path77" class="st3" d="M314,484.5c0,0-79.1,151.3-122.4,57.1"/>
<path id="path79" class="st3" d="M274.8,450.1c0,0-139.6-45.4-99.7,55"/>
<path id="path81" class="st3" d="M431.6,573.9c-52.3,59.8-56.4,84.6-8.3,116.9"/>
<path id="path83" class="st3" d="M465,581.1c-52.3,59.8-30.3,64-8.3,116.9"/>
<path id="path85" class="st3" d="M592.9,595.6c-52.3,59.8-37.1,64.7-0.3,106.3"/>
<path id="path87" class="st3" d="M635.2,595.9c-24.8,26.1-85.3,90.8,17.2,108"/>
<path id="path89" class="st1" d="M836.8,532.6"/>
<path id="path91" class="st1" d="M436.4,397.8"/>
<path id="path93" sodipodi:nodetypes="ccc" class="st5" d="M462.1,399.4c64,42.6,94.4,67.9,169,87.2
	c114.8,28.8,211.7,39.2,235.4-14.3"/>
<path id="path95" class="st1" d="M480.9,393.4c91.7-29.8,166.4-40.7,189.9-42.2c29.4-1.8,89.4,0.9,131.6,27.5
	c61.5,38.8,57.8,73.4,57.8,73.4"/>
</svg>
