<?xml version="1.0" encoding="UTF-8" standalone="no"?>
<svg
   version="1.1"
   viewBox="0.0 0.0 960.0 720.0"
   fill="none"
   stroke="none"
   stroke-linecap="square"
   stroke-miterlimit="10"
   id="svg189"
   sodipodi:docname="papillon.svg"
   inkscape:version="1.2.1 (9c6d41e410, 2022-07-14)"
   xmlns:inkscape="http://www.inkscape.org/namespaces/inkscape"
   xmlns:sodipodi="http://sodipodi.sourceforge.net/DTD/sodipodi-0.dtd"
   xmlns="http://www.w3.org/2000/svg"
   xmlns:svg="http://www.w3.org/2000/svg">
  <defs
     id="defs193" />
  <sodipodi:namedview
     id="namedview191"
     pagecolor="#009a0c"
     bordercolor="#000000"
     borderopacity="0.25"
     inkscape:showpageshadow="2"
     inkscape:pageopacity="1"
     inkscape:pagecheckerboard="0"
     inkscape:deskcolor="#d1d1d1"
     showgrid="false"
     inkscape:zoom="1.4888889"
     inkscape:cx="426.82836"
     inkscape:cy="372.76119"
     inkscape:window-width="2160"
     inkscape:window-height="1346"
     inkscape:window-x="-11"
     inkscape:window-y="-11"
     inkscape:window-maximized="1"
     inkscape:current-layer="g187" />
  <clipPath
     id="p.0">
    <path
       d="m0 0l960.0 0l0 720.0l-960.0 0l0 -720.0z"
       clip-rule="nonzero"
       id="path102" />
  </clipPath>
  <g
     clip-path="url(#p.0)"
     id="g187">
    <path
       fill="#000000"
       fill-opacity="0.0"
       d="m0 0l960.0 0l0 720.0l-960.0 0z"
       fill-rule="evenodd"
       id="path105" />
    <path
       stroke="#000000"
       stroke-width="12"
       stroke-linejoin="round"
       stroke-linecap="butt"
       d="m 283.8852,466.67136 c 5.75748,-29.30273 19.36536,-64.20648 73.3287,-82.95355 53.96332,-18.74707 151.72116,56.03408 219.5558,76.59059 30.392,9.20995 228.5982,40.12065 226.31489,64.72578 -2.28331,24.60513 -37.39984,60.61695 -90.64392,74.5611 -53.24408,13.94416 -163.85858,15.78071 -228.82056,9.10389 -64.96194,-6.67682 -127.66199,-25.4936 -160.95114,-49.16486 -33.28915,-23.67133 -44.54126,-63.56018 -38.78378,-92.86295 z"
       fill-rule="evenodd"
       id="path109"
       sodipodi:nodetypes="ssszsssss"
       style="fill:#ffffff;fill-opacity:1" />
    <path
       fill="#000000"
       fill-opacity="0"
       d="m 311.85132,452.02252 c 1.92969,-3.82452 6.64734,-18.72037 11.57806,-22.94714 4.93073,-4.22678 14.79068,-6.84244 18.00629,-2.41349 3.21564,4.42896 1.07288,24.15601 1.28745,28.98722"
       fill-rule="evenodd"
       id="path111"
       sodipodi:nodetypes="cssc" />
    <path
       stroke="#000000"
       stroke-width="8"
       stroke-linejoin="round"
       stroke-linecap="butt"
       d="m 317.8961,450.00759 c 2.96455,-10.35117 7.46385,-18.54231 16.82315,-17.30092 9.3593,1.24138 7.7893,18.11123 8.00387,22.94244"
       fill-rule="evenodd"
       id="path113"
       sodipodi:nodetypes="czc"
       style="stroke-width:6;stroke-dasharray:none;stroke-linecap:round" />
    <path
       fill="#000000"
       fill-opacity="0"
       d="m 372.67657,458.06192 c 0.35715,-5.63641 -1.64456,-27.77976 2.14276,-33.81842 3.78732,-6.03864 16.15091,-7.98294 20.58121,-2.41348 4.4303,5.56949 5.00049,29.85864 6.00058,35.83035"
       fill-rule="evenodd"
       id="path115"
       sodipodi:nodetypes="cssc" />
    <path
       stroke="#000000"
       stroke-width="12"
       stroke-linejoin="round"
       stroke-linecap="butt"
       d="m 372.67657,458.06192 c 0.35715,-5.63641 4.11295,-24.25858 12.88903,-24.41544 8.77608,-0.15686 10.92899,5.11816 13.14895,19.98404"
       fill-rule="evenodd"
       id="path117"
       sodipodi:nodetypes="czc"
       style="opacity:1;stroke-width:6;stroke-linecap:round;stroke-dasharray:none" />
    <path
       fill="#000000"
       fill-opacity="0"
       d="m 311.71338,483.02487 c 1.3992,5.9447 1.94208,26.82358 8.39523,35.66818 6.45316,8.84461 20.30963,17.13611 30.3237,17.39954 10.01407,0.26343 23.422,-7.64612 29.76068,-15.81903 6.33869,-8.17292 6.89286,-27.68207 8.27143,-33.21851"
       fill-rule="evenodd"
       id="path119"
       sodipodi:nodetypes="csssc" />
    <path
       stroke="#000000"
       stroke-width="8"
       stroke-linejoin="round"
       stroke-linecap="butt"
       d="m 326.4895,489.74129 c 2.84134,10.70484 11.25815,33.21593 26.62938,32.91846 15.37123,-0.29746 21.36609,-15.95412 23.25599,-30.23157"
       fill-rule="evenodd"
       id="path121"
       sodipodi:nodetypes="czc"
       style="stroke-width:6;stroke-dasharray:none;stroke-linecap:round" />
    <path
       fill="#999999"
       d="m 388.0537,474.70975 v 0 c 0,-6.6709 5.35144,-12.07874 11.95276,-12.07874 v 0 c 3.17007,0 6.2103,1.27259 8.45187,3.53779 2.24158,2.26519 3.50089,5.33746 3.50089,8.54095 v 0 c 0,6.6709 -5.35144,12.07874 -11.95276,12.07874 v 0 c -6.60132,0 -11.95276,-5.40784 -11.95276,-12.07874 z"
       fill-rule="evenodd"
       id="path123"
       sodipodi:nodetypes="ssssssssss"
       style="fill:#000000;fill-opacity:1" />
    <path
       fill="#999999"
       d="m 295.13354,469.33957 v 0 c 0,-6.20123 5.35144,-11.22833 11.95276,-11.22833 v 0 c 3.17007,0 6.2103,1.18298 8.45187,3.28869 2.24158,2.10572 3.50089,4.9617 3.50089,7.93964 v 0 c 0,6.20126 -5.35144,11.22836 -11.95276,11.22836 v 0 c -6.60132,0 -11.95276,-5.0271 -11.95276,-11.22836 z"
       fill-rule="evenodd"
       id="path125"
       sodipodi:nodetypes="ssssssssss"
       style="fill:#000000;fill-opacity:1" />
    <path
       fill="#000000"
       fill-opacity="0"
       d="m 405.50818,596.0346 c 0.56152,13.24109 -4.86679,61.28394 3.36929,79.44653 8.23606,18.16254 38.37259,24.6073 46.04709,29.52875"
       fill-rule="evenodd"
       id="path139"
       sodipodi:nodetypes="csc" />
    <path
       stroke="#000000"
       stroke-width="8"
       stroke-linejoin="round"
       stroke-linecap="butt"
       d="m 405.50818,596.0346 c 0.56152,13.24109 -1.50858,51.88095 6.7275,70.04354 8.23606,18.16254 37.70095,33.33865 45.37545,38.2601"
       fill-rule="evenodd"
       id="path141"
       sodipodi:nodetypes="csc"
       style="stroke-width:6;stroke-dasharray:none;stroke-linecap:round" />
    <path
       fill="#000000"
       fill-opacity="0"
       d="m 389.78336,587.5981 c -1.49747,13.59265 -16.47214,64.79932 -8.9848,81.55573 7.48733,16.7564 44.92398,15.81903 53.90878,18.98278"
       fill-rule="evenodd"
       id="path143"
       sodipodi:nodetypes="csc" />
    <path
       stroke="#000000"
       stroke-width="8"
       stroke-linejoin="round"
       stroke-linecap="butt"
       d="m 389.78336,587.5981 c -1.49747,13.59265 -16.47214,64.79932 -8.9848,81.55573 7.48733,16.7564 26.11801,29.25187 35.10281,32.41562"
       fill-rule="evenodd"
       id="path145"
       sodipodi:nodetypes="csc"
       style="stroke-width:6;stroke-dasharray:none;stroke-linecap:round" />
    <path
       fill="#000000"
       fill-opacity="0"
       d="m 483.0011,609.7439 c -0.56155,10.95612 -8.79764,49.15607 -3.36932,65.73669 5.42831,16.58069 29.94934,28.12268 35.93921,33.7472"
       fill-rule="evenodd"
       id="path147"
       sodipodi:nodetypes="csc" />
    <path
       stroke="#000000"
       stroke-width="8"
       stroke-linejoin="round"
       stroke-linecap="butt"
       d="m 483.0011,609.7439 c -0.56155,10.95612 2.62027,46.4695 8.04859,63.05012 5.42831,16.58069 35.99412,28.12268 41.98399,33.7472"
       fill-rule="evenodd"
       id="path149"
       sodipodi:nodetypes="csc"
       style="stroke-width:6;stroke-dasharray:none;stroke-linecap:round" />
    <path
       fill="#000000"
       fill-opacity="0"
       d="m 516.69495,610.79846 c 3.74371,12.53802 12.16693,58.47168 22.46204,75.22809 10.29504,16.75647 32.75708,21.09204 39.30847,25.31042"
       fill-rule="evenodd"
       id="path151"
       sodipodi:nodetypes="csc" />
    <path
       stroke="#000000"
       stroke-width="8"
       stroke-linejoin="round"
       stroke-linecap="butt"
       d="m 516.69495,610.79846 c 3.74371,12.53802 -18.81323,44.25636 2.98443,61.79525 21.79765,17.53889 32.08544,19.07712 41.32339,24.63878"
       fill-rule="evenodd"
       id="path153"
       sodipodi:nodetypes="czc"
       style="stroke-width:6;stroke-dasharray:none;stroke-linecap:round" />
    <path
       fill="#000000"
       fill-opacity="0"
       d="m 634.6211,607.63477 c 1.87183,9.19843 -1.06067,40.77783 11.23102,55.19074 12.29168,14.41284 52.09936,26.07202 62.51922,31.28643"
       fill-rule="evenodd"
       id="path155"
       sodipodi:nodetypes="csc" />
    <path
       stroke="#000000"
       stroke-width="8"
       stroke-linejoin="round"
       stroke-linecap="butt"
       d="m 634.6211,607.63477 c 1.87183,9.19843 -1.06067,40.77783 11.23102,55.19074 12.29168,14.41284 54.78593,4.57948 65.20579,9.79389"
       fill-rule="evenodd"
       id="path157"
       sodipodi:nodetypes="csc"
       style="stroke-width:6;stroke-dasharray:none;stroke-linecap:round" />
    <path
       fill="#000000"
       fill-opacity="0"
       d="m 650.3446,606.5802 c 5.92749,10.54602 21.33887,50.56219 35.56482,63.276 14.22595,12.71381 41.49231,10.83893 49.79077,13.00671"
       fill-rule="evenodd"
       id="path159"
       sodipodi:nodetypes="csc" />
    <path
       stroke="#000000"
       stroke-width="8"
       stroke-linejoin="round"
       stroke-linecap="butt"
       d="m 650.3446,606.5802 c 5.92749,10.54602 3.20454,46.53234 17.43049,59.24615 14.22595,12.71381 34.10425,24.27176 42.40271,26.43954"
       fill-rule="evenodd"
       id="path161"
       sodipodi:nodetypes="csc"
       style="stroke-width:6;stroke-dasharray:none;stroke-linecap:round" />
    <path
       fill="#000000"
       fill-opacity="0"
       d="m 340.36676,386.53207 c -2.05902,-8.78833 -4.6796,-37.96561 -12.35409,-52.73001 -7.67453,-14.7644 -18.90552,-27.59537 -33.693,-35.85638 -14.7875,-8.26105 -45.85992,-11.42484 -55.0319,-13.70981"
       fill-rule="evenodd"
       id="path163"
       sodipodi:nodetypes="cssc" />
    <path
       stroke="#000000"
       stroke-width="8"
       stroke-linejoin="round"
       stroke-linecap="butt"
       d="m 340.36676,386.53207 c -5.0088,-35.8687 -15.66226,-71.09991 -46.04709,-88.58639 -14.7875,-8.26105 -43.17335,-4.70842 -53.01697,-1.62026"
       fill-rule="evenodd"
       id="path165"
       sodipodi:nodetypes="ccc"
       style="stroke-width:6;stroke-dasharray:none" />
    <path
       fill="#000000"
       fill-opacity="0"
       d="m 369.75607,383.36887 c -2.8613,-8.76389 -8.69098,-37.84335 -17.16779,-52.58331 -8.4768,-14.73996 -16.86862,-32.31662 -33.69302,-35.85639 -16.82437,-3.53979 -56.04443,12.1814 -67.25334,14.61768"
       fill-rule="evenodd"
       id="path167"
       sodipodi:nodetypes="cssc" />
    <path
       stroke="#000000"
       stroke-width="8"
       stroke-linejoin="round"
       stroke-linecap="butt"
       d="m 356.99488,384.04051 c 3.63808,-33.93757 3.85636,-60.21586 -5.18917,-81.72328 -9.04552,-21.50741 -32.53697,-48.93801 -40.38767,-58.59128"
       fill-rule="evenodd"
       id="path169"
       sodipodi:nodetypes="czc"
       style="stroke-width:6;stroke-dasharray:none" />
    <path
       fill="#000000"
       fill-opacity="0"
       d="m 215.37534,283.1859 v 0 c 0,-6.20126 5.35142,-11.22836 11.95274,-11.22836 v 0 c 3.17008,0 6.2103,1.18298 8.45188,3.28872 2.24158,2.10572 3.50088,4.9617 3.50088,7.93964 v 0 c 0,6.20123 -5.35142,11.22833 -11.95276,11.22833 v 0 c -6.60131,0 -11.95274,-5.0271 -11.95274,-11.22833 z"
       fill-rule="evenodd"
       id="path171"
       sodipodi:nodetypes="ssssssssss" />
    <path
       stroke="#000000"
       stroke-width="4"
       stroke-linejoin="round"
       stroke-linecap="butt"
       d="m 217.39027,299.3053 v 0 c 0,-6.20126 5.35142,-11.22836 11.95274,-11.22836 v 0 c 3.17008,0 6.2103,1.18298 8.45188,3.28872 2.24158,2.10572 3.50088,4.9617 3.50088,7.93964 v 0 c 0,6.20123 -5.35142,11.22833 -11.95276,11.22833 v 0 c -6.60131,0 -11.95274,-5.0271 -11.95274,-11.22833 z"
       fill-rule="evenodd"
       id="path173"
       sodipodi:nodetypes="ssssssssss"
       style="stroke-width:6;stroke-dasharray:none;fill:#ffffff;fill-opacity:1" />
    <path
       fill="#000000"
       fill-opacity="0"
       d="m 230.30292,312.71362 v 0 c 0,-6.20123 5.35142,-11.22833 11.95274,-11.22833 v 0 c 3.17008,0 6.21032,1.18298 8.45189,3.28869 2.24156,2.10575 3.50087,4.9617 3.50087,7.93964 v 0 c 0,6.20126 -5.35142,11.22836 -11.95276,11.22836 v 0 c -6.60131,0 -11.95274,-5.0271 -11.95274,-11.22836 z"
       fill-rule="evenodd"
       id="path175"
       sodipodi:nodetypes="ssssssssss" />
    <path
       stroke="#000000"
       stroke-width="13.6192"
       stroke-linejoin="round"
       stroke-linecap="butt"
       d="M 432.41204,390.25295 C 419.61249,355.75362 331.46343,145.40154 493.29249,121.81266 655.12154,98.223752 661.82533,314.35867 660.22135,328.13962 c -1.60399,13.78096 64.8947,-118.05481 160.89609,-15.56308 96.0014,102.49173 -73.19075,174.10477 -98.7237,179.39476 -46.82511,6.61158 -277.18216,-67.21903 -289.9817,-101.71835 z"
       fill-rule="evenodd"
       id="path109-0"
       sodipodi:nodetypes="zzzzcz"
       style="fill:#ffffff;fill-opacity:1;stroke-width:12;stroke-dasharray:none" />
    <path
       fill="#999999"
       d="m 697.97261,385.2609 v 0 c 0,-27.95875 22.42869,-50.62381 50.09581,-50.62381 v 0 c 13.28624,0 26.02831,5.33361 35.42306,14.82741 9.3948,9.49374 14.67275,22.37009 14.67275,35.7964 v 0 c 0,27.95874 -22.42869,50.62381 -50.09581,50.62381 v 0 c -27.66712,0 -50.09581,-22.66507 -50.09581,-50.62381 z"
       fill-rule="evenodd"
       id="path123-6"
       sodipodi:nodetypes="ssssssssss"
       style="fill:#000000;fill-opacity:1;stroke-width:4.19115" />
    <path
       stroke="#000000"
       stroke-width="4"
       stroke-linejoin="round"
       stroke-linecap="butt"
       d="m 290.75068,235.47481 v 0 c 0,-6.20123 5.35142,-11.22833 11.95274,-11.22833 v 0 c 3.17008,0 6.21032,1.18298 8.45189,3.28869 2.24156,2.10575 3.50087,4.9617 3.50087,7.93964 v 0 c 0,6.20126 -5.35142,11.22836 -11.95276,11.22836 v 0 c -6.60131,0 -11.95274,-5.0271 -11.95274,-11.22836 z"
       fill-rule="evenodd"
       id="path177"
       sodipodi:nodetypes="ssssssssss"
       style="stroke-width:6;stroke-dasharray:none;fill:#ffffff;fill-opacity:1" />
    <a
       id="a451"
       transform="translate(-10.746269,-3.358209)"
       style="fill:#000000;fill-opacity:0">
      <path
         fill="#f3f3f3"
         d="m 477.99884,352.83533 c -27.02637,-71.47568 -55.69412,-148.48083 -38.70606,-224.0105 6.23362,-26.1133 17.50263,-43.221344 37.40158,-51.325455 19.89896,-8.104111 64.01096,-9.005249 81.99216,2.700783 17.98114,11.706039 24.2165,38.720472 25.89496,67.535442 -21.3969,47.2447 2.62442,190.78233 -40.08136,207.59841 -39.5198,9.4719 -62.85726,7.21619 -66.50128,-2.49868 z"
         fill-rule="evenodd"
         id="path179"
         sodipodi:nodetypes="ccssccc"
         style="fill:#000000;fill-opacity:0" />
    </a>
    <path
       fill="#999999"
       d="m 463.71016,265.2985 v 0 c 0,-33.89375 27.18978,-61.37008 60.73,-61.37008 v 0 c 16.1066,0 31.55352,6.46581 42.94256,17.97493 11.3891,11.50904 17.78743,27.11874 17.78743,43.39515 v 0 c 0,33.89373 -27.18978,61.37008 -60.72999,61.37008 v 0 c -33.54022,0 -60.73,-27.47635 -60.73,-61.37008 z"
       fill-rule="evenodd"
       id="path123-6-2"
       sodipodi:nodetypes="ssssssssss"
       style="fill:#000000;fill-opacity:1;stroke-width:5.08083" />
  </g>
  <g
     inkscape:groupmode="layer"
     id="layer1"
     inkscape:label="Layer 1"
     style="display:none">
    <a
       id="a2303"
       transform="matrix(0.43298969,0,0,0.42857144,317.29883,205.04262)">
      <ellipse
         style="opacity:1;fill:#000000;fill-opacity:1;stroke-width:10;stroke-dasharray:none"
         id="path2243"
         cx="142.05225"
         cy="552.76117"
         rx="32.574627"
         ry="56.417912" />
      <ellipse
         style="opacity:1;fill:#ffffff;fill-opacity:1;stroke-width:10;stroke-dasharray:none"
         id="path2299"
         cx="147.08955"
         cy="530.59705"
         rx="14.776119"
         ry="23.507463" />
    </a>
    <a
       id="a2303-5"
       transform="matrix(0.48453609,0,0,0.4404762,265.64818,197.7905)">
      <ellipse
         style="opacity:1;fill:#000000;fill-opacity:1;stroke-width:10;stroke-dasharray:none"
         id="path2243-8"
         cx="142.05225"
         cy="552.76117"
         rx="32.574627"
         ry="56.417912" />
      <ellipse
         style="opacity:1;fill:#ffffff;fill-opacity:1;stroke-width:10;stroke-dasharray:none"
         id="path2299-7"
         cx="147.08955"
         cy="530.59705"
         rx="14.776119"
         ry="23.507463" />
    </a>
  </g>
</svg>
