<?xml version="1.0" encoding="UTF-8" standalone="no"?>
<svg
   version="1.1"
   viewBox="0.0 0.0 960.0 720.0"
   fill="none"
   stroke="none"
   stroke-linecap="square"
   stroke-miterlimit="10"
   id="svg189"
   sodipodi:docname="pape de nuit.svg"
   inkscape:version="1.2.1 (9c6d41e410, 2022-07-14)"
   xmlns:inkscape="http://www.inkscape.org/namespaces/inkscape"
   xmlns:sodipodi="http://sodipodi.sourceforge.net/DTD/sodipodi-0.dtd"
   xmlns="http://www.w3.org/2000/svg"
   xmlns:svg="http://www.w3.org/2000/svg">
  <defs
     id="defs193" />
  <sodipodi:namedview
     id="namedview191"
     pagecolor="#ffffff"
     bordercolor="#000000"
     borderopacity="0.25"
     inkscape:showpageshadow="2"
     inkscape:pageopacity="0.0"
     inkscape:pagecheckerboard="0"
     inkscape:deskcolor="#d1d1d1"
     showgrid="false"
     inkscape:zoom="1.0528034"
     inkscape:cx="475.87231"
     inkscape:cy="486.3206"
     inkscape:window-width="1920"
     inkscape:window-height="1186"
     inkscape:window-x="-11"
     inkscape:window-y="-11"
     inkscape:window-maximized="1"
     inkscape:current-layer="g187" />
  <clipPath
     id="p.0">
    <path
       d="m0 0l960.0 0l0 720.0l-960.0 0l0 -720.0z"
       clip-rule="nonzero"
       id="path102" />
  </clipPath>
  <g
     clip-path="url(#p.0)"
     id="g187">
    <path
       stroke="#000000"
       stroke-width="11.2469"
       stroke-linejoin="round"
       stroke-linecap="butt"
       d="m 283.35637,464.81245 c 5.14607,-28.79827 17.30887,-63.10114 65.54159,-81.52548 48.23271,-18.42433 135.60919,55.06943 196.24016,75.27206 27.16453,9.05139 204.3223,39.42996 202.28147,63.61151 -2.04084,24.18154 -33.42818,59.57341 -81.01803,73.27751 -47.58984,13.7041 -146.45767,15.50903 -204.52105,8.94715 -58.06333,-6.56187 -114.10498,-25.05472 -143.85899,-48.31846 -29.75403,-23.26383 -39.81122,-62.46597 -34.66515,-91.26429 z"
       fill-rule="evenodd"
       id="path109"
       sodipodi:nodetypes="ssszsssss" />
    <path
       fill="#000000"
       fill-opacity="0"
       d="m 311.85132,452.02252 c 1.92969,-3.82452 6.64734,-18.72037 11.57806,-22.94714 4.93073,-4.22678 14.79068,-6.84244 18.00629,-2.41349 3.21564,4.42896 1.07288,24.15601 1.28745,28.98722"
       fill-rule="evenodd"
       id="path111"
       sodipodi:nodetypes="cssc" />
    <path
       stroke="#000000"
       stroke-width="8"
       stroke-linejoin="round"
       stroke-linecap="butt"
       d="m 315.21448,444.31551 c 4.62677,8.40827 9.56901,13.86846 16.82315,13.8065 5.05882,-0.0432 9.68899,-5.15997 11.56578,-9.82721"
       fill-rule="evenodd"
       id="path113"
       sodipodi:nodetypes="cac"
       style="stroke-width:6;stroke-linecap:round;stroke-dasharray:none" />
    <path
       fill="#000000"
       fill-opacity="0"
       d="m 372.67657,458.06192 c 0.35715,-5.63641 -1.64456,-27.77976 2.14276,-33.81842 3.78732,-6.03864 16.15091,-7.98294 20.58121,-2.41348 4.4303,5.56949 5.00049,29.85864 6.00058,35.83035"
       fill-rule="evenodd"
       id="path115"
       sodipodi:nodetypes="cssc" />
    <path
       stroke="#000000"
       stroke-width="12"
       stroke-linejoin="round"
       stroke-linecap="butt"
       d="m 365.42556,447.99718 c 0.59461,6.94904 5.45688,9.82443 10.27696,10.2539 8.00031,0.71284 16.62806,-5.80506 19.79787,-13.73546"
       fill-rule="evenodd"
       id="path117"
       sodipodi:nodetypes="cac"
       style="opacity:1;stroke-width:6;stroke-linecap:round;stroke-dasharray:none" />
    <path
       fill="#000000"
       fill-opacity="0"
       d="m 311.71338,483.02487 c 1.3992,5.9447 1.94208,26.82358 8.39523,35.66818 6.45316,8.84461 20.30963,17.13611 30.3237,17.39954 10.01407,0.26343 23.422,-7.64612 29.76068,-15.81903 6.33869,-8.17292 6.89286,-27.68207 8.27143,-33.21851"
       fill-rule="evenodd"
       id="path119"
       sodipodi:nodetypes="csssc" />
    <path
       stroke="#000000"
       stroke-width="8"
       stroke-linejoin="round"
       stroke-linecap="butt"
       d="m 320.31551,491.16606 c -0.4991,9.03462 18.23551,18.0764 29.95384,18.43332 12.64259,0.38507 32.05184,-5.50582 33.46682,-17.88358"
       fill-rule="evenodd"
       id="path121"
       sodipodi:nodetypes="cac"
       style="stroke-width:6;stroke-linecap:round;stroke-dasharray:none" />
    <path
       fill="#999999"
       d="m 389.39698,473.19856 v 0 c 0,-6.6709 5.35144,-12.07874 11.95276,-12.07874 v 0 c 3.17007,0 6.2103,1.27259 8.45187,3.53779 2.24158,2.26519 3.50089,5.33746 3.50089,8.54095 v 0 c 0,6.6709 -5.35144,12.07874 -11.95276,12.07874 v 0 c -6.60132,0 -11.95276,-5.40784 -11.95276,-12.07874 z"
       fill-rule="evenodd"
       id="path123"
       sodipodi:nodetypes="ssssssssss"
       style="fill:#000000;fill-opacity:1" />
    <path
       stroke="#000000"
       stroke-width="13.6192"
       stroke-linejoin="round"
       stroke-linecap="butt"
       d="m 448.66354,425.68112 c -88.32038,-39.88443 226.71214,-130.31484 397.05999,-141.43811 54.63098,-3.56726 58.23136,91.06629 42.65681,135.51635 -17.31854,49.42737 -90.6445,40.93714 -139.39784,42.80416 -102.47299,3.92424 -259.82449,-12.87963 -300.31896,-36.8824 z"
       fill-rule="evenodd"
       id="path109-0-7"
       sodipodi:nodetypes="csssc"
       style="fill:#ffffff;fill-opacity:1;stroke-width:11.1299;stroke-dasharray:none"
       inkscape:transform-center-x="9.925045"
       inkscape:transform-center-y="-40.540924" />
    <path
       fill="#999999"
       d="m 296.141,470.68285 v 0 c 0,-6.20123 5.35144,-11.22833 11.95276,-11.22833 v 0 c 3.17007,0 6.2103,1.18298 8.45187,3.28869 2.24158,2.10572 3.50089,4.9617 3.50089,7.93964 v 0 c 0,6.20126 -5.35144,11.22836 -11.95276,11.22836 v 0 c -6.60132,0 -11.95276,-5.0271 -11.95276,-11.22836 z"
       fill-rule="evenodd"
       id="path125"
       sodipodi:nodetypes="ssssssssss"
       style="fill:#000000;fill-opacity:1" />
    <path
       fill="#000000"
       fill-opacity="0"
       d="m 405.50818,596.0346 c 0.56152,13.24109 -4.86679,61.28394 3.36929,79.44653 8.23606,18.16254 38.37259,24.6073 46.04709,29.52875"
       fill-rule="evenodd"
       id="path139"
       sodipodi:nodetypes="csc" />
    <path
       stroke="#000000"
       stroke-width="8"
       stroke-linejoin="round"
       stroke-linecap="butt"
       d="m 405.50818,596.0346 c 0.56152,13.24109 -4.86679,52.21677 3.36929,70.37936 8.23606,18.16254 41.05916,33.00283 48.73366,37.92428"
       fill-rule="evenodd"
       id="path141"
       sodipodi:nodetypes="csc"
       style="stroke-width:6;stroke-linecap:round;stroke-dasharray:none" />
    <path
       fill="#000000"
       fill-opacity="0"
       d="m 389.78336,587.5981 c -1.49747,13.59265 -16.47214,64.79932 -8.9848,81.55573 7.48733,16.7564 44.92398,15.81903 53.90878,18.98278"
       fill-rule="evenodd"
       id="path143"
       sodipodi:nodetypes="csc" />
    <path
       stroke="#000000"
       stroke-width="8"
       stroke-linejoin="round"
       stroke-linecap="butt"
       d="m 389.78336,587.5981 c -1.49747,13.59265 -18.48707,60.43365 -10.99973,77.19006 7.48733,16.7564 43.5807,3.39366 52.5655,0.84845"
       fill-rule="evenodd"
       id="path145"
       sodipodi:nodetypes="csc"
       style="stroke-width:6;stroke-linecap:round;stroke-dasharray:none" />
    <path
       fill="#000000"
       fill-opacity="0"
       d="m 483.0011,609.7439 c -0.56155,10.95612 -8.79764,49.15607 -3.36932,65.73669 5.42831,16.58069 29.94934,28.12268 35.93921,33.7472"
       fill-rule="evenodd"
       id="path147"
       sodipodi:nodetypes="csc" />
    <path
       stroke="#000000"
       stroke-width="8"
       stroke-linejoin="round"
       stroke-linecap="butt"
       d="m 483.0011,609.7439 c -0.56155,10.95612 -5.43943,40.0889 8.04859,63.05012 8.83676,15.04319 31.62844,27.78686 45.00637,32.73974"
       fill-rule="evenodd"
       id="path149"
       sodipodi:nodetypes="csc"
       style="stroke-width:6;stroke-linecap:round;stroke-dasharray:none" />
    <path
       fill="#000000"
       fill-opacity="0"
       d="m 516.69495,610.79846 c 3.74371,12.53802 12.16693,58.47168 22.46204,75.22809 10.29504,16.75647 32.75708,21.09204 39.30847,25.31042"
       fill-rule="evenodd"
       id="path151"
       sodipodi:nodetypes="csc" />
    <path
       stroke="#000000"
       stroke-width="8"
       stroke-linejoin="round"
       stroke-linecap="butt"
       d="m 516.69495,610.79846 c -10.36077,9.51563 -18.81323,44.25636 2.98443,61.79525 21.79765,17.53889 32.08544,19.07712 41.32339,24.63878"
       fill-rule="evenodd"
       id="path153"
       sodipodi:nodetypes="czc"
       style="stroke-width:6;stroke-linecap:round;stroke-dasharray:none" />
    <path
       fill="#000000"
       fill-opacity="0"
       d="m 634.6211,607.63477 c 1.87183,9.19843 -1.06067,40.77783 11.23102,55.19074 12.29168,14.41284 52.09936,26.07202 62.51922,31.28643"
       fill-rule="evenodd"
       id="path155"
       sodipodi:nodetypes="csc" />
    <path
       stroke="#000000"
       stroke-width="8"
       stroke-linejoin="round"
       stroke-linecap="butt"
       d="m 625.88976,608.30641 c 3.69666,36.51662 12.04219,76.524 47.22039,95.88015"
       fill-rule="evenodd"
       id="path157"
       sodipodi:nodetypes="cc"
       style="stroke-width:6;stroke-linecap:round;stroke-dasharray:none" />
    <path
       fill="#000000"
       fill-opacity="0"
       d="m 650.3446,606.5802 c 5.92749,10.54602 21.33887,50.56219 35.56482,63.276 14.22595,12.71381 41.49231,10.83893 49.79077,13.00671"
       fill-rule="evenodd"
       id="path159"
       sodipodi:nodetypes="csc" />
    <path
       stroke="#000000"
       stroke-width="8"
       stroke-linejoin="round"
       stroke-linecap="butt"
       d="m 650.3446,606.5802 c 11.73108,28.32195 -57.22648,79.86195 -30.83844,90.38718"
       fill-rule="evenodd"
       id="path161"
       sodipodi:nodetypes="cc"
       style="stroke-width:6;stroke-linecap:round;stroke-dasharray:none" />
    <path
       fill="#000000"
       fill-opacity="0"
       d="m 340.36676,386.53207 c -2.05902,-8.78833 -4.6796,-37.96561 -12.35409,-52.73001 -7.67453,-14.7644 -18.90552,-27.59537 -33.693,-35.85638 -14.7875,-8.26105 -45.85992,-11.42484 -55.0319,-13.70981"
       fill-rule="evenodd"
       id="path163"
       sodipodi:nodetypes="cssc" />
    <path
       stroke="#000000"
       stroke-width="8"
       stroke-linejoin="round"
       stroke-linecap="butt"
       d="m 340.36676,386.53207 c -15.08755,-67.1222 -31.15325,-99.18555 -96.21453,-76.90882"
       fill-rule="evenodd"
       id="path165"
       sodipodi:nodetypes="cc"
       style="stroke-width:6;stroke-dasharray:none" />
    <path
       fill="#000000"
       fill-opacity="0"
       d="m 369.75607,383.36887 c -2.8613,-8.76389 -8.69098,-37.84335 -17.16779,-52.58331 -8.4768,-14.73996 -16.86862,-32.31662 -33.69302,-35.85639 -16.82437,-3.53979 -56.04443,12.1814 -67.25334,14.61768"
       fill-rule="evenodd"
       id="path167"
       sodipodi:nodetypes="cssc" />
    <path
       stroke="#000000"
       stroke-width="8"
       stroke-linejoin="round"
       stroke-linecap="butt"
       d="m 356.99488,384.04051 c 9.1652,-59.20599 -16.10114,-90.99591 -52.79699,-135.94889"
       fill-rule="evenodd"
       id="path169"
       sodipodi:nodetypes="cc"
       style="stroke-width:6;stroke-dasharray:none" />
    <path
       fill="#000000"
       fill-opacity="0"
       d="m 215.37534,283.1859 v 0 c 0,-6.20126 5.35142,-11.22836 11.95274,-11.22836 v 0 c 3.17008,0 6.2103,1.18298 8.45188,3.28872 2.24158,2.10572 3.50088,4.9617 3.50088,7.93964 v 0 c 0,6.20123 -5.35142,11.22833 -11.95276,11.22833 v 0 c -6.60131,0 -11.95274,-5.0271 -11.95274,-11.22833 z"
       fill-rule="evenodd"
       id="path171"
       sodipodi:nodetypes="ssssssssss" />
    <path
       stroke="#000000"
       stroke-width="4"
       stroke-linejoin="round"
       stroke-linecap="butt"
       d="m 219.90893,312.57023 v 0 c 0,-6.20126 5.35142,-11.22836 11.95274,-11.22836 v 0 c 3.17008,0 6.2103,1.18298 8.45188,3.28872 2.24158,2.10572 3.50088,4.9617 3.50088,7.93964 v 0 c 0,6.20123 -5.35142,11.22833 -11.95276,11.22833 v 0 c -6.60131,0 -11.95274,-5.0271 -11.95274,-11.22833 z"
       fill-rule="evenodd"
       id="path173"
       sodipodi:nodetypes="ssssssssss"
       style="stroke-width:6;stroke-dasharray:none" />
    <path
       fill="#000000"
       fill-opacity="0"
       d="m 230.30292,312.71362 v 0 c 0,-6.20123 5.35142,-11.22833 11.95274,-11.22833 v 0 c 3.17008,0 6.21032,1.18298 8.45189,3.28869 2.24156,2.10575 3.50087,4.9617 3.50087,7.93964 v 0 c 0,6.20126 -5.35142,11.22836 -11.95276,11.22836 v 0 c -6.60131,0 -11.95274,-5.0271 -11.95274,-11.22836 z"
       fill-rule="evenodd"
       id="path175"
       sodipodi:nodetypes="ssssssssss" />
    <path
       stroke="#000000"
       stroke-width="4"
       stroke-linejoin="round"
       stroke-linecap="butt"
       d="m 282.85889,241.51959 v 0 c 0,-6.20123 5.35142,-11.22833 11.95274,-11.22833 v 0 c 3.17008,0 6.21032,1.18298 8.45189,3.28869 2.24156,2.10575 3.50087,4.9617 3.50087,7.93964 v 0 c 0,6.20126 -5.35142,11.22836 -11.95276,11.22836 v 0 c -6.60131,0 -11.95274,-5.0271 -11.95274,-11.22836 z"
       fill-rule="evenodd"
       id="path177"
       sodipodi:nodetypes="ssssssssss"
       style="stroke-width:6;stroke-dasharray:none" />
    <a
       id="a451"
       transform="translate(-10.746269,-3.358209)"
       style="fill:#000000;fill-opacity:0">
      <path
         fill="#f3f3f3"
         d="m 477.99884,352.83533 c -27.02637,-71.47568 -55.69412,-148.48083 -38.70606,-224.0105 6.23362,-26.1133 17.50263,-43.221344 37.40158,-51.325455 19.89896,-8.104111 64.01096,-9.005249 81.99216,2.700783 17.98114,11.706039 24.2165,38.720472 25.89496,67.535442 -21.3969,47.2447 2.62442,190.78233 -40.08136,207.59841 -39.5198,9.4719 -62.85726,7.21619 -66.50128,-2.49868 z"
         fill-rule="evenodd"
         id="path179"
         sodipodi:nodetypes="ccssccc"
         style="fill:#000000;fill-opacity:0" />
    </a>
    <path
       stroke="#000000"
       stroke-width="13.6192"
       stroke-linejoin="round"
       stroke-linecap="butt"
       d="m 437.67766,418.86503 c -83.98223,-59.72847 260.9259,-98.89917 440.0665,-79.13547 57.45083,6.33827 42.74832,109.58388 17.90529,154.85394 C 868.0246,544.92268 793.50158,522.0232 742.48832,514.93996 635.2653,500.05195 475.06915,452.44575 437.67766,418.86503 Z"
       fill-rule="evenodd"
       id="path109-0"
       sodipodi:nodetypes="csssc"
       style="fill:#ffffff;fill-opacity:1;stroke-width:12;stroke-dasharray:none"
       inkscape:transform-center-x="1.9155404"
       inkscape:transform-center-y="-10.439432" />
    <path
       fill="#999999"
       d="m 834.54522,425.78216 c 2.67539,-18.95989 -15.2685,-57.34252 7.35296,-56.97061 23.86734,2.02846 33.60984,39.06795 31.43078,59.64623 v 0 c -2.70393,22.28718 -25.20193,68.06332 -48.04572,57.78449 -18.59296,-8.36611 6.41321,-40.27164 9.26198,-60.46011 z"
       fill-rule="evenodd"
       id="path123-6"
       sodipodi:nodetypes="accsaa"
       style="display:inline;fill:#000000;fill-opacity:1;stroke-width:3.40065" />
    <path
       fill="#999999"
       d="m 774.35101,422.18317 c 2.12162,-16.22917 -12.10815,-49.08371 5.83101,-48.76536 18.92715,1.7363 26.6531,33.44115 24.92507,51.05563 v 0 c -2.14425,19.07725 -19.9855,58.26044 -38.10097,49.46203 -14.74449,-7.16118 5.08577,-34.47148 7.34489,-51.7523 z"
       fill-rule="evenodd"
       id="path123-6-4"
       sodipodi:nodetypes="accsaa"
       style="display:inline;fill:#000000;fill-opacity:1;stroke-width:2.80177" />
    <path
       fill="#999999"
       d="m 469.40923,301.39261 v 0 c 0,-33.89375 27.18978,-61.37008 60.73,-61.37008 v 0 c 16.1066,0 31.55352,6.46581 42.94256,17.97493 11.3891,11.50904 17.78743,27.11874 17.78743,43.39515 v 0 c 0,33.89373 -27.18978,61.37008 -60.72999,61.37008 v 0 c -33.54022,0 -60.73,-27.47635 -60.73,-61.37008 z"
       fill-rule="evenodd"
       id="path123-6-2"
       sodipodi:nodetypes="ssssssssss"
       style="display:none;fill:#1a1a1a;fill-opacity:1;stroke-width:5.08083" />
    <ellipse
       style="fill:#000000;stroke:#000000;stroke-width:12;stroke-linecap:round"
       id="path2722"
       cx="730.43073"
       cy="416.98193"
       rx="13.297829"
       ry="16.147364" />
  </g>
  <g
     inkscape:groupmode="layer"
     id="layer1"
     inkscape:label="Layer 1"
     style="display:none">
    <a
       id="a2303"
       transform="matrix(0.43298969,0,0,0.42857144,317.29883,205.04262)">
      <ellipse
         style="opacity:1;fill:#000000;fill-opacity:1;stroke-width:10;stroke-dasharray:none"
         id="path2243"
         cx="142.05225"
         cy="552.76117"
         rx="32.574627"
         ry="56.417912" />
      <ellipse
         style="opacity:1;fill:#ffffff;fill-opacity:1;stroke-width:10;stroke-dasharray:none"
         id="path2299"
         cx="147.08955"
         cy="530.59705"
         rx="14.776119"
         ry="23.507463" />
    </a>
    <a
       id="a2303-5"
       transform="matrix(0.48453609,0,0,0.4404762,265.64818,197.7905)">
      <ellipse
         style="opacity:1;fill:#000000;fill-opacity:1;stroke-width:10;stroke-dasharray:none"
         id="path2243-8"
         cx="142.05225"
         cy="552.76117"
         rx="32.574627"
         ry="56.417912" />
      <ellipse
         style="opacity:1;fill:#ffffff;fill-opacity:1;stroke-width:10;stroke-dasharray:none"
         id="path2299-7"
         cx="147.08955"
         cy="530.59705"
         rx="14.776119"
         ry="23.507463" />
    </a>
  </g>
</svg>
