<?xml version="1.0" encoding="utf-8"?>
<!-- Generator: Adobe Illustrator 26.1.0, SVG Export Plug-In . SVG Version: 6.00 Build 0)  -->
<svg version="1.1"
	 id="svg189" sodipodi:docname="rhino beetle-v5.svg" xmlns:inkscape="http://www.inkscape.org/namespaces/inkscape" xmlns:sodipodi="http://sodipodi.sourceforge.net/DTD/sodipodi-0.dtd" xmlns:svg="http://www.w3.org/2000/svg"
	 xmlns="http://www.w3.org/2000/svg" xmlns:xlink="http://www.w3.org/1999/xlink" x="0px" y="0px" viewBox="0 0 960 720"
	 style="enable-background:new 0 0 960 720;" xml:space="preserve">
<style type="text/css">
	.st0{clip-path:url(#SVGID_00000018195617136104245570000005830071978787512247_);}
	.st1{fill-rule:evenodd;clip-rule:evenodd;fill-opacity:0;}
	.st2{fill-rule:evenodd;clip-rule:evenodd;fill:#FFFFFF;}
	.st3{fill:none;stroke:#000000;stroke-width:12;stroke-linejoin:round;stroke-miterlimit:10;}
	.st4{fill:none;stroke:#000000;stroke-width:6;stroke-linecap:round;stroke-linejoin:round;stroke-miterlimit:10;}
	.st5{fill-rule:evenodd;clip-rule:evenodd;}
	
		.st6{fill-rule:evenodd;clip-rule:evenodd;fill:#FFFFFF;stroke:#000000;stroke-width:12;stroke-linejoin:round;stroke-miterlimit:10;}
	.st7{fill:none;stroke:#000000;stroke-width:6;stroke-linejoin:round;stroke-miterlimit:10;}
	.st8{display:none;fill-rule:evenodd;clip-rule:evenodd;}
	.st9{display:none;}
	.st10{display:inline;}
	.st11{display:inline;fill:#FFFFFF;}
</style>
<sodipodi:namedview  bordercolor="#000000" borderopacity="0.25" id="namedview191" inkscape:current-layer="g187" inkscape:cx="393.91791" inkscape:cy="480.89552" inkscape:deskcolor="#d1d1d1" inkscape:pagecheckerboard="0" inkscape:pageopacity="0.0" inkscape:showpageshadow="2" inkscape:window-height="1346" inkscape:window-maximized="1" inkscape:window-width="2160" inkscape:window-x="-11" inkscape:window-y="-11" inkscape:zoom="1.4888889" pagecolor="#ffffff" showgrid="false">
	</sodipodi:namedview>
<g>
	<defs>
		<rect id="SVGID_1_" y="0" width="960" height="720"/>
	</defs>
	<clipPath id="SVGID_00000169521875719088806500000010922189648629500825_">
		<use xlink:href="#SVGID_1_"  style="overflow:visible;"/>
	</clipPath>
	<g id="g187" style="clip-path:url(#SVGID_00000169521875719088806500000010922189648629500825_);">
		<path id="path105" class="st1" d="M0,0h960v720H0V0z"/>
		<path id="path107" sodipodi:nodetypes="ssssssssss" class="st2" d="M283.9,466.7c5.8-29.3,19.4-64.2,73.3-83
			s179.7-33.7,250.5-29.5c70.8,4.2,141.5,26.4,174.1,54.8c32.6,28.5,32.9,84.2,21.3,116c-11.6,31.8-37.4,60.6-90.6,74.6
			s-163.9,15.8-228.8,9.1s-127.7-25.5-161-49.2C289.4,535.9,278.1,496,283.9,466.7z"/>
		<path id="path109" sodipodi:nodetypes="zzzzzzzcsszzz" class="st3" d="M268.5,481.5c-11.1-19.1-33.3-32.9-36.5-58.3
			c-3.2-25.4,32.8-97.9,27.6-52.8s21.3,71,42.9,55.7s25.1-25.5,32.5-37.9c7.4-12.3-31.3-46.5-1.2-40.4c30,6.1,37,31.8,58.3,35.4
			s90.6-8.4,215.6-28.9c52.6,7.2,204.5,95.3,195.4,170.8c-4,33.6-37.4,60.6-90.6,74.6s-168.6,13.8-233.5,7.1s-123.2-17.6-161-49.2
			S279.6,500.6,268.5,481.5L268.5,481.5z"/>
		<path id="path111" sodipodi:nodetypes="cssc" class="st1" d="M311.9,452c1.9-3.8,6.6-18.7,11.6-22.9s14.8-6.8,18-2.4
			c3.2,4.4,1.1,24.2,1.3,29"/>
		<path id="path113" sodipodi:nodetypes="czc" class="st4" d="M317.9,453.4c3-10.4,0.7-22.6,16.8-19.3s7.8,20.1,8,25"/>
		<path id="path115" sodipodi:nodetypes="cssc" class="st1" d="M372.7,458.1c0.4-5.6-1.6-27.8,2.1-33.8c3.8-6,16.2-8,20.6-2.4
			c4.4,5.6,5,29.9,6,35.8"/>
		<path id="path117" sodipodi:nodetypes="czc" class="st4" d="M372.7,458.1c0.4-5.6-1.3-24.9,14.9-25.8
			c16.2-0.8,11.6,10.5,13.8,25.4"/>
		<path id="path119" sodipodi:nodetypes="csssc" class="st1" d="M311.7,483c1.4,5.9,1.9,26.8,8.4,35.7s20.3,17.1,30.3,17.4
			s23.4-7.6,29.8-15.8s6.9-27.7,8.3-33.2"/>
		<path id="path121" sodipodi:nodetypes="czc" class="st4" d="M304.3,493.8c2.8,24.1,19.3,31.2,50.1,28.9s40.8-4.5,46.8-30.9"/>
		<path id="path125" sodipodi:nodetypes="ssssssssss" class="st5" d="M291.1,469.3L291.1,469.3c0-6.2,5.4-11.2,12-11.2l0,0
			c3.2,0,6.2,1.2,8.5,3.3s3.5,5,3.5,7.9l0,0c0,6.2-5.4,11.2-12,11.2l0,0C296.5,480.6,291.1,475.5,291.1,469.3z"/>
		<path id="path163" sodipodi:nodetypes="cssc" class="st1" d="M340.4,386.5c-2.1-8.8-4.7-38-12.4-52.7
			c-7.7-14.8-18.9-27.6-33.7-35.9c-14.8-8.3-45.9-11.4-55-13.7"/>
		<path id="path167" sodipodi:nodetypes="cssc" class="st1" d="M369.8,383.4c-2.9-8.8-8.7-37.8-17.2-52.6s-16.9-32.3-33.7-35.9
			c-16.8-3.5-56,12.2-67.3,14.6"/>
		<path id="path171" sodipodi:nodetypes="ssssssssss" class="st1" d="M215.4,283.2L215.4,283.2c0-6.2,5.4-11.2,12-11.2l0,0
			c3.2,0,6.2,1.2,8.5,3.3c2.2,2.1,3.5,5,3.5,7.9l0,0c0,6.2-5.4,11.2-12,11.2l0,0C220.7,294.4,215.4,289.4,215.4,283.2z"/>
		<path id="path175" sodipodi:nodetypes="ssssssssss" class="st1" d="M230.3,312.7L230.3,312.7c0-6.2,5.4-11.2,12-11.2l0,0
			c3.2,0,6.2,1.2,8.5,3.3c2.2,2.1,3.5,5,3.5,7.9l0,0c0,6.2-5.4,11.2-12,11.2l0,0C235.7,323.9,230.3,318.9,230.3,312.7z"/>
		<path id="path109-0" sodipodi:nodetypes="czcssc" class="st6" d="M395.6,378.1c-15.3-19.5,57-75.6,207.7-56.1
			s250.8,148.1,251.1,223.3c-0.6,15.5-84.4,49.2-137.7,63.1s-243,24.8-285.2-5.7C413,589.4,474.3,418,395.6,378.1L395.6,378.1z"/>
		<a id="a451" transform="translate(-10.746269,-3.358209)">
			<path id="path179" sodipodi:nodetypes="ccssccc" class="st1" d="M478,352.8c-27-71.5-55.7-148.5-38.7-224
				c6.2-26.1,17.5-43.2,37.4-51.3s64-9,82,2.7c18,11.7,24.2,38.7,25.9,67.5c-21.4,47.2,2.6,190.8-40.1,207.6
				C505,364.8,481.6,362.6,478,352.8L478,352.8z"/>
		</a>
		<path id="path145-3" sodipodi:nodetypes="czc" class="st7" d="M854.2,545.2C852.7,558.7,724.3,424,600.1,401
			c-124.3-22.9-167.3-3-177.1,0.8"/>
		<path id="path145-3-2" sodipodi:nodetypes="czc" class="st7" d="M850.9,551c-1.5,13.6-138.6,4.4-252.1-10.5
			c-113.5-14.9-164-43.3-162.4-44.8"/>
		<path id="path139" sodipodi:nodetypes="csc" class="st1" d="M402.5,598.9c0.6,13.2-4.9,61.3,3.4,79.4c8.2,18.2,38.4,24.6,46,29.5"
			/>
		<path id="path141" sodipodi:nodetypes="cc" class="st4" d="M408.5,599.6c15.5,47.1,7.8,65.3-11,92.2"/>
		<path id="path143" sodipodi:nodetypes="csc" class="st1" d="M386.7,590.4c-1.5,13.6-16.5,64.8-9,81.6s44.9,15.8,53.9,19"/>
		<path id="path145" sodipodi:nodetypes="cc" class="st4" d="M386.7,590.4c16.3,54.5-34.7,83.9-51.1,90.5"/>
		<path id="path147" sodipodi:nodetypes="csc" class="st1" d="M480,612.6c-0.6,11-8.8,49.2-3.4,65.7c5.4,16.6,29.9,28.1,35.9,33.7"
			/>
		<path id="path149" sodipodi:nodetypes="cc" class="st4" d="M500.8,621.3c-10.5,28.1-17.7,49.4,23.2,80"/>
		<path id="path151" sodipodi:nodetypes="csc" class="st1" d="M513.7,613.6c3.7,12.5,12.2,58.5,22.5,75.2
			c10.3,16.8,32.8,21.1,39.3,25.3"/>
		<path id="path153" sodipodi:nodetypes="cc" class="st4" d="M529.1,625.1c-5,41.3,3,48.9,35.6,73.7"/>
		<path id="path155" sodipodi:nodetypes="csc" class="st1" d="M631.6,610.5c1.9,9.2-1.1,40.8,11.2,55.2
			c12.3,14.4,52.1,26.1,62.5,31.3"/>
		<path id="path157" sodipodi:nodetypes="cc" class="st4" d="M629,621.4c-20.4,67.1,5.2,77.6,42,82.3"/>
		<path id="path159" sodipodi:nodetypes="csc" class="st1" d="M647.3,609.4c5.9,10.5,21.3,50.6,35.6,63.3s41.5,10.8,49.8,13"/>
		<path id="path161" sodipodi:nodetypes="cc" class="st4" d="M646.2,616.5c-11.9,39.1,1.1,68.6,66.3,82.6"/>
		<path id="path125-2" sodipodi:nodetypes="cszzssssszc" class="st8" d="M423.3,396.9l-28.9-27.5c-4.5-4.3,33.5-37.8,49.6-42.8
			c16.1-5,119.3-9.9,120.9-10.1c1.6-0.1,121.7,26.7,124,28.8s124.3,63.3,100.2,75.8c-4.9,2.5,25.1,28.2,43.5,57.1
			c17.3,27.2,29.3,69.5,24.1,67.1c-31.4-14.6-128.4-92.8-130.1-92c-2.8,1.4-43.7-41.8-163.7-60S441.4,407.4,423.3,396.9L423.3,396.9
			z"/>
		<path id="path125-2-8" sodipodi:nodetypes="zszssszsczz" class="st8" d="M439.4,495c-9.7-14,0-53.7,0-53.7
			c0-6.2-26.9-35.8-10.9-40.8c16.1-5,68.9-14,88-12.8c10.5,0.7,54.4,5.1,94.8,15.4c33.2,8.4,63.8,22.6,73.5,26.9
			c21.4,9.6,71.5,46.1,107.6,69.7c36.1,23.7,60.7,49.3,56.6,51.2c-13.9,6.2-71.2,7.9-126.4,1.2c-2.8,1.4-101.5-12.2-145.6-17
			S449.1,509,439.4,495L439.4,495z"/>
		<path id="path125-2-9" sodipodi:nodetypes="zzsszzz" class="st8" d="M440.4,501.2c6-6.3,27.5,22.6,145.9,37.5
			s201.1,24.4,250.2,18.7c39.9-4.6-86.4,38.5-114.7,51.8c-27,12.7-117.9,8.8-143.8,13.4c-25.9,4.6-133.3-12.2-144.9-23.4
			C421.6,587.9,434.5,507.5,440.4,501.2L440.4,501.2z"/>
	</g>
</g>
<g id="layer1" inkscape:groupmode="layer" inkscape:label="Layer 1" class="st9">
	<a id="a2303" transform="matrix(0.43298969,0,0,0.42857144,317.29883,205.04262)">
		<ellipse id="path2243" class="st10" cx="142.1" cy="552.8" rx="32.6" ry="56.4"/>
		<ellipse id="path2299" class="st11" cx="147.1" cy="530.6" rx="14.8" ry="23.5"/>
	</a>
	<a id="a2303-5" transform="matrix(0.48453609,0,0,0.4404762,265.64818,197.7905)">
		<ellipse id="path2243-8" class="st10" cx="142.1" cy="552.8" rx="32.6" ry="56.4"/>
		<ellipse id="path2299-7" class="st11" cx="147.1" cy="530.6" rx="14.8" ry="23.5"/>
	</a>
</g>
<path id="path123" sodipodi:nodetypes="ssssssssss" class="st5" d="M402.1,473.8L402.1,473.8c0-6.7,5.4-12.1,12-12.1l0,0
	c3.2,0,6.2,1.3,8.5,3.5s3.5,5.3,3.5,8.5l0,0c0,6.7-5.4,12.1-12,12.1l0,0C407.5,485.9,402.1,480.5,402.1,473.8z"/>
</svg>
