<?xml version="1.0" encoding="utf-8"?>
<!-- Generator: Adobe Illustrator 26.1.0, SVG Export Plug-In . SVG Version: 6.00 Build 0)  -->
<svg version="1.1"
	 id="svg189" sodipodi:docname="beetle-v5.svg" xmlns:inkscape="http://www.inkscape.org/namespaces/inkscape" xmlns:sodipodi="http://sodipodi.sourceforge.net/DTD/sodipodi-0.dtd" xmlns:svg="http://www.w3.org/2000/svg"
	 xmlns="http://www.w3.org/2000/svg" xmlns:xlink="http://www.w3.org/1999/xlink" x="0px" y="0px" viewBox="0 0 960 720"
	 style="enable-background:new 0 0 960 720;" xml:space="preserve">
<style type="text/css">
	.st0{clip-path:url(#SVGID_00000038406028624200025910000001651225894850598302_);}
	.st1{fill:none;stroke:#000000;stroke-width:12;stroke-linejoin:round;stroke-miterlimit:10;}
	.st2{fill-rule:evenodd;clip-rule:evenodd;fill-opacity:0;}
	.st3{fill:none;stroke:#000000;stroke-width:6;stroke-linecap:round;stroke-linejoin:round;stroke-miterlimit:10;}
	.st4{fill-rule:evenodd;clip-rule:evenodd;}
	.st5{fill:none;stroke:#000000;stroke-width:6;stroke-linejoin:round;stroke-miterlimit:10;}
	
		.st6{fill-rule:evenodd;clip-rule:evenodd;fill:#FFFFFF;stroke:#000000;stroke-width:6;stroke-linejoin:round;stroke-miterlimit:10;}
	
		.st7{fill-rule:evenodd;clip-rule:evenodd;fill:#FFFFFF;stroke:#000000;stroke-width:12;stroke-linejoin:round;stroke-miterlimit:10;}
	.st8{display:none;}
	.st9{display:inline;}
	.st10{display:inline;fill:#FFFFFF;}
</style>
<sodipodi:namedview  bordercolor="#000000" borderopacity="0.25" id="namedview191" inkscape:current-layer="g187" inkscape:cx="412.72388" inkscape:cy="372.76119" inkscape:deskcolor="#d1d1d1" inkscape:pagecheckerboard="0" inkscape:pageopacity="0.0" inkscape:showpageshadow="2" inkscape:window-height="1346" inkscape:window-maximized="1" inkscape:window-width="2160" inkscape:window-x="-11" inkscape:window-y="-11" inkscape:zoom="1.4888889" pagecolor="#ffffff" showgrid="false">
	</sodipodi:namedview>
<g>
	<defs>
		<rect id="SVGID_1_" y="0" width="960" height="720"/>
	</defs>
	<clipPath id="SVGID_00000003091474396573302760000014546442372013735817_">
		<use xlink:href="#SVGID_1_"  style="overflow:visible;"/>
	</clipPath>
	<g id="g187" style="clip-path:url(#SVGID_00000003091474396573302760000014546442372013735817_);">
		<path id="path109" sodipodi:nodetypes="sssssssss" class="st1" d="M283.9,466.7c5.8-29.3,19.4-64.2,73.3-83s180.2-39.1,250.5-29.5
			c52.6,7.2,204.5,95.3,195.4,170.8c-4,33.6-37.4,60.6-90.6,74.6s-163.9,15.8-228.8,9.1s-127.7-25.5-161-49.2
			C289.4,535.9,278.1,496,283.9,466.7z"/>
		<path id="path111" sodipodi:nodetypes="cssc" class="st2" d="M311.9,452c1.9-3.8,6.6-18.7,11.6-22.9s14.8-6.8,18-2.4
			c3.2,4.4,1.1,24.2,1.3,29"/>
		<path id="path113" sodipodi:nodetypes="czc" class="st3" d="M317.9,450c3-10.4,4.1-25.3,15.5-19.3c11.4,5.9,9.1,20.1,9.3,25"/>
		<path id="path115" sodipodi:nodetypes="cssc" class="st2" d="M372.7,458.1c0.4-5.6-1.6-27.8,2.1-33.8c3.8-6,16.2-8,20.6-2.4
			c4.4,5.6,5,29.9,6,35.8"/>
		<path id="path117" sodipodi:nodetypes="czc" class="st3" d="M372.7,458.1c0.4-5.6,5.5-22.2,16.2-25.1c10.8-2.8,10.3,9.8,12.5,24.7
			"/>
		<path id="path119" sodipodi:nodetypes="csssc" class="st2" d="M311.7,483c1.4,5.9,1.9,26.8,8.4,35.7s20.3,17.1,30.3,17.4
			s23.4-7.6,29.8-15.8s6.9-27.7,8.3-33.2"/>
		<path id="path121" sodipodi:nodetypes="czc" class="st3" d="M318.4,501.2c2.8,19.4,5.2,36.6,32,34.9c26.8-1.6,31.2-18.4,37.2-44.7
			"/>
		<path id="path123" sodipodi:nodetypes="ssssssssss" class="st4" d="M397,480.9L397,480.9c0-6.7,5.4-12.1,12-12.1l0,0
			c3.2,0,6.2,1.3,8.5,3.5s3.5,5.3,3.5,8.5l0,0c0,6.7-5.4,12.1-12,12.1l0,0C402.3,493,397,487.6,397,480.9z"/>
		<path id="path125" sodipodi:nodetypes="ssssssssss" class="st4" d="M297.1,483.4L297.1,483.4c0-6.2,5.4-11.2,12-11.2l0,0
			c3.2,0,6.2,1.2,8.5,3.3s3.5,5,3.5,7.9l0,0c0,6.2-5.4,11.2-12,11.2l0,0C302.5,494.7,297.1,489.6,297.1,483.4z"/>
		<path id="path139" sodipodi:nodetypes="csc" class="st2" d="M405.5,596c0.6,13.2-4.9,61.3,3.4,79.4c8.2,18.2,38.4,24.6,46,29.5"/>
		<path id="path141" sodipodi:nodetypes="cc" class="st3" d="M411.6,596.7c27.9,47.1,10.1,65.3-11,92.2"/>
		<path id="path143" sodipodi:nodetypes="csc" class="st2" d="M389.8,587.6c-1.5,13.6-16.5,64.8-9,81.6s44.9,15.8,53.9,19"/>
		<path id="path145" sodipodi:nodetypes="cc" class="st3" d="M389.8,587.6c4,54.5-37.3,83.9-51.1,90.5"/>
		<path id="path147" sodipodi:nodetypes="csc" class="st2" d="M483,609.7c-0.6,11-8.8,49.2-3.4,65.7c5.4,16.6,29.9,28.1,35.9,33.7"
			/>
		<path id="path149" sodipodi:nodetypes="cc" class="st3" d="M503.8,618.5c-18.1,27.2-24.3,48.6,23.2,80"/>
		<path id="path151" sodipodi:nodetypes="csc" class="st2" d="M516.7,610.8c3.7,12.5,12.2,58.5,22.5,75.2
			c10.3,16.8,32.8,21.1,39.3,25.3"/>
		<path id="path153" sodipodi:nodetypes="cc" class="st3" d="M532.1,622.2c-18.8,45-1.9,50.2,35.6,73.7"/>
		<path id="path155" sodipodi:nodetypes="csc" class="st2" d="M634.6,607.6c1.9,9.2-1.1,40.8,11.2,55.2
			c12.3,14.4,52.1,26.1,62.5,31.3"/>
		<path id="path157" sodipodi:nodetypes="cc" class="st3" d="M634.6,607.6c-19.4,63.7-10,67.8,39.5,87.8"/>
		<path id="path159" sodipodi:nodetypes="csc" class="st2" d="M650.3,606.6c5.9,10.5,21.3,50.6,35.6,63.3s41.5,10.8,49.8,13"/>
		<path id="path161" sodipodi:nodetypes="cc" class="st3" d="M650.3,606.6c4.8,40.4,5.2,71.4,65.2,85"/>
		<path id="path163" sodipodi:nodetypes="cssc" class="st2" d="M340.4,386.5c-2.1-8.8-4.7-38-12.4-52.7
			c-7.7-14.8-18.9-27.6-33.7-35.9c-14.8-8.3-45.9-11.4-55-13.7"/>
		<path id="path165" sodipodi:nodetypes="cc" class="st5" d="M340.4,386.5c-81.4-55.5,20.8-94.5,21.8-123.1"/>
		<path id="path167" sodipodi:nodetypes="cssc" class="st2" d="M369.8,383.4c-2.9-8.8-8.7-37.8-17.2-52.6s-16.9-32.3-33.7-35.9
			c-16.8-3.5-56,12.2-67.3,14.6"/>
		<path id="path169" sodipodi:nodetypes="cc" class="st5" d="M353,381.4c-33.7-44.4,23.8-66.3,53.2-110.1"/>
		<path id="path171" sodipodi:nodetypes="ssssssssss" class="st2" d="M215.4,283.2L215.4,283.2c0-6.2,5.4-11.2,12-11.2l0,0
			c3.2,0,6.2,1.2,8.5,3.3c2.2,2.1,3.5,5,3.5,7.9l0,0c0,6.2-5.4,11.2-12,11.2l0,0C220.7,294.4,215.4,289.4,215.4,283.2z"/>
		<path id="path173" sodipodi:nodetypes="ssssssssss" class="st6" d="M355.7,255L355.7,255c0-6.2,5.4-11.2,12-11.2l0,0
			c3.2,0,6.2,1.2,8.5,3.3c2.2,2.1,3.5,5,3.5,7.9l0,0c0,6.2-5.4,11.2-12,11.2l0,0C361.1,266.2,355.7,261.2,355.7,255L355.7,255z"/>
		<path id="path175" sodipodi:nodetypes="ssssssssss" class="st2" d="M230.3,312.7L230.3,312.7c0-6.2,5.4-11.2,12-11.2l0,0
			c3.2,0,6.2,1.2,8.5,3.3c2.2,2.1,3.5,5,3.5,7.9l0,0c0,6.2-5.4,11.2-12,11.2l0,0C235.7,323.9,230.3,318.9,230.3,312.7z"/>
		<path id="path109-0" sodipodi:nodetypes="zzcsssz" class="st7" d="M409,376.1c-25.3-14.1,50.3-76.9,186.8-57.4
			s258.2,151.4,258.5,226.6c-0.6,15.5-84.4,49.2-137.7,63.1s-243,24.8-285.2-5.7c-9.1-6.6,0.9-56.3,3.1-106.5
			C436.9,444.8,434.4,390.2,409,376.1L409,376.1z"/>
		<path id="path177" sodipodi:nodetypes="ssssssssss" class="st6" d="M400.9,263L400.9,263c0-6.2,5.4-11.2,12-11.2l0,0
			c3.2,0,6.2,1.2,8.5,3.3c2.2,2.1,3.5,5,3.5,7.9l0,0c0,6.2-5.4,11.2-12,11.2l0,0C406.3,274.2,400.9,269.2,400.9,263L400.9,263z"/>
		<a id="a451" transform="translate(-10.746269,-3.358209)">
			<path id="path179" sodipodi:nodetypes="ccssccc" class="st2" d="M478,352.8c-27-71.5-55.7-148.5-38.7-224
				c6.2-26.1,17.5-43.2,37.4-51.3s64-9,82,2.7c18,11.7,24.2,38.7,25.9,67.5c-21.4,47.2,2.6,190.8-40.1,207.6
				C505,364.8,481.6,362.6,478,352.8L478,352.8z"/>
		</a>
		<path id="path145-3" sodipodi:nodetypes="czc" class="st5" d="M854.2,545.2c-1.5,13.6-130.5-164.9-264.9-176.4
			C455,357.3,432.7,398,422.9,401.9"/>
		<path id="path145-3-2" sodipodi:nodetypes="czc" class="st5" d="M850.9,551c-1.5,13.6-101.6-87.6-240.7-105.2
			c-139.1-17.5-175.4,25.9-173.8,24.4"/>
		<path id="path145-3-7" sodipodi:nodetypes="czc" class="st5" d="M830.8,565.1c-4.9,0.2-144,10.4-234,9c-90-1.4-166.6-26.5-165-28"
			/>
		<path id="path145-3-7-8" sodipodi:nodetypes="czc" class="st5" d="M840.5,555.8c-4.9,5.5-144.6-30.5-246.1-42.7
			s-160.6-13.7-159-15.3"/>
	</g>
</g>
<g id="layer1" inkscape:groupmode="layer" inkscape:label="Layer 1" class="st8">
	<a id="a2303" transform="matrix(0.43298969,0,0,0.42857144,317.29883,205.04262)">
		<ellipse id="path2243" class="st9" cx="142.1" cy="552.8" rx="32.6" ry="56.4"/>
		<ellipse id="path2299" class="st10" cx="147.1" cy="530.6" rx="14.8" ry="23.5"/>
	</a>
	<a id="a2303-5" transform="matrix(0.48453609,0,0,0.4404762,265.64818,197.7905)">
		<ellipse id="path2243-8" class="st9" cx="142.1" cy="552.8" rx="32.6" ry="56.4"/>
		<ellipse id="path2299-7" class="st10" cx="147.1" cy="530.6" rx="14.8" ry="23.5"/>
	</a>
</g>
</svg>
